<svg width="21" height="20" viewBox="0 0 21 20" fill="none" xmlns="http://www.w3.org/2000/svg">
<g clip-path="url(#clip0_138_3356)">
<path d="M0.5 15V13.6875C0.5 13.0903 0.805556 12.6042 1.41667 12.2292C2.02778 11.8542 2.83333 11.6667 3.83333 11.6667C4.01389 11.6667 4.1875 11.6701 4.35417 11.6771C4.52083 11.684 4.68056 11.7014 4.83333 11.7292C4.63889 12.0208 4.49306 12.3264 4.39583 12.6458C4.29861 12.9653 4.25 13.2986 4.25 13.6458V15H0.5ZM5.5 15V13.6458C5.5 13.2014 5.62153 12.7951 5.86458 12.4271C6.10764 12.059 6.45139 11.7361 6.89583 11.4583C7.34028 11.1806 7.87153 10.9722 8.48958 10.8333C9.10764 10.6944 9.77778 10.625 10.5 10.625C11.2361 10.625 11.9132 10.6944 12.5312 10.8333C13.1493 10.9722 13.6806 11.1806 14.125 11.4583C14.5694 11.7361 14.9097 12.059 15.1458 12.4271C15.3819 12.7951 15.5 13.2014 15.5 13.6458V15H5.5ZM16.75 15V13.6458C16.75 13.2847 16.7049 12.9444 16.6146 12.625C16.5243 12.3056 16.3889 12.0069 16.2083 11.7292C16.3611 11.7014 16.5174 11.684 16.6771 11.6771C16.8368 11.6701 17 11.6667 17.1667 11.6667C18.1667 11.6667 18.9722 11.8507 19.5833 12.2188C20.1944 12.5868 20.5 13.0764 20.5 13.6875V15H16.75ZM7.27083 13.3333H13.75C13.6111 13.0556 13.2257 12.8125 12.5938 12.6042C11.9618 12.3958 11.2639 12.2917 10.5 12.2917C9.73611 12.2917 9.03819 12.3958 8.40625 12.6042C7.77431 12.8125 7.39583 13.0556 7.27083 13.3333ZM3.83333 10.8333C3.375 10.8333 2.98264 10.6701 2.65625 10.3438C2.32986 10.0174 2.16667 9.625 2.16667 9.16667C2.16667 8.69444 2.32986 8.29861 2.65625 7.97917C2.98264 7.65972 3.375 7.5 3.83333 7.5C4.30556 7.5 4.70139 7.65972 5.02083 7.97917C5.34028 8.29861 5.5 8.69444 5.5 9.16667C5.5 9.625 5.34028 10.0174 5.02083 10.3438C4.70139 10.6701 4.30556 10.8333 3.83333 10.8333ZM17.1667 10.8333C16.7083 10.8333 16.316 10.6701 15.9896 10.3438C15.6632 10.0174 15.5 9.625 15.5 9.16667C15.5 8.69444 15.6632 8.29861 15.9896 7.97917C16.316 7.65972 16.7083 7.5 17.1667 7.5C17.6389 7.5 18.0347 7.65972 18.3542 7.97917C18.6736 8.29861 18.8333 8.69444 18.8333 9.16667C18.8333 9.625 18.6736 10.0174 18.3542 10.3438C18.0347 10.6701 17.6389 10.8333 17.1667 10.8333ZM10.5 10C9.80556 10 9.21528 9.75694 8.72917 9.27083C8.24306 8.78472 8 8.19444 8 7.5C8 6.79167 8.24306 6.19792 8.72917 5.71875C9.21528 5.23958 9.80556 5 10.5 5C11.2083 5 11.8021 5.23958 12.2812 5.71875C12.7604 6.19792 13 6.79167 13 7.5C13 8.19444 12.7604 8.78472 12.2812 9.27083C11.8021 9.75694 11.2083 10 10.5 10ZM10.5 8.33333C10.7361 8.33333 10.934 8.25347 11.0938 8.09375C11.2535 7.93403 11.3333 7.73611 11.3333 7.5C11.3333 7.26389 11.2535 7.06597 11.0938 6.90625C10.934 6.74653 10.7361 6.66667 10.5 6.66667C10.2639 6.66667 10.066 6.74653 9.90625 6.90625C9.74653 7.06597 9.66667 7.26389 9.66667 7.5C9.66667 7.73611 9.74653 7.93403 9.90625 8.09375C10.066 8.25347 10.2639 8.33333 10.5 8.33333Z" fill="white" fill-opacity="0.8"/>
</g>
<defs>
<clipPath id="clip0_138_3356">
<rect width="20" height="20" fill="white" transform="translate(0.5)"/>
</clipPath>
</defs>
</svg>
