<svg width="20" height="20" viewBox="0 0 20 20" fill="none" xmlns="http://www.w3.org/2000/svg">
<path d="M4.42345 17.0827C4.00248 17.0827 3.64616 16.9368 3.35449 16.6452C3.06283 16.3535 2.91699 15.9972 2.91699 15.5762V4.42247C2.91699 4.0015 3.06283 3.64518 3.35449 3.35352C3.64616 3.06185 4.00248 2.91602 4.42345 2.91602H15.5772C15.9982 2.91602 16.3545 3.06185 16.6462 3.35352C16.9378 3.64518 17.0837 4.0015 17.0837 4.42247V15.5762C17.0837 15.9972 16.9378 16.3535 16.6462 16.6452C16.3545 16.9368 15.9982 17.0827 15.5772 17.0827H4.42345ZM4.42345 15.8327H15.5772C15.6414 15.8327 15.7001 15.8059 15.7535 15.7525C15.8069 15.6991 15.8337 15.6404 15.8337 15.5762V4.42247C15.8337 4.35831 15.8069 4.29956 15.7535 4.24622C15.7001 4.19275 15.6414 4.16602 15.5772 4.16602H4.42345C4.35928 4.16602 4.30053 4.19275 4.2472 4.24622C4.19373 4.29956 4.16699 4.35831 4.16699 4.42247V15.5762C4.16699 15.6404 4.19373 15.6991 4.2472 15.7525C4.30053 15.8059 4.35928 15.8327 4.42345 15.8327ZM6.66699 13.9577H10.8337C11.011 13.9577 11.1595 13.8978 11.2791 13.7781C11.3988 13.6585 11.4587 13.51 11.4587 13.3327C11.4587 13.1553 11.3988 13.0068 11.2791 12.8873C11.1595 12.7675 11.011 12.7077 10.8337 12.7077H6.66699C6.48963 12.7077 6.34116 12.7675 6.22158 12.8873C6.10185 13.0068 6.04199 13.1553 6.04199 13.3327C6.04199 13.51 6.10185 13.6585 6.22158 13.7781C6.34116 13.8978 6.48963 13.9577 6.66699 13.9577ZM6.66699 10.6243H13.3337C13.511 10.6243 13.6595 10.5645 13.7791 10.4448C13.8988 10.3252 13.9587 10.1767 13.9587 9.99935C13.9587 9.82199 13.8988 9.67352 13.7791 9.55393C13.6595 9.43421 13.511 9.37435 13.3337 9.37435H6.66699C6.48963 9.37435 6.34116 9.43421 6.22158 9.55393C6.10185 9.67352 6.04199 9.82199 6.04199 9.99935C6.04199 10.1767 6.10185 10.3252 6.22158 10.4448C6.34116 10.5645 6.48963 10.6243 6.66699 10.6243ZM6.66699 7.29102H13.3337C13.511 7.29102 13.6595 7.23115 13.7791 7.11143C13.8988 6.99185 13.9587 6.84338 13.9587 6.66602C13.9587 6.48865 13.8988 6.34018 13.7791 6.2206C13.6595 6.10088 13.511 6.04102 13.3337 6.04102H6.66699C6.48963 6.04102 6.34116 6.10088 6.22158 6.2206C6.10185 6.34018 6.04199 6.48865 6.04199 6.66602C6.04199 6.84338 6.10185 6.99185 6.22158 7.11143C6.34116 7.23115 6.48963 7.29102 6.66699 7.29102Z" fill="white" fill-opacity="0.8"/>
</svg>
