<svg width="26" height="20" viewBox="0 0 26 20" fill="none" xmlns="http://www.w3.org/2000/svg">
<path fill-rule="evenodd" clip-rule="evenodd" d="M14.4348 0.326375C14.538 0.222919 14.6605 0.140838 14.7955 0.084833C14.9305 0.0288281 15.0752 0 15.2213 0C15.3674 0 15.5121 0.0288281 15.6471 0.084833C15.782 0.140838 15.9046 0.222919 16.0078 0.326375L24.8952 9.21376C24.9987 9.31695 25.0807 9.43955 25.1368 9.57451C25.1928 9.70948 25.2216 9.85417 25.2216 10.0003C25.2216 10.1464 25.1928 10.2911 25.1368 10.4261C25.0807 10.561 24.9987 10.6836 24.8952 10.7868L16.0078 19.6742C15.7992 19.8828 15.5163 20 15.2213 20C14.9263 20 14.6434 19.8828 14.4348 19.6742C14.2262 19.4656 14.109 19.1827 14.109 18.8877C14.109 18.5927 14.2262 18.3097 14.4348 18.1011L21.4269 11.1112H1.89022C1.59558 11.1112 1.31302 10.9942 1.10468 10.7858C0.89634 10.5775 0.779297 10.2949 0.779297 10.0003C0.779297 9.70566 0.89634 9.42309 1.10468 9.21475C1.31302 9.00641 1.59558 8.88937 1.89022 8.88937H21.4269L14.4348 1.89944C14.3313 1.79625 14.2492 1.67366 14.1932 1.53869C14.1372 1.40372 14.1084 1.25903 14.1084 1.11291C14.1084 0.966784 14.1372 0.822095 14.1932 0.687128C14.2492 0.552162 14.3313 0.42957 14.4348 0.326375Z" fill="white"/>
</svg>
