<svg width="156" height="156" viewBox="0 0 156 156" fill="none" xmlns="http://www.w3.org/2000/svg">
<path d="M58.5 48.75H107.25V19.5C107.25 16.9141 106.223 14.4342 104.394 12.6057C102.566 10.7772 100.086 9.75 97.5 9.75H19.5C16.9141 9.75 14.4342 10.7772 12.6057 12.6057C10.7772 14.4342 9.75 16.9141 9.75 19.5V97.5C9.75 100.086 10.7772 102.566 12.6057 104.394C14.4342 106.223 16.9141 107.25 19.5 107.25H48.75V58.5C48.75 55.9141 49.7772 53.4342 51.6057 51.6057C53.4342 49.7772 55.9141 48.75 58.5 48.75Z" fill="white"/>
<path d="M136.5 48.75H107.25V97.5C107.25 100.086 106.223 102.566 104.394 104.394C102.566 106.223 100.086 107.25 97.5 107.25H48.75V136.5C48.75 139.086 49.7772 141.566 51.6057 143.394C53.4342 145.223 55.9141 146.25 58.5 146.25H136.5C139.086 146.25 141.566 145.223 143.394 143.394C145.223 141.566 146.25 139.086 146.25 136.5V58.5C146.25 55.9141 145.223 53.4342 143.394 51.6057C141.566 49.7772 139.086 48.75 136.5 48.75Z" fill="white"/>
</svg>
