<svg xmlns="http://www.w3.org/2000/svg" width="1280" height="400" fill="none"><mask id="a" width="2239" height="1280" x="-480" y="-440" maskUnits="userSpaceOnUse" style="mask-type:luminance"><path fill="#fff" d="M1759-439.53H-479.926V839.859H1759z"/></mask><g fill="#fff" fill-opacity=".01" mask="url(#a)"><path d="M1928.7 1007.56H-649.598V-607.237H1928.7zm-2574.963-3.32H1925.37V-603.902H-646.263z"/><path d="M1927.04 359.647H-647.93v3.335h2574.97zm0-80.574H-647.93v3.335h2574.97zm0-80.573H-647.93v3.335h2574.97zm0-80.572H-647.93v3.335h2574.97zm0-80.575H-647.93v3.334h2574.97z"/><path d="M1226.43-605.571h-3.34V1005.9h3.34zm-78.02 0h-3.34V1005.9h3.34zm-78.02 0h-3.33V1005.9h3.33zm-78.036 0h-3.334V1005.9h3.334zm-78.026 0h-3.335V1005.9h3.335zm-78.036.003h-3.335V1005.9h3.335zm-78.023-.003h-3.335V1005.9h3.335zm-78.036 0h-3.335V1005.9h3.335zm-78.027 0h-3.335V1005.9h3.335zm-78.027 0h-3.335V1005.9h3.335zm-78.028 0h-3.335V1005.9h3.335zm-78.035.003h-3.335V1005.9h3.335zm-78.023-.003h-3.335V1005.9h3.335zm-78.039 0h-3.335V1005.9h3.335zm-78.024 0h-3.335V1005.9h3.335zm-78.027 0h-3.335V1005.9h3.335z"/></g></svg>