<svg width="61" height="18" viewBox="0 0 61 18" fill="none" xmlns="http://www.w3.org/2000/svg">
<g clip-path="url(#clip0_1101_5309)">
<path d="M8.81928 0.745117H11.7021L8.67808 9.00029H3.18313L0.170898 0.745117H3.05369L5.93649 8.6347L8.81928 0.745117ZM19.1274 0.745117C21.3983 0.745117 23.2457 2.59663 23.2457 4.8727C23.2457 7.16057 21.3983 9.00029 19.1274 9.00029H15.8328C13.5501 9.00029 11.7145 7.16057 11.7145 4.8727C11.7145 2.59663 13.5501 0.745117 15.8328 0.745117H19.1274ZM18.845 6.80677C19.904 6.80677 20.7747 5.94588 20.7747 4.8727C20.7747 3.81132 19.904 2.95043 18.845 2.95043H16.1034C15.0444 2.95043 14.1855 3.81132 14.1855 4.8727C14.1855 5.94588 15.0444 6.80677 16.1034 6.80677H18.845ZM34.9903 3.72877C34.9903 4.99063 34.2137 6.06381 33.1077 6.50015L34.9903 9.00029H32.1428L30.4365 6.71243H26.7536V9.00029H24.2827V0.745117H32.0134C33.6489 0.745117 34.9903 2.08953 34.9903 3.72877ZM26.7536 2.85608V4.60146H31.6486C32.1193 4.60146 32.5193 4.21229 32.5193 3.72877C32.5193 3.24526 32.1193 2.85608 31.6486 2.85608H26.7536ZM42.65 0.745117C44.9209 0.745117 46.7682 2.59663 46.7682 4.8727C46.7682 7.16057 44.9209 9.00029 42.65 9.00029H36.0607V0.745117H42.65ZM42.3676 6.80677C43.4266 6.80677 44.2973 5.94588 44.2973 4.8727C44.2973 3.81132 43.4266 2.95043 42.3676 2.95043H38.5317V6.80677H42.3676ZM57.3172 0.745117L53.4931 4.8727L57.3172 9.00029H54.0697L51.8693 6.62988L49.6808 9.00029H46.4332L50.2456 4.8727L46.4332 0.745117H49.6808L51.8693 3.12732L54.0697 0.745117H57.3172Z" fill="white"/>
<path d="M60.3596 8.99978H57.8887V6.71191H60.3596V8.99978Z" fill="#A1F919"/>
<path d="M4.66622 16.9482H4.28173V13.4139H2.78711V13.0342H6.15545V13.4139H4.66622V16.9482Z" fill="white"/>
<path d="M9.75955 17.0066C8.89852 17.0066 8.35156 16.4224 8.35156 15.5053C8.35156 14.629 8.8931 14.0039 9.75413 14.0039C10.5394 14.0039 11.0972 14.4946 11.0972 15.3533C11.0972 15.4585 11.0863 15.5461 11.0701 15.6221H8.7144C8.73605 16.2705 9.04473 16.6619 9.75413 16.6619C10.3823 16.6619 10.6747 16.4107 10.6747 15.9901V15.9492H11.0593V15.9901C11.0593 16.5918 10.5069 17.0066 9.75955 17.0066ZM9.74871 14.3486C9.05557 14.3486 8.74147 14.7341 8.7144 15.365H10.7343C10.7343 15.3358 10.7343 15.3066 10.7343 15.2774C10.7343 14.6699 10.3769 14.3486 9.74871 14.3486Z" fill="white"/>
<path d="M14.8343 17.0066C13.9787 17.0066 13.4209 16.3815 13.4209 15.5053C13.4209 14.629 13.9787 14.0039 14.8343 14.0039C15.5816 14.0039 16.1665 14.4829 16.1665 15.1781V15.2248H15.7874V15.1898C15.7874 14.6757 15.4408 14.3836 14.8289 14.3836C14.1141 14.3836 13.8054 14.7984 13.8054 15.5053C13.8054 16.2121 14.1141 16.6269 14.8289 16.6269C15.4408 16.6269 15.7874 16.3348 15.7874 15.8207V15.7857H16.1665V15.8324C16.1665 16.5276 15.5816 17.0066 14.8343 17.0066Z" fill="white"/>
<path d="M19.0164 16.9482H18.6318V13.0342H19.0164V14.9444H19.0434C19.1301 14.4596 19.4766 14.0039 20.159 14.0039C20.9063 14.0039 21.2799 14.5414 21.2799 15.2716V16.9482H20.8955V15.3242C20.8955 14.664 20.6085 14.3836 20.0073 14.3836C19.2925 14.3836 19.0164 14.8743 19.0164 15.5929V16.9482Z" fill="white"/>
<path d="M24.2497 16.9482H23.8652V14.0623H24.2118V14.9678H24.2389C24.331 14.4771 24.71 14.0039 25.3761 14.0039C26.1289 14.0039 26.5025 14.5822 26.5025 15.2657V16.9482H26.118V15.3241C26.118 14.7283 25.8527 14.3836 25.2407 14.3836C24.5909 14.3836 24.2497 14.8101 24.2497 15.552V16.9482Z" fill="white"/>
<path d="M30.3879 17.0066C29.516 17.0066 28.9365 16.3815 28.9365 15.5053C28.9365 14.629 29.516 14.0039 30.3879 14.0039C31.2652 14.0039 31.8446 14.629 31.8446 15.5053C31.8446 16.3815 31.2652 17.0066 30.3879 17.0066ZM30.3879 16.6327C31.1243 16.6327 31.4656 16.2063 31.4656 15.5053C31.4656 14.8101 31.1243 14.3778 30.3879 14.3778C29.6514 14.3778 29.3156 14.8101 29.3156 15.5053C29.3156 16.2063 29.6514 16.6327 30.3879 16.6327Z" fill="white"/>
<path d="M34.6902 16.9482H34.3057V13.0342H34.6902V16.9482Z" fill="white"/>
<path d="M38.5968 17.0066C37.7249 17.0066 37.1455 16.3815 37.1455 15.5053C37.1455 14.629 37.7249 14.0039 38.5968 14.0039C39.474 14.0039 40.0534 14.629 40.0534 15.5053C40.0534 16.3815 39.474 17.0066 38.5968 17.0066ZM38.5968 16.6327C39.3331 16.6327 39.6744 16.2063 39.6744 15.5053C39.6744 14.8101 39.3331 14.3778 38.5968 14.3778C37.8602 14.3778 37.5245 14.8101 37.5245 15.5053C37.5245 16.2063 37.8602 16.6327 38.5968 16.6327Z" fill="white"/>
<path d="M43.6634 16.7145C42.8673 16.7145 42.3799 16.1478 42.3799 15.3592C42.3799 14.5706 42.8837 14.0039 43.7067 14.0039C44.27 14.0039 44.714 14.2902 44.8224 14.8042H44.8493V14.0623H45.1961V16.6736C45.1961 17.6258 44.6381 17.9997 43.8312 17.9997C43.1057 17.9997 42.5533 17.6083 42.5533 16.9365H42.9379C42.9379 17.4447 43.2518 17.6434 43.8476 17.6434C44.5406 17.6434 44.8115 17.4155 44.8115 16.697V15.9434H44.7843C44.6762 16.3874 44.2808 16.7145 43.6634 16.7145ZM42.7645 15.3592C42.7645 16.0953 43.1868 16.3465 43.7662 16.3465C44.4269 16.3465 44.8115 15.9901 44.8115 15.3767V15.2774C44.8115 14.7108 44.4108 14.3719 43.7934 14.3719C43.1924 14.3719 42.7645 14.6231 42.7645 15.3592Z" fill="white"/>
<path d="M48.1805 13.6943H47.7959V13.0342H48.1805V13.6943ZM48.1805 16.9482H47.7959V14.0623H48.1805V16.9482Z" fill="white"/>
<path d="M52.0496 17.0066C51.1884 17.0066 50.6416 16.4224 50.6416 15.5053C50.6416 14.629 51.1829 14.0039 52.044 14.0039C52.8292 14.0039 53.3869 14.4946 53.3869 15.3533C53.3869 15.4585 53.3761 15.5461 53.36 15.6221H51.0042C51.0259 16.2705 51.3346 16.6619 52.044 16.6619C52.6722 16.6619 52.9646 16.4107 52.9646 15.9901V15.9492H53.3491V15.9901C53.3491 16.5918 52.7967 17.0066 52.0496 17.0066ZM52.0387 14.3486C51.3454 14.3486 51.0314 14.7341 51.0042 15.365H53.0243C53.0243 15.3358 53.0243 15.3066 53.0243 15.2774C53.0243 14.6699 52.6667 14.3486 52.0387 14.3486Z" fill="white"/>
<path d="M57.0214 17.0066C56.1983 17.0066 55.7218 16.6502 55.7218 15.9843V15.9726H56.1064V16.0076C56.1064 16.4925 56.3717 16.6619 57.0269 16.6619C57.6279 16.6619 57.8339 16.51 57.8339 16.1771C57.8339 15.8733 57.666 15.774 57.222 15.698L56.507 15.587C56.0197 15.5169 55.7109 15.3125 55.7109 14.8334C55.7109 14.3252 56.1605 14.0039 56.8969 14.0039C57.666 14.0039 58.1643 14.3544 58.1643 15.032V15.0437H57.7797V15.0145C57.7797 14.5822 57.5685 14.3486 56.886 14.3486C56.3228 14.3486 56.0899 14.4946 56.0899 14.8393C56.0899 15.1372 56.2308 15.2424 56.6749 15.3125L57.3301 15.4118C57.9042 15.4994 58.2129 15.7097 58.2129 16.1771C58.2129 16.7203 57.7146 17.0066 57.0214 17.0066Z" fill="white"/>
</g>
<defs>
<clipPath id="clip0_1101_5309">
<rect width="61" height="18" fill="white"/>
</clipPath>
</defs>
</svg>
