<svg width="20" height="20" viewBox="0 0 20 20" fill="none" xmlns="http://www.w3.org/2000/svg">
<path d="M1.66406 17.5V2.5H9.9974V5.83333H18.3307V17.5H1.66406ZM3.33073 15.8333H4.9974V14.1667H3.33073V15.8333ZM3.33073 12.5H4.9974V10.8333H3.33073V12.5ZM3.33073 9.16667H4.9974V7.5H3.33073V9.16667ZM3.33073 5.83333H4.9974V4.16667H3.33073V5.83333ZM6.66406 15.8333H8.33073V14.1667H6.66406V15.8333ZM6.66406 12.5H8.33073V10.8333H6.66406V12.5ZM6.66406 9.16667H8.33073V7.5H6.66406V9.16667ZM6.66406 5.83333H8.33073V4.16667H6.66406V5.83333ZM9.9974 15.8333H16.6641V7.5H9.9974V9.16667H11.6641V10.8333H9.9974V12.5H11.6641V14.1667H9.9974V15.8333ZM13.3307 10.8333V9.16667H14.9974V10.8333H13.3307ZM13.3307 14.1667V12.5H14.9974V14.1667H13.3307Z" fill="white" fill-opacity="0.8"/>
</svg>
