<svg width="52" height="52" viewBox="0 0 52 52" fill="none" xmlns="http://www.w3.org/2000/svg">
<path d="M0 26C0 11.6406 11.6406 0 26 0C40.3594 0 52 11.6406 52 26C52 40.3594 40.3594 52 26 52C11.6406 52 0 40.3594 0 26Z" fill="#2F3136"/>
<path d="M26 33.35C28.0333 31.4833 29.5417 29.7875 30.525 28.2625C31.5083 26.7375 32 25.3833 32 24.2C32 22.3833 31.4208 20.8958 30.2625 19.7375C29.1042 18.5792 27.6833 18 26 18C24.3167 18 22.8958 18.5792 21.7375 19.7375C20.5792 20.8958 20 22.3833 20 24.2C20 25.3833 20.4917 26.7375 21.475 28.2625C22.4583 29.7875 23.9667 31.4833 26 33.35ZM26 35.325C25.7667 35.325 25.5333 35.2833 25.3 35.2C25.0667 35.1167 24.8583 34.9917 24.675 34.825C23.5917 33.825 22.6333 32.85 21.8 31.9C20.9667 30.95 20.2708 30.0292 19.7125 29.1375C19.1542 28.2458 18.7292 27.3875 18.4375 26.5625C18.1458 25.7375 18 24.95 18 24.2C18 21.7 18.8042 19.7083 20.4125 18.225C22.0208 16.7417 23.8833 16 26 16C28.1167 16 29.9792 16.7417 31.5875 18.225C33.1958 19.7083 34 21.7 34 24.2C34 24.95 33.8542 25.7375 33.5625 26.5625C33.2708 27.3875 32.8458 28.2458 32.2875 29.1375C31.7292 30.0292 31.0333 30.95 30.2 31.9C29.3667 32.85 28.4083 33.825 27.325 34.825C27.1417 34.9917 26.9333 35.1167 26.7 35.2C26.4667 35.2833 26.2333 35.325 26 35.325ZM26 26C26.55 26 27.0208 25.8042 27.4125 25.4125C27.8042 25.0208 28 24.55 28 24C28 23.45 27.8042 22.9792 27.4125 22.5875C27.0208 22.1958 26.55 22 26 22C25.45 22 24.9792 22.1958 24.5875 22.5875C24.1958 22.9792 24 23.45 24 24C24 24.55 24.1958 25.0208 24.5875 25.4125C24.9792 25.8042 25.45 26 26 26Z" fill="white"/>
</svg>
