<svg width="52" height="52" viewBox="0 0 52 52" fill="none" xmlns="http://www.w3.org/2000/svg">
<rect width="52" height="52" rx="26" fill="#2F3136"/>
<path d="M18 34C17.45 34 16.9792 33.8042 16.5875 33.4125C16.1958 33.0208 16 32.55 16 32V20C16 19.45 16.1958 18.9792 16.5875 18.5875C16.9792 18.1958 17.45 18 18 18H34C34.55 18 35.0208 18.1958 35.4125 18.5875C35.8042 18.9792 36 19.45 36 20V32C36 32.55 35.8042 33.0208 35.4125 33.4125C35.0208 33.8042 34.55 34 34 34H18ZM34 22L26.525 26.675C26.4417 26.725 26.3542 26.7625 26.2625 26.7875C26.1708 26.8125 26.0833 26.825 26 26.825C25.9167 26.825 25.8292 26.8125 25.7375 26.7875C25.6458 26.7625 25.5583 26.725 25.475 26.675L18 22V32H34V22ZM26 25L34 20H18L26 25ZM18 22.25V20.775V20.8V20.7875V22.25Z" fill="white"/>
</svg>
