<svg width="52" height="52" viewBox="0 0 52 52" fill="none" xmlns="http://www.w3.org/2000/svg">
<path d="M0 26C0 11.6406 11.6406 0 26 0C40.3594 0 52 11.6406 52 26C52 40.3594 40.3594 52 26 52C11.6406 52 0 40.3594 0 26Z" fill="#2F3136"/>
<path d="M33.95 35C31.8667 35 29.8083 34.5458 27.775 33.6375C25.7417 32.7292 23.8917 31.4417 22.225 29.775C20.5583 28.1083 19.2708 26.2583 18.3625 24.225C17.4542 22.1917 17 20.1333 17 18.05C17 17.75 17.1 17.5 17.3 17.3C17.5 17.1 17.75 17 18.05 17H22.1C22.3333 17 22.5417 17.0792 22.725 17.2375C22.9083 17.3958 23.0167 17.5833 23.05 17.8L23.7 21.3C23.7333 21.5667 23.725 21.7917 23.675 21.975C23.625 22.1583 23.5333 22.3167 23.4 22.45L20.975 24.9C21.3083 25.5167 21.7042 26.1125 22.1625 26.6875C22.6208 27.2625 23.125 27.8167 23.675 28.35C24.1917 28.8667 24.7333 29.3458 25.3 29.7875C25.8667 30.2292 26.4667 30.6333 27.1 31L29.45 28.65C29.6 28.5 29.7958 28.3875 30.0375 28.3125C30.2792 28.2375 30.5167 28.2167 30.75 28.25L34.2 28.95C34.4333 29.0167 34.625 29.1375 34.775 29.3125C34.925 29.4875 35 29.6833 35 29.9V33.95C35 34.25 34.9 34.5 34.7 34.7C34.5 34.9 34.25 35 33.95 35ZM20.025 23L21.675 21.35L21.25 19H19.025C19.1083 19.6833 19.225 20.3583 19.375 21.025C19.525 21.6917 19.7417 22.35 20.025 23ZM28.975 31.95C29.625 32.2333 30.2875 32.4583 30.9625 32.625C31.6375 32.7917 32.3167 32.9 33 32.95V30.75L30.65 30.275L28.975 31.95Z" fill="white"/>
</svg>
