<svg width="21" height="20" viewBox="0 0 21 20" fill="none" xmlns="http://www.w3.org/2000/svg">
<path d="M10.5 9.74355C9.69792 9.74355 9.01132 9.458 8.44021 8.88688C7.86896 8.31563 7.58333 7.62897 7.58333 6.82688C7.58333 6.0248 7.86896 5.3382 8.44021 4.76709C9.01132 4.19584 9.69792 3.91022 10.5 3.91022C11.3021 3.91022 11.9887 4.19584 12.5598 4.76709C13.131 5.3382 13.4167 6.0248 13.4167 6.82688C13.4167 7.62897 13.131 8.31563 12.5598 8.88688C11.9887 9.458 11.3021 9.74355 10.5 9.74355ZM4.25 14.8238V14.2371C4.25 13.829 4.36083 13.4511 4.5825 13.1033C4.80417 12.7556 5.10042 12.4882 5.47125 12.3013C6.29486 11.8975 7.12576 11.5947 7.96396 11.3927C8.80215 11.1908 9.6475 11.0898 10.5 11.0898C11.3525 11.0898 12.1978 11.1908 13.036 11.3927C13.8742 11.5947 14.7051 11.8975 15.5288 12.3013C15.8996 12.4882 16.1958 12.7556 16.4175 13.1033C16.6392 13.4511 16.75 13.829 16.75 14.2371V14.8238C16.75 15.1751 16.6269 15.474 16.3806 15.7204C16.1344 15.9667 15.8355 16.0898 15.484 16.0898H5.51604C5.16451 16.0898 4.86562 15.9667 4.61937 15.7204C4.37312 15.474 4.25 15.1751 4.25 14.8238ZM5.5 14.8398H15.5V14.2371C15.5 14.0683 15.4511 13.9121 15.3533 13.7683C15.2556 13.6247 15.1228 13.5075 14.9552 13.4167C14.2372 13.0631 13.5051 12.7951 12.759 12.6129C12.0127 12.4308 11.2597 12.3398 10.5 12.3398C9.74028 12.3398 8.98729 12.4308 8.24104 12.6129C7.49493 12.7951 6.76285 13.0631 6.04479 13.4167C5.87715 13.5075 5.74444 13.6247 5.64667 13.7683C5.54889 13.9121 5.5 14.0683 5.5 14.2371V14.8398ZM10.5 8.49355C10.9583 8.49355 11.3507 8.33036 11.6771 8.00397C12.0035 7.67758 12.1667 7.28522 12.1667 6.82688C12.1667 6.36855 12.0035 5.97619 11.6771 5.6498C11.3507 5.32341 10.9583 5.16022 10.5 5.16022C10.0417 5.16022 9.64931 5.32341 9.32292 5.6498C8.99653 5.97619 8.83333 6.36855 8.83333 6.82688C8.83333 7.28522 8.99653 7.67758 9.32292 8.00397C9.64931 8.33036 10.0417 8.49355 10.5 8.49355Z" fill="white" fill-opacity="0.8"/>
</svg>
