<svg width="56" height="56" viewBox="0 0 56 56" fill="none" xmlns="http://www.w3.org/2000/svg">
<rect width="56" height="56" rx="8" fill="white" fill-opacity="0.99"/>
<path d="M21.7369 27.8002C22.0994 27.0756 22.4857 26.3772 22.8959 25.7052C23.3062 25.0334 23.7583 24.3702 24.2523 23.7156L22.2959 23.3232C22.2275 23.3061 22.1613 23.3082 22.0973 23.3296C22.0331 23.3511 21.9753 23.3874 21.9239 23.4386L18.9059 26.4566C18.8804 26.4823 18.8718 26.5123 18.8803 26.5466C18.8889 26.5806 18.9104 26.6061 18.9446 26.6232L21.7369 27.8002ZM37.4059 18.2362C35.6026 18.332 33.8688 18.7854 32.2046 19.5966C30.5406 20.4077 29.0035 21.5183 27.5933 22.9286C26.6342 23.8874 25.7879 24.9002 25.0546 25.9669C24.3213 27.0336 23.7469 28.0634 23.3316 29.0566L27.1189 32.8232C28.1121 32.4079 29.1441 31.8336 30.2149 31.1002C31.2858 30.3669 32.3008 29.5208 33.2599 28.5619C34.6702 27.1517 35.7808 25.62 36.5919 23.9669C37.4031 22.314 37.8565 20.5858 37.9523 18.7822C37.9523 18.7104 37.9419 18.6408 37.9213 18.5732C37.9008 18.5057 37.8616 18.4429 37.8036 18.3849C37.7454 18.3267 37.6825 18.2873 37.6149 18.2669C37.5474 18.2464 37.4777 18.2362 37.4059 18.2362ZM30.1753 25.9926C29.7239 25.5412 29.4983 24.9926 29.4983 24.3466C29.4983 23.7003 29.7239 23.1516 30.1753 22.7002C30.6266 22.2489 31.1787 22.0232 31.8316 22.0232C32.4847 22.0232 33.0368 22.2489 33.4879 22.7002C33.9393 23.1516 34.1649 23.7003 34.1649 24.3466C34.1649 24.9926 33.9393 25.5412 33.4879 25.9926C33.0368 26.4439 32.4847 26.6696 31.8316 26.6696C31.1787 26.6696 30.6266 26.4439 30.1753 25.9926ZM28.3753 34.4309L29.5523 37.2439C29.5694 37.2781 29.5949 37.2973 29.6289 37.3016C29.6632 37.3058 29.6932 37.2951 29.7189 37.2696L32.7369 34.2642C32.7881 34.2129 32.8244 34.1552 32.8459 34.0912C32.8673 34.027 32.8694 33.9608 32.8523 33.8926L32.4599 31.9362C31.8053 32.4302 31.1421 32.8789 30.4703 33.2822C29.7983 33.6856 29.0999 34.0684 28.3753 34.4309ZM39.8573 17.6056C39.9411 19.9389 39.5304 22.1554 38.6253 24.2552C37.7202 26.3552 36.3274 28.3454 34.4469 30.2259C34.4043 30.2686 34.3637 30.307 34.3253 30.3412C34.2868 30.3754 34.2463 30.4139 34.2036 30.4566L34.8189 33.4872C34.8992 33.889 34.8791 34.2797 34.7586 34.6592C34.6382 35.0386 34.4352 35.371 34.1496 35.6566L30.1933 39.6129C29.8942 39.912 29.5326 40.0249 29.1086 39.9516C28.6846 39.878 28.3923 39.6403 28.2316 39.2386L26.4163 34.9719L21.2036 29.7462L16.9369 27.9309C16.5352 27.7702 16.2963 27.478 16.2203 27.0542C16.1443 26.6302 16.2558 26.2687 16.5549 25.9696L20.5113 22.0132C20.7968 21.7277 21.1327 21.5268 21.5189 21.4106C21.9052 21.2943 22.2992 21.2763 22.7009 21.3566L25.7316 21.9722C25.7745 21.9293 25.8108 21.8908 25.8406 21.8566C25.8706 21.8226 25.9069 21.7841 25.9496 21.7412C27.8301 19.861 29.8203 18.4661 31.9203 17.5566C34.0203 16.6472 36.2369 16.2344 38.5703 16.3182C38.7309 16.332 38.8894 16.3713 39.0456 16.4362C39.2021 16.5011 39.3427 16.596 39.4676 16.7209C39.5923 16.8456 39.6849 16.984 39.7456 17.1362C39.8063 17.2882 39.8435 17.4447 39.8573 17.6056ZM18.0293 33.4286C18.6788 32.779 19.4707 32.4529 20.4049 32.4502C21.3389 32.4478 22.1307 32.7713 22.7803 33.4209C23.4298 34.0704 23.7513 34.8622 23.7446 35.7962C23.7377 36.7304 23.4095 37.5223 22.7599 38.1719C21.8557 39.0761 20.7891 39.6261 19.5599 39.8219C18.3308 40.0177 17.0941 40.1899 15.8496 40.3386C15.9985 39.0857 16.1729 37.8468 16.3729 36.6219C16.5729 35.3972 17.1251 34.3328 18.0293 33.4286ZM19.4549 34.8462C19.0685 35.2327 18.8009 35.6926 18.6523 36.2259C18.5036 36.7592 18.3891 37.3079 18.3086 37.8719C18.8728 37.7917 19.4216 37.6784 19.9549 37.5322C20.4883 37.386 20.9481 37.1198 21.3343 36.7336C21.6009 36.4669 21.7412 36.1468 21.7549 35.7732C21.7685 35.3997 21.6419 35.0796 21.3753 34.8129C21.1086 34.5462 20.7885 34.4184 20.4149 34.4296C20.0416 34.4407 19.7216 34.5796 19.4549 34.8462Z" fill="#3E03B3"/>
</svg>
