<svg width="56" height="56" viewBox="0 0 56 56" fill="none" xmlns="http://www.w3.org/2000/svg">
<rect x="0.00146484" width="56" height="56" rx="8" fill="white" fill-opacity="0.99"/>
<path d="M37.3374 23.3333C37.7152 23.3333 38.0318 23.2056 38.2874 22.95C38.543 22.6944 38.6707 22.3778 38.6707 22C38.6707 21.6222 38.543 21.3056 38.2874 21.05C38.0318 20.7944 37.7152 20.6667 37.3374 20.6667C36.9596 20.6667 36.643 20.7944 36.3874 21.05C36.1318 21.3056 36.0041 21.6222 36.0041 22C36.0041 22.3778 36.1318 22.6944 36.3874 22.95C36.643 23.2056 36.9596 23.3333 37.3374 23.3333ZM37.3364 25.3333C36.3917 25.3333 35.6002 25.0142 34.9617 24.376C34.3233 23.7376 34.0041 22.9466 34.0041 22.003C34.0041 21.0779 34.3233 20.2906 34.9617 19.641C35.6 18.9914 36.3908 18.6667 37.3344 18.6667C38.2595 18.6667 39.0468 18.9909 39.6964 19.6393C40.346 20.2876 40.6707 21.0748 40.6707 22.001C40.6707 22.9457 40.3465 23.7372 39.6981 24.3757C39.0498 25.0141 38.2626 25.3333 37.3364 25.3333ZM28.0041 22C28.5596 22 29.0318 21.8111 29.4207 21.4333C29.8096 21.0556 30.0041 20.5778 30.0041 20C30.0041 19.4444 29.8096 18.9722 29.4207 18.5833C29.0318 18.1944 28.5596 18 28.0041 18C27.4263 18 26.9485 18.1944 26.5707 18.5833C26.193 18.9722 26.0041 19.4444 26.0041 20C26.0041 20.5778 26.193 21.0556 26.5707 21.4333C26.9485 21.8111 27.4263 22 28.0041 22ZM28.0047 24C26.8812 24 25.9335 23.6147 25.1617 22.844C24.39 22.0733 24.0041 21.1268 24.0041 20.0043C24.0041 18.9006 24.3894 17.9572 25.1601 17.1743C25.9307 16.3914 26.8774 16 28.0001 16C29.1036 16 30.0468 16.3904 30.8297 17.1713C31.6126 17.952 32.0041 18.8947 32.0041 19.9993C32.0041 21.1229 31.6136 22.0706 30.8327 22.8423C30.0521 23.6141 29.1094 24 28.0047 24ZM22.3117 29.8333C22.3117 30.5684 22.6758 31.3976 23.4041 32.3207C24.1323 33.2436 25.5844 34.6931 27.7604 36.6693L28.0041 36.8873L28.2734 36.6307C30.3623 34.7418 31.7883 33.3254 32.5514 32.3817C33.3147 31.4379 33.6964 30.5884 33.6964 29.8333C33.6964 29.2222 33.4952 28.704 33.0927 28.2787C32.6905 27.8536 32.1943 27.641 31.6041 27.641C31.2407 27.641 30.897 27.7204 30.5727 27.8793C30.2483 28.0384 29.9758 28.2573 29.7554 28.536L28.2707 30.3077H27.7171L26.2194 28.536C25.999 28.2573 25.7285 28.0384 25.4081 27.8793C25.0874 27.7204 24.7527 27.641 24.4041 27.641C23.7872 27.641 23.2842 27.8536 22.8951 28.2787C22.5062 28.704 22.3117 29.2222 22.3117 29.8333ZM20.3117 29.8333C20.3117 28.7411 20.6968 27.7693 21.4671 26.918C22.2371 26.0667 23.2161 25.641 24.4041 25.641C25.0758 25.641 25.7113 25.7966 26.3104 26.1077C26.9095 26.4188 27.4185 26.8324 27.8374 27.3487L28.0041 27.541L28.1707 27.336C28.5981 26.8282 29.1057 26.4188 29.6937 26.1077C30.2817 25.7966 30.9185 25.641 31.6041 25.641C32.7836 25.641 33.7605 26.0706 34.5347 26.9297C35.3092 27.789 35.6964 28.7569 35.6964 29.8333C35.6964 30.9427 35.2793 32.0547 34.4451 33.1693C33.6108 34.2838 31.9442 35.9838 29.4451 38.2693L28.0041 39.5897L26.5887 38.3077C24.0281 35.9659 22.3417 34.2476 21.5297 33.1527C20.7177 32.0578 20.3117 30.9513 20.3117 29.8333ZM18.6707 23.3333C19.0485 23.3333 19.3652 23.2056 19.6207 22.95C19.8763 22.6944 20.0041 22.3778 20.0041 22C20.0041 21.6222 19.8763 21.3056 19.6207 21.05C19.3652 20.7944 19.0485 20.6667 18.6707 20.6667C18.293 20.6667 17.9763 20.7944 17.7207 21.05C17.4652 21.3056 17.3374 21.6222 17.3374 22C17.3374 22.3778 17.4652 22.6944 17.7207 22.95C17.9763 23.2056 18.293 23.3333 18.6707 23.3333ZM28.1041 40.6667V38.6667H38.6707V29.7437C38.6707 29.6326 38.6302 29.5363 38.5491 29.455C38.4677 29.3739 38.3715 29.3333 38.2604 29.3333H34.7887V27.3333H38.2604C38.9233 27.3333 39.4907 27.5693 39.9627 28.0413C40.4347 28.5133 40.6707 29.0808 40.6707 29.7437V39.4607C40.6707 39.8049 40.5552 40.0919 40.3241 40.3217C40.0932 40.5517 39.807 40.6667 39.4654 40.6667H28.1041ZM17.3374 38.6667H28.1041V40.6667H16.5427C16.2012 40.6667 15.915 40.5511 15.6841 40.32C15.453 40.0891 15.3374 39.8029 15.3374 39.4613V29.748C15.3374 29.0802 15.5684 28.5108 16.0304 28.0397C16.4924 27.5688 17.0648 27.3333 17.7477 27.3333H21.2194V29.3333H17.7477C17.628 29.3333 17.5296 29.3739 17.4527 29.455C17.3758 29.5363 17.3374 29.6326 17.3374 29.7437V38.6667ZM18.6697 25.3333C17.7251 25.3333 16.9335 25.0142 16.2951 24.376C15.6566 23.7376 15.3374 22.9466 15.3374 22.003C15.3374 21.0779 15.6566 20.2906 16.2951 19.641C16.9333 18.9914 17.7242 18.6667 18.6677 18.6667C19.5928 18.6667 20.3802 18.9909 21.0297 19.6393C21.6793 20.2876 22.0041 21.0748 22.0041 22.001C22.0041 22.9457 21.6798 23.7372 21.0314 24.3757C20.3832 25.0141 19.596 25.3333 18.6697 25.3333Z" fill="#3E03B3"/>
</svg>
