<svg width="56" height="56" viewBox="0 0 56 56" fill="none" xmlns="http://www.w3.org/2000/svg">
<rect x="0.00146484" width="56" height="56" rx="8" fill="white" fill-opacity="0.99"/>
<path d="M23.9501 41.4126C22.9279 41.4126 22.0219 41.1246 21.2321 40.5486C20.4426 39.9726 19.864 39.2094 19.4965 38.259C19.1836 38.717 18.772 39.0695 18.2618 39.3166C17.7516 39.5635 17.2204 39.687 16.6681 39.687C15.6375 39.687 14.7687 39.3302 14.0618 38.6166C13.3549 37.9029 13.0015 37.0374 13.0015 36.0203C13.0015 35.1332 13.2998 34.3299 13.8965 33.6103C14.4929 32.8905 15.2476 32.5008 16.1605 32.441C15.7809 32.0136 15.4844 31.5308 15.2708 30.9923C15.057 30.4539 14.9501 29.8898 14.9501 29.3C14.9501 28.8195 15.0352 28.3499 15.2055 27.891C15.3755 27.4321 15.622 27.0163 15.9451 26.6436C16.0974 26.4043 16.3029 26.2492 16.5618 26.1783C16.8207 26.1072 17.0698 26.1478 17.3091 26.3C17.5485 26.4522 17.7049 26.6578 17.7785 26.9166C17.852 27.1755 17.8127 27.4246 17.6605 27.664C17.4349 27.9015 17.2657 28.1626 17.1528 28.4473C17.0399 28.732 16.9835 29.0273 16.9835 29.3333C16.9835 30.5693 17.4437 31.3732 18.3641 31.745C19.2848 32.1168 20.2322 32.3932 21.2065 32.5743C21.3416 32.6103 21.4635 32.662 21.5721 32.7293C21.6806 32.7969 21.7707 32.8871 21.8425 33C21.9142 33.1129 21.9515 33.2312 21.9541 33.355C21.9566 33.479 21.933 33.6085 21.8835 33.7436C21.6528 34.3692 21.4729 34.9038 21.3438 35.3473C21.2147 35.7909 21.1501 36.2059 21.1501 36.5923C21.1501 37.3445 21.4211 38.0005 21.9631 38.5603C22.5049 39.1201 23.163 39.4 23.9375 39.4C24.7255 39.4 25.3921 39.115 25.9375 38.545C26.4828 37.9748 26.9384 37.2713 27.3041 36.4346C27.6699 35.5978 27.9626 34.711 28.1821 33.7743C28.4019 32.8376 28.5827 32.0026 28.7245 31.2693C28.7827 30.9684 28.9289 30.7338 29.1631 30.5653C29.3974 30.3971 29.6495 30.3556 29.9195 30.441C30.2117 30.5265 30.4266 30.6996 30.5641 30.9603C30.7019 31.221 30.7349 31.5018 30.6631 31.8026C30.4716 32.7649 30.2309 33.8068 29.9411 34.9283C29.6514 36.0496 29.2582 37.0906 28.7618 38.0513C28.2651 39.012 27.6305 39.8124 26.8578 40.4526C26.0851 41.0926 25.1159 41.4126 23.9501 41.4126ZM32.0348 41.4256C31.7372 41.417 31.4907 41.317 31.2951 41.1256C31.0994 40.9341 31.0057 40.6964 31.0141 40.4126C31.0228 40.1291 31.125 39.8894 31.3208 39.6936C31.5164 39.4979 31.756 39.4043 32.0398 39.413C32.8278 39.413 33.4949 39.133 34.0411 38.573C34.5874 38.0132 34.8605 37.3461 34.8605 36.5716C34.8605 36.1768 34.7904 35.7494 34.6501 35.2896C34.5099 34.8299 34.3176 34.2692 34.0731 33.6076C34.0374 33.4948 34.0195 33.3853 34.0195 33.2793C34.0195 33.1735 34.0554 33.071 34.1271 32.9716C34.1989 32.8725 34.2754 32.7948 34.3565 32.7383C34.4378 32.6821 34.5417 32.636 34.6681 32.6C35.6648 32.4189 36.6426 32.1415 37.6015 31.768C38.5604 31.3944 39.0398 30.576 39.0398 29.3126C39.0398 28.3298 38.6865 27.6084 37.9798 27.1486C37.2729 26.6889 36.4878 26.459 35.6245 26.459C34.8296 26.459 33.9104 26.5902 32.8668 26.8526C31.8232 27.1149 30.6331 27.4614 29.2965 27.8923C28.9956 27.9776 28.7079 27.9695 28.4335 27.868C28.1592 27.7662 27.9794 27.5692 27.8938 27.277C27.8082 26.9845 27.8531 26.7123 28.0285 26.4603C28.2036 26.2081 28.4374 26.0393 28.7298 25.954C30.104 25.518 31.3471 25.1555 32.4591 24.8666C33.5711 24.5778 34.6075 24.4333 35.5681 24.4333C37.0075 24.4333 38.2792 24.859 39.3835 25.7103C40.4877 26.5616 41.0398 27.7624 41.0398 29.3126C41.0398 29.9024 40.9351 30.4602 40.7258 30.986C40.5165 31.5115 40.222 31.9965 39.8425 32.441C40.7554 32.5094 41.51 32.8992 42.1065 33.6103C42.7031 34.3214 43.0015 35.1248 43.0015 36.0203C43.0015 37.029 42.648 37.8923 41.9411 38.6103C41.2342 39.3281 40.3655 39.687 39.3348 39.687C38.7826 39.687 38.2514 39.5635 37.7411 39.3166C37.2309 39.0695 36.8194 38.717 36.5065 38.259C36.1389 39.1956 35.5595 39.9542 34.7681 40.5346C33.9766 41.1149 33.0655 41.4119 32.0348 41.4256ZM24.5451 31.4693C22.8767 29.9564 21.5357 28.5859 20.5221 27.3576C19.5084 26.1294 19.0015 24.7991 19.0015 23.3666C19.0015 22.0162 19.4639 20.8786 20.3888 19.954C21.3135 19.0291 22.451 18.5666 23.8015 18.5666C23.9672 18.5666 24.1156 18.5765 24.2465 18.5963C24.3771 18.6159 24.5082 18.6384 24.6398 18.664C24.5425 18.4504 24.4674 18.2346 24.4145 18.0166C24.3614 17.7986 24.3348 17.5674 24.3348 17.323C24.3348 16.3061 24.6917 15.4408 25.4055 14.727C26.119 14.0132 26.9844 13.6563 28.0015 13.6563C29.0186 13.6563 29.8839 14.0132 30.5975 14.727C31.3112 15.4408 31.6681 16.3061 31.6681 17.323C31.6681 17.5674 31.6416 17.7952 31.5885 18.0063C31.5356 18.2174 31.4605 18.4299 31.3631 18.6436C31.4536 18.6181 31.5847 18.5989 31.7565 18.586C31.9282 18.5731 32.0766 18.5666 32.2015 18.5666C32.8648 18.5666 33.481 18.6983 34.0501 18.9616C34.6195 19.2248 35.1135 19.5829 35.5321 20.036C35.7492 20.2155 35.8651 20.4382 35.8798 20.704C35.8942 20.9698 35.8117 21.2112 35.6321 21.4283C35.4528 21.6454 35.2302 21.7612 34.9645 21.7756C34.6985 21.7901 34.457 21.7076 34.2401 21.5283C33.9921 21.2223 33.6968 20.9855 33.3541 20.818C33.0112 20.6504 32.627 20.5666 32.2015 20.5666C31.4477 20.5666 30.8412 20.7688 30.3821 21.173C29.9232 21.5772 29.3391 22.1896 28.6298 23.0103C28.5442 23.1094 28.4476 23.1838 28.3398 23.2333C28.2322 23.2829 28.1152 23.3076 27.9888 23.3076C27.8621 23.3076 27.7437 23.2829 27.6335 23.2333C27.5232 23.1838 27.4254 23.1094 27.3398 23.0103C26.6169 22.159 26.0306 21.5389 25.5808 21.15C25.1312 20.7611 24.5381 20.5666 23.8015 20.5666C22.9964 20.5666 22.3284 20.832 21.7975 21.3626C21.2668 21.8935 21.0015 22.5615 21.0015 23.3666C21.0015 24.3255 21.4425 25.3299 22.3245 26.3796C23.2065 27.4292 24.4176 28.6573 25.9578 30.064C26.2005 30.2709 26.3496 30.5239 26.4051 30.823C26.4607 31.1221 26.3851 31.3751 26.1785 31.582C25.9578 31.8024 25.6911 31.8939 25.3785 31.8563C25.0656 31.8188 24.7878 31.6898 24.5451 31.4693ZM16.6681 37.6873C17.1315 37.6873 17.5251 37.5253 17.8491 37.2013C18.1729 36.8773 18.3348 36.4836 18.3348 36.0203C18.3348 35.5572 18.1729 35.1636 17.8491 34.8396C17.5251 34.5156 17.1315 34.3536 16.6681 34.3536C16.205 34.3536 15.8115 34.5156 15.4875 34.8396C15.1635 35.1636 15.0015 35.5572 15.0015 36.0203C15.0015 36.4836 15.1635 36.8773 15.4875 37.2013C15.8115 37.5253 16.205 37.6873 16.6681 37.6873ZM28.0015 18.9896C28.4648 18.9896 28.8584 18.8278 29.1821 18.504C29.5061 18.18 29.6681 17.7863 29.6681 17.323C29.6681 16.8599 29.5061 16.4663 29.1821 16.1423C28.8584 15.8183 28.4648 15.6563 28.0015 15.6563C27.5381 15.6563 27.1446 15.8183 26.8208 16.1423C26.4968 16.4663 26.3348 16.8599 26.3348 17.323C26.3348 17.7863 26.4968 18.18 26.8208 18.504C27.1446 18.8278 27.5381 18.9896 28.0015 18.9896ZM39.3681 37.6873C39.8312 37.6873 40.2192 37.5253 40.5321 37.2013C40.845 36.8773 41.0015 36.4836 41.0015 36.0203C41.0015 35.5572 40.8395 35.1581 40.5155 34.823C40.1915 34.4879 39.7979 34.3203 39.3348 34.3203C38.8715 34.3203 38.4778 34.4823 38.1538 34.8063C37.83 35.1303 37.6681 35.5239 37.6681 35.987C37.6681 36.4503 37.8356 36.8495 38.1705 37.1846C38.5056 37.5198 38.9048 37.6873 39.3681 37.6873Z" fill="#3E03B3"/>
</svg>
