<svg width="57" height="56" viewBox="0 0 57 56" fill="none" xmlns="http://www.w3.org/2000/svg">
<rect x="0.666504" width="56" height="56" rx="8" fill="white" fill-opacity="0.99"/>
<path d="M28.3842 38.628C28.5157 38.628 28.6495 38.5972 28.7855 38.5356C28.9213 38.4741 29.0285 38.404 29.1072 38.3253L39.7712 27.6613C40.0721 27.3604 40.2986 27.039 40.4509 26.697C40.6029 26.3552 40.6789 25.9963 40.6789 25.6203C40.6789 25.2305 40.6029 24.8553 40.4509 24.4946C40.2986 24.1338 40.0721 23.8098 39.7712 23.5226L34.4379 18.1893C34.1507 17.8884 33.8396 17.6683 33.5045 17.529C33.1696 17.3899 32.8073 17.3203 32.4175 17.3203C32.0415 17.3203 31.6804 17.3899 31.3342 17.529C30.988 17.6683 30.6687 17.8884 30.3765 18.1893L29.6122 18.9536L32.0789 21.4406C32.378 21.7262 32.599 22.0519 32.7419 22.4176C32.8845 22.7834 32.9559 23.1629 32.9559 23.556C32.9559 24.3698 32.6841 25.0484 32.1405 25.592C31.597 26.1355 30.9183 26.4073 30.1045 26.4073C29.7114 26.4073 29.3306 26.3423 28.9622 26.2123C28.594 26.0825 28.2671 25.8749 27.9815 25.5893L25.7509 23.3793C25.674 23.3022 25.5756 23.2636 25.4559 23.2636C25.3363 23.2636 25.2381 23.3022 25.1612 23.3793L19.6612 28.879C19.5603 28.9799 19.4846 29.0928 19.4342 29.2176C19.3837 29.3423 19.3585 29.4705 19.3585 29.6023C19.3585 29.8483 19.4423 30.0585 19.6099 30.233C19.7774 30.4074 19.9842 30.4946 20.2302 30.4946C20.362 30.4946 20.4957 30.4639 20.6315 30.4023C20.7675 30.3408 20.8749 30.2706 20.9535 30.192L24.6302 26.515C24.8149 26.3303 25.0435 26.2324 25.3162 26.2213C25.5889 26.2102 25.8286 26.3081 26.0355 26.515C26.2286 26.7081 26.3252 26.9423 26.3252 27.2176C26.3252 27.4928 26.2286 27.7269 26.0355 27.92L22.3789 31.597C22.2782 31.6979 22.2026 31.8108 22.1522 31.9356C22.1017 32.0603 22.0765 32.1885 22.0765 32.3203C22.0765 32.5579 22.1624 32.7625 22.3342 32.9343C22.506 33.1061 22.7106 33.192 22.9482 33.192C23.08 33.192 23.2137 33.1612 23.3495 33.0996C23.4855 33.0381 23.5927 32.968 23.6712 32.8893L27.5022 29.079C27.6869 28.8945 27.9154 28.7968 28.1879 28.7856C28.4605 28.7745 28.7003 28.8723 28.9072 29.079C29.1003 29.2723 29.1969 29.5065 29.1969 29.7816C29.1969 30.0568 29.1003 30.291 28.9072 30.4843L25.0969 34.315C25.0046 34.3936 24.9312 34.5009 24.8765 34.6366C24.8219 34.7726 24.7945 34.9064 24.7945 35.038C24.7945 35.2758 24.8804 35.4805 25.0522 35.6523C25.224 35.8241 25.4286 35.91 25.6662 35.91C25.7977 35.91 25.926 35.8848 26.0509 35.8343C26.1755 35.7839 26.2883 35.7082 26.3892 35.6073L30.2202 31.797C30.4046 31.6123 30.6332 31.5144 30.9059 31.5033C31.1785 31.4922 31.4183 31.5901 31.6252 31.797C31.8183 31.9901 31.9149 32.2243 31.9149 32.4996C31.9149 32.7748 31.8183 33.009 31.6252 33.2023L27.7945 37.033C27.6936 37.1339 27.618 37.251 27.5675 37.3843C27.5171 37.5176 27.4919 37.6459 27.4919 37.769C27.4919 38.015 27.5833 38.2196 27.7662 38.383C27.9491 38.5463 28.1551 38.628 28.3842 38.628ZM28.3635 40.6276C27.6098 40.6276 26.9525 40.3662 26.3919 39.8433C25.8312 39.3202 25.5381 38.6689 25.5125 37.8893C24.757 37.838 24.1257 37.5696 23.6189 37.0843C23.112 36.5988 22.8372 35.9611 22.7945 35.1713C22.0047 35.1202 21.3663 34.8442 20.8792 34.3433C20.3919 33.8424 20.1311 33.2124 20.0969 32.4533C19.3037 32.4022 18.6491 32.1146 18.1329 31.5906C17.6166 31.0666 17.3585 30.4039 17.3585 29.6023C17.3585 29.2092 17.4333 28.8241 17.5829 28.447C17.7324 28.0701 17.95 27.739 18.2355 27.4536L23.7482 21.9406C24.208 21.4809 24.7738 21.251 25.4455 21.251C26.1175 21.251 26.6834 21.4809 27.1432 21.9406L29.3612 24.1586C29.4396 24.2509 29.5425 24.3244 29.6699 24.3793C29.7974 24.434 29.9355 24.4613 30.0842 24.4613C30.3269 24.4613 30.5362 24.381 30.7122 24.2203C30.8884 24.0596 30.9765 23.8493 30.9765 23.5893C30.9765 23.4406 30.9492 23.3026 30.8945 23.1753C30.8396 23.048 30.7661 22.945 30.6739 22.8663L25.9969 18.1893C25.7098 17.8884 25.3965 17.6683 25.0572 17.529C24.7179 17.3899 24.3533 17.3203 23.9635 17.3203C23.5875 17.3203 23.2307 17.3899 22.8932 17.529C22.5554 17.6683 22.2362 17.8884 21.9355 18.1893L17.5559 22.5893C17.1679 22.9773 16.9072 23.4444 16.7739 23.9906C16.6405 24.5369 16.6542 25.0681 16.8149 25.5843C16.8731 25.8594 16.8231 26.1094 16.6649 26.3343C16.5069 26.559 16.2902 26.6935 16.0149 26.738C15.7397 26.7824 15.4876 26.7291 15.2585 26.578C15.0294 26.4266 14.8926 26.2133 14.8482 25.938C14.638 25.0851 14.6372 24.236 14.8459 23.3906C15.0543 22.5453 15.4824 21.7988 16.1302 21.151L20.4969 16.7843C20.9962 16.2988 21.5394 15.9334 22.1265 15.6883C22.7136 15.443 23.3303 15.3203 23.9765 15.3203C24.6225 15.3203 25.237 15.443 25.8199 15.6883C26.403 15.9334 26.9372 16.2988 27.4225 16.7843L28.1869 17.5483L28.9509 16.7843C29.45 16.2988 29.991 15.9334 30.5739 15.6883C31.1567 15.443 31.7713 15.3203 32.4175 15.3203C33.0637 15.3203 33.6804 15.443 34.2675 15.6883C34.8546 15.9334 35.391 16.2988 35.8765 16.7843L41.1765 22.0843C41.6619 22.5699 42.0336 23.1224 42.2919 23.742C42.5499 24.3615 42.6789 24.9944 42.6789 25.6406C42.6789 26.2869 42.5499 26.9014 42.2919 27.4843C42.0336 28.0672 41.6619 28.6013 41.1765 29.0866L30.5122 39.7303C30.2182 40.0243 29.8871 40.2474 29.5189 40.3996C29.1504 40.5516 28.7653 40.6276 28.3635 40.6276Z" fill="#3E03B3"/>
</svg>
