<svg width="56" height="56" viewBox="0 0 56 56" fill="none" xmlns="http://www.w3.org/2000/svg">
<rect width="56" height="56" rx="8" fill="white" fill-opacity="0.99"/>
<path d="M28.054 29.3713L19.9487 37.4893C19.7418 37.6962 19.502 37.7996 19.2293 37.7996C18.9569 37.7996 18.7172 37.6962 18.5103 37.4893C18.3034 37.2824 18.2 37.0427 18.2 36.7703C18.2 36.4976 18.3034 36.2578 18.5103 36.051L30.9283 23.6663H26.3333V25.333C26.3333 25.6163 26.2374 25.8537 26.0457 26.0453C25.8539 26.2371 25.6163 26.333 25.333 26.333C25.0494 26.333 24.812 26.2371 24.6207 26.0453C24.4291 25.8537 24.3333 25.6163 24.3333 25.333V22.8776C24.3333 22.5298 24.4488 22.2411 24.6797 22.0113C24.9108 21.7813 25.197 21.6663 25.5383 21.6663H32.0307C32.3529 21.6663 32.66 21.7287 32.952 21.8536C33.2438 21.9783 33.4991 22.1501 33.718 22.369L37.564 26.1816C38.0598 26.6774 38.6192 27.086 39.2423 27.4073C39.8654 27.7286 40.5386 27.9474 41.2617 28.0636C41.5528 28.113 41.8054 28.2403 42.0197 28.4456C42.2339 28.651 42.341 28.8976 42.341 29.1856C42.341 29.4736 42.2218 29.71 41.9833 29.8946C41.7449 30.0791 41.4838 30.1534 41.2 30.1176C40.2342 30.0014 39.3398 29.739 38.5167 29.3303C37.6936 28.9218 36.935 28.3774 36.241 27.697L34.7283 26.1433L31.1923 29.6663L33.0103 31.497C33.2957 31.7825 33.4128 32.1184 33.3617 32.5046C33.3103 32.8911 33.1129 33.1868 32.7693 33.392L26.9333 36.751C26.6991 36.8858 26.4433 36.9198 26.166 36.853C25.8884 36.7858 25.6824 36.635 25.548 36.4003C25.4136 36.1656 25.3846 35.9097 25.461 35.6326C25.5377 35.3553 25.6951 35.1494 25.9333 35.015L30.859 32.1766L28.054 29.3713ZM17.6667 28.9996C17.3833 28.9996 17.1459 28.9037 16.9543 28.712C16.7626 28.5202 16.6667 28.2826 16.6667 27.9993C16.6667 27.7157 16.7626 27.4783 16.9543 27.287C17.1459 27.0954 17.3833 26.9996 17.6667 26.9996H21.6667C21.95 26.9996 22.1876 27.0955 22.3793 27.2873C22.5709 27.4791 22.6667 27.7166 22.6667 28C22.6667 28.2835 22.5709 28.521 22.3793 28.7123C22.1876 28.9038 21.95 28.9996 21.6667 28.9996H17.6667ZM15 24.9996C14.7167 24.9996 14.4792 24.9037 14.2877 24.712C14.0959 24.5202 14 24.2826 14 23.9993C14 23.7157 14.0959 23.4783 14.2877 23.287C14.4792 23.0954 14.7167 22.9996 15 22.9996H19C19.2833 22.9996 19.5209 23.0955 19.7127 23.2873C19.9042 23.4791 20 23.7166 20 24C20 24.2835 19.9042 24.521 19.7127 24.7123C19.5209 24.9038 19.2833 24.9996 19 24.9996H15ZM37.9667 22.333C37.3189 22.333 36.7624 22.103 36.2973 21.643C35.8324 21.183 35.6 20.63 35.6 19.984C35.6 19.338 35.8324 18.786 36.2973 18.328C36.7624 17.8697 37.3189 17.6406 37.9667 17.6406C38.6144 17.6406 39.1709 17.8706 39.636 18.3306C40.1009 18.7906 40.3333 19.3436 40.3333 19.9896C40.3333 20.6356 40.1009 21.1876 39.636 21.6456C39.1709 22.1038 38.6144 22.333 37.9667 22.333ZM17.6667 20.9996C17.3833 20.9996 17.1459 20.9037 16.9543 20.712C16.7626 20.5202 16.6667 20.2826 16.6667 19.9993C16.6667 19.7157 16.7626 19.4783 16.9543 19.287C17.1459 19.0954 17.3833 18.9996 17.6667 18.9996H21.6667C21.95 18.9996 22.1876 19.0955 22.3793 19.2873C22.5709 19.4791 22.6667 19.7166 22.6667 20C22.6667 20.2835 22.5709 20.521 22.3793 20.7123C22.1876 20.9038 21.95 20.9996 21.6667 20.9996H17.6667Z" fill="#3E03B3"/>
</svg>
