<svg width="57" height="56" viewBox="0 0 57 56" fill="none" xmlns="http://www.w3.org/2000/svg">
<rect x="0.666504" width="56" height="56" rx="8" fill="white" fill-opacity="0.99"/>
<path d="M28.6652 38.116C28.3217 38.116 27.9892 38.0433 27.6679 37.898C27.3466 37.7526 27.0653 37.5373 26.8242 37.252L16.7269 25.1543C16.544 24.9356 16.4068 24.6969 16.3152 24.438C16.2239 24.1789 16.1782 23.9067 16.1782 23.6213C16.1782 23.4382 16.197 23.254 16.2346 23.0686C16.2721 22.8831 16.3379 22.7058 16.4319 22.5367L18.8679 17.6597C19.0866 17.2579 19.3844 16.9365 19.7616 16.6957C20.1384 16.4545 20.5568 16.334 21.0166 16.334H36.3139C36.7737 16.334 37.192 16.4545 37.5689 16.6957C37.946 16.9365 38.2439 17.2579 38.4626 17.6597L40.8986 22.5367C40.9926 22.7058 41.0583 22.8831 41.0959 23.0686C41.1334 23.254 41.1522 23.4382 41.1522 23.6213C41.1522 23.9067 41.1066 24.1789 41.0152 24.438C40.9237 24.6969 40.7864 24.9356 40.6036 25.1543L30.5062 37.252C30.2651 37.5373 29.9839 37.7526 29.6626 37.898C29.3412 38.0433 29.0088 38.116 28.6652 38.116ZM24.9599 23.0007H32.3706L30.0369 18.334H27.2936L24.9599 23.0007ZM27.6652 35.157V25.0007H19.2266L27.6652 35.157ZM29.6652 35.157L38.1039 25.0007H29.6652V35.157ZM34.5936 23.0007H38.8706L36.6526 18.5647C36.6183 18.4964 36.567 18.4409 36.4986 18.398C36.4301 18.3553 36.3574 18.334 36.2806 18.334H32.2599L34.5936 23.0007ZM18.4599 23.0007H22.7369L25.0706 18.334H21.0499C20.973 18.334 20.9003 18.3553 20.8319 18.398C20.7634 18.4409 20.7121 18.4964 20.6779 18.5647L18.4599 23.0007Z" fill="#3E03B3"/>
</svg>
