<svg width="156" height="156" viewBox="0 0 156 156" fill="none" xmlns="http://www.w3.org/2000/svg">
<g clip-path="url(#clip0_484_132)">
<path d="M145.785 118.547C148.096 117.245 148.885 114.36 147.553 112.103C146.219 109.848 143.266 109.074 140.955 110.377L77.8839 145.94L15.0439 110.51C12.7362 109.207 9.78259 109.978 8.44684 112.236C7.11414 114.492 7.90632 117.377 10.2152 118.678L75.2843 155.367C75.8497 155.687 76.4728 155.891 77.1176 155.968C77.7623 156.044 78.4159 155.993 79.0405 155.815C79.6294 155.725 80.1972 155.529 80.7163 155.237L145.785 118.547Z" fill="white"/>
<path d="M75.2613 37.0659C75.8594 36.7303 76.5179 36.5162 77.1991 36.4358C77.8802 36.3555 78.5704 36.4106 79.2302 36.5979C79.8437 36.693 80.4352 36.8973 80.9767 37.2012L149.766 75.8008C151.665 76.8672 152.601 78.9409 152.27 80.9318C152.504 82.663 151.835 84.4795 149.813 85.6203L81.0217 124.41C80.4741 124.719 79.8745 124.925 79.2527 125.018C78.5921 125.206 77.9009 125.261 77.219 125.18C76.5371 125.099 75.878 124.883 75.2796 124.547L6.49092 85.7598C4.48607 84.6301 3.81271 82.833 4.02904 81.1164C3.53667 79.0323 4.46779 76.7904 6.46776 75.6674L75.2613 37.0659ZM77.9974 47.017L17.9587 80.7081L78.0309 114.58L138.07 80.7264L77.9974 47.017Z" fill="white"/>
<path d="M79.1335 0.207306C79.7781 0.307606 80.3996 0.522664 80.9683 0.842275L153.231 41.3907C155.071 42.423 156.05 44.3535 155.92 46.2864C156.297 48.3912 155.322 50.5935 153.316 51.722L81.0536 92.4709C80.478 92.7953 79.8479 93.0117 79.1944 93.1096C78.5006 93.3064 77.7746 93.3639 77.0584 93.2789C76.3422 93.1939 75.6499 92.9679 75.0214 92.6142L2.75868 51.8689C0.87266 50.8074 -0.10234 48.7952 0.100582 46.8099C-0.332074 44.6679 0.64902 42.3998 2.69774 41.2493L74.9635 0.7009C75.5918 0.347934 76.2836 0.122621 76.9992 0.0379128C77.7149 -0.0467952 78.4402 0.0107724 79.1335 0.207306Z" fill="white"/>
</g>
<defs>
<clipPath id="clip0_484_132">
<rect width="156" height="156" fill="white"/>
</clipPath>
</defs>
</svg>
