<svg width="80" height="80" viewBox="0 0 80 80" fill="none" xmlns="http://www.w3.org/2000/svg">
<path d="M14.7417 68H65.2583C66.0788 67.9999 66.8852 67.7883 67.5987 67.3861C68.3123 66.9839 68.9085 66.4047 69.3292 65.7051C69.7499 65.0056 69.9806 64.2097 69.9988 63.3951C70.0171 62.5805 69.8222 61.7752 69.4332 61.0578L44.1764 14.477C42.3846 11.1743 37.6154 11.1743 35.8236 14.477L10.5668 61.0578C10.1778 61.7752 9.98293 62.5805 10.0012 63.3951C10.0194 64.2097 10.2501 65.0056 10.6708 65.7051C11.0915 66.4047 11.6877 66.9839 12.4013 67.3861C13.1148 67.7883 13.9212 67.9999 14.7417 68Z" stroke="#DF0000" stroke-width="3" stroke-linecap="round" stroke-linejoin="round"/>
<path d="M39.0007 30.8836L40.0007 49L40.999 30.891C41.0051 30.7752 40.9835 30.6596 40.9355 30.5512C40.8875 30.4428 40.814 30.3439 40.7196 30.2605C40.6252 30.1771 40.5118 30.111 40.3864 30.0662C40.261 30.0214 40.1262 29.9989 39.9902 30C39.8567 30.0012 39.7247 30.0251 39.6021 30.0704C39.4796 30.1157 39.3689 30.1814 39.2767 30.2638C39.1844 30.3462 39.1125 30.4434 39.0651 30.5499C39.0177 30.6563 38.9958 30.7698 39.0007 30.8836Z" stroke="#DF0000" stroke-width="3" stroke-linecap="round" stroke-linejoin="round"/>
<path d="M40 61C39.4067 61 38.8266 60.8241 38.3333 60.4944C37.8399 60.1648 37.4554 59.6962 37.2284 59.148C37.0013 58.5999 36.9419 57.9967 37.0576 57.4147C37.1734 56.8328 37.4591 56.2982 37.8787 55.8787C38.2982 55.4591 38.8328 55.1734 39.4147 55.0576C39.9967 54.9419 40.5999 55.0013 41.148 55.2284C41.6962 55.4554 42.1648 55.8399 42.4944 56.3333C42.8241 56.8266 43 57.4067 43 58C43 58.7957 42.6839 59.5587 42.1213 60.1213C41.5587 60.6839 40.7957 61 40 61Z" fill="#DF0000"/>
</svg>
