<svg width="48" height="48" viewBox="0 0 48 48" fill="none" xmlns="http://www.w3.org/2000/svg">
<rect width="48" height="48" rx="24" fill="white"/>
<path d="M10 17.3421C10 16.1905 10.461 15.0861 11.2816 14.2718C12.1022 13.4575 13.2152 13 14.3757 13H33.6243C34.7848 13 35.8978 13.4575 36.7184 14.2718C37.539 15.0861 38 16.1905 38 17.3421V17.3537L23.9977 24.4713L10 17.3583V17.3421ZM10 19.3094V30.6579C10 31.8095 10.461 32.9139 11.2816 33.7282C12.1022 34.5425 13.2152 35 14.3757 35H33.6243C34.7848 35 35.8978 34.5425 36.7184 33.7282C37.539 32.9139 38 31.8095 38 30.6579V19.3059L24.3967 26.2208C24.2732 26.2836 24.1364 26.3164 23.9977 26.3164C23.8589 26.3164 23.7221 26.2836 23.5986 26.2208L10 19.3094Z" fill="black"/>
</svg>
