<svg width="52" height="52" viewBox="0 0 52 52" fill="none" xmlns="http://www.w3.org/2000/svg">
<rect width="52" height="52" rx="26" fill="white" fill-opacity="0.08"/>
<path d="M28.2508 16.875C27.0242 16.875 25.8478 17.3623 24.9804 18.2296C24.1131 19.097 23.6258 20.2734 23.6258 21.5V24.075H21.1508C21.0268 24.075 20.9258 24.175 20.9258 24.3V27.7C20.9258 27.824 21.0258 27.925 21.1508 27.925H23.6258V34.9C23.6258 35.024 23.7258 35.125 23.8508 35.125H27.2508C27.3748 35.125 27.4758 35.025 27.4758 34.9V27.925H29.9728C30.0758 27.925 30.1658 27.855 30.1908 27.755L31.0408 24.355C31.0491 24.3218 31.0498 24.2872 31.0428 24.2537C31.0357 24.2202 31.0212 24.1888 31.0001 24.1618C30.9791 24.1348 30.9522 24.1129 30.9215 24.0979C30.8908 24.0829 30.857 24.075 30.8228 24.075H27.4758V21.5C27.4758 21.3982 27.4958 21.2974 27.5348 21.2034C27.5737 21.1094 27.6308 21.024 27.7028 20.952C27.7747 20.88 27.8602 20.8229 27.9542 20.784C28.0482 20.745 28.149 20.725 28.2508 20.725H30.8508C30.9748 20.725 31.0758 20.625 31.0758 20.5V17.1C31.0758 16.976 30.9758 16.875 30.8508 16.875H28.2508Z" fill="white"/>
</svg>
