<svg width="156" height="156" viewBox="0 0 156 156" fill="none" xmlns="http://www.w3.org/2000/svg">
<path d="M2.00004 54.6584C1.9836 41.4599 6.93244 28.7378 15.8643 19.0171C24.7961 9.29648 37.0579 3.28803 50.2158 2.18441C63.3737 1.08079 76.4658 4.96267 86.8934 13.0595C97.3209 21.1564 104.322 32.8763 106.506 45.893H80.9231C71.6201 45.893 62.6982 49.587 56.12 56.1623C49.5418 62.7377 45.8462 71.6558 45.8462 80.9547V106.526C20.9591 102.342 2.00004 80.7152 2.00004 54.6584ZM54.6154 80.9547C54.6154 73.9805 57.3871 67.2919 62.3208 62.3604C67.2544 57.4289 73.9459 54.6584 80.9231 54.6584H127.692C134.67 54.6584 141.361 57.4289 146.295 62.3604C151.228 67.2919 154 73.9805 154 80.9547V127.704C154 134.678 151.228 141.367 146.295 146.298C141.361 151.23 134.67 154 127.692 154H80.9231C73.9459 154 67.2544 151.23 62.3208 146.298C57.3871 141.367 54.6154 134.678 54.6154 127.704V80.9547Z" fill="white"/>
</svg>
