<svg width="52" height="52" viewBox="0 0 52 52" fill="none" xmlns="http://www.w3.org/2000/svg">
<rect width="52" height="52" rx="26" fill="white" fill-opacity="0.08"/>
<path fill-rule="evenodd" clip-rule="evenodd" d="M17 25C17 21.229 17 19.343 18.172 18.172C19.344 17.001 21.229 17 25 17H27C30.771 17 32.657 17 33.828 18.172C34.999 19.344 35 21.229 35 25V27C35 30.771 35 32.657 33.828 33.828C32.656 34.999 30.771 35 27 35H25C21.229 35 19.343 35 18.172 33.828C17.001 32.656 17 30.771 17 27V25ZM32 21.5C32 21.8978 31.842 22.2794 31.5607 22.5607C31.2794 22.842 30.8978 23 30.5 23C30.1022 23 29.7206 22.842 29.4393 22.5607C29.158 22.2794 29 21.8978 29 21.5C29 21.1022 29.158 20.7206 29.4393 20.4393C29.7206 20.158 30.1022 20 30.5 20C30.8978 20 31.2794 20.158 31.5607 20.4393C31.842 20.7206 32 21.1022 32 21.5ZM28 27C28 27.5304 27.7893 28.0391 27.4142 28.4142C27.0391 28.7893 26.5304 29 26 29C25.4696 29 24.9609 28.7893 24.5858 28.4142C24.2107 28.0391 24 27.5304 24 27C24 26.4696 24.2107 25.9609 24.5858 25.5858C24.9609 25.2107 25.4696 25 26 25C26.5304 25 27.0391 25.2107 27.4142 25.5858C27.7893 25.9609 28 26.4696 28 27ZM30 27C30 28.0609 29.5786 29.0783 28.8284 29.8284C28.0783 30.5786 27.0609 31 26 31C24.9391 31 23.9217 30.5786 23.1716 29.8284C22.4214 29.0783 22 28.0609 22 27C22 25.9391 22.4214 24.9217 23.1716 24.1716C23.9217 23.4214 24.9391 23 26 23C27.0609 23 28.0783 23.4214 28.8284 24.1716C29.5786 24.9217 30 25.9391 30 27Z" fill="white"/>
</svg>
