<svg width="60" height="65" viewBox="0 0 60 65" fill="none" xmlns="http://www.w3.org/2000/svg">
<g filter="url(#filter0_d_233_144)">
<path d="M34.6351 34.2306C33.4138 32.1635 31.6232 30.7654 29.2632 30.0362C26.9032 29.3071 24.4645 28.9425 21.947 28.9425C19.4374 28.9425 16.9928 29.3071 14.6132 30.0362C12.2332 30.7654 10.4486 32.1635 9.25947 34.2306H34.6351ZM21.947 25.1925C23.6074 25.1925 25.3551 25.376 27.1901 25.7431C29.0251 26.1102 30.7503 26.6975 32.3657 27.505C33.9807 28.3125 35.3845 29.3502 36.577 30.6181C37.7695 31.8856 38.5682 33.4304 38.9732 35.2525C39.1353 35.9591 38.9886 36.5906 38.5332 37.1468C38.0782 37.7027 37.4903 37.9806 36.7695 37.9806H7.1251C6.40426 37.9806 5.81614 37.7027 5.36072 37.1468C4.90572 36.5906 4.75926 35.9591 4.92135 35.2525C5.32635 33.4304 6.13156 31.8856 7.33697 30.6181C8.54197 29.3502 9.95218 28.3125 11.5676 27.505C13.183 26.6975 14.9018 26.1102 16.7238 25.7431C18.5459 25.376 20.287 25.1925 21.947 25.1925ZM6.17822 47.1156C5.64697 47.1156 5.20156 46.9358 4.84197 46.5762C4.48281 46.2166 4.30322 45.771 4.30322 45.2393C4.30322 44.7081 4.48281 44.2629 4.84197 43.9037C5.20156 43.545 5.64697 43.3656 6.17822 43.3656H37.7164C38.2476 43.3656 38.693 43.5454 39.0526 43.905C39.4118 44.2641 39.5914 44.7096 39.5914 45.2412C39.5914 45.7729 39.4118 46.2181 39.0526 46.5768C38.693 46.936 38.2476 47.1156 37.7164 47.1156H6.17822ZM48.3607 56.25H46.4664C45.9351 56.25 45.4899 56.0702 45.1307 55.7106C44.7711 55.351 44.5914 54.9056 44.5914 54.3743C44.5914 53.8427 44.7711 53.3975 45.1307 53.0387C45.4899 52.6796 45.9351 52.5 46.4664 52.5H48.0914L51.5914 17.9806H30.1876C29.6564 17.9806 29.2111 17.8008 28.852 17.4412C28.4924 17.0821 28.3126 16.6366 28.3126 16.105C28.3126 15.5733 28.4924 15.1281 28.852 14.7693C29.2111 14.4102 29.6564 14.2306 30.1876 14.2306H39.9282V6.10559C39.9282 5.57434 40.1078 5.12913 40.467 4.76997C40.8266 4.41038 41.2722 4.23059 41.8039 4.23059C42.3351 4.23059 42.7803 4.41038 43.1395 4.76997C43.4982 5.12913 43.6776 5.57434 43.6776 6.10559V14.2306H53.2114C53.8893 14.2306 54.4562 14.4754 54.912 14.965C55.3682 15.4546 55.5547 16.0383 55.4714 16.7162L51.7645 53.2981C51.6553 54.1635 51.2772 54.8718 50.6301 55.4231C49.9826 55.9743 49.2261 56.25 48.3607 56.25ZM6.17822 56.25C5.64697 56.25 5.20156 56.0702 4.84197 55.7106C4.48281 55.351 4.30322 54.9056 4.30322 54.3743C4.30322 53.8427 4.48281 53.3975 4.84197 53.0387C5.20156 52.6796 5.64697 52.5 6.17822 52.5H37.7164C38.2476 52.5 38.693 52.6798 39.0526 53.0393C39.4118 53.3989 39.5914 53.8443 39.5914 54.3756C39.5914 54.9073 39.4118 55.3525 39.0526 55.7112C38.693 56.0704 38.2476 56.25 37.7164 56.25H6.17822Z" fill="white"/>
</g>
<defs>
<filter id="filter0_d_233_144" x="-4" y="0" width="68" height="68" filterUnits="userSpaceOnUse" color-interpolation-filters="sRGB">
<feFlood flood-opacity="0" result="BackgroundImageFix"/>
<feColorMatrix in="SourceAlpha" type="matrix" values="0 0 0 0 0 0 0 0 0 0 0 0 0 0 0 0 0 0 127 0" result="hardAlpha"/>
<feOffset dy="4"/>
<feGaussianBlur stdDeviation="2"/>
<feComposite in2="hardAlpha" operator="out"/>
<feColorMatrix type="matrix" values="0 0 0 0 0 0 0 0 0 0 0 0 0 0 0 0 0 0 0.25 0"/>
<feBlend mode="normal" in2="BackgroundImageFix" result="effect1_dropShadow_233_144"/>
<feBlend mode="normal" in="SourceGraphic" in2="effect1_dropShadow_233_144" result="shape"/>
</filter>
</defs>
</svg>
