<svg width="60" height="60" viewBox="0 0 60 60" fill="none" xmlns="http://www.w3.org/2000/svg">
<path d="M28.125 36.875V42.5C28.125 43.0321 28.3046 43.4775 28.6637 43.8363C29.0225 44.1954 29.4679 44.375 30 44.375C30.5321 44.375 30.9775 44.1954 31.3363 43.8363C31.6954 43.4775 31.875 43.0321 31.875 42.5V36.875H37.5C38.0321 36.875 38.4775 36.6954 38.8363 36.3363C39.1954 35.9775 39.375 35.5321 39.375 35C39.375 34.4679 39.1954 34.0225 38.8363 33.6637C38.4775 33.3046 38.0321 33.125 37.5 33.125H31.875V27.5C31.875 26.9679 31.6954 26.5225 31.3363 26.1637C30.9775 25.8046 30.5321 25.625 30 25.625C29.4679 25.625 29.0225 25.8046 28.6637 26.1637C28.3046 26.5225 28.125 26.9679 28.125 27.5V33.125H22.5C21.9679 33.125 21.5225 33.3046 21.1637 33.6637C20.8046 34.0225 20.625 34.4679 20.625 35C20.625 35.5321 20.8046 35.9775 21.1637 36.3363C21.5225 36.6954 21.9679 36.875 22.5 36.875H28.125ZM10.7694 53.75C9.50646 53.75 8.4375 53.3125 7.5625 52.4375C6.6875 51.5625 6.25 50.4935 6.25 49.2306V20.7694C6.25 19.5065 6.6875 18.4375 7.5625 17.5625C8.4375 16.6875 9.50646 16.25 10.7694 16.25H21.25V12.0194C21.25 10.7565 21.6875 9.6875 22.5625 8.8125C23.4375 7.9375 24.5065 7.5 25.7694 7.5H34.2306C35.4935 7.5 36.5625 7.9375 37.4375 8.8125C38.3125 9.6875 38.75 10.7565 38.75 12.0194V16.25H49.2306C50.4935 16.25 51.5625 16.6875 52.4375 17.5625C53.3125 18.4375 53.75 19.5065 53.75 20.7694V49.2306C53.75 50.4935 53.3125 51.5625 52.4375 52.4375C51.5625 53.3125 50.4935 53.75 49.2306 53.75H10.7694ZM10.7694 50H49.2306C49.4231 50 49.5994 49.9198 49.7594 49.7594C49.9198 49.5994 50 49.4231 50 49.2306V20.7694C50 20.5769 49.9198 20.4006 49.7594 20.2406C49.5994 20.0802 49.4231 20 49.2306 20H10.7694C10.5769 20 10.4006 20.0802 10.2406 20.2406C10.0802 20.4006 10 20.5769 10 20.7694V49.2306C10 49.4231 10.0802 49.5994 10.2406 49.7594C10.4006 49.9198 10.5769 50 10.7694 50ZM25 16.25H35V12.0194C35 11.8269 34.9198 11.6506 34.7594 11.4906C34.5994 11.3302 34.4231 11.25 34.2306 11.25H25.7694C25.5769 11.25 25.4006 11.3302 25.2406 11.4906C25.0802 11.6506 25 11.8269 25 12.0194V16.25Z" fill="white"/>
</svg>
