<svg width="72" height="72" viewBox="0 0 72 72" fill="none" xmlns="http://www.w3.org/2000/svg">
<rect width="72" height="72" rx="16" fill="white" fill-opacity="0.08"/>
<rect x="0.5" y="0.5" width="71" height="71" rx="15.5" stroke="white" stroke-opacity="0.08"/>
<path d="M36.0003 50.1824C35.6178 50.1824 35.2455 50.1108 34.8832 49.9678C34.521 49.8247 34.2021 49.61 33.9266 49.3236L23.0803 38.4357C22.1081 37.4635 21.3795 36.3604 20.8945 35.1265C20.4095 33.8924 20.167 32.6161 20.167 31.2978C20.167 28.672 21.0067 26.4274 22.6862 24.564C24.3656 22.7007 26.4446 21.769 28.9232 21.769C30.1605 21.769 31.3373 22.0196 32.4537 22.5207C33.5703 23.0218 34.5656 23.7232 35.4395 24.6249L36.0003 25.2178L36.5291 24.657C37.3966 23.7339 38.3913 23.0218 39.5132 22.5207C40.6349 22.0196 41.8091 21.769 43.0357 21.769C45.5144 21.769 47.6003 22.7007 49.2937 24.564C50.987 26.4274 51.8337 28.6581 51.8337 31.2561C51.8337 32.5853 51.5869 33.8668 51.0932 35.1007C50.5996 36.3349 49.8753 37.4381 48.9203 38.4103L38.0324 49.3236C37.746 49.61 37.4313 49.8247 37.0882 49.9678C36.7455 50.1108 36.3828 50.1824 36.0003 50.1824ZM37.667 29.7499C37.8806 29.7499 38.0803 29.8006 38.2662 29.902C38.4523 30.0036 38.5987 30.1389 38.7053 30.3078L41.6507 34.7499H48.5037C48.7942 34.1921 49.0121 33.6195 49.1574 33.032C49.3027 32.4445 49.37 31.8525 49.3595 31.2561C49.3145 29.3395 48.6916 27.7043 47.4907 26.3507C46.2899 24.9971 44.8049 24.3203 43.0357 24.3203C42.1532 24.3203 41.3 24.495 40.4762 24.8445C39.6525 25.1939 38.9384 25.704 38.3337 26.3749L37.0162 27.7915C36.8881 27.9477 36.7344 28.0636 36.5549 28.1395C36.3755 28.2153 36.1906 28.2532 36.0003 28.2532C35.81 28.2532 35.6225 28.2125 35.4378 28.1311C35.2531 28.05 35.0881 27.9368 34.9428 27.7915L33.6253 26.3749C33.0206 25.704 32.3106 25.1853 31.4953 24.8186C30.6803 24.4522 29.823 24.269 28.9232 24.269C27.1541 24.269 25.6691 24.9545 24.4682 26.3253C23.2674 27.6958 22.667 29.3395 22.667 31.2561C22.667 31.8631 22.7353 32.4577 22.872 33.0399C23.0089 33.6221 23.2173 34.1921 23.497 34.7499H31.0003C31.2139 34.7499 31.411 34.8006 31.5916 34.902C31.7721 35.0036 31.9159 35.1389 32.0228 35.3078L33.962 38.1953L36.4845 30.6282C36.5742 30.3696 36.7248 30.1586 36.9362 29.9953C37.1478 29.8317 37.3914 29.7499 37.667 29.7499ZM38.0387 33.8045L35.5162 41.3715C35.4264 41.6302 35.2689 41.8411 35.0437 42.0045C34.8181 42.1681 34.5675 42.2499 34.292 42.2499C34.0784 42.2499 33.8813 42.1992 33.7007 42.0978C33.5202 41.9961 33.3764 41.8608 33.2695 41.692L30.3082 37.2499H25.4328L35.7087 47.5415C35.7642 47.5971 35.8128 47.6318 35.8545 47.6457C35.8962 47.6596 35.9448 47.6665 36.0003 47.6665C36.0559 47.6665 36.1045 47.6596 36.1462 47.6457C36.1878 47.6318 36.2364 47.5971 36.292 47.5415L46.542 37.2499H41.0003C40.7867 37.2499 40.587 37.1964 40.4012 37.0895C40.215 36.9828 40.06 36.845 39.9362 36.6761L38.0387 33.8045Z" fill="#A1F919"/>
</svg>
