<svg width="72" height="72" viewBox="0 0 72 72" fill="none" xmlns="http://www.w3.org/2000/svg">
<rect width="72" height="72" rx="16" fill="white" fill-opacity="0.08"/>
<rect x="0.5" y="0.5" width="71" height="71" rx="15.5" stroke="white" stroke-opacity="0.08"/>
<path d="M23.5002 47.1535V34.7335L21.3848 36.3781C21.092 36.5917 20.7822 36.676 20.4552 36.631C20.1286 36.5863 19.8583 36.4175 19.6444 36.1248C19.4308 35.832 19.348 35.5221 19.3961 35.1952C19.4441 34.8682 19.6061 34.598 19.8819 34.3843L34.151 23.4389C34.4244 23.2381 34.7187 23.0874 35.034 22.9868C35.349 22.8866 35.671 22.8364 36.0002 22.8364C36.3294 22.8364 36.6488 22.8866 36.9585 22.9868C37.2683 23.0874 37.5599 23.2381 37.8335 23.4389L52.1444 34.3843C52.4199 34.598 52.5776 34.8682 52.6173 35.1952C52.6567 35.5221 52.5697 35.832 52.356 36.1248C52.1422 36.4003 51.8719 36.5606 51.5452 36.6056C51.2183 36.6503 50.9169 36.5659 50.641 36.3523L48.5002 34.7335V47.1535C48.5002 47.9846 48.2059 48.6946 47.6173 49.2835C47.0284 49.8721 46.3184 50.1664 45.4873 50.1664H26.5131C25.682 50.1664 24.972 49.8721 24.3831 49.2835C23.7945 48.6946 23.5002 47.9846 23.5002 47.1535ZM26.5131 47.6664H45.4873C45.637 47.6664 45.7599 47.6184 45.856 47.5223C45.9522 47.4261 46.0002 47.3032 46.0002 47.1535V32.8331L36.3048 25.4485C36.2192 25.3738 36.1177 25.3364 36.0002 25.3364C35.8827 25.3364 35.7812 25.3738 35.6956 25.4485L26.0002 32.8331V47.1535C26.0002 47.3032 26.0483 47.4261 26.1444 47.5223C26.2405 47.6184 26.3634 47.6664 26.5131 47.6664ZM29.3336 40.8073C29.7416 40.8073 30.0894 40.6637 30.3769 40.3764C30.6641 40.0889 30.8077 39.7411 30.8077 39.3331C30.8077 38.925 30.6641 38.5773 30.3769 38.2898C30.0894 38.0025 29.7416 37.8589 29.3336 37.8589C28.9255 37.8589 28.5777 38.0025 28.2902 38.2898C28.003 38.5773 27.8594 38.925 27.8594 39.3331C27.8594 39.7411 28.003 40.0889 28.2902 40.3764C28.5777 40.6637 28.9255 40.8073 29.3336 40.8073ZM36.0002 40.8073C36.4083 40.8073 36.7561 40.6637 37.0436 40.3764C37.3308 40.0889 37.4744 39.7411 37.4744 39.3331C37.4744 38.925 37.3308 38.5773 37.0436 38.2898C36.7561 38.0025 36.4083 37.8589 36.0002 37.8589C35.5922 37.8589 35.2444 38.0025 34.9569 38.2898C34.6697 38.5773 34.526 38.925 34.526 39.3331C34.526 39.7411 34.6697 40.0889 34.9569 40.3764C35.2444 40.6637 35.5922 40.8073 36.0002 40.8073ZM42.6669 40.8073C43.0749 40.8073 43.4227 40.6637 43.7102 40.3764C43.9974 40.0889 44.141 39.7411 44.141 39.3331C44.141 38.925 43.9974 38.5773 43.7102 38.2898C43.4227 38.0025 43.0749 37.8589 42.6669 37.8589C42.2588 37.8589 41.911 38.0025 41.6235 38.2898C41.3363 38.5773 41.1927 38.925 41.1927 39.3331C41.1927 39.7411 41.3363 40.0889 41.6235 40.3764C41.911 40.6637 42.2588 40.8073 42.6669 40.8073ZM26.5131 47.6664H26.0002H46.0002H26.5131Z" fill="#A1F919"/>
</svg>
