<svg width="20" height="20" viewBox="0 0 20 20" fill="none" xmlns="http://www.w3.org/2000/svg">
<path d="M1.66602 17.5V2.5H9.99935V5.83333H18.3327V17.5H1.66602ZM3.33268 15.8333H4.99935V14.1667H3.33268V15.8333ZM3.33268 12.5H4.99935V10.8333H3.33268V12.5ZM3.33268 9.16667H4.99935V7.5H3.33268V9.16667ZM3.33268 5.83333H4.99935V4.16667H3.33268V5.83333ZM6.66602 15.8333H8.33268V14.1667H6.66602V15.8333ZM6.66602 12.5H8.33268V10.8333H6.66602V12.5ZM6.66602 9.16667H8.33268V7.5H6.66602V9.16667ZM6.66602 5.83333H8.33268V4.16667H6.66602V5.83333ZM9.99935 15.8333H16.666V7.5H9.99935V9.16667H11.666V10.8333H9.99935V12.5H11.666V14.1667H9.99935V15.8333ZM13.3327 10.8333V9.16667H14.9993V10.8333H13.3327ZM13.3327 14.1667V12.5H14.9993V14.1667H13.3327Z" fill="white" fill-opacity="0.8"/>
</svg>
