<svg width="72" height="72" viewBox="0 0 72 72" fill="none" xmlns="http://www.w3.org/2000/svg">
<rect width="72" height="72" rx="16" fill="white" fill-opacity="0.08"/>
<rect x="0.5" y="0.5" width="71" height="71" rx="15.5" stroke="white" stroke-opacity="0.08"/>
<path d="M25.3584 46.8332V48.4036C25.3584 48.8933 25.1869 49.3096 24.8438 49.6523C24.5008 49.9951 24.0841 50.1665 23.5938 50.1665C23.1038 50.1665 22.6879 49.9951 22.3459 49.6523C22.004 49.3096 21.833 48.8933 21.833 48.4036V36.6473C21.833 36.4743 21.8443 36.3012 21.8668 36.1282C21.8893 35.9551 21.927 35.7893 21.9801 35.6307L24.9647 27.1923C25.1644 26.5921 25.5263 26.1044 26.0505 25.7294C26.5747 25.3541 27.1613 25.1665 27.8105 25.1665H44.1888C44.838 25.1665 45.4247 25.3541 45.9488 25.7294C46.473 26.1044 46.835 26.5921 47.0347 27.1923L50.0193 35.6307C50.0723 35.7893 50.1101 35.9551 50.1326 36.1282C50.1551 36.3012 50.1663 36.4743 50.1663 36.6473V48.4036C50.1663 48.8933 49.9948 49.3096 49.6518 49.6523C49.3084 49.9951 48.8918 50.1665 48.4018 50.1665C47.9115 50.1665 47.4954 49.9951 47.1534 49.6523C46.8118 49.3096 46.6409 48.8933 46.6409 48.4036V46.8332H25.3584ZM25.3459 33.6282H46.6534L44.6793 28.0032C44.6365 27.8962 44.5723 27.8134 44.4868 27.7548C44.4012 27.6959 44.2997 27.6665 44.1822 27.6665H27.8172C27.6997 27.6665 27.5981 27.6959 27.5126 27.7548C27.427 27.8134 27.3629 27.8962 27.3201 28.0032L25.3459 33.6282ZM28.4393 42.4103C29.0456 42.4103 29.56 42.1979 29.9822 41.7732C30.4041 41.3487 30.6151 40.8333 30.6151 40.2269C30.6151 39.6205 30.4029 39.1062 29.9784 38.684C29.5537 38.2621 29.0381 38.0511 28.4318 38.0511C27.8254 38.0511 27.3112 38.2633 26.8893 38.6878C26.467 39.1125 26.2559 39.628 26.2559 40.2344C26.2559 40.8408 26.4683 41.355 26.893 41.7769C27.3175 42.1991 27.8329 42.4103 28.4393 42.4103ZM43.5676 42.4103C44.174 42.4103 44.6881 42.1979 45.1101 41.7732C45.5323 41.3487 45.7434 40.8333 45.7434 40.2269C45.7434 39.6205 45.5311 39.1062 45.1063 38.684C44.6819 38.2621 44.1665 38.0511 43.5601 38.0511C42.9537 38.0511 42.4394 38.2633 42.0172 38.6878C41.5952 39.1125 41.3843 39.628 41.3843 40.2344C41.3843 40.8408 41.5965 41.355 42.0209 41.7769C42.4456 42.1991 42.9612 42.4103 43.5676 42.4103ZM24.333 44.3332H47.6663V36.1282H24.333V44.3332Z" fill="#A1F919"/>
</svg>
