<svg width="60" height="60" viewBox="0 0 60 60" fill="none" xmlns="http://www.w3.org/2000/svg">
<path d="M20 16L12.5 8.5L16 5L23.5 12.5L20 16ZM40 16L36.5 12.5L44 5L47.5 8.5L40 16ZM27.5 12.5V0H32.5V12.5H27.5ZM10 60C9.29167 60 8.69792 59.7604 8.21875 59.2812C7.73958 58.8021 7.5 58.2083 7.5 57.5V37.5L12.75 22.5C13 21.75 13.4479 21.1458 14.0938 20.6875C14.7396 20.2292 15.4583 20 16.25 20H43.75C44.5417 20 45.2604 20.2292 45.9062 20.6875C46.5521 21.1458 47 21.75 47.25 22.5L52.5 37.5V57.5C52.5 58.2083 52.2604 58.8021 51.7812 59.2812C51.3021 59.7604 50.7083 60 50 60H47.5C46.7917 60 46.1979 59.7604 45.7188 59.2812C45.2396 58.8021 45 58.2083 45 57.5V55H15V57.5C15 58.2083 14.7604 58.8021 14.2812 59.2812C13.8021 59.7604 13.2083 60 12.5 60H10ZM14.5 32.5H45.5L42.875 25H17.125L14.5 32.5ZM18.75 47.5C19.7917 47.5 20.6771 47.1354 21.4062 46.4062C22.1354 45.6771 22.5 44.7917 22.5 43.75C22.5 42.7083 22.1354 41.8229 21.4062 41.0938C20.6771 40.3646 19.7917 40 18.75 40C17.7083 40 16.8229 40.3646 16.0938 41.0938C15.3646 41.8229 15 42.7083 15 43.75C15 44.7917 15.3646 45.6771 16.0938 46.4062C16.8229 47.1354 17.7083 47.5 18.75 47.5ZM41.25 47.5C42.2917 47.5 43.1771 47.1354 43.9062 46.4062C44.6354 45.6771 45 44.7917 45 43.75C45 42.7083 44.6354 41.8229 43.9062 41.0938C43.1771 40.3646 42.2917 40 41.25 40C40.2083 40 39.3229 40.3646 38.5938 41.0938C37.8646 41.8229 37.5 42.7083 37.5 43.75C37.5 44.7917 37.8646 45.6771 38.5938 46.4062C39.3229 47.1354 40.2083 47.5 41.25 47.5ZM12.5 50H47.5V37.5H12.5V50Z" fill="white"/>
</svg>
