<svg width="72" height="72" viewBox="0 0 72 72" fill="none" xmlns="http://www.w3.org/2000/svg">
<rect width="72" height="72" rx="16" fill="white" fill-opacity="0.08"/>
<rect x="0.5" y="0.5" width="71" height="71" rx="15.5" stroke="white" stroke-opacity="0.08"/>
<path d="M29.9103 35.1669V28.5002C29.9103 27.9661 30.0972 27.512 30.4711 27.1381C30.845 26.7643 31.299 26.5773 31.8332 26.5773C32.3673 26.5773 32.8214 26.7643 33.1953 27.1381C33.5691 27.512 33.7561 27.9661 33.7561 28.5002V35.1669C33.7561 35.7011 33.5691 36.1551 33.1953 36.529C32.8214 36.9029 32.3673 37.0898 31.8332 37.0898C31.299 37.0898 30.845 36.9029 30.4711 36.529C30.0972 36.1551 29.9103 35.7011 29.9103 35.1669ZM37.6986 36.0581V21.8336C37.6986 21.2994 37.8855 20.8454 38.2594 20.4715C38.6333 20.0976 39.0873 19.9106 39.6215 19.9106C40.1557 19.9106 40.6097 20.0976 40.9836 20.4715C41.3575 20.8454 41.5444 21.2994 41.5444 21.8336V36.0581C41.5444 36.699 41.3471 37.1797 40.9523 37.5002C40.5576 37.8208 40.1148 37.9811 39.624 37.9811C39.1332 37.9811 38.6896 37.8208 38.2932 37.5002C37.8968 37.1797 37.6986 36.699 37.6986 36.0581ZM22.0898 40.7181V35.1669C22.0898 34.6327 22.2768 34.1787 22.6507 33.8048C23.0246 33.4309 23.4786 33.244 24.0128 33.244C24.5469 33.244 25.001 33.4309 25.3748 33.8048C25.7487 34.1787 25.9357 34.6327 25.9357 35.1669V40.7181C25.9357 41.3593 25.7383 41.8399 25.3436 42.1602C24.9486 42.4808 24.5057 42.6411 24.0148 42.6411C23.524 42.6411 23.0804 42.4808 22.684 42.1602C22.2879 41.8399 22.0898 41.3593 22.0898 40.7181ZM24.994 50.6669C24.4465 50.6669 24.0644 50.412 23.8478 49.9023C23.6308 49.3929 23.7221 48.9383 24.1215 48.5386L30.7948 41.8656C31.0682 41.592 31.401 41.4413 31.7932 41.4136C32.1851 41.3858 32.5329 41.5087 32.8365 41.7823L37.6986 45.9619L47.9936 35.6669H45.9998C45.6457 35.6669 45.3489 35.547 45.1094 35.3073C44.8697 35.0676 44.7498 34.7706 44.7498 34.4165C44.7498 34.062 44.8697 33.7652 45.1094 33.5261C45.3489 33.2866 45.6457 33.1669 45.9998 33.1669H50.7436C51.1703 33.1669 51.528 33.3112 51.8169 33.5998C52.1055 33.8887 52.2498 34.2465 52.2498 34.6731V39.4169C52.2498 39.7711 52.13 40.0679 51.8903 40.3073C51.6505 40.547 51.3536 40.6669 50.9994 40.6669C50.645 40.6669 50.3482 40.547 50.109 40.3073C49.8696 40.0679 49.7498 39.7711 49.7498 39.4169V37.4231L38.7882 48.3848C38.5148 48.6584 38.1821 48.8091 37.7898 48.8369C37.3979 48.8647 37.0501 48.7418 36.7465 48.4681L31.8844 44.2886L25.8782 50.2952C25.7729 50.3983 25.6412 50.4861 25.4832 50.5586C25.3254 50.6308 25.1623 50.6669 24.994 50.6669Z" fill="#A1F919"/>
</svg>
