<svg width="60" height="60" viewBox="0 0 60 60" fill="none" xmlns="http://www.w3.org/2000/svg">
<path d="M5 50V42.5H10V15C10 13.625 10.4896 12.4479 11.4688 11.4688C12.4479 10.4896 13.625 10 15 10H52.5V15H15V42.5H30V50H5ZM37.5 50C36.7917 50 36.1979 49.7604 35.7188 49.2812C35.2396 48.8021 35 48.2083 35 47.5V22.5C35 21.7917 35.2396 21.1979 35.7188 20.7188C36.1979 20.2396 36.7917 20 37.5 20H52.5C53.2083 20 53.8021 20.2396 54.2812 20.7188C54.7604 21.1979 55 21.7917 55 22.5V47.5C55 48.2083 54.7604 48.8021 54.2812 49.2812C53.8021 49.7604 53.2083 50 52.5 50H37.5ZM40 42.5H50V25H40V42.5Z" fill="white"/>
</svg>
