<svg width="60" height="60" viewBox="0 0 60 60" fill="none" xmlns="http://www.w3.org/2000/svg">
<path d="M15 52.5C14.2917 52.5 13.6979 52.2604 13.2188 51.7812C12.7396 51.3021 12.5 50.7083 12.5 50V44.875C11.75 44.0417 11.1458 43.1146 10.6875 42.0938C10.2292 41.0729 10 39.9583 10 38.75V15C10 11.5417 11.6042 9.01042 14.8125 7.40625C18.0208 5.80208 23.0833 5 30 5C37.1667 5 42.2917 5.77083 45.375 7.3125C48.4583 8.85417 50 11.4167 50 15V38.75C50 39.9583 49.7708 41.0729 49.3125 42.0938C48.8542 43.1146 48.25 44.0417 47.5 44.875V50C47.5 50.7083 47.2604 51.3021 46.7812 51.7812C46.3021 52.2604 45.7083 52.5 45 52.5H42.5C41.7917 52.5 41.1979 52.2604 40.7188 51.7812C40.2396 51.3021 40 50.7083 40 50V47.5H20V50C20 50.7083 19.7604 51.3021 19.2812 51.7812C18.8021 52.2604 18.2083 52.5 17.5 52.5H15ZM30.125 12.5H44.125H16.125H30.125ZM40 30H15H45H40ZM15 25H45V17.5H15V25ZM21.25 40C22.2917 40 23.1771 39.6354 23.9062 38.9062C24.6354 38.1771 25 37.2917 25 36.25C25 35.2083 24.6354 34.3229 23.9062 33.5938C23.1771 32.8646 22.2917 32.5 21.25 32.5C20.2083 32.5 19.3229 32.8646 18.5938 33.5938C17.8646 34.3229 17.5 35.2083 17.5 36.25C17.5 37.2917 17.8646 38.1771 18.5938 38.9062C19.3229 39.6354 20.2083 40 21.25 40ZM38.75 40C39.7917 40 40.6771 39.6354 41.4062 38.9062C42.1354 38.1771 42.5 37.2917 42.5 36.25C42.5 35.2083 42.1354 34.3229 41.4062 33.5938C40.6771 32.8646 39.7917 32.5 38.75 32.5C37.7083 32.5 36.8229 32.8646 36.0938 33.5938C35.3646 34.3229 35 35.2083 35 36.25C35 37.2917 35.3646 38.1771 36.0938 38.9062C36.8229 39.6354 37.7083 40 38.75 40ZM16.125 12.5H44.125C43.5 11.7917 42.1562 11.1979 40.0938 10.7188C38.0312 10.2396 34.7083 10 30.125 10C25.6667 10 22.4062 10.2604 20.3438 10.7812C18.2812 11.3021 16.875 11.875 16.125 12.5ZM20 42.5H40C41.375 42.5 42.5521 42.0104 43.5312 41.0312C44.5104 40.0521 45 38.875 45 37.5V30H15V37.5C15 38.875 15.4896 40.0521 16.4688 41.0312C17.4479 42.0104 18.625 42.5 20 42.5Z" fill="white"/>
</svg>
