<svg width="60" height="60" viewBox="0 0 60 60" fill="none" xmlns="http://www.w3.org/2000/svg">
<path d="M12.6826 51.875C11.4201 51.875 10.3514 51.4375 9.47636 50.5625C8.60136 49.6875 8.16386 48.6185 8.16386 47.3556V27.3844C7.15719 26.5577 6.40156 25.4848 5.89698 24.1656C5.39198 22.8469 5.38156 21.4231 5.86573 19.8944L8.39448 11.6344C8.72781 10.5831 9.29344 9.73542 10.0914 9.09125C10.8897 8.44708 11.8432 8.125 12.952 8.125H47.077C48.1862 8.125 49.1332 8.43271 49.9182 9.04813C50.7037 9.66354 51.2757 10.5098 51.6345 11.5869L54.2114 19.8944C54.6955 21.4231 54.6851 22.8421 54.1801 24.1512C53.6755 25.4608 52.9199 26.5546 51.9132 27.4325V47.3556C51.9132 48.6185 51.4757 49.6875 50.6007 50.5625C49.7257 51.4375 48.657 51.875 47.3945 51.875H12.6826ZM35.5389 25.625C36.9043 25.625 37.9307 25.2075 38.6182 24.3725C39.3057 23.5375 39.587 22.6408 39.462 21.6825L37.9426 11.875H31.9132V21.75C31.9132 22.8013 32.2691 23.71 32.9807 24.4762C33.6924 25.2421 34.5451 25.625 35.5389 25.625ZM24.2889 25.625C25.4393 25.625 26.3726 25.2421 27.0889 24.4762C27.8055 23.71 28.1639 22.8013 28.1639 21.75V11.875H22.1345L20.6157 21.7788C20.4807 22.6667 20.7595 23.5298 21.452 24.3681C22.1445 25.206 23.0901 25.625 24.2889 25.625ZM13.1639 25.625C14.0901 25.625 14.8866 25.3021 15.5532 24.6562C16.2199 24.0104 16.6318 23.1987 16.7889 22.2212L18.2595 11.875H12.952C12.6795 11.875 12.4632 11.935 12.3032 12.055C12.1428 12.1754 12.0226 12.3558 11.9426 12.5962L9.53823 20.7306C9.20823 21.8044 9.36386 22.8885 10.0051 23.9831C10.6459 25.0777 11.6989 25.625 13.1639 25.625ZM46.9139 25.625C48.2664 25.625 49.3016 25.0938 50.0195 24.0312C50.7374 22.9688 50.9105 21.8685 50.5389 20.7306L48.0095 12.5481C47.9295 12.3077 47.8095 12.1354 47.6495 12.0312C47.4891 11.9271 47.2726 11.875 47.0001 11.875H41.8176L43.2882 22.2212C43.4453 23.1987 43.8572 24.0104 44.5239 24.6562C45.1905 25.3021 45.9872 25.625 46.9139 25.625ZM12.6826 48.125H47.3945C47.6187 48.125 47.8028 48.0529 47.947 47.9087C48.0916 47.7646 48.1639 47.5802 48.1639 47.3556V29.1537C47.8914 29.2533 47.6637 29.315 47.4807 29.3388C47.2982 29.3629 47.1093 29.375 46.9139 29.375C45.7889 29.375 44.7993 29.1715 43.9451 28.7644C43.0909 28.3573 42.263 27.705 41.4614 26.8075C40.7597 27.5896 39.9297 28.2131 38.9714 28.6781C38.013 29.1427 36.9201 29.375 35.6926 29.375C34.6318 29.375 33.6318 29.1546 32.6926 28.7138C31.7534 28.2733 30.8689 27.6379 30.0389 26.8075C29.2664 27.6379 28.3914 28.2733 27.4139 28.7138C26.4359 29.1546 25.4455 29.375 24.4426 29.375C23.3143 29.375 22.2566 29.1706 21.2695 28.7619C20.2824 28.3531 19.4139 27.7017 18.6639 26.8075C17.6122 27.8587 16.6432 28.5496 15.757 28.88C14.8711 29.21 14.0068 29.375 13.1639 29.375C12.968 29.375 12.7659 29.3629 12.5576 29.3388C12.3493 29.315 12.1345 29.2533 11.9132 29.1537V47.3556C11.9132 47.5802 11.9855 47.7646 12.1301 47.9087C12.2743 48.0529 12.4584 48.125 12.6826 48.125Z" fill="white"/>
</svg>
