<svg width="60" height="60" viewBox="0 0 60 60" fill="none" xmlns="http://www.w3.org/2000/svg">
<path d="M16.1105 42.0812C15.3734 41.6712 14.7957 41.1178 14.3774 40.4212C13.959 39.7245 13.7499 38.943 13.7499 38.0768V27.2305L8.75988 24.4712C8.34947 24.237 8.04822 23.9522 7.85613 23.6168C7.66363 23.2818 7.56738 22.9093 7.56738 22.4993C7.56738 22.0893 7.66363 21.717 7.85613 21.3824C8.04822 21.0474 8.34947 20.7628 8.75988 20.5287L27.8474 10.1287C28.1861 9.94033 28.5351 9.80199 28.8943 9.71366C29.2534 9.62574 29.622 9.58179 29.9999 9.58179C30.3778 9.58179 30.7463 9.62574 31.1055 9.71366C31.4647 9.80199 31.8141 9.94012 32.1536 10.128L53.7111 21.8605C54.0957 22.0689 54.3907 22.3505 54.5961 22.7055C54.8011 23.061 54.9036 23.4443 54.9036 23.8555V38.6055C54.9036 39.1368 54.7238 39.5822 54.3643 39.9418C54.0047 40.301 53.5593 40.4805 53.028 40.4805C52.4963 40.4805 52.0511 40.301 51.6924 39.9418C51.3332 39.5822 51.1536 39.1368 51.1536 38.6055V24.5768L46.2499 27.2305V38.0768C46.2499 38.943 46.0407 39.7245 45.6224 40.4212C45.204 41.1178 44.6263 41.6712 43.8893 42.0812L32.1586 48.423C31.8157 48.6151 31.4647 48.7553 31.1055 48.8437C30.7463 48.9316 30.3778 48.9755 29.9999 48.9755C29.622 48.9755 29.2534 48.9316 28.8943 48.8437C28.5351 48.7553 28.184 48.6151 27.8411 48.423L16.1105 42.0812ZM29.7111 31.6055C29.8236 31.6697 29.9238 31.7018 30.0118 31.7018C30.1001 31.7018 30.2003 31.6697 30.3124 31.6055L47.1011 22.4999L30.3124 13.418C30.2003 13.3539 30.1001 13.3218 30.0118 13.3218C29.9238 13.3218 29.8236 13.3539 29.7111 13.418L12.8986 22.4999L29.7111 31.6055ZM29.6874 45.1774C29.7995 45.2416 29.9036 45.2737 29.9999 45.2737C30.0961 45.2737 30.2003 45.2416 30.3124 45.1774L42.1393 38.788C42.2676 38.708 42.3597 38.616 42.4155 38.5118C42.4718 38.4076 42.4999 38.2753 42.4999 38.1149V29.2305L32.1968 34.8893C31.8538 35.0814 31.4982 35.2216 31.1299 35.3099C30.7611 35.3982 30.3845 35.4424 29.9999 35.4424C29.6153 35.4424 29.2386 35.3982 28.8699 35.3099C28.5016 35.2216 28.1459 35.0814 27.803 34.8893L17.4999 29.2305V38.1149C17.4999 38.2432 17.528 38.3676 17.5843 38.488C17.6401 38.608 17.7322 38.708 17.8605 38.788L29.6874 45.1774Z" fill="white"/>
</svg>
