<svg width="60" height="60" viewBox="0 0 60 60" fill="none" xmlns="http://www.w3.org/2000/svg">
<path d="M13.8077 50.5769C13.0065 50.5769 12.3254 50.2965 11.7646 49.7357C11.2038 49.1748 10.9233 48.4938 10.9233 47.6925C10.9233 46.8913 11.2038 46.21 11.7646 45.6488C12.3254 45.088 13.0065 44.8075 13.8077 44.8075H18.5771L12.154 23.7882C11.0452 23.2115 10.1463 22.375 9.45709 21.2788C8.76792 20.1826 8.42334 18.9711 8.42334 17.6444C8.42334 15.7373 9.09251 14.1146 10.4308 12.7763C11.7688 11.4384 13.3913 10.7694 15.2983 10.7694C16.8754 10.7694 18.2552 11.2382 19.4377 12.1757C20.6202 13.1132 21.4296 14.3111 21.8658 15.7694H30.4427V12.6444C30.4427 12.1123 30.6221 11.6667 30.9808 11.3075C31.34 10.9488 31.7856 10.7694 32.3177 10.7694C32.6444 10.7694 32.9488 10.8528 33.2308 11.0194C33.5129 11.1861 33.7308 11.42 33.8846 11.7213V12.0575L38.279 7.96192C38.6381 7.60276 39.054 7.37921 39.5265 7.2913C39.9994 7.20296 40.4617 7.27588 40.9133 7.51005L50.5196 11.9619C50.9233 12.1636 51.2108 12.4559 51.3821 12.8388C51.5538 13.2221 51.5515 13.6028 51.3752 13.9807C51.1731 14.3848 50.8806 14.6438 50.4977 14.7575C50.1148 14.8713 49.7342 14.84 49.3558 14.6638L40.1158 10.3944L34.1927 15.8944V19.3944L40.1158 24.7694L49.3558 20.5C49.7342 20.3238 50.1213 20.299 50.5171 20.4257C50.9129 20.5523 51.199 20.8046 51.3752 21.1825C51.5769 21.5863 51.5856 21.9734 51.4015 22.3438C51.2173 22.7138 50.9233 22.9998 50.5196 23.2019L40.9133 27.7307C40.4617 27.9648 39.9994 28.0338 39.5265 27.9375C39.054 27.8413 38.6381 27.6217 38.279 27.2788L33.8846 23.2307V23.5675C33.7308 23.8175 33.5129 24.0386 33.2308 24.2307C32.9488 24.4232 32.6444 24.5194 32.3177 24.5194C31.7856 24.5194 31.34 24.3398 30.9808 23.9807C30.6221 23.6219 30.4427 23.1765 30.4427 22.6444V19.5194H21.8658C21.7408 19.9648 21.5694 20.3975 21.3515 20.8175C21.1331 21.2371 20.875 21.6217 20.5771 21.9713L32.8846 44.8075H39.289C40.0902 44.8075 40.7713 45.088 41.3321 45.6488C41.8929 46.21 42.1733 46.8913 42.1733 47.6925C42.1733 48.4938 41.8929 49.1748 41.3321 49.7357C40.7713 50.2965 40.0902 50.5769 39.289 50.5769H13.8077ZM15.2983 20.7694C16.1671 20.7694 16.905 20.4657 17.5121 19.8582C18.1196 19.2507 18.4233 18.5128 18.4233 17.6444C18.4233 16.7757 18.1196 16.0375 17.5121 15.43C16.905 14.823 16.1671 14.5194 15.2983 14.5194C14.4296 14.5194 13.6917 14.823 13.0846 15.43C12.4771 16.0375 12.1733 16.7757 12.1733 17.6444C12.1733 18.5128 12.4771 19.2507 13.0846 19.8582C13.6917 20.4657 14.4296 20.7694 15.2983 20.7694ZM22.4521 44.8075H28.5771L17.539 24.2788C17.4106 24.3588 17.2085 24.4269 16.9327 24.4832C16.6573 24.5394 16.4233 24.5515 16.2308 24.5194L22.4521 44.8075Z" fill="white"/>
</svg>
