<svg width="72" height="72" viewBox="0 0 72 72" fill="none" xmlns="http://www.w3.org/2000/svg">
<rect width="72" height="72" rx="16" fill="white" fill-opacity="0.08"/>
<rect x="0.5" y="0.5" width="71" height="71" rx="15.5" stroke="white" stroke-opacity="0.08"/>
<path d="M26.7403 44.0539C26.2489 43.7806 25.8638 43.4117 25.5849 42.9473C25.306 42.4828 25.1666 41.9619 25.1666 41.3844V34.1535L21.8399 32.3139C21.5663 32.1578 21.3655 31.968 21.2374 31.7444C21.1091 31.521 21.0449 31.2727 21.0449 30.9994C21.0449 30.726 21.1091 30.4778 21.2374 30.2548C21.3655 30.0314 21.5663 29.8417 21.8399 29.6856L34.5649 22.7523C34.7908 22.6267 35.0234 22.5345 35.2628 22.4756C35.5023 22.417 35.748 22.3877 35.9999 22.3877C36.2519 22.3877 36.4976 22.417 36.737 22.4756C36.9764 22.5345 37.2094 22.6266 37.4358 22.7519L51.8074 30.5735C52.0638 30.7124 52.2605 30.9002 52.3974 31.1369C52.5341 31.3738 52.6024 31.6294 52.6024 31.9035V41.7369C52.6024 42.091 52.4826 42.388 52.2428 42.6277C52.0031 42.8671 51.7062 42.9869 51.352 42.9869C50.9976 42.9869 50.7008 42.8671 50.4616 42.6277C50.2221 42.388 50.1024 42.091 50.1024 41.7369V32.3844L46.8333 34.1535V41.3844C46.8333 41.9619 46.6938 42.4828 46.4149 42.9473C46.136 43.4117 45.7509 43.7806 45.2595 44.0539L37.4391 48.2819C37.2105 48.4099 36.9764 48.5034 36.737 48.5623C36.4976 48.6209 36.2519 48.6502 35.9999 48.6502C35.748 48.6502 35.5023 48.6209 35.2628 48.5623C35.0234 48.5034 34.7894 48.4099 34.5608 48.2819L26.7403 44.0539ZM35.8074 37.0702C35.8824 37.113 35.9492 37.1344 36.0078 37.1344C36.0667 37.1344 36.1335 37.113 36.2083 37.0702L47.4008 30.9998L36.2083 24.9452C36.1335 24.9024 36.0667 24.881 36.0078 24.881C35.9492 24.881 35.8824 24.9024 35.8074 24.9452L24.5991 30.9998L35.8074 37.0702ZM35.7916 46.1181C35.8663 46.1609 35.9358 46.1823 35.9999 46.1823C36.0641 46.1823 36.1335 46.1609 36.2083 46.1181L44.0928 41.8585C44.1784 41.8052 44.2398 41.7438 44.277 41.6744C44.3145 41.6049 44.3333 41.5167 44.3333 41.4098V35.4869L37.4645 39.2594C37.2359 39.3874 36.9988 39.4809 36.7533 39.5398C36.5074 39.5987 36.2563 39.6281 35.9999 39.6281C35.7435 39.6281 35.4924 39.5987 35.2466 39.5398C35.001 39.4809 34.7639 39.3874 34.5353 39.2594L27.6666 35.4869V41.4098C27.6666 41.4953 27.6853 41.5782 27.7228 41.6585C27.7601 41.7385 27.8214 41.8052 27.907 41.8585L35.7916 46.1181Z" fill="#A1F919"/>
</svg>
