<svg width="60" height="60" viewBox="0 0 60 60" fill="none" xmlns="http://www.w3.org/2000/svg">
<path d="M14.6101 48.8944C12.6584 48.8944 11.0016 48.2119 9.63947 46.8469C8.27739 45.4819 7.59635 43.8246 7.59635 41.875H5.6251C4.9851 41.875 4.44843 41.6585 4.0151 41.2256C3.58218 40.7923 3.36572 40.2556 3.36572 39.6156V15.7694C3.36572 14.5065 3.80322 13.4375 4.67822 12.5625C5.55322 11.6875 6.62197 11.25 7.88447 11.25H37.4039C38.6468 11.25 39.7107 11.6925 40.5957 12.5775C41.4807 13.4625 41.9232 14.5265 41.9232 15.7694V20.7694H46.2982C47.0136 20.7694 47.6916 20.9294 48.332 21.2494C48.972 21.5694 49.4991 22.0119 49.9132 22.5769L56.1826 30.9713C56.3334 31.1596 56.4466 31.3667 56.522 31.5925C56.597 31.8188 56.6345 32.0635 56.6345 32.3269V39.6156C56.6345 40.2556 56.418 40.7923 55.9851 41.2256C55.5518 41.6585 55.0151 41.875 54.3751 41.875H52.1157C52.1157 43.8246 51.4326 45.4819 50.0663 46.8469C48.7005 48.2119 47.042 48.8944 45.0907 48.8944C43.1395 48.8944 41.4826 48.2119 40.1201 46.8469C38.758 45.4819 38.077 43.8246 38.077 41.875H21.6345C21.6345 43.83 20.9516 45.4885 19.5857 46.8506C18.2199 48.2131 16.5613 48.8944 14.6101 48.8944ZM14.6157 45.1444C15.5324 45.1444 16.3063 44.8285 16.9376 44.1969C17.5688 43.5656 17.8845 42.7917 17.8845 41.875C17.8845 40.9583 17.5688 40.1842 16.9376 39.5525C16.3063 38.9212 15.5324 38.6056 14.6157 38.6056C13.6991 38.6056 12.9249 38.9212 12.2932 39.5525C11.662 40.1842 11.3463 40.9583 11.3463 41.875C11.3463 42.7917 11.662 43.5656 12.2932 44.1969C12.9249 44.8285 13.6991 45.1444 14.6157 45.1444ZM7.11572 38.125H8.92322C9.45531 37.1987 10.2236 36.4223 11.2282 35.7956C12.2332 35.169 13.3624 34.8556 14.6157 34.8556C15.8366 34.8556 16.9574 35.165 17.9782 35.7838C18.9991 36.4025 19.7755 37.1829 20.3076 38.125H38.1732V15.7694C38.1732 15.5448 38.1011 15.3604 37.957 15.2163C37.8128 15.0721 37.6284 15 37.4039 15H7.88447C7.69239 15 7.51614 15.0802 7.35572 15.2406C7.19572 15.4006 7.11572 15.5769 7.11572 15.7694V38.125ZM45.0963 45.1444C46.013 45.1444 46.787 44.8285 47.4182 44.1969C48.0499 43.5656 48.3657 42.7917 48.3657 41.875C48.3657 40.9583 48.0499 40.1842 47.4182 39.5525C46.787 38.9212 46.013 38.6056 45.0963 38.6056C44.1797 38.6056 43.4055 38.9212 42.7738 39.5525C42.1426 40.1842 41.827 40.9583 41.827 41.875C41.827 42.7917 42.1426 43.5656 42.7738 44.1969C43.4055 44.8285 44.1797 45.1444 45.0963 45.1444ZM41.9232 33.125H53.1251L46.8751 24.8319C46.7951 24.7356 46.703 24.6594 46.5989 24.6031C46.4947 24.5473 46.3784 24.5194 46.2501 24.5194H41.9232V33.125Z" fill="white"/>
</svg>
