<svg width="72" height="72" viewBox="0 0 72 72" fill="none" xmlns="http://www.w3.org/2000/svg">
<path d="M15.9233 61.5C14.4317 61.5 13.155 60.969 12.093 59.907C11.031 58.845 10.5 57.5683 10.5 56.0768V15.9233C10.5 14.4318 11.031 13.155 12.093 12.093C13.155 11.031 14.4317 10.5 15.9233 10.5H29.2733C29.4618 8.8345 30.1888 7.41825 31.4543 6.25125C32.7193 5.08375 34.2393 4.5 36.0143 4.5C37.7893 4.5 39.3095 5.08375 40.575 6.25125C41.8405 7.41825 42.5578 8.8345 42.7268 10.5H56.0768C57.5683 10.5 58.845 11.031 59.907 12.093C60.969 13.155 61.5 14.4318 61.5 15.9233V56.0768C61.5 57.5683 60.969 58.845 59.907 59.907C58.845 60.969 57.5683 61.5 56.0768 61.5H15.9233ZM15.9233 57H56.0768C56.3078 57 56.5193 56.9038 56.7113 56.7113C56.9038 56.5193 57 56.3078 57 56.0768V15.9233C57 15.6923 56.9038 15.4807 56.7113 15.2887C56.5193 15.0962 56.3078 15 56.0768 15H15.9233C15.6923 15 15.4808 15.0962 15.2888 15.2887C15.0963 15.4807 15 15.6923 15 15.9233V56.0768C15 56.3078 15.0963 56.5193 15.2888 56.7113C15.4808 56.9038 15.6923 57 15.9233 57ZM24 49.9035H39C39.6375 49.9035 40.1718 49.6878 40.6028 49.2563C41.0343 48.8253 41.25 48.2908 41.25 47.6528C41.25 47.0153 41.0343 46.481 40.6028 46.05C40.1718 45.6195 39.6375 45.4043 39 45.4043H24C23.3625 45.4043 22.8283 45.6198 22.3973 46.0508C21.9658 46.4823 21.75 47.017 21.75 47.655C21.75 48.2925 21.9658 48.8268 22.3973 49.2578C22.8283 49.6883 23.3625 49.9035 24 49.9035ZM24 38.25H48C48.6375 38.25 49.1718 38.0343 49.6028 37.6028C50.0343 37.1712 50.25 36.6367 50.25 35.9993C50.25 35.3612 50.0343 34.827 49.6028 34.3965C49.1718 33.9655 48.6375 33.75 48 33.75H24C23.3625 33.75 22.8283 33.9658 22.3973 34.3973C21.9658 34.8288 21.75 35.3633 21.75 36.0008C21.75 36.6388 21.9658 37.173 22.3973 37.6035C22.8283 38.0345 23.3625 38.25 24 38.25ZM24 26.5957H48C48.6375 26.5957 49.1718 26.3803 49.6028 25.9492C50.0343 25.5177 50.25 24.983 50.25 24.345C50.25 23.7075 50.0343 23.1733 49.6028 22.7422C49.1718 22.3117 48.6375 22.0965 48 22.0965H24C23.3625 22.0965 22.8283 22.3123 22.3973 22.7438C21.9658 23.1748 21.75 23.7093 21.75 24.3473C21.75 24.9848 21.9658 25.519 22.3973 25.95C22.8283 26.3805 23.3625 26.5957 24 26.5957ZM36 13.0387C36.65 13.0387 37.1875 12.8262 37.6125 12.4012C38.0375 11.9762 38.25 11.4387 38.25 10.7887C38.25 10.1387 38.0375 9.60125 37.6125 9.17625C37.1875 8.75125 36.65 8.53875 36 8.53875C35.35 8.53875 34.8125 8.75125 34.3875 9.17625C33.9625 9.60125 33.75 10.1387 33.75 10.7887C33.75 11.4387 33.9625 11.9762 34.3875 12.4012C34.8125 12.8262 35.35 13.0387 36 13.0387Z" fill="white"/>
</svg>
