<svg width="13" height="12" viewBox="0 0 13 12" fill="none" xmlns="http://www.w3.org/2000/svg">
<path d="M2.65363 10.25C2.40105 10.25 2.18726 10.1625 2.01226 9.9875C1.83726 9.8125 1.74976 9.59871 1.74976 9.34613V4.15388C1.74976 3.90129 1.83726 3.6875 2.01226 3.5125C2.18726 3.3375 2.40105 3.25 2.65363 3.25H4.74976V2.40387C4.74976 2.15129 4.83726 1.9375 5.01226 1.7625C5.18726 1.5875 5.40105 1.5 5.65363 1.5H7.34588C7.59846 1.5 7.81226 1.5875 7.98726 1.7625C8.16226 1.9375 8.24976 2.15129 8.24976 2.40387V3.25H10.3459C10.5985 3.25 10.8123 3.3375 10.9873 3.5125C11.1623 3.6875 11.2498 3.90129 11.2498 4.15388V9.34613C11.2498 9.59871 11.1623 9.8125 10.9873 9.9875C10.8123 10.1625 10.5985 10.25 10.3459 10.25H2.65363ZM5.49976 3.25H7.49976V2.40387C7.49976 2.36537 7.48371 2.33012 7.45163 2.29812C7.41963 2.26604 7.38438 2.25 7.34588 2.25H5.65363C5.61513 2.25 5.57988 2.26604 5.54788 2.29812C5.5158 2.33012 5.49976 2.36537 5.49976 2.40387V3.25ZM10.4998 7.375H7.74976V7.798C7.74976 7.92692 7.70663 8.03446 7.62038 8.12063C7.53421 8.20688 7.42667 8.25 7.29776 8.25H5.70176C5.57284 8.25 5.4653 8.20688 5.37913 8.12063C5.29288 8.03446 5.24976 7.92692 5.24976 7.798V7.375H2.49976V9.34613C2.49976 9.38462 2.5158 9.41988 2.54788 9.45188C2.57988 9.48396 2.61513 9.5 2.65363 9.5H10.3459C10.3844 9.5 10.4196 9.48396 10.4516 9.45188C10.4837 9.41988 10.4998 9.38462 10.4998 9.34613V7.375ZM5.99976 7.5H6.99976V6.5H5.99976V7.5ZM2.49976 6.625H5.24976V6.202C5.24976 6.07308 5.29288 5.96554 5.37913 5.87937C5.4653 5.79313 5.57284 5.75 5.70176 5.75H7.29776C7.42667 5.75 7.53421 5.79313 7.62038 5.87937C7.70663 5.96554 7.74976 6.07308 7.74976 6.202V6.625H10.4998V4.15388C10.4998 4.11538 10.4837 4.08012 10.4516 4.04812C10.4196 4.01604 10.3844 4 10.3459 4H2.65363C2.61513 4 2.57988 4.01604 2.54788 4.04812C2.5158 4.08012 2.49976 4.11538 2.49976 4.15388V6.625Z" fill="white" fill-opacity="0.8"/>
</svg>
