<svg width="52" height="52" viewBox="0 0 52 52" fill="none" xmlns="http://www.w3.org/2000/svg">
<rect width="52" height="52" rx="26" fill="white" fill-opacity="0.08"/>
<path d="M20.4707 19.0005C20.4704 19.5309 20.2595 20.0395 19.8842 20.4144C19.5089 20.7893 19.0001 20.9998 18.4697 20.9995C17.9393 20.9992 17.4307 20.7883 17.0558 20.413C16.6809 20.0378 16.4704 19.5289 16.4707 18.9985C16.471 18.4681 16.6819 17.9595 17.0572 17.5846C17.4325 17.2097 17.9413 16.9992 18.4717 16.9995C19.0021 16.9998 19.5107 17.2107 19.8856 17.586C20.2605 17.9613 20.471 18.4701 20.4707 19.0005ZM20.5307 22.4805H16.5307V35.0005H20.5307V22.4805ZM26.8507 22.4805H22.8707V35.0005H26.8107V28.4305C26.8107 24.7705 31.5807 24.4305 31.5807 28.4305V35.0005H35.5307V27.0705C35.5307 20.9005 28.4707 21.1305 26.8107 24.1605L26.8507 22.4805Z" fill="white"/>
</svg>
