<svg width="32" height="32" viewBox="0 0 32 32" fill="none" xmlns="http://www.w3.org/2000/svg">
<rect width="32" height="32" rx="4" fill="white" fill-opacity="0.08"/>
<g clip-path="url(#clip0_138_3100)">
<g clip-path="url(#clip1_138_3100)">
<path d="M6.81888 12.8459H10.8636V24.9906H6.81888V12.8459ZM8.86593 7C7.49299 7 6.58594 7.90706 6.58594 9.09647C6.58594 10.26 7.45652 11.1918 8.81652 11.1918H8.84123C10.2506 11.1918 11.133 10.26 11.1212 9.09647C11.1083 7.90706 10.2506 7 8.86593 7ZM20.7648 12.5635C18.613 12.5635 17.6553 13.7424 17.1248 14.5741V12.8459H13.093C13.093 12.8459 13.1424 13.9859 13.093 24.9906H17.1248V18.2129C17.1248 17.8459 17.1624 17.4894 17.2589 17.2212C17.5542 16.4976 18.2142 15.7506 19.3318 15.7506C20.7883 15.7506 21.3765 16.8659 21.3765 18.4953V24.9906H25.4095V18.0294C25.4095 14.3035 23.4236 12.5635 20.7648 12.5635Z" fill="#A1F919"/>
</g>
</g>
<defs>
<clipPath id="clip0_138_3100">
<rect width="20" height="20" fill="white" transform="translate(6 6)"/>
</clipPath>
<clipPath id="clip1_138_3100">
<rect width="20" height="20" fill="white" transform="translate(6 6)"/>
</clipPath>
</defs>
</svg>
