<svg width="17" height="16" viewBox="0 0 17 16" fill="none" xmlns="http://www.w3.org/2000/svg">
<path d="M14.2126 6.66731C14.2126 9.99598 10.5199 13.4627 9.2799 14.5333C9.16439 14.6202 9.02377 14.6672 8.87924 14.6672C8.7347 14.6672 8.59409 14.6202 8.47857 14.5333C7.23857 13.4627 3.5459 9.99598 3.5459 6.66731C3.5459 5.25282 4.10781 3.89627 5.108 2.89608C6.10819 1.89588 7.46475 1.33398 8.87924 1.33398C10.2937 1.33398 11.6503 1.89588 12.6505 2.89608C13.6507 3.89627 14.2126 5.25282 14.2126 6.66731Z" stroke="white" stroke-opacity="0.7" strokeWidth="1.2" strokeLinecap="round" strokeLinejoin="round"/>
<path d="M8.87988 8.66602C9.98445 8.66602 10.8799 7.77059 10.8799 6.66602C10.8799 5.56145 9.98445 4.66602 8.87988 4.66602C7.77531 4.66602 6.87988 5.56145 6.87988 6.66602C6.87988 7.77059 7.77531 8.66602 8.87988 8.66602Z" stroke="white" stroke-opacity="0.7" strokeWidth="1.2" strokeLinecap="round" strokeLinejoin="round"/>
</svg>
