<svg width="24" height="24" viewBox="0 0 24 24" fill="none" xmlns="http://www.w3.org/2000/svg">
<path d="M1.50977 18.7886V15.9424C1.50977 15.459 1.67352 15.0498 2.00102 14.7146C2.32852 14.3793 2.7256 14.2052 3.19227 14.1924H6.27502C6.57635 14.1924 6.8626 14.2661 7.13377 14.4136C7.40477 14.5611 7.6256 14.7669 7.79627 15.0309C8.29227 15.7129 8.90727 16.2436 9.64127 16.6231C10.3753 17.0026 11.1615 17.1924 12 17.1924C12.8487 17.1924 13.6416 17.0026 14.3788 16.6231C15.1161 16.2436 15.7277 15.7129 16.2135 15.0309C16.4045 14.7669 16.633 14.5611 16.899 14.4136C17.165 14.2661 17.4403 14.1924 17.725 14.1924H20.8078C21.2846 14.2052 21.6859 14.3793 22.0115 14.7146C22.3372 15.0498 22.5 15.459 22.5 15.9424V18.7886C22.5 19.0463 22.4138 19.2614 22.2413 19.4339C22.0689 19.6062 21.8538 19.6924 21.596 19.6924H16.9038C16.6461 19.6924 16.4311 19.6062 16.2588 19.4339C16.0863 19.2614 16 19.0463 16 18.7886V17.3404C15.4295 17.7764 14.8052 18.1107 14.127 18.3434C13.4487 18.576 12.7397 18.6924 12 18.6924C11.277 18.6924 10.5754 18.575 9.89527 18.3404C9.2151 18.1059 8.58652 17.7706 8.00952 17.3346V18.7886C8.00952 19.0463 7.92335 19.2614 7.75102 19.4339C7.57852 19.6062 7.36343 19.6924 7.10577 19.6924H2.41352C2.15585 19.6924 1.94077 19.6062 1.76827 19.4339C1.59593 19.2614 1.50977 19.0463 1.50977 18.7886ZM12 15.8079C11.3987 15.8079 10.8291 15.6684 10.2913 15.3896C9.7536 15.1108 9.30268 14.7258 8.93852 14.2346C8.68085 13.8629 8.36677 13.5594 7.99627 13.3241C7.62577 13.0889 7.22252 12.9457 6.78652 12.8944C7.21085 12.3739 7.95218 11.9697 9.01052 11.6819C10.0688 11.394 11.0653 11.2501 12 11.2501C12.9347 11.2501 13.9312 11.394 14.9895 11.6819C16.0478 11.9697 16.7923 12.3739 17.223 12.8944C16.7973 12.9457 16.3968 13.0889 16.0213 13.3241C15.6456 13.5594 15.3289 13.8629 15.0713 14.2346C14.7238 14.7424 14.2795 15.1316 13.7385 15.4021C13.1975 15.6726 12.618 15.8079 12 15.8079ZM4.28852 12.8079C3.53218 12.8079 2.88477 12.5386 2.34627 12.0001C1.80777 11.4616 1.53852 10.8142 1.53852 10.0579C1.53852 9.28469 1.80777 8.63311 2.34627 8.10311C2.88477 7.57294 3.53218 7.30786 4.28852 7.30786C5.06152 7.30786 5.7131 7.57294 6.24327 8.10311C6.77343 8.63311 7.03852 9.28469 7.03852 10.0579C7.03852 10.8142 6.77343 11.4616 6.24327 12.0001C5.7131 12.5386 5.06152 12.8079 4.28852 12.8079ZM19.7115 12.8079C18.9552 12.8079 18.3078 12.5386 17.7693 12.0001C17.2308 11.4616 16.9615 10.8142 16.9615 10.0579C16.9615 9.28469 17.2308 8.63311 17.7693 8.10311C18.3078 7.57294 18.9552 7.30786 19.7115 7.30786C20.4845 7.30786 21.1361 7.57294 21.6663 8.10311C22.1964 8.63311 22.4615 9.28469 22.4615 10.0579C22.4615 10.8142 22.1964 11.4616 21.6663 12.0001C21.1361 12.5386 20.4845 12.8079 19.7115 12.8079ZM12 9.80786C11.2437 9.80786 10.5963 9.53861 10.0578 9.00011C9.51927 8.46161 9.25002 7.81419 9.25002 7.05786C9.25002 6.28469 9.51927 5.63311 10.0578 5.10311C10.5963 4.57294 11.2437 4.30786 12 4.30786C12.773 4.30786 13.4246 4.57294 13.9548 5.10311C14.4849 5.63311 14.75 6.28469 14.75 7.05786C14.75 7.81419 14.4849 8.46161 13.9548 9.00011C13.4246 9.53861 12.773 9.80786 12 9.80786Z" fill="white"/>
</svg>
