<svg width="24" height="24" viewBox="0 0 24 24" fill="none" xmlns="http://www.w3.org/2000/svg">
<path d="M8.8 10.9501L10.95 8.77506L9.55 7.35006L9.15 7.75006C8.96667 7.9334 8.7375 8.02923 8.4625 8.03756C8.1875 8.0459 7.95 7.95006 7.75 7.75006C7.55 7.55006 7.45 7.31256 7.45 7.03756C7.45 6.76256 7.55 6.52506 7.75 6.32506L8.125 5.95006L7 4.82506L4.825 7.00006L8.8 10.9501ZM17 19.1751L19.175 17.0001L18.05 15.8751L17.65 16.2501C17.45 16.4501 17.2167 16.5501 16.95 16.5501C16.6833 16.5501 16.45 16.4501 16.25 16.2501C16.05 16.0501 15.95 15.8167 15.95 15.5501C15.95 15.2834 16.05 15.0501 16.25 14.8501L16.625 14.4501L15.2 13.0501L13.05 15.2001L17 19.1751ZM4 21.0001C3.71667 21.0001 3.47917 20.9042 3.2875 20.7126C3.09583 20.5209 3 20.2834 3 20.0001V17.1751C3 17.0417 3.025 16.9126 3.075 16.7876C3.125 16.6626 3.2 16.5501 3.3 16.4501L7.375 12.3751L3.05 8.05006C2.76667 7.76673 2.625 7.41673 2.625 7.00006C2.625 6.5834 2.76667 6.2334 3.05 5.95006L5.95 3.05006C6.23333 2.76673 6.58333 2.62923 7 2.63756C7.41667 2.6459 7.76667 2.79173 8.05 3.07506L12.4 7.40006L16.175 3.60006C16.375 3.40006 16.6 3.25006 16.85 3.15006C17.1 3.05006 17.3583 3.00006 17.625 3.00006C17.8917 3.00006 18.15 3.05006 18.4 3.15006C18.65 3.25006 18.875 3.40006 19.075 3.60006L20.4 4.95006C20.6 5.15006 20.75 5.37506 20.85 5.62506C20.95 5.87506 21 6.1334 21 6.40006C21 6.66673 20.95 6.9209 20.85 7.16256C20.75 7.40423 20.6 7.62506 20.4 7.82506L16.625 11.6251L20.95 15.9501C21.2333 16.2334 21.375 16.5834 21.375 17.0001C21.375 17.4167 21.2333 17.7667 20.95 18.0501L18.05 20.9501C17.7667 21.2334 17.4167 21.3751 17 21.3751C16.5833 21.3751 16.2333 21.2334 15.95 20.9501L11.625 16.6251L7.55 20.7001C7.45 20.8001 7.3375 20.8751 7.2125 20.9251C7.0875 20.9751 6.95833 21.0001 6.825 21.0001H4ZM5 19.0001H6.4L16.2 9.22506L14.775 7.80006L5 17.6001V19.0001ZM15.5 8.52506L14.775 7.80006L16.2 9.22506L15.5 8.52506Z" fill="white"/>
</svg>
