<svg width="24" height="24" viewBox="0 0 24 24" fill="none" xmlns="http://www.w3.org/2000/svg">
<path d="M6.85002 12L9.30002 14.45C9.50002 14.65 9.59586 14.8833 9.58752 15.15C9.57919 15.4167 9.48336 15.65 9.30002 15.85C9.10002 16.05 8.86252 16.1542 8.58752 16.1625C8.31252 16.1708 8.07502 16.075 7.87502 15.875L4.70002 12.7C4.50002 12.5 4.40002 12.2667 4.40002 12C4.40002 11.7333 4.50002 11.5 4.70002 11.3L7.87502 8.125C8.07502 7.925 8.31252 7.82917 8.58752 7.8375C8.86252 7.84583 9.10002 7.95 9.30002 8.15C9.48336 8.35 9.57919 8.58333 9.58752 8.85C9.59586 9.11667 9.50002 9.35 9.30002 9.55L6.85002 12ZM7.00002 20V21H17V20H7.00002ZM7.00002 4H17V3H7.00002V4ZM17.15 12L14.7 9.55C14.5 9.35 14.4042 9.11667 14.4125 8.85C14.4209 8.58333 14.5167 8.35 14.7 8.15C14.9 7.95 15.1375 7.84583 15.4125 7.8375C15.6875 7.82917 15.925 7.925 16.125 8.125L19.3 11.3C19.5 11.5 19.6 11.7333 19.6 12C19.6 12.2667 19.5 12.5 19.3 12.7L16.125 15.875C15.925 16.075 15.6875 16.1708 15.4125 16.1625C15.1375 16.1542 14.9 16.05 14.7 15.85C14.5167 15.65 14.4209 15.4167 14.4125 15.15C14.4042 14.8833 14.5 14.65 14.7 14.45L17.15 12ZM7.00002 23C6.45002 23 5.97919 22.8042 5.58752 22.4125C5.19586 22.0208 5.00002 21.55 5.00002 21V18C5.00002 17.7167 5.09586 17.4792 5.28752 17.2875C5.47919 17.0958 5.71669 17 6.00002 17C6.28336 17 6.52086 17.0958 6.71252 17.2875C6.90419 17.4792 7.00002 17.7167 7.00002 18H17C17 17.7167 17.0959 17.4792 17.2875 17.2875C17.4792 17.0958 17.7167 17 18 17C18.2834 17 18.5209 17.0958 18.7125 17.2875C18.9042 17.4792 19 17.7167 19 18V21C19 21.55 18.8042 22.0208 18.4125 22.4125C18.0209 22.8042 17.55 23 17 23H7.00002ZM7.00002 1H17C17.55 1 18.0209 1.19583 18.4125 1.5875C18.8042 1.97917 19 2.45 19 3V6C19 6.28333 18.9042 6.52083 18.7125 6.7125C18.5209 6.90417 18.2834 7 18 7C17.7167 7 17.4792 6.90417 17.2875 6.7125C17.0959 6.52083 17 6.28333 17 6H7.00002C7.00002 6.28333 6.90419 6.52083 6.71252 6.7125C6.52086 6.90417 6.28336 7 6.00002 7C5.71669 7 5.47919 6.90417 5.28752 6.7125C5.09586 6.52083 5.00002 6.28333 5.00002 6V3C5.00002 2.45 5.19586 1.97917 5.58752 1.5875C5.97919 1.19583 6.45002 1 7.00002 1Z" fill="white"/>
</svg>
