<svg width="25" height="24" viewBox="0 0 25 24" fill="none" xmlns="http://www.w3.org/2000/svg">
<path d="M12.5 11V10.5M16.5 11V10.5M8.5 11V10.5M3.964 16.828C2.5 15.657 2.5 14.771 2.5 11C2.5 7.229 2.5 5.343 3.964 4.172C5.43 3 7.786 3 12.5 3C17.214 3 19.571 3 21.035 4.172C22.499 5.344 22.5 7.229 22.5 11C22.5 14.771 22.5 15.657 21.035 16.828C19.572 18 17.214 18 12.5 18C9.99 18 8.7 19.738 6.5 21V17.788C5.406 17.625 4.601 17.338 3.964 16.828Z" stroke="white" strokeWidth="1.5" strokeLinecap="round" strokeLinejoin="round"/>
</svg>
