<svg width="32" height="32" viewBox="0 0 32 32" fill="none" xmlns="http://www.w3.org/2000/svg">
<path d="M17.0055 10.3281L17.0055 22.0564C17.0055 22.3402 16.9098 22.5777 16.7182 22.7691C16.5269 22.9606 16.2893 23.0564 16.0055 23.0564C15.7218 23.0564 15.4842 22.9606 15.2929 22.7691C15.1013 22.5777 15.0055 22.3402 15.0055 22.0564L15.0055 10.3281L10.5749 14.7591C10.3902 14.9435 10.1581 15.038 9.87853 15.0424C9.5992 15.0466 9.36286 14.9522 9.16953 14.7591C8.97642 14.5657 8.87986 14.3315 8.87986 14.0564C8.87986 13.7813 8.97642 13.5471 9.16953 13.3537L15.1619 7.3614C15.403 7.12051 15.6842 7.00006 16.0055 7.00006C16.3269 7.00006 16.6081 7.12051 16.8492 7.3614L22.8415 13.3537C23.026 13.5384 23.1204 13.7705 23.1249 14.0501C23.1291 14.3294 23.0346 14.5657 22.8415 14.7591C22.6482 14.9522 22.414 15.0487 22.1389 15.0487C21.8638 15.0487 21.6295 14.9522 21.4362 14.7591L17.0055 10.3281Z" fill="white"/>
</svg>
