<svg width="156" height="156" viewBox="0 0 156 156" fill="none" xmlns="http://www.w3.org/2000/svg">
<path d="M108.641 13.8255C103.207 11.0305 96.1476 15.535 82.0231 24.5505L78.3701 26.8905C74.3531 29.4515 72.3446 30.732 70.0956 31.1025C67.8401 31.4665 65.5976 30.8815 61.1126 29.705L57.0306 28.639C41.2421 24.4985 33.3446 22.425 28.8336 26.845C24.3096 31.265 26.1556 39.247 29.8541 55.2045L30.8096 59.332C31.8561 63.8625 32.3826 66.131 31.9601 68.3865C31.5311 70.6355 30.2051 72.6115 27.5401 76.5765L25.1221 80.184C15.7686 94.1264 11.0951 101.094 13.7276 106.619C16.3666 112.144 24.5696 112.567 40.9756 113.412L45.2266 113.626C49.8871 113.867 52.2206 113.99 54.2096 115.011C56.1986 116.038 57.6156 117.845 60.4626 121.472L63.0496 124.767C73.0531 137.52 78.0581 143.897 84.2071 142.889C90.3496 141.888 93.5735 134.166 100.022 118.729L101.692 114.738C103.525 110.35 104.435 108.16 106.093 106.541C107.75 104.916 109.96 104.058 114.374 102.336L118.391 100.776C133.926 94.7114 141.7 91.6759 142.863 85.5335C144.027 79.391 137.813 74.1975 125.391 63.8105L122.174 61.126C118.644 58.175 116.876 56.706 115.914 54.678C114.946 52.65 114.887 50.31 114.777 45.6235L114.673 41.353C114.27 24.856 114.068 16.614 108.641 13.819M126.945 120.055C126.498 119.576 125.96 119.192 125.362 118.925C124.764 118.659 124.119 118.516 123.464 118.504C122.809 118.493 122.159 118.613 121.552 118.858C120.945 119.103 120.394 119.468 119.931 119.931C119.468 120.394 119.103 120.946 118.858 121.553C118.613 122.16 118.492 122.81 118.504 123.464C118.515 124.119 118.659 124.764 118.925 125.362C119.191 125.96 119.576 126.499 120.055 126.945L133.055 139.945C133.501 140.424 134.039 140.808 134.637 141.075C135.235 141.341 135.881 141.484 136.535 141.496C137.19 141.507 137.84 141.387 138.447 141.142C139.054 140.897 139.605 140.532 140.068 140.069C140.531 139.606 140.896 139.054 141.141 138.447C141.387 137.84 141.507 137.19 141.495 136.536C141.484 135.881 141.341 135.235 141.074 134.637C140.808 134.039 140.424 133.501 139.945 133.055L126.945 120.055Z" fill="white"/>
</svg>
