<svg width="21" height="20" viewBox="0 0 21 20" fill="none" xmlns="http://www.w3.org/2000/svg">
<path d="M3.83073 17.5C3.3724 17.5 2.98003 17.3368 2.65365 17.0104C2.32726 16.684 2.16406 16.2917 2.16406 15.8333V2.5L3.5599 3.89583L4.9349 2.5L6.33073 3.89583L7.72656 2.5L9.10156 3.89583L10.4974 2.5L11.8932 3.89583L13.2682 2.5L14.6641 3.89583L16.0599 2.5L17.4349 3.89583L18.8307 2.5V15.8333C18.8307 16.2917 18.6675 16.684 18.3411 17.0104C18.0148 17.3368 17.6224 17.5 17.1641 17.5H3.83073ZM3.83073 15.8333H9.66406V10.8333H3.83073V15.8333ZM11.3307 15.8333H17.1641V14.1667H11.3307V15.8333ZM11.3307 12.5H17.1641V10.8333H11.3307V12.5ZM3.83073 9.16667H17.1641V6.66667H3.83073V9.16667Z" fill="white" fill-opacity="0.8"/>
</svg>
