<svg width="72" height="72" viewBox="0 0 72 72" fill="none" xmlns="http://www.w3.org/2000/svg">
<path d="M12.9233 61.5C11.4077 61.5 10.125 60.975 9.075 59.925C8.025 58.875 7.5 57.5923 7.5 56.0768V24.9233C7.5 23.4078 8.025 22.125 9.075 21.075C10.125 20.025 11.4077 19.5 12.9233 19.5H25.5V14.4233C25.5 12.9077 26.025 11.625 27.075 10.575C28.125 9.525 29.4078 9 30.9233 9H41.0768C42.5923 9 43.875 9.525 44.925 10.575C45.975 11.625 46.5 12.9077 46.5 14.4233V19.5H59.0768C60.5923 19.5 61.875 20.025 62.925 21.075C63.975 22.125 64.5 23.4078 64.5 24.9233V56.0768C64.5 57.5923 63.975 58.875 62.925 59.925C61.875 60.975 60.5923 61.5 59.0768 61.5H12.9233ZM12.9233 57H59.0768C59.3078 57 59.5193 56.9038 59.7113 56.7113C59.9038 56.5193 60 56.3078 60 56.0768V24.9233C60 24.6923 59.9038 24.4807 59.7113 24.2887C59.5193 24.0962 59.3078 24 59.0768 24H12.9233C12.6923 24 12.4808 24.0962 12.2888 24.2887C12.0963 24.4807 12 24.6923 12 24.9233V56.0768C12 56.3078 12.0963 56.5193 12.2888 56.7113C12.4808 56.9038 12.6923 57 12.9233 57ZM30 19.5H42V14.4233C42 14.1923 41.9038 13.9807 41.7113 13.7887C41.5193 13.5962 41.3078 13.5 41.0768 13.5H30.9233C30.6923 13.5 30.4808 13.5962 30.2888 13.7887C30.0963 13.9807 30 14.1923 30 14.4233V19.5Z" fill="white"/>
</svg>
