<svg width="17" height="16" viewBox="0 0 17 16" fill="none" xmlns="http://www.w3.org/2000/svg">
<path d="M2.87988 3.33333C2.87988 2.97971 3.02036 2.64057 3.2704 2.39052C3.52045 2.14048 3.85959 2 4.21321 2H6.39988C6.53974 2.00011 6.67603 2.0442 6.78945 2.12603C6.90287 2.20787 6.98768 2.3233 7.03188 2.456L8.03055 5.45133C8.08115 5.60356 8.07516 5.76893 8.01369 5.9171C7.95222 6.06527 7.83938 6.1863 7.69588 6.258L6.19121 7.01133C6.92876 8.64369 8.23619 9.95112 9.86855 10.6887L10.6219 9.184C10.6936 9.0405 10.8146 8.92766 10.9628 8.86619C11.111 8.80472 11.2763 8.79873 11.4286 8.84933L14.4239 9.848C14.5567 9.89223 14.6722 9.97714 14.7541 10.0907C14.8359 10.2043 14.8799 10.3407 14.8799 10.4807V12.6667C14.8799 13.0203 14.7394 13.3594 14.4894 13.6095C14.2393 13.8595 13.9002 14 13.5466 14H12.8799C7.35721 14 2.87988 9.52267 2.87988 4V3.33333Z" stroke="white" stroke-opacity="0.7" strokeWidth="1.2" strokeLinecap="round" strokeLinejoin="round"/>
</svg>
