<svg width="25" height="24" viewBox="0 0 25 24" fill="none" xmlns="http://www.w3.org/2000/svg">
<path d="M8.5 17.1781V6.82812C8.5 6.54479 8.6 6.30729 8.8 6.11562C9 5.92396 9.23333 5.82812 9.5 5.82812C9.58333 5.82812 9.67083 5.84063 9.7625 5.86563C9.85417 5.89062 9.94167 5.92813 10.025 5.97813L18.175 11.1531C18.325 11.2531 18.4375 11.3781 18.5125 11.5281C18.5875 11.6781 18.625 11.8365 18.625 12.0031C18.625 12.1698 18.5875 12.3281 18.5125 12.4781C18.4375 12.6281 18.325 12.7531 18.175 12.8531L10.025 18.0281C9.94167 18.0781 9.85417 18.1156 9.7625 18.1406C9.67083 18.1656 9.58333 18.1781 9.5 18.1781C9.23333 18.1781 9 18.0823 8.8 17.8906C8.6 17.699 8.5 17.4615 8.5 17.1781Z" fill="white"/>
</svg>
