<svg width="280" height="280" viewBox="0 0 280 280" fill="none" xmlns="http://www.w3.org/2000/svg">
<path d="M251.364 114.545H244.926C244.393 93.5698 237.55 73.2421 225.29 56.2143C213.03 39.1864 195.922 26.2493 176.199 19.0908H229.543C230.318 22.0901 232.159 24.7041 234.723 26.4427C237.287 28.1813 240.397 28.9251 243.47 28.5348C246.543 28.1444 249.368 26.6467 251.416 24.3224C253.464 21.9981 254.593 19.0067 254.593 15.9089C254.593 12.8112 253.464 9.81981 251.416 7.49548C249.368 5.17114 246.543 3.67344 243.47 3.28311C240.397 2.89278 237.287 3.63663 234.723 5.37521C232.159 7.1138 230.318 9.72776 229.543 12.7271H152.728V6.36349C152.728 5.51962 152.392 4.71031 151.796 4.1136C151.199 3.5169 150.39 3.18167 149.546 3.18167H130.455C129.611 3.18167 128.802 3.5169 128.205 4.1136C127.608 4.71031 127.273 5.51962 127.273 6.36349V12.7271H50.4576C49.6832 9.72776 47.8414 7.1138 45.2776 5.37521C42.7138 3.63663 39.6039 2.89278 36.5308 3.28311C33.4578 3.67344 30.6326 5.17114 28.5848 7.49548C26.537 9.81981 25.4072 12.8112 25.4072 15.9089C25.4072 19.0067 26.537 21.9981 28.5848 24.3224C30.6326 26.6467 33.4578 28.1444 36.5308 28.5348C39.6039 28.9251 42.7138 28.1813 45.2776 26.4427C47.8414 24.7041 49.6832 22.0901 50.4576 19.0908H103.801C84.0781 26.2493 66.9704 39.1864 54.7103 56.2143C42.4503 73.2421 35.6073 93.5698 35.0742 114.545H28.6367C27.7928 114.545 26.9835 114.881 26.3868 115.477C25.7901 116.074 25.4549 116.883 25.4549 117.727V136.818C25.4549 137.662 25.7901 138.471 26.3868 139.068C26.9835 139.665 27.7928 140 28.6367 140H47.7276C48.5715 140 49.3808 139.665 49.9775 139.068C50.5742 138.471 50.9094 137.662 50.9094 136.818V117.727C50.9094 116.883 50.5742 116.074 49.9775 115.477C49.3808 114.881 48.5715 114.545 47.7276 114.545H41.4384C42.0769 91.1188 51.0852 68.6959 66.8312 51.3387C82.5771 33.9815 104.019 22.8383 127.273 19.9279V25.4544C127.273 26.2983 127.608 27.1076 128.205 27.7043C128.802 28.301 129.611 28.6362 130.455 28.6362H149.546C150.39 28.6362 151.199 28.301 151.796 27.7043C152.392 27.1076 152.728 26.2983 152.728 25.4544V19.9279C175.981 22.8383 197.424 33.9815 213.17 51.3387C228.916 68.6959 237.924 91.1188 238.562 114.545H232.273C231.429 114.545 230.62 114.881 230.023 115.477C229.426 116.074 229.091 116.883 229.091 117.727V136.818C229.091 137.662 229.426 138.471 230.023 139.068C230.62 139.665 231.429 140 232.273 140H251.364C252.208 140 253.017 139.665 253.614 139.068C254.211 138.471 254.546 137.662 254.546 136.818V117.727C254.546 116.883 254.211 116.074 253.614 115.477C253.017 114.881 252.208 114.545 251.364 114.545Z" fill="#A1F919"/>
<path d="M149.21 43.1216C148.889 42.4804 148.362 41.9662 147.712 41.6623C147.063 41.3584 146.33 41.2827 145.633 41.4474C144.935 41.6122 144.313 42.0077 143.868 42.5699C143.424 43.1321 143.182 43.828 143.182 44.5449V147.668C143.182 148.283 143.361 148.886 143.697 149.402C144.033 149.919 144.511 150.326 145.074 150.576C147.757 151.742 149.956 153.797 151.302 156.395C152.647 158.993 153.056 161.975 152.461 164.839C151.865 167.703 150.301 170.275 148.031 172.121C145.762 173.967 142.926 174.975 140 174.975C137.075 174.975 134.238 173.967 131.969 172.121C129.699 170.275 128.135 167.703 127.539 164.839C126.944 161.975 127.353 158.993 128.698 156.395C130.044 153.797 132.243 151.742 134.926 150.576C135.489 150.326 135.968 149.919 136.303 149.402C136.639 148.886 136.818 148.283 136.818 147.668V44.5449C136.818 43.828 136.576 43.1321 136.132 42.5699C135.687 42.0077 135.065 41.6122 134.368 41.4474C133.67 41.2827 132.937 41.3584 132.288 41.6623C131.638 41.9662 131.111 42.4804 130.79 43.1216L70.3357 164.031C70.1149 164.473 70 164.96 70 165.454C70 165.948 70.1149 166.435 70.3357 166.877L93.4876 213.181H186.513L209.664 166.877C209.885 166.435 210 165.948 210 165.454C210 164.96 209.885 164.473 209.664 164.031L149.21 43.1216Z" fill="#3E03B3"/>
<path d="M194.091 219.545H85.9094C84.1521 219.545 82.7275 220.969 82.7275 222.727V241.818C82.7275 243.575 84.1521 244.999 85.9094 244.999H194.091C195.848 244.999 197.273 243.575 197.273 241.818V222.727C197.273 220.969 195.848 219.545 194.091 219.545Z" fill="#3E03B3"/>
<path d="M92.2734 273.636C92.2734 274.48 92.6087 275.289 93.2054 275.886C93.8021 276.483 94.6114 276.818 95.4553 276.818H184.546C185.39 276.818 186.199 276.483 186.796 275.886C187.393 275.289 187.728 274.48 187.728 273.636V251.363H92.2734V273.636Z" fill="#3E03B3"/>
</svg>
