<svg width="301" height="258" viewBox="0 0 301 258" fill="none" xmlns="http://www.w3.org/2000/svg">
<path d="M54.5855 8.91216C54.5855 14.3474 54.4922 18.1964 54.3522 18.7096C54.049 19.736 53.1392 20.879 52.2295 21.3456C51.8795 21.5322 50.7132 21.9754 49.6401 22.302C48.5904 22.6519 46.6309 23.375 45.3013 23.9582C42.3387 25.2179 41.8955 25.3112 40.5659 24.9613C39.6561 24.728 38.7697 23.9116 32.9379 18.1264L26.3597 11.5481L18.965 18.9662L11.5469 26.3609L17.5187 32.356C22.1608 37.0214 23.5604 38.5844 23.7937 39.2842C24.2602 40.7305 23.9803 42.1301 22.7673 44.2529C22.1608 45.3026 21.1111 47.612 20.4112 49.3849C19.0116 52.8839 18.2418 53.887 16.5856 54.3536C16.0957 54.4935 12.3867 54.5868 7.88457 54.5868H0V65.0841V75.5813H8.32779H16.6322L17.612 76.1645C18.8483 76.8876 19.1283 77.3075 20.178 80.1534C20.6678 81.4131 21.7176 83.7691 22.534 85.3554C24.0969 88.3879 24.3302 89.4377 23.7703 90.9073C23.6537 91.2572 20.8311 94.2664 17.542 97.5789L11.5469 103.574L18.9416 110.969L26.3597 118.387L32.728 112.042C36.8569 107.936 39.3995 105.557 39.9594 105.323C41.219 104.81 42.6653 104.88 44.2282 105.58C45.7445 106.257 49.8268 107.773 50.13 107.773C50.2466 107.773 50.4566 107.283 50.5966 106.7C50.9698 105.254 52.9526 99.8882 53.8624 97.8821C54.2589 96.9957 54.5855 96.1559 54.5855 95.9926C54.5855 95.8526 54.1656 95.596 53.6291 95.4328C51.9029 94.9196 47.7506 92.6568 45.7212 91.1172C41.6156 88.038 37.58 83.1393 35.5506 78.7538C32.0748 71.1958 31.5849 62.4481 34.1976 54.6101C36.1804 48.685 40.4026 42.8532 45.4646 39.0742C47.9606 37.1847 52.1595 35.0153 55.122 34.0822C61.6769 32.0061 68.885 32.0527 75.3233 34.1988C84.0943 37.1381 91.7923 44.4162 95.0814 52.9073C95.5713 54.1436 95.9912 55.2167 96.0145 55.2633C96.0611 55.2866 97.4141 54.8201 99.0703 54.1669C102.266 52.9073 105.555 51.8342 108.005 51.2044C108.844 50.9944 109.661 50.7845 109.801 50.7378C110.151 50.6212 109.358 48.6384 107.281 44.4395C105.789 41.407 105.625 40.5438 106.278 39.0042C106.512 38.4444 108.681 36.0883 112.507 32.2394L118.385 26.3609L110.967 18.9662L103.572 11.5481L96.9942 18.1264C88.8064 26.2676 89.4129 25.9877 84.5609 23.9116C83.2779 23.3517 81.3417 22.6519 80.292 22.302C79.2189 21.9754 78.0526 21.5322 77.6794 21.3456C76.7463 20.8557 75.8832 19.666 75.6032 18.4297C75.4633 17.7998 75.3466 13.8109 75.3466 8.67889V0.0011673H64.9661H54.5855V8.91216Z" fill="#3E03B3"/>
<path d="M212.581 23.445C212.161 23.6316 211.601 24.1214 211.344 24.5413C210.901 25.2878 210.878 25.6844 210.878 35.7384V46.1657L211.601 47.0054C212.977 48.545 215.1 48.545 216.453 46.9821L217.176 46.1657V35.7384C217.176 25.6844 217.153 25.2878 216.71 24.5413C215.917 23.235 214.12 22.7685 212.581 23.445Z" fill="#3E03B3"/>
<path d="M164.573 36.3676C163.43 36.8808 162.824 37.8839 162.824 39.2368C162.824 40.3332 162.544 39.7967 169.868 52.4867C172.971 57.8753 173.577 58.5518 175.164 58.5518C177.613 58.5518 179.176 55.9858 178.08 53.8163C177.03 51.7869 168.749 37.6039 168.329 37.1141C167.792 36.5076 166.579 35.9244 165.926 35.9244C165.693 35.9244 165.086 36.1343 164.573 36.3676Z" fill="#3E03B3"/>
<path d="M260.914 36.251C260.541 36.4142 260.028 36.7642 259.818 37.0208C259.584 37.254 257.205 41.2896 254.499 45.9551C249.227 55.076 249.157 55.2859 250.02 56.8955C250.533 57.8519 251.746 58.5518 252.889 58.5518C254.546 58.5518 255.059 57.9453 258.885 51.3203C264.95 40.8697 265.3 40.1933 265.3 39.2368C265.3 37.9305 264.646 36.8808 263.527 36.3676C262.384 35.8544 261.87 35.8311 260.914 36.251Z" fill="#3E03B3"/>
<path d="M61.8866 38.7228C51.716 40.0058 43.0849 47.004 39.9358 56.5681C38.1163 62.0267 38.1629 68.5116 40.0524 73.8302C41.8719 78.9389 45.301 83.441 49.7565 86.6369C51.3894 87.8032 55.6816 89.9493 56.8479 90.1826C57.5244 90.3226 57.5944 90.2526 58.4342 88.8296C65.6656 76.7928 75.6496 66.8088 87.4765 59.8339C88.9461 58.9475 90.2524 58.1777 90.3457 58.0844C90.6256 57.8511 89.7159 55.3318 88.5262 52.9524C84.9338 45.8143 77.9823 40.5657 70.0978 39.0727C67.8117 38.6295 63.9394 38.4662 61.8866 38.7228Z" fill="#3E03B3"/>
<path d="M123.167 54.7249C122.723 54.7716 121.3 54.9349 120.017 55.0748C106.628 56.4978 92.888 62.213 81.8076 70.9606C78.7284 73.3867 72.2201 79.9183 69.7474 83.0441C60.8131 94.2878 55.2146 107.818 53.5584 122.001C51.6456 138.26 54.958 154.822 62.8659 168.795C71.6136 184.191 84.9567 195.831 101.356 202.316C107.257 204.649 113.766 206.258 120.484 207.028C124.333 207.495 132.334 207.541 136.113 207.168C144.394 206.305 152.535 204.112 160 200.73C163.149 199.307 163.732 199.004 168.025 196.438L170.987 194.665V193.032C170.987 189.976 169.914 182.395 169.378 181.532C169.261 181.322 168.468 181.788 166.742 183.071C158.017 189.579 148.313 193.498 136.813 195.155C133.384 195.645 125.103 195.715 121.65 195.295C102.475 192.845 86.263 182.931 75.6959 167.139C64.3122 150.133 61.6063 129.022 68.3478 109.567C75.6492 88.3861 93.7511 72.4069 115.679 67.7881C123.773 66.0619 133.361 66.0153 141.408 67.6482C148.36 69.0712 156.011 72.057 161.726 75.6028L163.593 76.7691L166.182 74.2265C167.605 72.8502 169.634 71.0073 170.707 70.1675L172.643 68.6046L170.567 67.2283C161.236 60.93 150.156 56.7777 138.446 55.1681C135.787 54.7949 125.196 54.4917 123.167 54.7249Z" fill="#A1F919"/>
<path d="M208.553 61.3145C187.239 63.5273 167.955 76.5712 158.441 95.2752C152.028 107.876 150.606 120.571 154.08 134.011C156.505 143.281 160.609 152.272 166.416 160.984C170.1 166.504 172.595 171.209 174.088 175.448C175.813 180.316 176.956 185.767 177.329 191.101L177.492 193.36H191.25H205.008L204.868 177.102C204.775 168.181 204.705 156.511 204.705 151.177V141.464L200.344 141.371C196.38 141.278 195.797 141.208 194.282 140.672C190.457 139.321 187.589 136.27 186.423 132.357C185.84 130.424 185.91 124.95 186.516 122.97C187.426 120.012 189.804 117.194 192.556 115.819C194.958 114.585 196.147 114.398 201.207 114.398C205.498 114.398 205.824 114.445 206.944 114.957C207.573 115.26 208.506 115.959 208.972 116.518C210.441 118.218 210.535 118.871 210.535 127.489V135.129H214.219H217.88L217.81 127.303C217.74 118.172 217.787 117.846 219.629 116.006C221.215 114.422 222.264 114.165 227.091 114.165C229.819 114.165 231.358 114.282 232.338 114.515C236.582 115.633 240.08 119.127 241.199 123.366C241.689 125.276 241.689 130.424 241.175 132.124C240.173 135.525 237.911 138.203 234.763 139.764C232.431 140.882 230.845 141.185 226.928 141.185H224.06V151.364C224.06 156.977 224.13 168.717 224.223 177.451L224.363 193.36H237.818H251.296L251.436 191.311C252.089 182.716 253.954 175.868 257.569 168.81C258.291 167.436 260.204 164.291 261.836 161.822C265.45 156.395 266.266 154.974 268.505 150.432C272.073 143.141 274.615 135.595 275.99 128.258C276.573 125.043 276.573 115.61 275.99 112.209C273.798 99.6309 268.295 89.1492 259.061 79.902C249.057 69.9328 236.931 63.8069 222.894 61.6406C219.955 61.1981 211.561 60.9884 208.553 61.3145Z" fill="#3E03B3"/>
<path d="M296.255 71.404C295.928 71.5206 291.893 73.8067 287.297 76.466C281.069 80.0584 278.806 81.4813 278.48 81.9945C277.92 82.9276 277.943 84.5838 278.503 85.5169C279.04 86.38 280.742 87.1265 281.722 86.9399C282.095 86.8699 286.201 84.6072 290.89 81.9012C297.118 78.3088 299.544 76.8159 299.941 76.256C300.874 74.903 300.524 72.6403 299.194 71.7772C298.448 71.2873 297.001 71.1007 296.255 71.404Z" fill="#3E03B3"/>
<path d="M121.885 72.8276C111.621 73.9706 100.867 78.5194 92.6091 85.1677C76.4434 98.2076 68.3255 118.992 71.358 139.637C74.134 158.392 85.5409 174.464 102.243 183.142C108.192 186.221 113.907 188.041 120.835 189.114C124.147 189.604 132.708 189.674 135.881 189.23C144.535 187.994 151.79 185.451 158.835 181.206C160.981 179.899 165.88 176.284 166.719 175.374L167.233 174.814L165.763 171.875C164.947 170.265 162.87 166.813 161.144 164.2C157.528 158.742 155.709 155.546 153.633 150.997C149.527 142.016 146.938 133.245 146.005 125.267C145.468 120.438 145.958 112.974 147.218 107.165C148.991 98.9541 153.423 89.4366 158.578 82.7183C159.558 81.4587 159.605 81.342 159.208 81.0854C151.907 76.6533 143.346 73.6907 135.181 72.7809C132.662 72.501 124.497 72.5243 121.885 72.8276Z" fill="#A1F919"/>
<path d="M198.957 120.113C195.948 120.253 195.738 120.299 194.641 120.952C192.355 122.375 191.329 124.871 191.585 128.487C191.749 130.89 192.332 132.15 193.778 133.433C195.318 134.786 196.531 135.065 200.66 135.065H204.112V127.484V119.903L203.132 119.949C202.572 119.973 200.706 120.043 198.957 120.113Z" fill="#3E03B3"/>
<path d="M223.475 127.364V134.829H226.577C230.379 134.829 231.732 134.479 233.155 133.173C233.715 132.66 234.415 131.75 234.695 131.143C235.185 130.164 235.231 129.72 235.208 127.294C235.185 124.822 235.115 124.402 234.555 123.282C234.228 122.582 233.552 121.696 233.039 121.299C231.546 120.133 230.566 119.9 226.834 119.9H223.475V127.364Z" fill="#3E03B3"/>
<path d="M210.347 141.443C210.273 142.001 210.397 165.437 210.545 178.294L210.693 193.36H214.515H218.338L218.19 173.784C218.091 163.019 218.017 151.301 218.017 147.743V141.28H214.194C212.098 141.28 210.372 141.35 210.347 141.443Z" fill="#3E03B3"/>
<path d="M60.1841 184.865L56.5684 188.481L63.9164 195.829L71.2645 203.177L74.8102 199.631L78.3792 196.062L75.9299 194.009C72.874 191.42 68.092 186.498 65.6893 183.512C64.6862 182.276 63.8464 181.249 63.8231 181.249C63.7998 181.249 62.1669 182.882 60.1841 184.865Z" fill="#A1F919"/>
<path d="M46.7245 190.838C44.3684 191.282 45.8147 189.859 15.3961 220.86C9.42439 226.949 4.26909 232.337 3.91918 232.851C2.63619 234.717 2.42624 237.26 3.35933 239.219C4.1058 240.782 20.3881 257.064 21.7878 257.624C22.301 257.834 23.3507 257.997 24.2371 257.997C27.153 257.997 26.4065 258.651 45.4415 239.242C68.8153 215.425 68.0455 216.218 68.6053 214.982C69.3051 213.396 69.3985 211.903 68.9319 210.27C68.5353 208.917 68.3721 208.73 60.1376 200.473C54.5857 194.874 51.3666 191.841 50.6434 191.445C49.4071 190.792 48.1241 190.582 46.7245 190.838Z" fill="#A1F919"/>
<path d="M180.949 207.004C179.83 207.424 179.503 207.681 179.06 208.637C178.547 209.71 178.593 210.527 179.2 211.6C180.18 213.326 177.474 213.209 214.144 213.209C246.779 213.209 247.105 213.209 247.852 212.743C249.881 211.483 249.788 208.357 247.665 207.214C246.965 206.818 245.029 206.794 214.377 206.748C187.574 206.701 181.672 206.748 180.949 207.004Z" fill="#3E03B3"/>
<path d="M188.506 220.395C187.247 221.025 186.733 221.888 186.733 223.381C186.733 224.524 186.803 224.711 187.62 225.504L188.483 226.39L213.746 226.46C237.866 226.507 239.033 226.483 239.779 226.087C242.042 224.874 241.902 221.561 239.569 220.395C238.8 219.998 237.097 219.975 214.026 219.975C190.956 219.975 189.253 219.998 188.506 220.395Z" fill="#3E03B3"/>
<path d="M195.038 233.691C193.849 234.298 193.312 235.161 193.289 236.514C193.265 237.867 193.802 238.776 195.038 239.383C195.761 239.779 197.161 239.803 214.027 239.803C230.892 239.803 232.292 239.779 233.015 239.383C234.228 238.776 234.788 237.867 234.788 236.537C234.788 235.207 234.228 234.298 233.015 233.691C232.292 233.294 230.892 233.271 214.027 233.271C197.161 233.271 195.761 233.294 195.038 233.691Z" fill="#3E03B3"/>
</svg>
