<svg width="280" height="280" viewBox="0 0 280 280" fill="none" xmlns="http://www.w3.org/2000/svg">
<path d="M244.562 17.5179C210.42 17.0804 130.9 26.4341 71.1637 113.68C65.0649 122.588 66.2987 134.654 73.9287 142.284L137.707 206.063C145.337 213.693 157.412 214.927 166.311 208.828C253.557 149.1 262.911 69.5716 262.474 35.4291C262.36 25.5416 254.459 17.6404 244.562 17.5179ZM184.721 136.483C173.276 147.937 154.709 147.937 143.255 136.483C131.81 125.029 131.81 106.47 143.255 95.0166C154.709 83.5716 173.267 83.5716 184.721 95.0166C196.175 106.47 196.175 125.029 184.721 136.483Z" fill="#3E03B3"/>
<path d="M17.5 221.165C19.5125 221.165 21.525 220.395 23.065 218.855L35.7788 206.141C38.8588 203.061 38.8588 198.073 35.7788 195.002C32.6988 191.931 27.72 191.922 24.6488 195.002L11.935 207.716C8.855 210.796 8.855 215.783 11.935 218.855C13.475 220.395 15.4875 221.165 17.5 221.165Z" fill="#A1F919"/>
<path d="M59.6316 220.37C56.5516 217.29 51.5641 217.29 48.5016 220.37L12.6616 256.201C9.58156 259.281 9.58156 264.268 12.6616 267.34C14.2016 268.88 16.2141 269.65 18.2266 269.65C20.2391 269.65 22.2603 268.88 23.7916 267.34L59.6228 231.5C62.7116 228.428 62.7116 223.441 59.6316 220.37Z" fill="#A1F919"/>
<path d="M73.8587 244.212L61.145 256.925C58.065 260.005 58.065 264.993 61.145 268.064C62.685 269.613 64.6975 270.374 66.71 270.374C68.7225 270.374 70.735 269.604 72.275 268.064L84.9887 255.35C88.0687 252.27 88.0687 247.283 84.9887 244.212C81.9087 241.14 76.93 241.14 73.8587 244.212Z" fill="#A1F919"/>
<path d="M67.4368 92.2439C83.1693 71.8127 99.9693 55.9402 116.866 43.6377C112.193 43.7952 107.311 44.1452 102.017 44.9764C84.4293 47.7764 69.7293 53.9014 58.7043 59.8514C51.1005 63.9639 49.5255 74.2889 55.6505 80.5014L67.4368 92.2439Z" fill="#3E03B3"/>
<path d="M187.818 212.626L199.5 224.351C205.712 230.476 216.037 228.901 220.15 221.289C226.1 210.264 232.225 195.564 235.025 177.976C235.838 172.814 236.188 168.045 236.363 163.469C224.061 180.278 208.171 196.981 187.818 212.626Z" fill="#3E03B3"/>
<path d="M63.367 153.991L58.572 158.786C50.9682 166.39 50.9682 178.719 58.572 186.322L93.677 221.427C101.281 229.031 113.609 229.031 121.213 221.427L126.008 216.632L63.367 153.991Z" fill="#3E03B3"/>
</svg>
