<svg width="346" height="301" viewBox="0 0 346 301" fill="none" xmlns="http://www.w3.org/2000/svg">
<g clip-path="url(#clip0_643_3847)">
<path d="M345.151 80.2951L344.514 79.3398L322.921 56.8385C321.647 54.9333 322.486 52.1472 324.815 51.4467C328.09 50.449 331.205 48.6924 333.879 46.1504C342.879 37.5638 343.283 23.4314 334.686 14.8555C326.492 5.87086 312.371 5.64266 303.381 14.2611C300.723 16.8084 298.828 19.844 297.693 23.0759C296.881 25.3685 294.063 26.0796 292.221 24.7263L270.708 2.13479L269.774 1.46081C268.42 0.160618 266.245 0.171232 264.838 1.5298L239.881 25.4693C238.331 25.5701 236.808 24.7104 236.336 23.06C234.213 15.7258 228.116 9.39465 217.768 7.39395C216.706 7.18698 215.581 7.17636 214.509 7.36741C193.325 11.0929 187.869 33.1219 199.252 45.0731C201.662 47.6045 204.564 49.3929 207.674 50.4437C209.351 51.0115 210.099 52.7203 209.797 54.323L184.696 78.4058C183.237 79.8015 183.162 82.0623 184.515 83.458L207.212 107.122L207.616 107.435L207.754 107.578C209.68 109.595 213.045 108.528 213.75 105.758C215.831 97.7601 222.443 90.6223 233.476 88.4518C235.54 88.3032 237.615 88.4359 239.637 88.8604C244.28 90.1288 247.968 92.3471 250.712 95.1438C253.376 98.0149 255.435 101.799 256.48 106.501C256.825 108.528 256.873 110.603 256.629 112.673C253.954 123.599 246.525 129.883 238.443 131.592C235.651 132.186 234.431 135.498 236.362 137.504L236.5 137.647L236.798 138.071L259.41 161.804C260.752 163.216 263.018 163.237 264.467 161.852L289.647 137.843C291.266 137.615 292.938 138.448 293.431 140.146C294.349 143.315 296.005 146.287 298.425 148.807C309.85 160.721 332.086 156.258 336.766 135.264C337 134.192 337.047 133.067 336.878 132.006C335.344 121.578 329.289 115.193 322.066 112.747C320.443 112.195 319.631 110.635 319.822 109.096L344.848 85.2411C346.26 83.8985 346.366 81.7279 345.14 80.3057L345.151 80.2951Z" fill="#A1F919"/>
<path d="M230.478 300.283H230.669L231.189 300.357L263.964 300.5C265.917 300.511 267.493 298.882 267.503 296.881L267.647 262.089C268.602 260.773 270.353 260.136 271.924 260.964C274.837 262.487 278.133 263.363 281.625 263.363C298.129 263.384 310.318 244.258 298.421 226.326C297.821 225.423 297.03 224.606 296.155 223.985C287.568 217.872 278.786 217.813 272.014 221.332C270.486 222.117 268.809 221.608 267.827 220.414L267.965 185.839C267.981 183.897 266.485 182.305 264.611 182.22L263.476 182.002L232.293 181.981C230.043 181.583 228.61 179.052 229.725 176.881C231.269 173.83 232.161 170.364 232.176 166.681C232.229 154.236 222.322 144.153 210.175 144.408C198.017 144.084 188.067 154.12 188.051 166.57C188.061 170.253 188.916 173.723 190.471 176.785C191.564 178.956 190.115 181.487 187.86 181.875L156.667 181.732L155.542 181.939C154.204 181.997 153.079 182.841 152.522 184.024C152.713 184.565 152.83 185.155 152.83 185.759L152.772 221.459L150.819 221.072C149.932 221.459 148.919 221.528 147.948 221.013L147.343 220.748C146.292 220.759 145.209 220.833 144.09 220.992L143.803 221.029L143.517 220.981C142.285 220.753 141.187 220.557 140.126 220.557C130.122 220.578 121.839 228.3 120.586 238.335C120.475 239.2 120.4 240.07 120.4 240.973C120.4 244.576 121.366 248.424 123.446 252.319C123.892 253.163 124.343 254.017 124.901 254.866C125.383 255.588 126.015 256.241 126.721 256.734C131.316 259.987 135.822 261.293 140.019 261.303C141.144 261.293 142.243 261.203 143.32 261.028L143.607 260.969L143.893 261.017C144.806 261.165 145.517 261.309 146.175 261.388C146.727 261.16 147.29 260.932 147.826 260.645C148.961 260.056 150.187 260.247 151.132 260.884L152.692 260.571L152.634 296.812C152.634 297.274 152.554 297.73 152.448 298.171C153.021 299.375 154.194 300.224 155.584 300.224L188.369 300.246L188.873 300.177H189.07C191.861 300.187 193.416 297.019 191.909 294.583C187.584 287.551 187.027 277.845 193.108 268.378C194.43 266.775 195.963 265.384 197.667 264.217C201.801 261.744 205.956 260.624 209.877 260.582C213.794 260.645 217.938 261.792 222.056 264.275C223.749 265.448 225.283 266.849 226.599 268.462C232.633 277.957 232.012 287.663 227.65 294.679C226.148 297.104 227.682 300.277 230.473 300.277L230.478 300.283Z" fill="#3E03B3" fill-opacity="0.6"/>
<path d="M114.456 177.444L114.382 177.635L114.35 177.704L114.164 178.452C114.154 179.238 114.796 180.034 115.586 180.204L146.546 180.151C146.992 180.151 147.363 180.273 147.751 180.368V180.358C148.839 180.405 149.831 180.782 150.648 181.398L150.844 180.421L150.988 145.629C151.948 144.313 153.694 143.687 155.265 144.499C158.173 146.022 161.469 146.897 164.966 146.897C181.48 146.919 193.665 127.793 181.767 109.86C181.162 108.958 180.382 108.146 179.501 107.52C170.92 101.407 162.127 101.348 155.35 104.867C153.832 105.652 152.139 105.143 151.168 103.949L151.317 69.374C151.317 67.4317 149.826 65.8396 147.952 65.7547L146.817 65.5371L115.634 65.5159C113.379 65.1179 111.946 62.5865 113.055 60.4159C114.61 57.3645 115.496 53.8937 115.517 50.2161C115.576 37.766 105.663 27.6882 93.5104 27.9429C81.3632 27.6245 71.4078 37.6599 71.3918 50.1046C71.3918 53.7929 72.2621 57.2636 73.8117 60.3204C74.9049 62.491 73.4615 65.0224 71.2061 65.3991L40.0077 65.2665L38.8774 65.4734C36.9988 65.553 35.5023 67.1345 35.5023 69.0874L35.4704 103.662C34.4781 104.845 32.7959 105.36 31.2834 104.554C24.5279 101.009 15.7293 101.019 7.1218 107.096C6.24088 107.711 5.45548 108.528 4.8399 109.425C-7.15335 127.288 4.94603 146.473 21.4553 146.537C24.9525 146.558 28.2533 145.703 31.1614 144.186C32.7428 143.374 34.494 144.016 35.4333 145.343L35.4068 180.135C35.4068 180.57 35.5076 180.978 35.6456 181.366C36.4575 180.766 37.4446 180.4 38.5271 180.352V180.363C38.9092 180.267 39.2913 180.145 39.7318 180.145L70.6914 180.198C71.4767 180.029 72.1189 179.232 72.1029 178.458L71.9225 177.699L71.8854 177.614L71.8429 177.529L71.8005 177.423C70.2243 174.228 69.3116 170.625 69.2851 166.809V166.629C69.2851 164.214 69.7414 161.969 70.3411 159.862C73.1855 149.997 82 142.678 92.6188 142.678L93.1813 142.689L93.6536 142.678C104.262 142.678 113.082 149.997 115.926 159.862C116.526 161.969 116.977 164.214 116.977 166.639V166.687C116.977 170.561 116.048 174.212 114.456 177.444Z" fill="#3E03B3" fill-opacity="0.6"/>
<path d="M125.208 222.547C129.284 218.906 134.601 216.677 140.438 216.661L140.449 218.407V216.661C141.866 216.661 143.108 216.905 144.259 217.107C145.437 216.953 146.61 216.852 147.783 216.842C148.361 216.842 148.94 216.868 149.523 216.926L149.566 185.441C149.566 184.443 148.86 183.726 148.027 183.631L147.91 183.599L147.64 183.588L147.38 183.493L146.854 183.387L115.512 183.44L115.359 183.413C112.907 182.968 111.219 180.951 110.991 178.589L110.906 178.117C110.906 177.374 111.081 176.62 111.432 175.888H111.416L111.485 175.708L111.527 175.649C112.918 172.842 113.719 169.706 113.719 166.352V166.304C113.719 164.335 113.353 162.43 112.806 160.525C110.354 152.071 102.872 145.92 93.9618 145.92L93.5054 145.931H93.4046L92.9323 145.92C88.7399 145.92 84.8926 147.316 81.7085 149.635C78.1211 152.251 75.3829 156.04 74.0933 160.525C73.7749 161.607 73.552 162.695 73.3928 163.794C73.2708 164.616 73.17 165.444 73.17 166.288V166.357C73.17 169.711 73.9766 172.847 75.3776 175.644L75.42 175.724L75.4519 175.808L75.4943 175.915L75.4784 175.925C75.8074 176.636 75.9878 177.395 75.9878 178.133L75.9082 178.557C75.696 180.935 73.9978 182.973 71.5408 183.419L71.3922 183.445L40.0505 183.392L39.7958 183.44L39.5199 183.498L39.2651 183.594L38.9892 183.604C38.1083 183.641 37.3335 184.4 37.3282 185.435L37.3865 220.652L36.9779 221.156C35.9962 222.329 34.5527 223.083 32.9554 223.083C32.1594 223.083 31.3315 222.891 30.5833 222.493C27.914 221.108 24.9263 220.323 21.7316 220.323C17.5128 220.323 12.9224 221.687 8.29495 224.977C7.59446 225.471 6.94703 226.123 6.47473 226.845C3.3066 231.595 1.97461 236.339 1.97461 240.733C1.97461 252.032 10.8369 261.128 21.6786 261.144H21.7157C24.8998 261.144 27.9087 260.369 30.5727 258.973C31.2997 258.596 32.0957 258.405 32.8705 258.405C34.6217 258.405 36.166 259.313 37.1265 260.65L37.4661 261.122L37.5192 296.482C37.5192 297.533 38.3365 298.319 39.2545 298.319L71.9069 298.266L72.427 298.186H72.7507C73.2761 298.175 73.6104 297.995 73.9076 297.692C74.1942 297.369 74.3746 296.907 74.3746 296.413L74.0668 295.326C71.7796 291.627 70.4476 287.233 70.4476 282.531C70.4476 277.595 71.9176 272.32 75.1918 267.204L75.2555 267.109L75.3192 267.034C76.7467 265.299 78.413 263.781 80.2545 262.523L80.2969 262.497L80.3341 262.47C84.7121 259.838 89.1857 258.612 93.4258 258.538H93.4789C97.719 258.612 102.187 259.838 106.565 262.47L106.608 262.492L106.656 262.529C108.497 263.792 110.158 265.304 111.586 267.04L111.654 267.125L111.713 267.21C114.982 272.331 116.457 277.6 116.452 282.546C116.452 287.238 115.136 291.637 112.838 295.341L112.525 296.419C112.525 296.912 112.711 297.374 112.997 297.698C113.289 298 113.634 298.181 114.154 298.191H114.467L114.589 298.213L114.982 298.271L147.645 298.324C148.563 298.324 149.38 297.539 149.385 296.488L149.444 264.556C148.706 264.652 147.947 264.721 147.151 264.721H147.141C145.793 264.71 144.726 264.413 143.835 264.264C142.688 264.434 141.537 264.556 140.343 264.556C135.567 264.556 130.488 263.038 125.526 259.674L124.964 259.334C123.913 258.575 122.984 257.631 122.247 256.527C120.379 253.73 119.089 250.88 118.256 248.052C118.001 247.171 117.81 246.29 117.646 245.419C117.338 243.806 117.147 242.214 117.147 240.648C117.147 233.426 120.262 226.951 125.208 222.547Z" fill="#3E03B3" fill-opacity="0.6"/>
</g>
<defs>
<clipPath id="clip0_643_3847">
<rect width="346" height="300" fill="white" transform="translate(0 0.5)"/>
</clipPath>
</defs>
</svg>
