<svg width="234" height="320" viewBox="0 0 234 320" fill="none" xmlns="http://www.w3.org/2000/svg">
<path fill-rule="evenodd" clip-rule="evenodd" d="M145.984 163.967C145.984 167.275 147.906 170.07 150.181 170.07H156.172C158.447 170.07 160.37 167.275 160.37 163.967V120.554L156.658 109.873C155.5 109.956 154.336 110 153.177 110C152.066 110 150.953 109.958 149.845 109.883L145.986 120.575V163.967H145.984Z" fill="#A1F919"/>
<path fill-rule="evenodd" clip-rule="evenodd" d="M194.259 61.8836C194.259 39.2316 175.829 20.8027 153.175 20.8027C130.523 20.8027 112.094 39.2316 112.094 61.8836C112.094 82.5017 127.49 100.02 147.907 102.633C151.42 103.083 155.08 103.077 158.606 102.61C178.932 99.9297 194.259 82.421 194.259 61.8836ZM174.311 56.5173L145.592 76.3984C144.998 76.809 144.3 77.0234 143.59 77.0234C143.318 77.0234 143.044 76.9913 142.774 76.927C141.802 76.6953 140.976 76.0607 140.499 75.1823L132.987 61.3228C132.062 59.6154 132.695 57.4808 134.403 56.5555C136.11 55.6301 138.245 56.2638 139.17 57.9713L144.813 68.3828L170.307 50.7334C171.904 49.6283 174.095 50.0259 175.201 51.6231C176.306 53.2212 175.908 55.4122 174.311 56.5173Z" fill="#A1F919"/>
<path fill-rule="evenodd" clip-rule="evenodd" d="M191.594 117.625C191.594 113.203 193.316 109.046 196.444 105.918C199.573 102.792 203.73 101.071 208.15 101.071H214.568V4.40019C214.568 1.97397 212.594 0 210.168 0H96.1847C93.7593 0 91.7871 1.97397 91.7871 4.40019L92.0111 153.834C93.9729 155.358 97.4781 158.39 101.157 163.073C105.802 168.983 111.615 178.745 113.898 192.441H191.948C192.599 189.321 194.139 186.455 196.444 184.151C196.925 183.67 197.433 183.227 197.959 182.814C194.088 179.781 191.593 175.068 191.593 169.782C191.593 165.357 193.316 161.199 196.444 158.074C196.924 157.593 197.432 157.151 197.958 156.738C194.087 153.705 191.593 148.992 191.593 143.705C191.593 139.281 193.316 135.123 196.444 131.998C196.924 131.517 197.432 131.074 197.959 130.66C194.088 127.625 191.594 122.912 191.594 117.625ZM189.251 93.726C182.507 101.361 173.568 106.629 163.741 108.834L167.207 118.806C167.336 119.177 167.403 119.567 167.403 119.96V163.968C167.403 171.212 162.364 177.104 156.172 177.104H150.18C143.989 177.104 138.951 171.211 138.951 163.968V119.96C138.951 119.553 139.022 119.15 139.16 118.767L142.734 108.862C120.978 104.047 105.061 84.568 105.061 61.8839C105.061 49.0323 110.066 36.9498 119.153 27.8621C128.241 18.7744 140.324 13.77 153.176 13.77C166.029 13.77 178.112 18.7744 187.2 27.8621C196.287 36.9498 201.292 49.0323 201.292 61.8839C201.292 73.6261 197.016 84.9343 189.251 93.726Z" fill="#A1F919"/>
<path fill-rule="evenodd" clip-rule="evenodd" d="M233.816 117.624C233.816 112.374 229.545 108.104 224.293 108.104H208.15C205.607 108.104 203.216 109.094 201.415 110.892C199.617 112.689 198.627 115.081 198.627 117.624C198.627 122.874 202.899 127.147 208.15 127.147H224.293C226.837 127.147 229.229 126.157 231.025 124.359C232.826 122.559 233.816 120.169 233.816 117.624Z" fill="#3E03B3"/>
<path fill-rule="evenodd" clip-rule="evenodd" d="M231.026 150.437C232.826 148.637 233.816 146.247 233.816 143.703C233.816 138.452 229.545 134.18 224.293 134.18H208.15C205.608 134.18 203.216 135.171 201.417 136.97C199.617 138.767 198.627 141.158 198.627 143.703C198.627 148.953 202.899 153.224 208.15 153.224H224.293C226.837 153.224 229.229 152.234 231.026 150.437Z" fill="#3E03B3"/>
<path fill-rule="evenodd" clip-rule="evenodd" d="M231.023 176.514C232.825 174.715 233.815 172.325 233.815 169.781C233.815 164.53 229.543 160.258 224.292 160.258H208.148C205.606 160.258 203.214 161.248 201.415 163.048C199.615 164.845 198.625 167.236 198.625 169.781C198.625 175.031 202.897 179.302 208.148 179.302H224.292C226.836 179.303 229.227 178.313 231.023 176.514Z" fill="#3E03B3"/>
<path fill-rule="evenodd" clip-rule="evenodd" d="M111.721 228.532H210.168C212.594 228.532 214.568 226.559 214.568 224.134V212.416H208.151C200.286 212.416 193.657 206.864 191.998 199.475H114.716C115.335 208.615 114.331 218.355 111.721 228.532ZM142.506 210.486H163.847C165.789 210.486 167.363 212.061 167.363 214.002C167.363 215.944 165.789 217.519 163.847 217.519H142.506C140.564 217.519 138.99 215.944 138.99 214.002C138.99 212.061 140.564 210.486 142.506 210.486Z" fill="#A1F919"/>
<path fill-rule="evenodd" clip-rule="evenodd" d="M104.782 242.536C104.382 242.536 103.976 242.468 103.58 242.324C101.755 241.66 100.814 239.641 101.478 237.817C102.297 235.564 103.054 233.284 103.726 231.039C103.728 231.032 103.73 231.025 103.732 231.018C103.735 231.01 103.736 231.002 103.739 230.994C107.434 218.631 108.654 206.986 107.364 196.382C106.039 185.481 102.152 175.817 95.8145 167.658C91.0585 161.535 86.6236 158.599 86.5793 158.57C85.5758 157.922 84.9786 156.816 84.9786 155.621C84.9786 155.621 84.9178 98.969 84.7989 98.219C84.7963 98.2034 84.7946 98.1886 84.792 98.1739C84.3076 95.1791 82.9118 92.4577 80.7529 90.3006C78.0272 87.5731 74.4039 86.0723 70.548 86.0723C62.5923 86.0723 56.1192 92.5445 56.1192 100.501V189.972C56.1192 201.784 50.0002 212.601 40.1816 218.734L99.4057 277.958C107.563 266.491 116.287 262.114 122.413 260.489C129.214 258.684 134.231 259.755 135.506 260.092C158.572 263.786 175.702 251.067 183.744 235.566H109.681C109.181 237.119 108.65 238.677 108.088 240.223C107.567 241.649 106.218 242.536 104.782 242.536Z" fill="#3E03B3"/>
<path fill-rule="evenodd" clip-rule="evenodd" d="M18.0838 220.136L2.80339 235.417C-0.934463 239.154 -0.934463 245.236 2.80339 248.974L71.0214 317.192C72.8322 319.003 75.2393 319.999 77.8 319.999C80.3608 319.999 82.7679 319.003 84.5787 317.192L99.86 301.911C101.671 300.1 102.667 297.693 102.667 295.133C102.667 292.572 101.67 290.165 99.86 288.354L31.642 220.136C29.7739 218.268 27.3191 217.334 24.8642 217.334C22.4085 217.333 19.9536 218.267 18.0838 220.136Z" fill="#3E03B3"/>
<path fill-rule="evenodd" clip-rule="evenodd" d="M198.627 195.857C198.627 201.116 202.891 205.38 208.15 205.38H224.293C226.837 205.38 229.228 204.39 231.025 202.592C232.815 200.801 233.805 198.426 233.816 195.898C233.838 190.638 229.387 186.334 224.126 186.334H208.15C202.891 186.334 198.627 190.597 198.627 195.857Z" fill="#3E03B3"/>
</svg>
