<svg width="24" height="24" viewBox="0 0 24 24" fill="none" xmlns="http://www.w3.org/2000/svg">
<path d="M13.7514 12.7112C13.0527 12.7112 12.4614 12.4692 11.9774 11.9852C11.4934 11.5012 11.2514 10.9099 11.2514 10.2112C11.2514 9.51257 11.4934 8.92123 11.9774 8.43723C12.4614 7.95323 13.0527 7.71124 13.7514 7.71124C14.4501 7.71124 15.0414 7.95323 15.5254 8.43723C16.0094 8.92123 16.2514 9.51257 16.2514 10.2112C16.2514 10.9099 16.0094 11.5012 15.5254 11.9852C15.0414 12.4692 14.4501 12.7112 13.7514 12.7112ZM7.15516 15.8075C6.65816 15.8075 6.23266 15.6305 5.87866 15.2765C5.52466 14.9225 5.34766 14.4969 5.34766 13.9997V6.42273C5.34766 5.92573 5.52466 5.50023 5.87866 5.14623C6.23266 4.79223 6.65816 4.61523 7.15516 4.61523H20.3474C20.8446 4.61523 21.2702 4.79223 21.6242 5.14623C21.9782 5.50023 22.1552 5.92573 22.1552 6.42273V13.9997C22.1552 14.4969 21.9782 14.9225 21.6242 15.2765C21.2702 15.6305 20.8446 15.8075 20.3474 15.8075H7.15516ZM8.65516 14.3075H18.8477C18.8477 13.8088 19.0247 13.3828 19.3787 13.0295C19.7327 12.6763 20.1582 12.4997 20.6552 12.4997V7.92273C20.1565 7.92273 19.7306 7.74573 19.3774 7.39173C19.0242 7.03773 18.8477 6.61223 18.8477 6.11523H8.65516C8.65516 6.6139 8.47816 7.03982 8.12416 7.39298C7.77016 7.74615 7.34466 7.92273 6.84766 7.92273V12.4997C7.34632 12.4997 7.77224 12.6767 8.12541 13.0307C8.47857 13.3847 8.65516 13.8103 8.65516 14.3075ZM18.4244 19.3075H3.65541C3.15824 19.3075 2.73266 19.1305 2.37866 18.7765C2.02466 18.4225 1.84766 17.9969 1.84766 17.4997V8.34598C1.84766 8.13348 1.91957 7.95532 2.06341 7.81148C2.20724 7.66782 2.38541 7.59598 2.59791 7.59598C2.81057 7.59598 2.98866 7.66782 3.13216 7.81148C3.27582 7.95532 3.34766 8.13348 3.34766 8.34598V17.4997C3.34766 17.5766 3.37966 17.6471 3.44366 17.7112C3.50782 17.7754 3.57841 17.8075 3.65541 17.8075H18.4244C18.6369 17.8075 18.8151 17.8794 18.9589 18.0232C19.1026 18.1669 19.1744 18.3451 19.1744 18.5577C19.1744 18.7704 19.1026 18.9485 18.9589 19.092C18.8151 19.2357 18.6369 19.3075 18.4244 19.3075ZM7.15516 14.3075H6.84766V6.11523H7.15516C7.07182 6.11523 6.99974 6.14565 6.93891 6.20649C6.87807 6.26732 6.84766 6.3394 6.84766 6.42273V13.9997C6.84766 14.0831 6.87807 14.1552 6.93891 14.216C6.99974 14.277 7.07182 14.3075 7.15516 14.3075Z" fill="#A5A6A8"/>
</svg>
