<svg width="25" height="24" viewBox="0 0 25 24" fill="none" xmlns="http://www.w3.org/2000/svg">
<path d="M14.2514 12.7112C13.5527 12.7112 12.9614 12.4692 12.4774 11.9852C11.9934 11.5012 11.7514 10.9099 11.7514 10.2112C11.7514 9.51257 11.9934 8.92123 12.4774 8.43723C12.9614 7.95323 13.5527 7.71124 14.2514 7.71124C14.9501 7.71124 15.5414 7.95323 16.0254 8.43723C16.5094 8.92123 16.7514 9.51257 16.7514 10.2112C16.7514 10.9099 16.5094 11.5012 16.0254 11.9852C15.5414 12.4692 14.9501 12.7112 14.2514 12.7112ZM7.65516 15.8075C7.15816 15.8075 6.73266 15.6305 6.37866 15.2765C6.02466 14.9225 5.84766 14.4969 5.84766 13.9997V6.42273C5.84766 5.92573 6.02466 5.50023 6.37866 5.14623C6.73266 4.79223 7.15816 4.61523 7.65516 4.61523H20.8474C21.3446 4.61523 21.7702 4.79223 22.1242 5.14623C22.4782 5.50023 22.6552 5.92573 22.6552 6.42273V13.9997C22.6552 14.4969 22.4782 14.9225 22.1242 15.2765C21.7702 15.6305 21.3446 15.8075 20.8474 15.8075H7.65516ZM9.15516 14.3075H19.3477C19.3477 13.8088 19.5247 13.3828 19.8787 13.0295C20.2327 12.6763 20.6582 12.4997 21.1552 12.4997V7.92273C20.6565 7.92273 20.2306 7.74573 19.8774 7.39173C19.5242 7.03773 19.3477 6.61223 19.3477 6.11523H9.15516C9.15516 6.6139 8.97816 7.03982 8.62416 7.39298C8.27016 7.74615 7.84466 7.92273 7.34766 7.92273V12.4997C7.84632 12.4997 8.27224 12.6767 8.62541 13.0307C8.97857 13.3847 9.15516 13.8103 9.15516 14.3075ZM18.9244 19.3075H4.15541C3.65824 19.3075 3.23266 19.1305 2.87866 18.7765C2.52466 18.4225 2.34766 17.9969 2.34766 17.4997V8.34598C2.34766 8.13348 2.41957 7.95532 2.56341 7.81148C2.70724 7.66782 2.88541 7.59598 3.09791 7.59598C3.31057 7.59598 3.48866 7.66782 3.63216 7.81148C3.77582 7.95532 3.84766 8.13348 3.84766 8.34598V17.4997C3.84766 17.5766 3.87966 17.6471 3.94366 17.7112C4.00782 17.7754 4.07841 17.8075 4.15541 17.8075H18.9244C19.1369 17.8075 19.3151 17.8794 19.4589 18.0232C19.6026 18.1669 19.6744 18.3451 19.6744 18.5577C19.6744 18.7704 19.6026 18.9485 19.4589 19.092C19.3151 19.2357 19.1369 19.3075 18.9244 19.3075ZM7.65516 14.3075H7.34766V6.11523H7.65516C7.57182 6.11523 7.49974 6.14565 7.43891 6.20649C7.37807 6.26732 7.34766 6.3394 7.34766 6.42273V13.9997C7.34766 14.0831 7.37807 14.1552 7.43891 14.216C7.49974 14.277 7.57182 14.3075 7.65516 14.3075Z" fill="#A5A6A8"/>
</svg>
