<svg width="48" height="48" viewBox="0 0 48 48" fill="none" xmlns="http://www.w3.org/2000/svg">
<g clip-path="url(#clip0_475_575)">
<rect width="48" height="48" rx="24" fill="white"/>
<path d="M15.7145 15.0466C15.6246 15.0027 15.5235 14.9869 15.4245 15.0013C15.3254 15.0157 15.233 15.0596 15.1593 15.1272C15.0855 15.1949 15.0339 15.2832 15.0111 15.3807C14.9883 15.4782 14.9954 15.5802 15.0315 15.6736L17.8745 23.3005C18.0422 23.7508 18.0422 24.2463 17.8745 24.6965L15.0325 32.3235C14.9966 32.4168 14.9896 32.5187 15.0124 32.616C15.0352 32.7132 15.0867 32.8014 15.1602 32.869C15.2338 32.9367 15.326 32.9806 15.4248 32.9951C15.5237 33.0097 15.6246 32.9941 15.7145 32.9505L33.7145 24.4505C33.8001 24.4101 33.8725 24.3461 33.9232 24.2661C33.9739 24.186 34.0008 24.0933 34.0008 23.9985C34.0008 23.9038 33.9739 23.8111 33.9232 23.731C33.8725 23.651 33.8001 23.587 33.7145 23.5465L15.7145 15.0466Z" stroke="black" stroke-opacity="0.6" strokeWidth="1.5" strokeLinecap="round" strokeLinejoin="round"/>
<path d="M18 24H34" stroke="black" stroke-opacity="0.6" strokeWidth="1.5" strokeLinecap="round" strokeLinejoin="round"/>
</g>
<defs>
<clipPath id="clip0_475_575">
<rect width="48" height="48" rx="24" fill="white"/>
</clipPath>
</defs>
</svg>
