<svg width="72" height="72" viewBox="0 0 72 72" fill="none" xmlns="http://www.w3.org/2000/svg">
<rect width="72" height="72" rx="36" fill="white" fill-opacity="0.12"/>
<rect x="0.5" y="0.5" width="71" height="71" rx="35.5" stroke="white" stroke-opacity="0.08"/>
<path d="M28.868 30.8666C29.0013 30.9999 29.1569 31.0666 29.3346 31.0666C29.5124 31.0666 29.668 30.9999 29.8013 30.8666L31.5346 29.1333C31.668 28.9999 31.7346 28.8444 31.7346 28.6666C31.7346 28.4888 31.668 28.3333 31.5346 28.1999L29.8013 26.4666C29.668 26.3333 29.5124 26.2666 29.3346 26.2666C29.1569 26.2666 29.0013 26.3333 28.868 26.4666L27.1346 28.1999C27.0013 28.3333 26.9346 28.4888 26.9346 28.6666C26.9346 28.8444 27.0013 28.9999 27.1346 29.1333L28.868 30.8666ZM25.3346 38.6666C24.6013 38.6666 23.9735 38.4055 23.4513 37.8833C22.9291 37.361 22.668 36.7333 22.668 35.9999V23.9999C22.668 23.2666 22.9291 22.6388 23.4513 22.1166C23.9735 21.5944 24.6013 21.3333 25.3346 21.3333H46.668C47.4013 21.3333 48.0291 21.5944 48.5513 22.1166C49.0735 22.6388 49.3346 23.2666 49.3346 23.9999V35.9999C49.3346 36.7333 49.0735 37.361 48.5513 37.8833C48.0291 38.4055 47.4013 38.6666 46.668 38.6666H43.968C43.5902 38.6666 43.2791 38.5388 43.0346 38.2833C42.7902 38.0277 42.668 37.711 42.668 37.3333C42.668 36.9555 42.7957 36.6388 43.0513 36.3833C43.3069 36.1277 43.6235 35.9999 44.0013 35.9999H46.668V23.9999H25.3346V35.9999H28.0013C28.3791 35.9999 28.6957 36.1277 28.9513 36.3833C29.2069 36.6388 29.3346 36.9555 29.3346 37.3333C29.3346 37.711 29.2069 38.0277 28.9513 38.2833C28.6957 38.5388 28.3791 38.6666 28.0013 38.6666H25.3346ZM42.0013 29.3333C42.5569 29.3333 43.0291 29.1388 43.418 28.7499C43.8069 28.361 44.0013 27.8888 44.0013 27.3333C44.0013 26.7777 43.8069 26.3055 43.418 25.9166C43.0291 25.5277 42.5569 25.3333 42.0013 25.3333C41.4457 25.3333 40.9735 25.5277 40.5846 25.9166C40.1957 26.3055 40.0013 26.7777 40.0013 27.3333C40.0013 27.8888 40.1957 28.361 40.5846 28.7499C40.9735 29.1388 41.4457 29.3333 42.0013 29.3333ZM28.0013 50.6666C27.6235 50.6666 27.3069 50.5388 27.0513 50.2833C26.7957 50.0277 26.668 49.711 26.668 49.3333V47.8666C26.668 47.0888 26.8846 46.3666 27.318 45.6999C27.7513 45.0333 28.3235 44.5333 29.0346 44.1999C30.1235 43.6888 31.2569 43.3055 32.4346 43.0499C33.6124 42.7944 34.8013 42.6666 36.0013 42.6666C37.2013 42.6666 38.3902 42.7944 39.568 43.0499C40.7457 43.3055 41.8791 43.6888 42.968 44.1999C43.6791 44.5333 44.2513 45.0333 44.6846 45.6999C45.118 46.3666 45.3346 47.0888 45.3346 47.8666V49.3333C45.3346 49.711 45.2069 50.0277 44.9513 50.2833C44.6957 50.5388 44.3791 50.6666 44.0013 50.6666H28.0013ZM29.3346 47.9999H42.668V47.8666C42.668 47.5999 42.5902 47.3555 42.4346 47.1333C42.2791 46.911 42.0791 46.7444 41.8346 46.6333C40.9013 46.211 39.9457 45.8888 38.968 45.6666C37.9902 45.4444 37.0013 45.3333 36.0013 45.3333C35.0013 45.3333 34.0124 45.4444 33.0346 45.6666C32.0569 45.8888 31.1013 46.211 30.168 46.6333C29.9235 46.7444 29.7235 46.911 29.568 47.1333C29.4124 47.3555 29.3346 47.5999 29.3346 47.8666V47.9999ZM36.0013 41.3333C34.7124 41.3333 33.6124 40.8777 32.7013 39.9666C31.7902 39.0555 31.3346 37.9555 31.3346 36.6666C31.3346 35.3777 31.7902 34.2777 32.7013 33.3666C33.6124 32.4555 34.7124 31.9999 36.0013 31.9999C37.2902 31.9999 38.3902 32.4555 39.3013 33.3666C40.2124 34.2777 40.668 35.3777 40.668 36.6666C40.668 37.9555 40.2124 39.0555 39.3013 39.9666C38.3902 40.8777 37.2902 41.3333 36.0013 41.3333ZM36.0013 38.6666C36.5569 38.6666 37.0291 38.4721 37.418 38.0833C37.8069 37.6944 38.0013 37.2221 38.0013 36.6666C38.0013 36.111 37.8069 35.6388 37.418 35.2499C37.0291 34.861 36.5569 34.6666 36.0013 34.6666C35.4457 34.6666 34.9735 34.861 34.5846 35.2499C34.1957 35.6388 34.0013 36.111 34.0013 36.6666C34.0013 37.2221 34.1957 37.6944 34.5846 38.0833C34.9735 38.4721 35.4457 38.6666 36.0013 38.6666Z" fill="white"/>
</svg>
