<svg width="72" height="72" viewBox="0 0 72 72" fill="none" xmlns="http://www.w3.org/2000/svg">
<path d="M0 36C0 16.1178 16.1178 0 36 0C55.8823 0 72 16.1178 72 36C72 55.8823 55.8823 72 36 72C16.1178 72 0 55.8823 0 36Z" fill="white" fill-opacity="0.12"/>
<path d="M36 0.5C55.6061 0.5 71.5 16.3939 71.5 36C71.5 55.6061 55.6061 71.5 36 71.5C16.3939 71.5 0.5 55.6061 0.5 36C0.5 16.3939 16.3939 0.5 36 0.5Z" stroke="white" stroke-opacity="0.08"/>
<path d="M25.332 48C24.2209 48 23.2765 47.6111 22.4987 46.8333C21.7209 46.0556 21.332 45.1111 21.332 44C21.332 42.8889 21.7209 41.9444 22.4987 41.1667C23.2765 40.3889 24.2209 40 25.332 40C25.532 40 25.7265 40.0167 25.9154 40.05C26.1043 40.0833 26.2876 40.1222 26.4654 40.1667L31.8654 32.7333C31.4876 32.2667 31.1931 31.7444 30.982 31.1667C30.7709 30.5889 30.6654 29.9778 30.6654 29.3333C30.6654 27.8667 31.1876 26.6111 32.232 25.5667C33.2765 24.5222 34.532 24 35.9987 24C37.4654 24 38.7209 24.5222 39.7654 25.5667C40.8098 26.6111 41.332 27.8667 41.332 29.3333C41.332 29.9778 41.2209 30.5889 40.9987 31.1667C40.7765 31.7444 40.4765 32.2667 40.0987 32.7333L45.532 40.1667C45.7098 40.1222 45.8931 40.0833 46.082 40.05C46.2709 40.0167 46.4654 40 46.6654 40C47.7765 40 48.7209 40.3889 49.4987 41.1667C50.2765 41.9444 50.6654 42.8889 50.6654 44C50.6654 45.1111 50.2765 46.0556 49.4987 46.8333C48.7209 47.6111 47.7765 48 46.6654 48C45.5543 48 44.6098 47.6111 43.832 46.8333C43.0543 46.0556 42.6654 45.1111 42.6654 44C42.6654 43.5778 42.7265 43.1722 42.8487 42.7833C42.9709 42.3944 43.1431 42.0444 43.3654 41.7333L37.9654 34.3C37.8543 34.3444 37.7487 34.3778 37.6487 34.4C37.5487 34.4222 37.4431 34.4556 37.332 34.5V40.2333C38.1098 40.5 38.7487 40.9778 39.2487 41.6667C39.7487 42.3556 39.9987 43.1333 39.9987 44C39.9987 45.1111 39.6098 46.0556 38.832 46.8333C38.0543 47.6111 37.1098 48 35.9987 48C34.8876 48 33.9431 47.6111 33.1654 46.8333C32.3876 46.0556 31.9987 45.1111 31.9987 44C31.9987 43.1333 32.2487 42.3611 32.7487 41.6833C33.2487 41.0056 33.8876 40.5222 34.6654 40.2333V34.5C34.5543 34.4556 34.4487 34.4222 34.3487 34.4C34.2487 34.3778 34.1431 34.3444 34.032 34.3L28.632 41.7333C28.8543 42.0444 29.0265 42.3944 29.1487 42.7833C29.2709 43.1722 29.332 43.5778 29.332 44C29.332 45.1111 28.9431 46.0556 28.1654 46.8333C27.3876 47.6111 26.4431 48 25.332 48ZM25.332 45.3333C25.7098 45.3333 26.0265 45.2056 26.282 44.95C26.5376 44.6944 26.6654 44.3778 26.6654 44C26.6654 43.6222 26.5376 43.3056 26.282 43.05C26.0265 42.7944 25.7098 42.6667 25.332 42.6667C24.9543 42.6667 24.6376 42.7944 24.382 43.05C24.1265 43.3056 23.9987 43.6222 23.9987 44C23.9987 44.3778 24.1265 44.6944 24.382 44.95C24.6376 45.2056 24.9543 45.3333 25.332 45.3333ZM35.9987 45.3333C36.3765 45.3333 36.6931 45.2056 36.9487 44.95C37.2043 44.6944 37.332 44.3778 37.332 44C37.332 43.6222 37.2043 43.3056 36.9487 43.05C36.6931 42.7944 36.3765 42.6667 35.9987 42.6667C35.6209 42.6667 35.3043 42.7944 35.0487 43.05C34.7931 43.3056 34.6654 43.6222 34.6654 44C34.6654 44.3778 34.7931 44.6944 35.0487 44.95C35.3043 45.2056 35.6209 45.3333 35.9987 45.3333ZM46.6654 45.3333C47.0431 45.3333 47.3598 45.2056 47.6154 44.95C47.8709 44.6944 47.9987 44.3778 47.9987 44C47.9987 43.6222 47.8709 43.3056 47.6154 43.05C47.3598 42.7944 47.0431 42.6667 46.6654 42.6667C46.2876 42.6667 45.9709 42.7944 45.7154 43.05C45.4598 43.3056 45.332 43.6222 45.332 44C45.332 44.3778 45.4598 44.6944 45.7154 44.95C45.9709 45.2056 46.2876 45.3333 46.6654 45.3333ZM35.9987 32C36.732 32 37.3598 31.7389 37.882 31.2167C38.4043 30.6944 38.6654 30.0667 38.6654 29.3333C38.6654 28.6 38.4043 27.9722 37.882 27.45C37.3598 26.9278 36.732 26.6667 35.9987 26.6667C35.2654 26.6667 34.6376 26.9278 34.1154 27.45C33.5931 27.9722 33.332 28.6 33.332 29.3333C33.332 30.0667 33.5931 30.6944 34.1154 31.2167C34.6376 31.7389 35.2654 32 35.9987 32Z" fill="white"/>
</svg>
