<svg width="72" height="72" viewBox="0 0 72 72" fill="none" xmlns="http://www.w3.org/2000/svg">
<path d="M0 36C0 16.1178 16.1178 0 36 0C55.8823 0 72 16.1178 72 36C72 55.8823 55.8823 72 36 72C16.1178 72 0 55.8823 0 36Z" fill="white" fill-opacity="0.12"/>
<path d="M36 0.5C55.6061 0.5 71.5 16.3939 71.5 36C71.5 55.6061 55.6061 71.5 36 71.5C16.3939 71.5 0.5 55.6061 0.5 36C0.5 16.3939 16.3939 0.5 36 0.5Z" stroke="white" stroke-opacity="0.08"/>
<path d="M28.868 30.8671C29.0013 31.0004 29.1569 31.0671 29.3346 31.0671C29.5124 31.0671 29.668 31.0004 29.8013 30.8671L31.5346 29.1337C31.668 29.0004 31.7346 28.8449 31.7346 28.6671C31.7346 28.4893 31.668 28.3337 31.5346 28.2004L29.8013 26.4671C29.668 26.3337 29.5124 26.2671 29.3346 26.2671C29.1569 26.2671 29.0013 26.3337 28.868 26.4671L27.1346 28.2004C27.0013 28.3337 26.9346 28.4893 26.9346 28.6671C26.9346 28.8449 27.0013 29.0004 27.1346 29.1337L28.868 30.8671ZM25.3346 38.6671C24.6013 38.6671 23.9735 38.406 23.4513 37.8837C22.9291 37.3615 22.668 36.7337 22.668 36.0004V24.0004C22.668 23.2671 22.9291 22.6393 23.4513 22.1171C23.9735 21.5949 24.6013 21.3337 25.3346 21.3337H46.668C47.4013 21.3337 48.0291 21.5949 48.5513 22.1171C49.0735 22.6393 49.3346 23.2671 49.3346 24.0004V36.0004C49.3346 36.7337 49.0735 37.3615 48.5513 37.8837C48.0291 38.406 47.4013 38.6671 46.668 38.6671H43.968C43.5902 38.6671 43.2791 38.5393 43.0346 38.2837C42.7902 38.0282 42.668 37.7115 42.668 37.3337C42.668 36.956 42.7957 36.6393 43.0513 36.3837C43.3069 36.1282 43.6235 36.0004 44.0013 36.0004H46.668V24.0004H25.3346V36.0004H28.0013C28.3791 36.0004 28.6957 36.1282 28.9513 36.3837C29.2069 36.6393 29.3346 36.956 29.3346 37.3337C29.3346 37.7115 29.2069 38.0282 28.9513 38.2837C28.6957 38.5393 28.3791 38.6671 28.0013 38.6671H25.3346ZM42.0013 29.3337C42.5569 29.3337 43.0291 29.1393 43.418 28.7504C43.8069 28.3615 44.0013 27.8893 44.0013 27.3337C44.0013 26.7782 43.8069 26.306 43.418 25.9171C43.0291 25.5282 42.5569 25.3337 42.0013 25.3337C41.4457 25.3337 40.9735 25.5282 40.5846 25.9171C40.1957 26.306 40.0013 26.7782 40.0013 27.3337C40.0013 27.8893 40.1957 28.3615 40.5846 28.7504C40.9735 29.1393 41.4457 29.3337 42.0013 29.3337ZM28.0013 50.6671C27.6235 50.6671 27.3069 50.5393 27.0513 50.2837C26.7957 50.0282 26.668 49.7115 26.668 49.3337V47.8671C26.668 47.0893 26.8846 46.3671 27.318 45.7004C27.7513 45.0337 28.3235 44.5337 29.0346 44.2004C30.1235 43.6893 31.2569 43.306 32.4346 43.0504C33.6124 42.7949 34.8013 42.6671 36.0013 42.6671C37.2013 42.6671 38.3902 42.7949 39.568 43.0504C40.7457 43.306 41.8791 43.6893 42.968 44.2004C43.6791 44.5337 44.2513 45.0337 44.6846 45.7004C45.118 46.3671 45.3346 47.0893 45.3346 47.8671V49.3337C45.3346 49.7115 45.2069 50.0282 44.9513 50.2837C44.6957 50.5393 44.3791 50.6671 44.0013 50.6671H28.0013ZM29.3346 48.0004H42.668V47.8671C42.668 47.6004 42.5902 47.356 42.4346 47.1337C42.2791 46.9115 42.0791 46.7449 41.8346 46.6337C40.9013 46.2115 39.9457 45.8893 38.968 45.6671C37.9902 45.4449 37.0013 45.3337 36.0013 45.3337C35.0013 45.3337 34.0124 45.4449 33.0346 45.6671C32.0569 45.8893 31.1013 46.2115 30.168 46.6337C29.9235 46.7449 29.7235 46.9115 29.568 47.1337C29.4124 47.356 29.3346 47.6004 29.3346 47.8671V48.0004ZM36.0013 41.3337C34.7124 41.3337 33.6124 40.8782 32.7013 39.9671C31.7902 39.056 31.3346 37.956 31.3346 36.6671C31.3346 35.3782 31.7902 34.2782 32.7013 33.3671C33.6124 32.456 34.7124 32.0004 36.0013 32.0004C37.2902 32.0004 38.3902 32.456 39.3013 33.3671C40.2124 34.2782 40.668 35.3782 40.668 36.6671C40.668 37.956 40.2124 39.056 39.3013 39.9671C38.3902 40.8782 37.2902 41.3337 36.0013 41.3337ZM36.0013 38.6671C36.5569 38.6671 37.0291 38.4726 37.418 38.0837C37.8069 37.6949 38.0013 37.2226 38.0013 36.6671C38.0013 36.1115 37.8069 35.6393 37.418 35.2504C37.0291 34.8615 36.5569 34.6671 36.0013 34.6671C35.4457 34.6671 34.9735 34.8615 34.5846 35.2504C34.1957 35.6393 34.0013 36.1115 34.0013 36.6671C34.0013 37.2226 34.1957 37.6949 34.5846 38.0837C34.9735 38.4726 35.4457 38.6671 36.0013 38.6671Z" fill="white"/>
</svg>
