<svg width="72" height="72" viewBox="0 0 72 72" fill="none" xmlns="http://www.w3.org/2000/svg">
<path d="M0 36C0 16.1178 16.1178 0 36 0C55.8823 0 72 16.1178 72 36C72 55.8823 55.8823 72 36 72C16.1178 72 0 55.8823 0 36Z" fill="white" fill-opacity="0.12"/>
<path d="M36 0.5C55.6061 0.5 71.5 16.3939 71.5 36C71.5 55.6061 55.6061 71.5 36 71.5C16.3939 71.5 0.5 55.6061 0.5 36C0.5 16.3939 16.3939 0.5 36 0.5Z" stroke="white" stroke-opacity="0.08"/>
<path d="M43.3987 32.2333L48.0987 27.4999C48.3654 27.2333 48.682 27.0999 49.0487 27.0999C49.4154 27.0999 49.732 27.2333 49.9987 27.4999C50.2654 27.7666 50.3987 28.0833 50.3987 28.4499C50.3987 28.8166 50.2654 29.1333 49.9987 29.3999L44.332 35.0666C44.0654 35.3333 43.7543 35.4666 43.3987 35.4666C43.0431 35.4666 42.732 35.3333 42.4654 35.0666L39.632 32.2333C39.3654 31.9666 39.232 31.6499 39.232 31.2833C39.232 30.9166 39.3654 30.5999 39.632 30.3333C39.8987 30.0666 40.2098 29.9333 40.5654 29.9333C40.9209 29.9333 41.232 30.0666 41.4987 30.3333L43.3987 32.2333ZM31.9987 35.9999C30.532 35.9999 29.2765 35.4777 28.232 34.4333C27.1876 33.3888 26.6654 32.1333 26.6654 30.6666C26.6654 29.1999 27.1876 27.9444 28.232 26.8999C29.2765 25.8555 30.532 25.3333 31.9987 25.3333C33.4654 25.3333 34.7209 25.8555 35.7654 26.8999C36.8098 27.9444 37.332 29.1999 37.332 30.6666C37.332 32.1333 36.8098 33.3888 35.7654 34.4333C34.7209 35.4777 33.4654 35.9999 31.9987 35.9999ZM21.332 43.9999V42.9333C21.332 42.1777 21.5265 41.4833 21.9154 40.8499C22.3043 40.2166 22.8209 39.7333 23.4654 39.3999C24.8431 38.711 26.2431 38.1944 27.6654 37.8499C29.0876 37.5055 30.532 37.3333 31.9987 37.3333C33.4654 37.3333 34.9098 37.5055 36.332 37.8499C37.7543 38.1944 39.1543 38.711 40.532 39.3999C41.1765 39.7333 41.6931 40.2166 42.082 40.8499C42.4709 41.4833 42.6654 42.1777 42.6654 42.9333V43.9999C42.6654 44.7333 42.4043 45.361 41.882 45.8833C41.3598 46.4055 40.732 46.6666 39.9987 46.6666H23.9987C23.2654 46.6666 22.6376 46.4055 22.1154 45.8833C21.5931 45.361 21.332 44.7333 21.332 43.9999ZM23.9987 43.9999H39.9987V42.9333C39.9987 42.6888 39.9376 42.4666 39.8154 42.2666C39.6931 42.0666 39.532 41.911 39.332 41.7999C38.132 41.1999 36.9209 40.7499 35.6987 40.4499C34.4765 40.1499 33.2431 39.9999 31.9987 39.9999C30.7543 39.9999 29.5209 40.1499 28.2987 40.4499C27.0765 40.7499 25.8654 41.1999 24.6654 41.7999C24.4654 41.911 24.3043 42.0666 24.182 42.2666C24.0598 42.4666 23.9987 42.6888 23.9987 42.9333V43.9999ZM31.9987 33.3333C32.732 33.3333 33.3598 33.0721 33.882 32.5499C34.4043 32.0277 34.6654 31.3999 34.6654 30.6666C34.6654 29.9333 34.4043 29.3055 33.882 28.7833C33.3598 28.261 32.732 27.9999 31.9987 27.9999C31.2654 27.9999 30.6376 28.261 30.1154 28.7833C29.5931 29.3055 29.332 29.9333 29.332 30.6666C29.332 31.3999 29.5931 32.0277 30.1154 32.5499C30.6376 33.0721 31.2654 33.3333 31.9987 33.3333Z" fill="white"/>
</svg>
