<svg width="72" height="72" viewBox="0 0 72 72" fill="none" xmlns="http://www.w3.org/2000/svg">
<path d="M0 36C0 16.1178 16.1178 0 36 0C55.8823 0 72 16.1178 72 36C72 55.8823 55.8823 72 36 72C16.1178 72 0 55.8823 0 36Z" fill="white" fill-opacity="0.12"/>
<path d="M36 0.5C55.6061 0.5 71.5 16.3939 71.5 36C71.5 55.6061 55.6061 71.5 36 71.5C16.3939 71.5 0.5 55.6061 0.5 36C0.5 16.3939 16.3939 0.5 36 0.5Z" stroke="white" stroke-opacity="0.08"/>
<path d="M24 45.3333V33.3333C24 32.6 24.2611 31.9722 24.7833 31.45C25.3056 30.9278 25.9333 30.6667 26.6667 30.6667H30.6667V26.6667C30.6667 25.9333 30.9278 25.3056 31.45 24.7833C31.9722 24.2611 32.6 24 33.3333 24H45.3333C46.0667 24 46.6944 24.2611 47.2167 24.7833C47.7389 25.3056 48 25.9333 48 26.6667V45.3333C48 46.0667 47.7389 46.6944 47.2167 47.2167C46.6944 47.7389 46.0667 48 45.3333 48H26.6667C25.9333 48 25.3056 47.7389 24.7833 47.2167C24.2611 46.6944 24 46.0667 24 45.3333ZM41.3333 45.3333H45.3333V26.6667H33.3333V30.6667H38.6667C39.4 30.6667 40.0278 30.9278 40.55 31.45C41.0722 31.9722 41.3333 32.6 41.3333 33.3333V45.3333ZM33.3333 45.3333H38.6667V33.3333H33.3333V45.3333ZM26.6667 45.3333H30.6667V33.3333H26.6667V45.3333Z" fill="white"/>
</svg>
