<svg width="72" height="72" viewBox="0 0 72 72" fill="none" xmlns="http://www.w3.org/2000/svg">
<path d="M0 36C0 16.1178 16.1178 0 36 0C55.8823 0 72 16.1178 72 36C72 55.8823 55.8823 72 36 72C16.1178 72 0 55.8823 0 36Z" fill="white" fill-opacity="0.12"/>
<path d="M36 0.5C55.6061 0.5 71.5 16.3939 71.5 36C71.5 55.6061 55.6061 71.5 36 71.5C16.3939 71.5 0.5 55.6061 0.5 36C0.5 16.3939 16.3939 0.5 36 0.5Z" stroke="white" stroke-opacity="0.08"/>
<path d="M30.8987 39.9666L34.6987 29.9666C34.7654 29.7666 34.8876 29.611 35.0654 29.4999C35.2431 29.3888 35.432 29.3333 35.632 29.3333H36.3654C36.5654 29.3333 36.7543 29.3888 36.932 29.4999C37.1098 29.611 37.232 29.7666 37.2987 29.9666L41.0987 40.0666C41.2098 40.3777 41.1765 40.6666 40.9987 40.9333C40.8209 41.1999 40.5654 41.3333 40.232 41.3333C40.032 41.3333 39.8431 41.2721 39.6654 41.1499C39.4876 41.0277 39.3654 40.8666 39.2987 40.6666L38.4654 38.2666H33.5987L32.7654 40.6999C32.6987 40.8999 32.5765 41.0555 32.3987 41.1666C32.2209 41.2777 32.032 41.3333 31.832 41.3333C31.4765 41.3333 31.2043 41.1888 31.0154 40.8999C30.8265 40.611 30.7876 40.2999 30.8987 39.9666ZM34.1987 36.5333H37.7987L36.0654 31.5333H35.932L34.1987 36.5333ZM21.332 49.3333V43.9999C21.332 43.6221 21.4598 43.3055 21.7154 43.0499C21.9709 42.7944 22.2876 42.6666 22.6654 42.6666H23.9987V29.3333H22.6654C22.2876 29.3333 21.9709 29.2055 21.7154 28.9499C21.4598 28.6944 21.332 28.3777 21.332 27.9999V22.6666C21.332 22.2888 21.4598 21.9721 21.7154 21.7166C21.9709 21.461 22.2876 21.3333 22.6654 21.3333H27.9987C28.3765 21.3333 28.6931 21.461 28.9487 21.7166C29.2043 21.9721 29.332 22.2888 29.332 22.6666V23.9999H42.6654V22.6666C42.6654 22.2888 42.7931 21.9721 43.0487 21.7166C43.3043 21.461 43.6209 21.3333 43.9987 21.3333H49.332C49.7098 21.3333 50.0265 21.461 50.282 21.7166C50.5376 21.9721 50.6654 22.2888 50.6654 22.6666V27.9999C50.6654 28.3777 50.5376 28.6944 50.282 28.9499C50.0265 29.2055 49.7098 29.3333 49.332 29.3333H47.9987V42.6666H49.332C49.7098 42.6666 50.0265 42.7944 50.282 43.0499C50.5376 43.3055 50.6654 43.6221 50.6654 43.9999V49.3333C50.6654 49.711 50.5376 50.0277 50.282 50.2833C50.0265 50.5388 49.7098 50.6666 49.332 50.6666H43.9987C43.6209 50.6666 43.3043 50.5388 43.0487 50.2833C42.7931 50.0277 42.6654 49.711 42.6654 49.3333V47.9999H29.332V49.3333C29.332 49.711 29.2043 50.0277 28.9487 50.2833C28.6931 50.5388 28.3765 50.6666 27.9987 50.6666H22.6654C22.2876 50.6666 21.9709 50.5388 21.7154 50.2833C21.4598 50.0277 21.332 49.711 21.332 49.3333ZM29.332 45.3333H42.6654V43.9999C42.6654 43.6221 42.7931 43.3055 43.0487 43.0499C43.3043 42.7944 43.6209 42.6666 43.9987 42.6666H45.332V29.3333H43.9987C43.6209 29.3333 43.3043 29.2055 43.0487 28.9499C42.7931 28.6944 42.6654 28.3777 42.6654 27.9999V26.6666H29.332V27.9999C29.332 28.3777 29.2043 28.6944 28.9487 28.9499C28.6931 29.2055 28.3765 29.3333 27.9987 29.3333H26.6654V42.6666H27.9987C28.3765 42.6666 28.6931 42.7944 28.9487 43.0499C29.2043 43.3055 29.332 43.6221 29.332 43.9999V45.3333ZM23.9987 26.6666H26.6654V23.9999H23.9987V26.6666ZM45.332 26.6666H47.9987V23.9999H45.332V26.6666ZM45.332 47.9999H47.9987V45.3333H45.332V47.9999ZM23.9987 47.9999H26.6654V45.3333H23.9987V47.9999Z" fill="white"/>
</svg>
