<svg width="606" height="539" viewBox="0 0 606 539" fill="none" xmlns="http://www.w3.org/2000/svg">
<g clip-path="url(#clip0_138_2567)">
<g clip-path="url(#clip1_138_2567)">
<path d="M78.6925 536.702C78.3304 536.911 77.9196 537.021 77.5015 537.021C77.0834 537.021 76.6727 536.911 76.3105 536.702L12.4595 499.837C12.0976 499.628 11.7971 499.327 11.5882 498.965C11.3793 498.603 11.2694 498.192 11.2695 497.775V424.046C11.2695 423.195 11.7225 422.409 12.4595 421.983L76.3105 385.119C76.6725 384.909 77.0833 384.799 77.5015 384.799C77.9197 384.799 78.3306 384.909 78.6925 385.119L142.544 421.983C142.906 422.192 143.206 422.492 143.415 422.855C143.624 423.217 143.734 423.627 143.735 424.046V497.775C143.735 498.193 143.625 498.603 143.415 498.965C143.206 499.327 142.906 499.628 142.544 499.837L78.6925 536.702ZM78.6925 536.702L79.0895 537.389" stroke="#A1F919" stroke-opacity="0.16" strokeWidth="1.588"/>
<path d="M154.071 408.691C153.709 408.9 153.299 409.01 152.88 409.01C152.462 409.01 152.051 408.9 151.689 408.691L87.8384 371.827C87.4766 371.618 87.1761 371.317 86.9672 370.955C86.7584 370.593 86.6484 370.182 86.6484 369.764V296.035C86.6484 295.185 87.1014 294.398 87.8384 293.973L151.689 257.108C152.052 256.899 152.462 256.789 152.88 256.789C153.299 256.789 153.709 256.899 154.071 257.108L217.922 293.973C218.284 294.182 218.585 294.482 218.794 294.844C219.003 295.206 219.113 295.617 219.113 296.035V369.764C219.113 370.615 218.659 371.401 217.922 371.827L154.071 408.691ZM154.071 408.691L154.467 409.379" stroke="#A1F919" stroke-opacity="0.16" strokeWidth="1.588"/>
<path d="M303.893 408.691C303.531 408.9 303.12 409.01 302.702 409.01C302.284 409.01 301.873 408.9 301.511 408.691L237.66 371.827C237.298 371.618 236.997 371.317 236.788 370.955C236.579 370.593 236.469 370.182 236.469 369.764V296.035C236.469 295.185 236.923 294.398 237.66 293.973L301.511 257.108C301.873 256.899 302.284 256.789 302.702 256.789C303.12 256.789 303.531 256.899 303.893 257.108L367.744 293.973C368.106 294.182 368.406 294.482 368.616 294.844C368.825 295.206 368.935 295.617 368.935 296.035V369.764C368.935 370.615 368.481 371.401 367.744 371.827L303.893 408.691ZM303.893 408.691L304.29 409.379" stroke="#A1F919" stroke-opacity="0.16" strokeWidth="1.588"/>
<path d="M228.036 281.686C227.674 281.894 227.264 282.004 226.846 282.004C226.428 282.004 226.017 281.894 225.655 281.686L161.804 244.821C161.442 244.612 161.142 244.311 160.932 243.949C160.723 243.587 160.613 243.177 160.613 242.759V169.03C160.613 168.179 161.067 167.393 161.804 166.967L225.655 130.103C226.017 129.893 226.428 129.783 226.846 129.783C227.264 129.783 227.674 129.893 228.036 130.103L291.888 166.967C292.25 167.176 292.55 167.477 292.759 167.839C292.968 168.201 293.078 168.612 293.078 169.03V242.759C293.078 243.609 292.624 244.396 291.888 244.821L228.036 281.686ZM228.036 281.686L228.433 282.373" stroke="#A1F919" stroke-opacity="0.16" strokeWidth="1.588"/>
<path d="M378.036 281.686C377.674 281.894 377.264 282.004 376.846 282.004C376.428 282.004 376.017 281.894 375.655 281.686L311.804 244.821C311.442 244.612 311.142 244.311 310.932 243.949C310.723 243.587 310.613 243.177 310.613 242.759V169.03C310.613 168.179 311.067 167.393 311.804 166.967L375.655 130.103C376.017 129.893 376.428 129.783 376.846 129.783C377.264 129.783 377.674 129.893 378.036 130.103L441.888 166.967C442.25 167.176 442.55 167.477 442.759 167.839C442.968 168.201 443.078 168.612 443.078 169.03V242.759C443.078 243.609 442.624 244.396 441.888 244.821L378.036 281.686ZM378.036 281.686L378.433 282.373" stroke="#A1F919" stroke-opacity="0.16" strokeWidth="1.588"/>
<path d="M528.927 281.686C528.565 281.894 528.154 282.004 527.736 282.004C527.318 282.004 526.908 281.894 526.546 281.686L462.694 244.821C462.332 244.612 462.032 244.311 461.823 243.949C461.614 243.587 461.504 243.177 461.504 242.759V169.03C461.504 168.179 461.958 167.393 462.694 166.967L526.546 130.103C526.908 129.893 527.318 129.783 527.736 129.783C528.154 129.783 528.565 129.893 528.927 130.103L592.778 166.967C593.14 167.176 593.441 167.477 593.65 167.839C593.859 168.201 593.969 168.612 593.969 169.03V242.759C593.969 243.609 593.515 244.396 592.778 244.821L528.927 281.686ZM528.927 281.686L529.324 282.373" stroke="#A1F919" stroke-opacity="0.16" strokeWidth="1.588"/>
<path d="M453.036 153.883C452.674 154.091 452.264 154.201 451.846 154.201C451.428 154.201 451.017 154.091 450.655 153.883L386.804 117.018C386.442 116.809 386.141 116.508 385.932 116.146C385.723 115.784 385.613 115.374 385.613 114.956V41.2256C385.613 40.3756 386.067 39.5896 386.804 39.1636L450.655 2.29962C451.017 2.09054 451.428 1.98047 451.846 1.98047C452.264 1.98047 452.674 2.09054 453.036 2.29962L516.888 39.1636C517.25 39.3729 517.551 39.6737 517.759 40.0358C517.968 40.3979 518.078 40.8086 518.078 41.2266V114.956C518.078 115.807 517.624 116.593 516.888 117.018L453.036 153.883ZM453.036 153.883L453.433 154.57" stroke="#A1F919" stroke-opacity="0.16" strokeWidth="1.588"/>
</g>
</g>
<defs>
<clipPath id="clip0_138_2567">
<rect width="606" height="539" fill="white"/>
</clipPath>
<clipPath id="clip1_138_2567">
<rect width="606" height="539" fill="white"/>
</clipPath>
</defs>
</svg>
