<svg width="25" height="24" viewBox="0 0 25 24" fill="none" xmlns="http://www.w3.org/2000/svg">
<path d="M4.51953 19.0579V8.59617C4.51953 8.17451 4.66728 7.81592 4.96278 7.52042C5.25828 7.22492 5.61695 7.07717 6.03878 7.07717H9.75028V5.23867C9.75028 4.99117 9.80186 4.74659 9.90503 4.50492C10.0084 4.26326 10.1453 4.05717 10.3158 3.88667L11.4118 2.82892C11.7054 2.53542 12.0683 2.38867 12.5003 2.38867C12.9323 2.38867 13.2951 2.53542 13.5888 2.82892L14.6848 3.88667C14.8553 4.05717 14.9922 4.26326 15.0955 4.50492C15.1987 4.74659 15.2503 4.99117 15.2503 5.23867V11.0772H18.9618C19.3836 11.0772 19.7423 11.2249 20.0378 11.5204C20.3333 11.8159 20.481 12.1745 20.481 12.5962V19.0579C20.481 19.4796 20.3333 19.8383 20.0378 20.1339C19.7423 20.4294 19.3836 20.5772 18.9618 20.5772H6.03878C5.61695 20.5772 5.25828 20.4294 4.96278 20.1339C4.66728 19.8383 4.51953 19.4796 4.51953 19.0579ZM6.01953 19.0772H8.51953V16.5772H6.01953V19.0772ZM6.01953 15.0772H8.51953V12.5772H6.01953V15.0772ZM6.01953 11.0772H8.51953V8.57717H6.01953V11.0772ZM11.2503 19.0772H13.7503V16.5772H11.2503V19.0772ZM11.2503 15.0772H13.7503V12.5772H11.2503V15.0772ZM11.2503 11.0772H13.7503V8.57717H11.2503V11.0772ZM11.2503 7.07717H13.7503V4.57717H11.2503V7.07717ZM16.481 19.0772H18.981V16.5772H16.481V19.0772ZM16.481 15.0772H18.981V12.5772H16.481V15.0772Z" fill="#A5A6A8"/>
</svg>
