<svg width="230" height="37" viewBox="0 0 230 37" fill="none" xmlns="http://www.w3.org/2000/svg">
<path d="M38.0621 6.41656L33.64 10.9222L32.1504 9.46587L23.3525 18.5683L32.1504 27.5341L33.6865 26.0322L38.0621 30.5834L32.1504 36.5L14.5547 18.5683L32.1969 0.5L38.0621 6.41656Z" fill="white"/>
<path d="M23.5075 6.41656L19.0853 10.9222L17.5957 9.46587L8.79784 18.5683L17.5957 27.5341L19.1318 26.0322L23.5075 30.5834L17.5957 36.5L0 18.5683L17.6422 0.5L23.5075 6.41656Z" fill="white"/>
<path d="M29.4766 18.5229L39.6214 8.13647L49.999 18.5229L39.6214 28.8637L29.4766 18.5229Z" fill="#C104D2"/>
<path d="M221.652 14.7429C221.652 17.834 230.001 15.2204 230.001 20.6235C230.001 23.212 227.654 24.9712 224.345 24.9712C221.084 24.9712 218.738 23.4382 218.269 20.1963H221.43C221.652 21.6539 222.789 22.4832 224.443 22.4832C225.999 22.4832 226.815 21.8047 226.815 20.8246C226.815 17.8089 218.639 20.3973 218.639 14.9439C218.639 12.7575 220.319 10.7471 223.777 10.7471C226.815 10.7471 229.112 12.2047 229.507 15.5471H226.345C226.098 13.9136 225.16 13.2602 223.653 13.2602C222.393 13.2602 221.652 13.8884 221.652 14.7429Z" fill="white"/>
<path d="M209.265 24.5942V11.124H212.426V13.0842C213.291 11.4759 214.624 10.7471 216.057 10.7471C216.6 10.7471 217.094 10.8979 217.341 11.124V13.9136C216.921 13.7879 216.452 13.7376 215.884 13.7376C213.488 13.7376 212.426 15.1952 212.426 17.4319V24.5942H209.265Z" fill="white"/>
<path d="M206.987 20.1963C206.271 23.3125 203.9 24.9712 200.739 24.9712C196.737 24.9712 194.292 22.2822 194.292 17.8842C194.292 13.3104 196.762 10.7471 200.615 10.7471C204.493 10.7471 206.889 13.4109 206.889 17.7586V18.5125H197.552C197.7 20.9753 198.812 22.3324 200.739 22.3324C202.22 22.3324 203.233 21.6287 203.653 20.1963H206.987ZM200.615 13.3858C198.935 13.3858 197.923 14.4664 197.626 16.502H203.579C203.283 14.4916 202.27 13.3858 200.615 13.3858Z" fill="white"/>
<path d="M180.468 24.5942V6.5H183.629V12.9335C184.494 11.4759 185.877 10.7471 187.556 10.7471C190.199 10.7471 192.002 12.3555 192.002 15.6225V24.5942H188.841V16.2759C188.841 14.4414 188.075 13.411 186.47 13.411C184.716 13.411 183.629 14.9691 183.629 16.7785V24.5942H180.468Z" fill="white"/>
<path d="M169.961 14.7429C169.961 17.834 178.309 15.2204 178.309 20.6235C178.309 23.212 175.963 24.9712 172.653 24.9712C169.393 24.9712 167.046 23.4382 166.577 20.1963H169.739C169.961 21.6539 171.097 22.4832 172.752 22.4832C174.308 22.4832 175.123 21.8047 175.123 20.8246C175.123 17.8089 166.948 20.3973 166.948 14.9439C166.948 12.7575 168.627 10.7471 172.085 10.7471C175.123 10.7471 177.42 12.2047 177.815 15.5471H174.654C174.407 13.9136 173.468 13.2602 171.962 13.2602C170.702 13.2602 169.961 13.8884 169.961 14.7429Z" fill="white"/>
<path d="M161.24 18.9397V11.124H164.401V24.5942H161.24V22.7848C160.375 24.2675 159.017 24.9711 157.386 24.9711C154.768 24.9711 153.015 23.3628 153.015 20.1209V11.124H156.176V19.4675C156.176 21.302 156.917 22.3073 158.473 22.3073C160.177 22.3073 161.24 20.7492 161.24 18.9397Z" fill="white"/>
<path d="M143.269 24.5942V11.124H146.43V13.0842C147.295 11.4759 148.628 10.7471 150.061 10.7471C150.604 10.7471 151.098 10.8979 151.345 11.124V13.9136C150.925 13.7879 150.456 13.7376 149.888 13.7376C147.492 13.7376 146.43 15.1952 146.43 17.4319V24.5942H143.269Z" fill="white"/>
<path d="M140.964 12.7827H137.481C136.963 10.9231 135.555 9.94296 133.678 9.94296C130.862 9.94296 129.232 12.2801 129.232 16.0749C129.232 19.8948 130.837 22.1566 133.678 22.1566C135.456 22.1566 136.864 21.2267 137.432 19.4424H140.939C140.05 23.011 137.16 24.9712 133.727 24.9712C128.812 24.9712 125.823 21.6037 125.823 16.0749C125.823 10.5712 128.861 7.1283 133.776 7.1283C137.259 7.1283 140.198 9.06337 140.964 12.7827Z" fill="white"/>
<path d="M109.073 30.4999C108.431 30.4999 107.764 30.324 107.443 30.1984V27.7355H108.184C109.616 27.7355 110.283 27.434 111.296 24.8706L111.617 24.0413L106.405 11.124H109.789L112.728 18.9397L113.272 20.8999L113.815 18.9397L116.631 11.124H119.866L114.037 25.9261C112.679 29.4193 111.493 30.4999 109.073 30.4999Z" fill="white"/>
<path d="M96.9613 30.123H93.7998V11.124H96.9613V12.657C97.8011 11.4256 98.9867 10.7471 100.444 10.7471C103.902 10.7471 106.026 13.4361 106.026 17.834C106.026 22.4078 103.852 24.9712 100.444 24.9712C98.9867 24.9712 97.7764 24.3429 96.9613 23.1366V30.123ZM99.8758 13.4109C97.974 13.4109 96.9613 14.9691 96.9613 17.834C96.9613 20.6989 98.0234 22.3073 99.8758 22.3073C101.753 22.3073 102.766 20.724 102.766 17.834C102.766 14.9942 101.728 13.4109 99.8758 13.4109Z" fill="white"/>
<path d="M85.1749 24.9712C81.2477 24.9712 78.8271 22.2822 78.8271 17.8842C78.8271 13.3104 81.3218 10.7471 85.1749 10.7471C89.0774 10.7471 91.4979 13.4612 91.4979 17.8842C91.4979 22.4078 89.0033 24.9712 85.1749 24.9712ZM85.1749 22.3073C87.1755 22.3073 88.2376 20.7492 88.2376 17.8842C88.2376 15.0193 87.1508 13.4109 85.1749 13.4109C83.1495 13.4109 82.0875 14.9942 82.0875 17.8842C82.0875 20.724 83.1742 22.3073 85.1749 22.3073Z" fill="white"/>
<path d="M77.1397 12.7827H73.6571C73.1384 10.9231 71.7306 9.94296 69.8534 9.94296C67.0377 9.94296 65.4075 12.2801 65.4075 16.0749C65.4075 19.8948 67.013 22.1566 69.8534 22.1566C71.6318 22.1566 73.0396 21.2267 73.6077 19.4424H77.115C76.2259 23.011 73.336 24.9712 69.9028 24.9712C64.9876 24.9712 61.999 21.6037 61.999 16.0749C61.999 10.5712 65.037 7.1283 69.9522 7.1283C73.4348 7.1283 76.374 9.06337 77.1397 12.7827Z" fill="white"/>
</svg>
