<svg width="160" height="60" viewBox="0 0 160 60" fill="none" xmlns="http://www.w3.org/2000/svg">
<path fill-rule="evenodd" clip-rule="evenodd" d="M37.0936 14.6604L36.9217 14.5666C36.2522 14.2016 35.5909 13.797 34.9324 13.3939C34.4971 13.1271 34.0619 12.8603 33.6349 12.6111C33.4879 12.5246 33.3576 12.4352 33.2453 12.3575C32.731 11.9998 32.4593 11.8122 31.6983 12.2725C31.421 12.4381 31.1645 12.5906 30.9122 12.7372C30.6599 12.8838 30.4021 13.0304 30.1151 13.1887C29.544 13.5068 28.9923 13.8249 28.4419 14.1518C27.8417 14.505 27.3246 14.8173 26.7992 15.1354L26.5496 15.282C25.6098 15.8522 24.4508 16.5544 23.5719 16.9721L23.3792 17.0645L23.4929 21.8155L20.1839 23.8061C19.9961 23.8768 19.8144 23.9641 19.6405 24.0671C19.4644 24.1697 19.3008 24.2796 19.165 24.372L19.0263 24.4702L19 34.878L23.1768 37.738L23.5303 42.7015L30.0916 46.6477C30.2954 46.7723 30.5213 46.9057 30.7487 47.0406C31.0481 47.2165 31.3475 47.3938 31.6511 47.5873C32.5425 48.1517 32.6423 48.0857 33.2301 47.6987C33.341 47.6254 33.4755 47.536 33.6293 47.4481C34.0022 47.2326 34.3959 46.9878 34.7938 46.7415C35.4808 46.2959 36.1897 45.8893 36.9176 45.5234L37.1061 45.4354L37.1186 38.6703L37.0936 14.6604ZM35.7323 44.4928C35.3982 44.7024 34.5789 45.1906 33.8484 45.6157C33.1982 45.9939 32.6354 46.3149 32.591 46.3252C32.5189 46.3413 32.0032 46.0716 31.4099 45.7388C30.8166 45.4061 30.1623 44.9986 29.781 44.7347C30.0417 44.5588 30.3993 44.3506 30.6738 44.1894L30.8984 44.056C31.3614 43.7804 31.5375 43.839 31.6955 43.8933C31.9658 43.9842 32.2084 44.0663 32.7075 43.7247C32.9178 43.5881 33.0828 43.3859 33.1796 43.1458C33.2765 42.9058 33.3004 42.6399 33.2481 42.3849C33.2143 42.1996 33.149 42.0223 33.0554 41.8616C32.9604 41.701 32.8376 41.5608 32.6936 41.4482C32.4959 41.293 32.2573 41.2068 32.0111 41.2015C31.7649 41.1963 31.5233 41.2722 31.3198 41.4188C31.1945 41.4882 31.0847 41.5853 30.9979 41.7034C30.9111 41.8215 30.8493 41.9579 30.8166 42.1034C30.7872 42.2046 30.7491 42.3027 30.7029 42.3966C30.5906 42.615 30.1165 42.8657 29.7325 43.0694C29.5939 43.1471 29.4553 43.216 29.3499 43.2791C29.2113 43.3597 29.1032 43.4359 28.9978 43.5077C28.6498 43.7452 28.3962 43.9167 28.0038 43.6719C27.6115 43.4271 27.2123 43.194 26.8047 42.958C26.1407 42.5725 25.4711 42.184 24.8958 41.7736L24.5797 37.7512C24.9919 37.5591 25.3916 37.3382 25.7761 37.0901C26.2391 36.8057 26.6495 36.5536 26.8657 36.5462C26.9589 36.5462 27.0518 36.5565 27.143 36.577C27.287 36.62 27.4382 36.6292 27.586 36.6039C27.7337 36.5786 27.8745 36.5194 27.9983 36.4304C28.5528 36.0859 28.7247 35.589 28.6596 35.1184C28.6027 34.7623 28.4271 34.4393 28.1647 34.2081C28.0361 34.087 27.8853 33.9953 27.7216 33.9387C27.558 33.8822 27.385 33.8621 27.2137 33.8798C26.7812 33.9369 26.3639 34.2653 26.1185 35.0173C26.0062 35.3632 25.9369 35.397 25.4933 35.6139C25.3145 35.7019 25.0885 35.8133 24.7891 35.9731C24.5617 36.0962 24.394 36.2032 24.2595 36.2897C23.967 36.4788 23.9074 36.5184 23.4181 36.1724C23.1796 36.0038 22.8483 35.7869 22.4809 35.5494C21.724 35.0569 20.8174 34.4676 20.4015 34.0835L20.3738 30.1139C20.7287 29.9512 21.085 29.7533 21.4371 29.5583C21.8227 29.3327 22.2198 29.1296 22.6265 28.95C22.7078 28.9063 22.7969 28.8815 22.888 28.8772C22.9791 28.8729 23.07 28.8892 23.1547 28.925C23.3848 29.013 23.6052 29.0951 24.0793 28.8723C24.2667 28.7888 24.4307 28.6559 24.5557 28.4862C24.6807 28.3166 24.7625 28.1159 24.7932 27.9033C24.8244 27.6912 24.8107 27.4744 24.753 27.2686C24.6958 27.0606 24.5937 26.8694 24.455 26.7101C24.3169 26.5506 24.1424 26.4312 23.9483 26.3632C23.7542 26.2952 23.5468 26.2809 23.346 26.3216C22.6459 26.4433 22.5142 26.8054 22.3867 27.2011C22.3482 27.3447 22.28 27.4774 22.187 27.5896L20.3724 28.4486L20.3627 25.2456L21.2527 24.759L24.1944 23.123C24.7808 23.406 25.4836 23.8956 26.174 24.3764C26.6633 24.7165 27.1444 25.0521 27.581 25.3131L27.3662 29.0834C27.0279 29.3765 26.1643 29.9013 25.4614 30.3308C25.1523 30.5199 24.875 30.69 24.6796 30.8175C24.57 30.8893 24.4688 30.9641 24.3912 31.0125C24.3465 31.0466 24.3003 31.0784 24.2526 31.1078L24.0932 31.0784L23.863 31.0389C23.1574 30.9231 22.693 31.1854 22.4449 31.5915C22.291 31.8474 22.2213 32.1499 22.2467 32.452C22.2689 32.7527 22.3783 33.0389 22.5599 33.2714C22.8608 33.6496 23.3515 33.8578 23.9906 33.6467C24.5617 33.4576 24.6463 33.1659 24.753 32.8038C24.7763 32.7155 24.8059 32.6292 24.8418 32.5458C24.8639 32.496 24.8806 32.452 24.8944 32.4124C24.9388 32.386 24.9942 32.3508 25.0636 32.3025C25.4379 32.0445 26.515 31.3276 27.3551 30.8615C27.7973 30.6152 28.1425 30.4378 28.1868 30.454C28.3698 30.5185 28.9715 30.9172 29.4594 31.2412C29.7062 31.4039 29.9266 31.5505 30.0417 31.6208L31.5111 32.5282L31.6359 32.6088L31.6969 32.6543L31.7191 32.6719L31.7426 32.6924L31.8688 32.8199C31.8854 32.836 31.8979 35.224 31.9048 36.3161V36.6093C31.2117 36.9787 30.4395 37.4741 29.7464 37.9154L29.2362 38.2408C28.7871 38.5252 28.733 38.4959 28.6693 38.4636C28.4987 38.3742 28.3061 38.2716 27.7876 38.449C27.6306 38.5045 27.4861 38.5938 27.3634 38.7113C27.1764 38.8931 27.0415 39.1268 26.9738 39.3857C26.9025 39.6523 26.9068 39.9352 26.9863 40.1992C27.0434 40.3869 27.1379 40.5594 27.2636 40.705C27.3324 40.785 27.4107 40.8555 27.4965 40.9146C27.7386 41.0747 28.0226 41.1491 28.3074 41.1271C28.597 41.1085 28.8723 40.9878 29.0893 40.7841C29.1673 40.7098 29.2358 40.6251 29.2931 40.532C29.432 40.3085 29.5531 40.0732 29.6549 39.8284C29.6708 39.7733 29.6988 39.7231 29.7367 39.6818C29.915 39.552 30.1001 39.4331 30.2912 39.3256C30.6017 39.1409 31.0509 38.8711 31.6858 38.4739L32.7948 37.7996L32.8156 37.7864C32.9394 37.709 33.0531 37.6149 33.1539 37.5064L33.219 37.4375L33.3188 37.3363L33.2523 31.9418L28.8481 29.183L28.9645 25.3717C29.3624 25.0683 30.0236 24.7384 30.6877 24.4072C31.579 23.9674 32.4732 23.5159 32.8738 23.0615L32.9584 22.8386L33.0263 18.9027C33.0687 18.8527 33.1151 18.8066 33.1649 18.7649C33.3549 18.6007 33.524 18.4542 33.5975 17.9543C33.6518 17.6846 33.6249 17.4037 33.5204 17.151C33.416 16.8983 33.2393 16.6866 33.0152 16.5456C32.8527 16.4458 32.6729 16.3814 32.4865 16.3562C32.3001 16.3311 32.1108 16.3456 31.9298 16.399C31.6895 16.4673 31.4757 16.6138 31.3185 16.8177C31.1613 17.0215 31.0686 17.2725 31.0536 17.535C30.9788 18.3002 31.1632 18.4351 31.3891 18.5993C31.5014 18.6814 31.64 18.7825 31.6165 19.772C31.6165 20.0461 31.6165 20.3378 31.6165 20.6325C31.6165 21.1793 31.6165 21.7378 31.5707 22.2552C31.3572 22.3725 31.0758 22.5381 30.7681 22.7184C29.7561 23.3121 28.4114 24.0964 28.2187 24.0011C27.7624 23.744 27.3196 23.4612 26.8921 23.1538C26.7077 23.0263 26.5399 22.9119 26.4401 22.846C26.3015 22.7522 26.131 22.6481 25.9563 22.5396C25.5885 22.3197 25.2313 22.0805 24.8861 21.8228L24.8154 17.9675L27.563 16.4283C27.5935 17.0909 27.6282 17.8854 27.5977 18.4102C27.5924 18.5122 27.5672 18.612 27.5238 18.7033C27.4804 18.7946 27.4197 18.8755 27.3454 18.9408C27.0681 19.234 26.8324 19.4876 27.1 20.31C27.1685 20.5115 27.289 20.6888 27.4479 20.8216C27.6244 20.9727 27.8327 21.0768 28.0551 21.125C28.2882 21.178 28.5305 21.1638 28.7566 21.084C28.9674 21.0071 29.1537 20.8696 29.2945 20.6867C30.0611 19.6958 29.3915 19.0332 28.9895 18.6345L28.9631 15.5561C29.1434 15.452 29.4054 15.2981 29.7076 15.1163C30.739 14.508 32.25 13.6152 32.3692 13.6138C32.4164 13.6138 32.9681 13.9231 33.6169 14.3013C34.4251 14.7689 35.3483 15.3347 35.7198 15.5869L35.7323 28.0045C35.5258 27.8887 35.2624 27.7318 35.0004 27.5647C34.6506 27.3625 34.3143 27.1353 33.9939 26.8845L33.9773 26.8581L33.7694 26.2718L33.7472 26.2219C33.6645 26.073 33.5547 25.943 33.4242 25.8393C33.2959 25.7361 33.1493 25.6614 32.993 25.6194C32.4025 25.4641 31.9547 25.6752 31.6789 26.0372C31.5641 26.1884 31.48 26.3631 31.4321 26.5503C31.3838 26.7348 31.3683 26.9271 31.3864 27.1176C31.404 27.3635 31.4907 27.5982 31.6355 27.7915C31.7803 27.9848 31.9764 28.1279 32.1987 28.2024C32.677 28.3621 32.8918 28.2756 33.0804 28.2024C33.1719 28.1642 33.2509 28.132 33.5919 28.3489C33.7971 28.4794 33.9925 28.5996 34.1922 28.7227C34.7356 29.0584 35.3012 29.4102 35.7309 29.7415L35.7448 35.8573L35.7323 44.4928Z" fill="white"/>
<path fill-rule="evenodd" clip-rule="evenodd" d="M54.9873 30.1013C54.7919 27.2267 53.5747 25.5981 51.8848 24.3711C51.8848 24.3389 51.8987 24.3066 51.9042 24.2744C53.2586 16.8555 46.6627 12.0048 41.1412 12.7847C39.5193 13.0779 38.3506 13.887 37.8779 15.2577L37.8876 41.0852L37.9001 43.1771L37.9098 43.1477V43.4746L37.8876 43.5553L37.9098 43.5773V44.8233L37.9265 44.8027C38.4033 46.169 39.5692 46.9796 41.1884 47.2669C46.5186 48.0204 52.8525 43.5215 52.0609 36.5307C52.7887 35.9683 53.4017 35.2563 53.863 34.4374C54.6837 32.9495 55.0774 31.5012 54.9873 30.1013ZM49.4131 18.4152C50.4403 19.9207 50.6718 21.6929 50.4057 23.4403C49.4616 22.9111 48.4386 22.4244 47.4016 21.8776C43.6185 19.8855 40.3538 17.37 39.6316 15.3573C41.6569 13.0412 47.0592 14.9718 49.4131 18.4152ZM40.4578 19.0309C41.4282 19.9456 42.7299 20.8838 44.2797 21.8307C45.9627 22.8568 48.3124 23.6865 50.0591 24.9238C49.6313 26.2837 48.9861 27.5559 48.1516 28.6852C45.6092 25.6963 42.4263 22.9008 40.4578 19.0309ZM39.4014 33.445L39.4708 20.3414L39.4624 20.3253L39.3488 20.12C39.345 20.1117 39.3403 20.1038 39.3349 20.0966L39.3488 20.123C39.3913 20.1884 39.4293 20.257 39.4624 20.3282C41.4919 24.0721 44.6915 27.1417 47.1077 30.0031C44.6942 32.8718 41.4753 35.9443 39.4319 39.697L39.4014 33.445ZM39.5595 42.9894C41.3436 38.023 45.1933 34.8053 48.1544 31.3063C49.1885 32.6818 49.9303 34.2767 50.3294 35.9825C50.2435 36.0352 50.1575 36.0865 50.0688 36.1364C47.6359 37.6301 45.9821 38.2135 43.9803 39.4068C42.077 40.5429 40.7018 41.6613 39.5775 42.9645L39.5595 42.9894ZM49.4575 41.6349C47.2131 44.92 42.1934 46.8286 39.9781 44.9874C40.5326 43.9188 42.1241 42.4001 44.0718 41.1849C46.7334 39.5226 48.8752 38.5463 50.5443 37.5598C50.6067 38.9919 50.2989 40.4036 49.4575 41.6349ZM51.7351 34.8537C51.2416 33.0507 50.3308 31.4822 49.2093 29.9943C50.1603 28.7307 50.956 27.3997 51.469 25.9147C54.2457 28.4038 54.1251 32.3514 51.7351 34.8537Z" fill="white"/>
<path d="M73.8807 24.3438V22.4545H85.1378V24.3438H80.5994V37H78.4119V24.3438H73.8807ZM88.57 37L85.3597 26.0909H87.5543L89.6921 34.1023H89.7987L91.9435 26.0909H94.1381L96.2688 34.0668H96.3754L98.4989 26.0909H100.694L97.4904 37H95.3242L93.1083 29.1236H92.945L90.729 37H88.57ZM102.709 37V26.0909H104.832V37H102.709ZM103.781 24.4077C103.412 24.4077 103.095 24.2846 102.83 24.0384C102.569 23.7874 102.439 23.4891 102.439 23.1435C102.439 22.7931 102.569 22.4948 102.83 22.2486C103.095 21.9976 103.412 21.8722 103.781 21.8722C104.151 21.8722 104.465 21.9976 104.726 22.2486C104.991 22.4948 105.124 22.7931 105.124 23.1435C105.124 23.4891 104.991 23.7874 104.726 24.0384C104.465 24.2846 104.151 24.4077 103.781 24.4077ZM109.813 30.5227V37H107.689V26.0909H109.728V27.8665H109.863C110.114 27.2888 110.507 26.8248 111.042 26.4744C111.581 26.1241 112.261 25.9489 113.08 25.9489C113.823 25.9489 114.474 26.1051 115.033 26.4176C115.592 26.7254 116.025 27.1847 116.333 27.7955C116.641 28.4062 116.794 29.1615 116.794 30.0611V37H114.671V30.3168C114.671 29.526 114.465 28.9081 114.053 28.4631C113.641 28.0133 113.075 27.7884 112.355 27.7884C111.863 27.7884 111.425 27.8949 111.042 28.108C110.663 28.321 110.362 28.6335 110.14 29.0455C109.922 29.4527 109.813 29.9451 109.813 30.5227ZM124.238 37.2202C123.182 37.2202 122.273 36.9811 121.51 36.5028C120.753 36.0199 120.17 35.3546 119.763 34.5071C119.356 33.6596 119.152 32.6889 119.152 31.5952C119.152 30.4872 119.361 29.5095 119.777 28.6619C120.194 27.8097 120.781 27.1444 121.539 26.6662C122.296 26.188 123.189 25.9489 124.216 25.9489C125.045 25.9489 125.783 26.1027 126.432 26.4105C127.081 26.7135 127.604 27.1397 128.002 27.6889C128.404 28.2382 128.643 28.8797 128.719 29.6136H126.652C126.539 29.1023 126.278 28.6619 125.871 28.2926C125.469 27.9233 124.929 27.7386 124.252 27.7386C123.66 27.7386 123.141 27.8949 122.696 28.2074C122.256 28.5152 121.913 28.9555 121.667 29.5284C121.42 30.0966 121.297 30.7689 121.297 31.5455C121.297 32.3409 121.418 33.0275 121.659 33.6051C121.901 34.1828 122.242 34.6302 122.682 34.9474C123.127 35.2647 123.65 35.4233 124.252 35.4233C124.654 35.4233 125.019 35.3499 125.346 35.2031C125.677 35.0516 125.954 34.8362 126.176 34.5568C126.404 34.2775 126.562 33.9413 126.652 33.5483H128.719C128.643 34.2538 128.414 34.8835 128.03 35.4375C127.647 35.9915 127.133 36.4271 126.489 36.7443C125.85 37.0616 125.099 37.2202 124.238 37.2202ZM130.99 37V26.0909H133.114V37H130.99ZM132.062 24.4077C131.693 24.4077 131.376 24.2846 131.111 24.0384C130.85 23.7874 130.72 23.4891 130.72 23.1435C130.72 22.7931 130.85 22.4948 131.111 22.2486C131.376 21.9976 131.693 21.8722 132.062 21.8722C132.432 21.8722 132.747 21.9976 133.007 22.2486C133.272 22.4948 133.405 22.7931 133.405 23.1435C133.405 23.4891 133.272 23.7874 133.007 24.0384C132.747 24.2846 132.432 24.4077 132.062 24.4077ZM141.063 26.0909V27.7955H135.104V26.0909H141.063ZM136.702 23.4773H138.826V33.7969C138.826 34.2088 138.887 34.5189 139.01 34.7273C139.133 34.9309 139.292 35.0705 139.486 35.1463C139.685 35.2173 139.9 35.2528 140.132 35.2528C140.303 35.2528 140.452 35.241 140.58 35.2173C140.708 35.1937 140.807 35.1747 140.878 35.1605L141.262 36.9148C141.139 36.9621 140.963 37.0095 140.736 37.0568C140.509 37.1089 140.225 37.1373 139.884 37.142C139.325 37.1515 138.804 37.0521 138.321 36.8438C137.838 36.6354 137.448 36.3134 137.15 35.8778C136.851 35.4422 136.702 34.8954 136.702 34.2372V23.4773ZM143.412 37V26.0909H145.536V37H143.412ZM144.484 24.4077C144.115 24.4077 143.798 24.2846 143.533 24.0384C143.272 23.7874 143.142 23.4891 143.142 23.1435C143.142 22.7931 143.272 22.4948 143.533 22.2486C143.798 21.9976 144.115 21.8722 144.484 21.8722C144.854 21.8722 145.169 21.9976 145.429 22.2486C145.694 22.4948 145.827 22.7931 145.827 23.1435C145.827 23.4891 145.694 23.7874 145.429 24.0384C145.169 24.2846 144.854 24.4077 144.484 24.4077Z" fill="white"/>
</svg>
