<svg width="100" height="60" viewBox="0 0 100 60" fill="none" xmlns="http://www.w3.org/2000/svg">
<path d="M24.086 22.7874H12.5781L18.3262 13.6436L24.086 22.7874Z" fill="#222222"/>
<path d="M50.3922 22.7874H38.8843L44.644 13.6436L50.3922 22.7874Z" fill="#222222"/>
<path d="M37.0877 23.5911L31.4095 44.8742L25.7312 23.5911H37.0877Z" fill="#222222"/>
<path d="M50.2171 23.5911L32.0884 46.2255L38.1274 23.5911H50.2171Z" fill="#222222"/>
<path d="M30.7068 46.2255L12.5781 23.5911H24.6678L30.7068 46.2255Z" fill="#222222"/>
<path d="M30.7068 46.2255L12.5781 23.5911H24.6678L30.7068 46.2255Z" fill="#222222"/>
<path d="M36.8511 22.7804H26.1694L31.5103 14.2784L36.8511 22.7804Z" fill="#222222"/>
<path d="M30.9049 13.6436L25.1336 22.8212L19.3738 13.6436H30.9049Z" fill="#222222"/>
<path d="M43.6195 13.6436L37.8598 22.8212L32.0884 13.6436H43.6195Z" fill="#222222"/>
<path d="M85.4389 43H79.1902L73.7954 32.7537H69.9142V43H64.5193V21.3042C64.5193 19.2342 64.998 17.7335 65.9554 16.802C66.9127 15.8446 68.5169 15.3659 70.768 15.3659H75.3478C78.0905 15.3659 80.264 16.2069 81.8682 17.8887C83.4983 19.5447 84.3134 21.6535 84.3134 24.215C84.3134 26.078 83.8218 27.6952 82.8385 29.0665C81.8812 30.412 80.6909 31.3435 79.2678 31.861L85.4389 43ZM74.9985 28.2515C76.137 28.2515 77.0685 27.8634 77.793 27.0871C78.5433 26.285 78.9185 25.3018 78.9185 24.1374C78.9185 22.9472 78.5563 21.9898 77.8318 21.2653C77.1332 20.5409 76.1888 20.1786 74.9985 20.1786H72.3205C70.7163 20.1786 69.9142 20.9937 69.9142 22.6238V28.2515H74.9985ZM110.212 15.3659V33.5299C110.212 36.5314 109.19 38.8989 107.146 40.6325C105.128 42.3661 102.631 43.2329 99.6556 43.2329C96.68 43.2329 94.1702 42.3661 92.1261 40.6325C90.1079 38.8989 89.0988 36.5314 89.0988 33.5299V15.3659H94.4936V33.3358C94.4936 35.0436 94.9594 36.3244 95.8908 37.1782C96.8482 38.0062 98.1031 38.4202 99.6556 38.4202C101.208 38.4202 102.463 38.0062 103.42 37.1782C104.378 36.3244 104.856 35.0436 104.856 33.3358V15.3659H110.212ZM135.866 35.0436C135.866 37.6051 135.167 39.5716 133.77 40.943C132.399 42.3143 130.471 43 127.987 43H124.261C121.208 43 119.034 42.4696 117.741 41.4087C116.473 40.3479 115.839 38.5108 115.839 35.8974V15.3659H127.521C130.161 15.3659 132.14 16.0257 133.46 17.3453C134.805 18.6649 135.478 20.5279 135.478 22.9343C135.478 24.3315 135.116 25.5217 134.391 26.5049C133.692 27.4882 132.916 28.1868 132.062 28.6008C134.598 29.791 135.866 31.9386 135.866 35.0436ZM127.094 26.1556C129.087 26.1556 130.083 25.1595 130.083 23.1671C130.083 21.1748 129.087 20.1786 127.094 20.1786H121.234V26.1556H127.094ZM130.471 34.7719C130.471 33.5299 130.251 32.5984 129.811 31.9774C129.371 31.3306 128.582 31.0071 127.444 31.0071H121.234V35.3541C121.234 36.4149 121.493 37.1523 122.01 37.5663C122.553 37.9803 123.433 38.1873 124.649 38.1873H127.444C129.462 38.1873 130.471 37.0488 130.471 34.7719ZM146.78 43H141.385V15.3659H146.78V43Z" fill="#222222"/>
</svg>
