<svg width="65" height="92" viewBox="0 0 65 92" fill="none" xmlns="http://www.w3.org/2000/svg">
<path d="M12.0863 12.9917C11.9901 9.79719 14.1468 6.85156 17.0625 6.85156H46.9381C49.8538 6.85156 52.0106 9.79719 51.9143 12.9917C51.8217 16.0602 51.9419 20.0352 52.8088 23.2761C53.6786 26.5273 55.1452 28.5819 57.5473 28.8463V31.8402C55.1452 32.1045 53.6786 34.1591 52.8088 37.4103C51.9419 40.6512 51.8217 44.6263 51.9143 47.6947C52.0106 50.8892 49.8538 53.8344 46.9381 53.8344H17.0625C14.1468 53.8344 11.9901 50.8888 12.0863 47.6947C12.179 44.6263 12.0587 40.6512 11.1914 37.4103C10.322 34.1595 8.85138 32.1045 6.44922 31.8402V28.8463C8.85138 28.5823 10.322 26.5273 11.1914 23.2761C12.0587 20.0352 12.1786 16.0602 12.0863 12.9917Z" fill="white"/>
<g filter="url(#filter0_d_302_2355)">
<path d="M33.2617 43.0039C37.9819 43.0039 40.8263 40.3371 40.8263 35.9386C40.8263 32.6138 38.7968 30.2068 35.7832 29.8257V29.6872C37.9973 29.2716 39.7347 26.8992 39.7347 24.2498C39.7347 20.4747 37.1517 18.0156 33.2156 18.0156H24.3594V43.0039H33.2617ZM27.8035 21.1846H32.3853C34.8761 21.1846 36.2906 22.4661 36.2906 24.7865C36.2906 27.2629 34.6455 28.6482 31.6627 28.6482H27.8035V21.1846ZM27.8035 39.8348V31.6093H32.3545C35.6141 31.6093 37.3054 32.9946 37.3054 35.6961C37.3054 38.3975 35.6603 39.8348 32.5544 39.8348H27.8035Z" fill="#1E222A"/>
<path d="M33.2617 43.0039C37.9819 43.0039 40.8263 40.3371 40.8263 35.9386C40.8263 32.6138 38.7968 30.2068 35.7832 29.8257V29.6872C37.9973 29.2716 39.7347 26.8992 39.7347 24.2498C39.7347 20.4747 37.1517 18.0156 33.2156 18.0156H24.3594V43.0039H33.2617ZM27.8035 21.1846H32.3853C34.8761 21.1846 36.2906 22.4661 36.2906 24.7865C36.2906 27.2629 34.6455 28.6482 31.6627 28.6482H27.8035V21.1846ZM27.8035 39.8348V31.6093H32.3545C35.6141 31.6093 37.3054 32.9946 37.3054 35.6961C37.3054 38.3975 35.6603 39.8348 32.5544 39.8348H27.8035Z" stroke="white" stroke-width="0.221094"/>
</g>
<path d="M4.65625 88H0.398438V76.7266H4.67188C6.60156 76.7266 7.90625 77.8516 7.90625 79.5391C7.90625 80.7109 7.04688 81.8047 5.96094 82V82.0625C7.49219 82.2578 8.47656 83.3359 8.47656 84.8359C8.47656 86.8203 7.05469 88 4.65625 88ZM1.80469 77.9688V81.5859H3.91406C5.57812 81.5859 6.48438 80.9219 6.48438 79.7031C6.48438 78.5859 5.71875 77.9688 4.35156 77.9688H1.80469ZM1.80469 86.7578H4.44531C6.14062 86.7578 7.03125 86.0703 7.03125 84.7656C7.03125 83.4609 6.10938 82.7969 4.3125 82.7969H1.80469V86.7578ZM13.2266 88.1406C10.9766 88.1406 9.46094 86.5234 9.46094 83.9375C9.46094 81.3438 10.9766 79.7344 13.2266 79.7344C15.4688 79.7344 16.9844 81.3438 16.9844 83.9375C16.9844 86.5234 15.4688 88.1406 13.2266 88.1406ZM13.2266 86.9453C14.6641 86.9453 15.6016 85.8516 15.6016 83.9375C15.6016 82.0234 14.6641 80.9297 13.2266 80.9297C11.7891 80.9297 10.8438 82.0234 10.8438 83.9375C10.8438 85.8516 11.7891 86.9453 13.2266 86.9453ZM21.7266 88.1406C19.4766 88.1406 17.9609 86.5234 17.9609 83.9375C17.9609 81.3438 19.4766 79.7344 21.7266 79.7344C23.9688 79.7344 25.4844 81.3438 25.4844 83.9375C25.4844 86.5234 23.9688 88.1406 21.7266 88.1406ZM21.7266 86.9453C23.1641 86.9453 24.1016 85.8516 24.1016 83.9375C24.1016 82.0234 23.1641 80.9297 21.7266 80.9297C20.2891 80.9297 19.3438 82.0234 19.3438 83.9375C19.3438 85.8516 20.2891 86.9453 21.7266 86.9453ZM27.2969 77.9141H28.6562V79.875H30.2344V80.9922H28.6562V85.8203C28.6562 86.5625 28.9688 86.8984 29.6641 86.8984C29.8203 86.8984 30.1328 86.875 30.2266 86.8594V88C30.0625 88.0391 29.6875 88.0625 29.3672 88.0625C27.875 88.0625 27.2969 87.4531 27.2969 85.8906V80.9922H26.0859V79.875H27.2969V77.9141ZM31.5469 82.1172C31.5469 80.7266 32.7891 79.7344 34.5781 79.7344C36.2578 79.7344 37.4922 80.7344 37.5547 82.1094H36.2578C36.1641 81.3281 35.5312 80.8438 34.5312 80.8438C33.5391 80.8438 32.8828 81.3359 32.8828 82.0469C32.8828 82.6094 33.3125 82.9844 34.2344 83.2188L35.4922 83.5234C37.1328 83.9375 37.7266 84.5312 37.7266 85.7266C37.7266 87.1406 36.3906 88.1406 34.4922 88.1406C32.7109 88.1406 31.4688 87.1719 31.3281 85.7344H32.6875C32.8359 86.5781 33.4766 87.0312 34.5781 87.0312C35.6797 87.0312 36.3594 86.5625 36.3594 85.8281C36.3594 85.25 36.0234 84.9375 35.1094 84.6953L33.6797 84.3281C32.25 83.9609 31.5469 83.2266 31.5469 82.1172ZM39.5781 77.9141H40.9375V79.875H42.5156V80.9922H40.9375V85.8203C40.9375 86.5625 41.25 86.8984 41.9453 86.8984C42.1016 86.8984 42.4141 86.875 42.5078 86.8594V88C42.3438 88.0391 41.9688 88.0625 41.6484 88.0625C40.1562 88.0625 39.5781 87.4531 39.5781 85.8906V80.9922H38.3672V79.875H39.5781V77.9141ZM43.9688 88V79.875H45.25V81.2031H45.2812C45.5469 80.3047 46.2969 79.7344 47.25 79.7344C47.4844 79.7344 47.6875 79.7734 47.7969 79.7891V81.1094C47.6875 81.0703 47.3984 81.0312 47.0703 81.0312C46.0156 81.0312 45.3281 81.7891 45.3281 82.9375V88H43.9688ZM51.4297 86.9844C52.7109 86.9844 53.6953 86.0859 53.6953 84.9141V84.25L51.5234 84.3828C50.4297 84.4531 49.8047 84.9375 49.8047 85.7031C49.8047 86.4766 50.4531 86.9844 51.4297 86.9844ZM51.125 88.1406C49.5078 88.1406 48.4219 87.1641 48.4219 85.7031C48.4219 84.3125 49.4922 83.4375 51.3672 83.3281L53.6953 83.1953V82.5156C53.6953 81.5234 53.0391 80.9297 51.9141 80.9297C50.8672 80.9297 50.2109 81.4219 50.0391 82.2188H48.7266C48.8203 80.8125 50.0234 79.7344 51.9453 79.7344C53.8516 79.7344 55.0547 80.7656 55.0547 82.3828V88H53.7656V86.6016H53.7344C53.25 87.5312 52.2188 88.1406 51.125 88.1406ZM60.7266 79.7344C62.7969 79.7344 64.2031 81.3906 64.2031 83.9375C64.2031 86.4844 62.8047 88.1406 60.7578 88.1406C59.5938 88.1406 58.6562 87.5703 58.1719 86.6797H58.1406V90.7109H56.7812V79.875H58.0703V81.25H58.1016C58.6016 80.3359 59.5469 79.7344 60.7266 79.7344ZM60.4609 86.9453C61.9062 86.9453 62.8125 85.7812 62.8125 83.9375C62.8125 82.1016 61.9062 80.9297 60.4609 80.9297C59.0703 80.9297 58.1328 82.1328 58.1328 83.9375C58.1328 85.75 59.0703 86.9453 60.4609 86.9453Z" fill="white"/>
<defs>
<filter id="filter0_d_302_2355" x="20.7113" y="15.252" width="23.763" height="32.2843" filterUnits="userSpaceOnUse" color-interpolation-filters="sRGB">
<feFlood flood-opacity="0" result="BackgroundImageFix"/>
<feColorMatrix in="SourceAlpha" type="matrix" values="0 0 0 0 0 0 0 0 0 0 0 0 0 0 0 0 0 0 127 0" result="hardAlpha"/>
<feOffset dy="0.884376"/>
<feGaussianBlur stdDeviation="1.76875"/>
<feColorMatrix type="matrix" values="0 0 0 0 0 0 0 0 0 0 0 0 0 0 0 0 0 0 0.15 0"/>
<feBlend mode="normal" in2="BackgroundImageFix" result="effect1_dropShadow_302_2355"/>
<feBlend mode="normal" in="SourceGraphic" in2="effect1_dropShadow_302_2355" result="shape"/>
</filter>
</defs>
</svg>
