<svg width="54" height="92" viewBox="0 0 54 92" fill="none" xmlns="http://www.w3.org/2000/svg">
<g clip-path="url(#clip0_302_2370)">
<path d="M35.9668 10.0197C35.9169 10.0192 35.8677 10.0318 35.8242 10.0563C35.7789 10.0829 35.7411 10.1206 35.7144 10.1659C35.6878 10.2112 35.6731 10.2626 35.6718 10.3151V18.0054C35.6711 18.0433 35.6608 18.0803 35.6421 18.1133C35.6234 18.1462 35.5967 18.1739 35.5646 18.1939C35.5321 18.2113 35.4958 18.2204 35.459 18.2204C35.4221 18.2204 35.3858 18.2113 35.3533 18.1939L34.1078 17.4736C34.0163 17.4214 33.9129 17.3939 33.8076 17.3939C33.7023 17.3939 33.5988 17.4214 33.5073 17.4736L28.5235 20.3718C28.4311 20.4238 28.3541 20.4993 28.3003 20.5906C28.2465 20.6819 28.2178 20.7858 28.2171 20.8918V26.676C28.2171 26.8889 28.3354 27.0908 28.5235 27.1972L33.5081 30.0958C33.5995 30.1479 33.7028 30.1753 33.808 30.1753C33.9131 30.1753 34.0164 30.1479 34.1078 30.0958L39.0925 27.1972C39.2806 27.0908 39.3988 26.8889 39.3988 26.676V12.2557C39.3988 12.0311 39.2806 11.8292 39.0925 11.7236L36.1187 10.0563C36.0716 10.0325 36.0196 10.02 35.9668 10.0197ZM6.55996 17.2372C6.46652 17.2372 6.37268 17.2721 6.29062 17.3184L1.30593 20.2065C1.21225 20.2598 1.1345 20.3371 1.08072 20.4306C1.02694 20.524 0.999082 20.6301 1.00002 20.7378L1.01221 28.4976C1.01221 28.6045 1.0699 28.7113 1.16415 28.7588C1.20788 28.7876 1.25908 28.8029 1.31141 28.8029C1.36375 28.8029 1.41494 28.7876 1.45868 28.7588L4.42227 27.0554C4.51445 27.0032 4.59117 26.9275 4.64468 26.836C4.69819 26.7446 4.72657 26.6406 4.72696 26.5346V22.9032C4.72696 22.6903 4.84477 22.4884 5.03327 22.3819L6.29062 21.6487C6.3826 21.5928 6.48853 21.5642 6.59612 21.5662C6.70174 21.5662 6.80818 21.5893 6.89065 21.6487L8.1484 22.3819C8.33649 22.4884 8.45471 22.6903 8.45471 22.9032V26.535C8.45471 26.7471 8.57171 26.9494 8.7594 27.055L11.699 28.7588C11.7447 28.7879 11.7977 28.8033 11.8518 28.8033C11.9059 28.8033 11.9589 28.7879 12.0045 28.7588C12.0515 28.7334 12.0905 28.6956 12.1175 28.6496C12.1445 28.6035 12.1584 28.551 12.1577 28.4976V20.7378C12.1577 20.525 12.0399 20.3235 11.8514 20.2166L6.87846 17.3184C6.79469 17.274 6.70307 17.2462 6.60871 17.2368L6.55996 17.2372ZM47.4571 17.3213V17.3221L47.4563 17.3229C47.3535 17.3229 47.2512 17.3493 47.1569 17.4029L42.1718 20.2995C41.9837 20.4067 41.8671 20.6078 41.8671 20.8211V26.6061C41.8671 26.819 41.9837 27.0205 42.1718 27.1265L47.1212 29.9658C47.2104 30.0182 47.3119 30.0458 47.4153 30.0458C47.5187 30.0458 47.6203 30.0182 47.7094 29.9658L50.7076 28.2868C50.7543 28.2612 50.7933 28.2234 50.8201 28.1774C50.847 28.1313 50.8607 28.0788 50.8599 28.0256C50.8605 27.9725 50.8466 27.9202 50.8198 27.8744C50.7929 27.8286 50.7542 27.791 50.7076 27.7656L45.6997 24.8666C45.6539 24.8397 45.6159 24.8014 45.5892 24.7555C45.5625 24.7096 45.5481 24.6576 45.5474 24.6045V22.7947C45.5469 22.7417 45.5609 22.6897 45.5877 22.644C45.6145 22.5984 45.6532 22.5609 45.6997 22.5355L47.2654 21.6365C47.311 21.6074 47.364 21.592 47.4181 21.592C47.4723 21.592 47.5253 21.6074 47.5709 21.6365L49.1329 22.5355C49.1785 22.562 49.2164 22.5998 49.2432 22.6452C49.27 22.6905 49.2848 22.742 49.2861 22.7947V24.2141C49.2861 24.321 49.3446 24.4274 49.4384 24.4745C49.4842 24.5038 49.5373 24.5193 49.5916 24.5193C49.6459 24.5193 49.699 24.5038 49.7447 24.4745L52.7067 22.7358C52.7976 22.683 52.8728 22.6071 52.9247 22.5157C52.9766 22.4244 53.0033 22.3208 53.0021 22.2158V20.8081C53.0021 20.5952 52.8834 20.3942 52.7067 20.2873L47.7582 17.4025C47.6667 17.3497 47.5631 17.3216 47.4576 17.3209L47.4571 17.3213ZM20.2209 17.3412C20.1237 17.3419 20.0284 17.3675 19.9439 17.4155L14.9998 20.2865L16.7296 23.4593L20.2794 17.3469C20.2601 17.3444 20.2408 17.3427 20.2213 17.3416H20.2205L20.2209 17.3412ZM20.4509 17.4013L23.9475 23.4195L25.5907 20.395C25.5604 20.3637 25.5263 20.3362 25.4892 20.3133L22.9416 18.8333L20.4891 17.4163C20.4766 17.4109 20.4639 17.4059 20.4509 17.4013ZM20.3493 17.4257L16.7849 23.5617L20.3201 30.0475L20.3493 30.0418L23.8914 23.5227L20.3489 17.4261L20.3493 17.4257ZM14.9149 20.3393C14.8417 20.3905 14.7821 20.4589 14.7413 20.5384C14.7005 20.6179 14.6798 20.7062 14.6809 20.7955V26.6053C14.6809 26.6979 14.7061 26.7881 14.7491 26.8682L16.6699 23.5601L14.9149 20.3393ZM25.6602 20.4782L24.0064 23.5211L25.7606 26.5411V20.7955C25.7606 20.6818 25.7232 20.5709 25.6598 20.4787L25.6602 20.4782ZM33.808 21.6422C33.8348 21.6422 33.8605 21.6482 33.8851 21.6604L35.5886 22.6549C35.6357 22.6785 35.6596 22.7366 35.6596 22.7841V24.7719C35.6596 24.8312 35.6353 24.8792 35.5886 24.9027L33.8839 25.896C33.8601 25.9076 33.8339 25.9137 33.8074 25.9137C33.7808 25.9137 33.7546 25.9076 33.7308 25.896L32.0266 24.9035C31.9794 24.88 31.9551 24.8202 31.9551 24.7727V22.7849C31.9551 22.7256 31.9798 22.6789 32.0266 22.6549L33.7308 21.6604C33.7546 21.6481 33.7811 21.6418 33.808 21.6422ZM47.4397 22.4465C47.4186 22.4467 47.3981 22.4533 47.3808 22.4652L46.4277 23.0214C46.4098 23.0325 46.395 23.0481 46.3849 23.0666C46.3748 23.0851 46.3697 23.1059 46.37 23.127V24.2401C46.37 24.2872 46.3924 24.323 46.4277 24.3466L47.3808 24.9027C47.3981 24.9143 47.4186 24.9205 47.4395 24.9205C47.4604 24.9205 47.4808 24.9143 47.4982 24.9027L48.4504 24.3462C48.4683 24.3348 48.483 24.3192 48.4933 24.3006C48.5035 24.2821 48.5089 24.2613 48.5089 24.2401V23.1278C48.5092 23.1066 48.5039 23.0858 48.4937 23.0672C48.4834 23.0487 48.4685 23.0332 48.4504 23.0222L47.4982 22.4652C47.4808 22.4538 47.4605 22.4477 47.4397 22.4477V22.4465ZM23.9507 23.6247L20.4927 29.9886L20.4984 29.9857L25.49 27.0863C25.6293 27.0075 25.7187 26.8726 25.7488 26.7195L23.9507 23.6247ZM16.7264 23.6632L14.8109 26.9608C14.8515 27.0107 14.8991 27.0542 14.9531 27.0867L19.8906 29.9557L19.9435 29.9861H19.9447C19.9832 30.0079 20.0241 30.025 20.0666 30.0373C20.0793 30.0408 20.0917 30.0438 20.1039 30.0462C20.128 30.0517 20.1521 30.0553 20.1762 30.0572C20.1879 30.058 20.1995 30.0583 20.2112 30.058L16.7264 23.6632ZM26.6836 29.1042C26.5101 29.1042 26.337 29.1448 26.19 29.2277L21.4978 31.9617C21.3472 32.05 21.2224 32.1761 21.1357 32.3275C21.0491 32.479 21.0036 32.6505 21.0038 32.825V38.2769C21.0038 38.6319 21.1919 38.963 21.4974 39.141L22.7328 39.8503C23.332 40.146 23.5432 40.1444 23.8134 40.1444C24.695 40.1444 25.2011 39.6008 25.2011 38.6665V33.2865C25.2007 33.2492 25.1859 33.2135 25.1598 33.1868C25.1337 33.1602 25.0983 33.1446 25.061 33.1435H24.4618C24.424 33.1439 24.3879 33.1591 24.3611 33.1858C24.3344 33.2126 24.3192 33.2487 24.3188 33.2865V38.6685C24.3188 39.0825 23.8857 39.4968 23.1922 39.1422L21.9101 38.3971C21.863 38.3736 21.8394 38.313 21.8394 38.2659V32.812C21.8394 32.7649 21.863 32.7052 21.9101 32.682L26.6003 29.9617C26.6356 29.9382 26.6945 29.9382 26.7425 29.9617L31.4322 32.6816C31.4789 32.706 31.5037 32.7531 31.5037 32.8116V38.2651C31.5037 38.324 31.4793 38.3727 31.4322 38.3963L26.7412 41.1287C26.7059 41.1523 26.647 41.1523 26.5991 41.1287L25.401 40.4068C25.3653 40.3833 25.3181 40.3719 25.2832 40.3947C24.9541 40.5848 24.8961 40.6092 24.5784 40.7156C24.5077 40.7392 24.3903 40.7855 24.6251 40.9155L26.19 41.8511C26.3427 41.9335 26.5068 41.9802 26.6836 41.9802C26.8599 41.9802 27.0354 41.9335 27.1763 41.8746L31.8669 39.1422C32.0177 39.0537 32.1426 38.9273 32.2292 38.7754C32.3158 38.6236 32.3611 38.4517 32.3605 38.2769V32.825C32.3605 32.4699 32.1724 32.1401 31.8669 31.9625L27.1763 29.2285C27.0252 29.1461 26.8557 29.103 26.6836 29.1042ZM34.007 31.5941C33.7662 31.595 33.5356 31.6916 33.3659 31.8626C33.1963 32.0335 33.1014 32.2648 33.1023 32.5057C33.1017 32.7464 33.1966 32.9775 33.3662 33.1483C33.5358 33.3191 33.7663 33.4155 34.007 33.4165C34.5014 33.4165 34.913 33.0021 34.913 32.5057C34.9118 32.2653 34.8161 32.035 34.6467 31.8645C34.4772 31.694 34.2474 31.597 34.007 31.5945V31.5941ZM33.9948 31.7468H33.9961C34.0963 31.7456 34.1959 31.7643 34.2888 31.8019C34.3818 31.8395 34.4664 31.8953 34.5376 31.9659C34.6088 32.0366 34.6652 32.1207 34.7036 32.2133C34.7419 32.306 34.7615 32.4054 34.761 32.5057C34.761 32.9201 34.4194 33.2735 33.9961 33.2735C33.5849 33.2735 33.2429 32.9314 33.2429 32.5057C33.2429 32.0799 33.5959 31.7476 33.9948 31.7468ZM33.6658 31.9962V33.0362H33.8665V32.6247H34.0444C34.1151 32.6247 34.1378 32.6483 34.15 32.7072C34.15 32.7194 34.185 32.979 34.185 33.0261H34.3962C34.3718 32.979 34.3609 32.836 34.3491 32.7531C34.3377 32.6231 34.3263 32.5292 34.185 32.5175C34.2556 32.4935 34.3718 32.4586 34.3718 32.2692C34.3718 31.9971 34.1362 31.9971 34.0188 31.9971L33.6658 31.9962ZM33.8437 32.162H34.007C34.0663 32.162 34.161 32.162 34.161 32.3042C34.161 32.3513 34.137 32.4464 34.007 32.4464H33.8437V32.162ZM27.9657 32.9786C26.6251 32.9786 25.8239 33.5469 25.8239 34.5052C25.8239 35.5347 26.6238 35.8166 27.9056 35.9466C29.4452 36.101 29.5631 36.3265 29.5631 36.634C29.5631 37.1662 29.1397 37.39 28.1521 37.39C26.9058 37.39 26.6348 37.0825 26.5406 36.4561C26.5406 36.3846 26.4837 36.3382 26.413 36.3382H25.8016C25.7639 36.3382 25.7277 36.3532 25.701 36.3799C25.6744 36.4066 25.6594 36.4427 25.6594 36.4804C25.6594 37.2848 26.0835 38.2302 28.1416 38.2302C29.6224 38.2302 30.4796 37.6387 30.4796 36.597C30.4796 35.5802 29.7971 35.3076 28.3516 35.1183C26.8932 34.929 26.7408 34.8225 26.7408 34.4797C26.7408 34.1957 26.8708 33.8179 27.9515 33.8179C28.9163 33.8179 29.2807 34.0307 29.4221 34.6812C29.4288 34.7106 29.445 34.737 29.4682 34.7564C29.4914 34.7758 29.5203 34.787 29.5505 34.7884H30.1736C30.209 34.7884 30.2456 34.7652 30.2695 34.7417C30.2911 34.7099 30.3032 34.6728 30.3045 34.6344C30.2106 33.499 29.4708 32.9786 27.9657 32.9786Z" fill="white"/>
</g>
<path d="M2.07812 80H0.6875V68.7266H2.05469L8.22656 77.5781H8.29688V68.7266H9.6875V80H8.32031L2.14844 71.1797H2.07812V80ZM15.0312 80.1406C12.7812 80.1406 11.2656 78.5234 11.2656 75.9375C11.2656 73.3438 12.7812 71.7344 15.0312 71.7344C17.2734 71.7344 18.7891 73.3438 18.7891 75.9375C18.7891 78.5234 17.2734 80.1406 15.0312 80.1406ZM15.0312 78.9453C16.4688 78.9453 17.4062 77.8516 17.4062 75.9375C17.4062 74.0234 16.4688 72.9297 15.0312 72.9297C13.5938 72.9297 12.6484 74.0234 12.6484 75.9375C12.6484 77.8516 13.5938 78.9453 15.0312 78.9453ZM23.2422 80.1406C21.1719 80.1406 19.7656 78.4844 19.7656 75.9375C19.7656 73.3906 21.1641 71.7344 23.2109 71.7344C24.375 71.7344 25.3125 72.3047 25.7969 73.1953H25.8281V68.7266H27.1875V80H25.8906V78.625H25.8672C25.3438 79.5625 24.4141 80.1406 23.2422 80.1406ZM23.5 72.9297C22.0625 72.9297 21.1562 74.1016 21.1562 75.9375C21.1562 77.7812 22.0625 78.9453 23.5 78.9453C24.8984 78.9453 25.8359 77.7578 25.8359 75.9375C25.8359 74.125 24.8984 72.9297 23.5 72.9297ZM32.2812 72.9141C31.0078 72.9141 30.1172 73.8906 30.0312 75.2422H34.4453C34.4141 73.8828 33.5625 72.9141 32.2812 72.9141ZM34.4141 77.6719H35.75C35.5156 79.0938 34.1406 80.1406 32.3672 80.1406C30.0391 80.1406 28.625 78.5234 28.625 75.9688C28.625 73.4453 30.0625 71.7344 32.3047 71.7344C34.5 71.7344 35.8516 73.3281 35.8516 75.7891V76.3047H30.0234V76.3828C30.0234 77.9375 30.9375 78.9609 32.3984 78.9609C33.4297 78.9609 34.1875 78.4375 34.4141 77.6719ZM41.6562 80.0781C41.1562 80.0781 40.7656 79.6875 40.7656 79.1875C40.7656 78.6875 41.1562 78.2969 41.6562 78.2969C42.1562 78.2969 42.5469 78.6875 42.5469 79.1875C42.5469 79.6875 42.1562 80.0781 41.6562 80.0781ZM46 71.875V80.3984C46 82.0469 45.2188 82.7969 43.4844 82.7969C43.4609 82.7969 43.2422 82.7969 43.2266 82.7891V81.6562C43.2422 81.6562 43.4297 81.6562 43.4375 81.6562C44.3203 81.6562 44.6406 81.3203 44.6406 80.4141V71.875H46ZM45.3203 70.5078C44.8594 70.5078 44.4766 70.125 44.4766 69.6641C44.4766 69.1953 44.8594 68.8203 45.3203 68.8203C45.7891 68.8203 46.1719 69.1953 46.1719 69.6641C46.1719 70.125 45.7891 70.5078 45.3203 70.5078ZM47.6953 74.1172C47.6953 72.7266 48.9375 71.7344 50.7266 71.7344C52.4062 71.7344 53.6406 72.7344 53.7031 74.1094H52.4062C52.3125 73.3281 51.6797 72.8438 50.6797 72.8438C49.6875 72.8438 49.0312 73.3359 49.0312 74.0469C49.0312 74.6094 49.4609 74.9844 50.3828 75.2188L51.6406 75.5234C53.2812 75.9375 53.875 76.5312 53.875 77.7266C53.875 79.1406 52.5391 80.1406 50.6406 80.1406C48.8594 80.1406 47.6172 79.1719 47.4766 77.7344H48.8359C48.9844 78.5781 49.625 79.0312 50.7266 79.0312C51.8281 79.0312 52.5078 78.5625 52.5078 77.8281C52.5078 77.25 52.1719 76.9375 51.2578 76.6953L49.8281 76.3281C48.3984 75.9609 47.6953 75.2266 47.6953 74.1172Z" fill="white"/>
<defs>
<clipPath id="clip0_302_2370">
<rect width="52" height="52" fill="white" transform="translate(1)"/>
</clipPath>
</defs>
</svg>
