<svg width="52" height="92" viewBox="0 0 52 92" fill="none" xmlns="http://www.w3.org/2000/svg">
<mask id="mask0_302_2374" style="mask-type:alpha" maskUnits="userSpaceOnUse" x="0" y="0" width="52" height="52">
<path d="M6.04784 7.44087L7.15284 9.27834L8.17131 10.9773C8.69984 11.8588 9.22837 12.7404 9.75609 13.622L10.8375 15.4257L12.4146 18.0521L14.3439 21.2761C14.9 22.2044 15.4574 23.1323 16.0144 24.0602L16.0891 24.1686C16.17 24.1938 16.2342 24.1723 16.3008 24.1564C17.0349 23.9801 17.769 23.805 18.5031 23.6299C19.6938 23.3456 20.8845 23.062 22.0748 22.7772L23.9403 22.3312C25.1436 22.0435 26.3477 21.7567 27.5515 21.4683C28.7686 21.1774 29.9849 20.8849 31.2016 20.5932C31.8167 20.4457 32.4317 20.2987 33.0472 20.152L36.619 19.3005L40.5088 18.3743L40.7188 18.3174L40.6616 18.2037C40.3085 17.7032 39.9539 17.2035 39.6 16.7034L38.5515 15.2189L37.4303 13.6354L36.3582 12.1172L35.2962 10.6169L34.1989 9.06669L33.124 7.55097L32.5569 6.75106C32.4698 6.62906 32.4017 6.49455 32.355 6.35212C32.2432 6.00437 32.3708 5.77322 32.5735 5.60219C32.7041 5.49159 32.8563 5.40953 33.0204 5.36128C33.2478 5.29117 33.4786 5.23259 33.7118 5.18578C34.1794 5.09762 34.6499 5.02247 35.1195 4.94447C35.6493 4.85631 36.1794 4.77222 36.71 4.68487C37.0451 4.62962 37.3803 4.57153 37.7158 4.51466L39.0837 4.28431C39.5262 4.20999 39.9689 4.13646 40.4117 4.06372L41.8612 3.82687L42.8675 3.65747C43.2494 3.59369 43.6321 3.52991 44.0143 3.46734C44.4913 3.38975 44.9674 3.31134 45.4447 3.23659C45.7283 3.19231 46.0131 3.17647 46.295 3.25772C46.5067 3.31906 46.6988 3.41819 46.8784 3.54453L47.1262 3.71759C47.151 3.66031 47.1152 3.62944 47.099 3.59653C46.7466 2.87905 46.2475 2.24352 45.6341 1.73103C45.0641 1.25241 44.4051 0.891228 43.695 0.668281C43.2725 0.534219 42.8382 0.472063 42.3954 0.43875L42.1781 0.40625H9.97791L9.80363 0.434281C9.41606 0.46475 9.035 0.522438 8.66003 0.625219C7.8498 0.845876 7.09979 1.2465 6.46588 1.79725C6.08835 2.12092 5.75568 2.49348 5.47666 2.90509C5.04263 3.53995 4.74444 4.25762 4.60078 5.01312L4.78806 5.33934C5.20772 6.04053 5.62778 6.7405 6.04784 7.44087ZM8.177 43.1198C8.57106 43.2713 8.97813 43.3777 9.39819 43.4293L9.82353 43.4484C9.88975 43.457 9.95353 43.4687 10.0185 43.4687H23.1355C23.1144 43.4687 23.0953 43.4082 23.0718 43.3672C22.5554 42.4864 22.0342 41.6219 21.5239 40.7379C20.8821 39.6258 20.2449 38.5109 19.6125 37.3933C18.9365 36.1973 18.2666 35.0005 17.5955 33.8012C16.9582 32.6616 16.322 31.5214 15.6869 30.3806C15.3034 29.6908 14.922 29.001 14.5393 28.3107L14.4369 28.1531L14.2508 28.1901C13.882 28.2852 13.5139 28.3814 13.1454 28.4781C12.6328 28.613 12.1209 28.7503 11.6078 28.8844C10.4565 29.1842 9.30475 29.482 8.15344 29.781C6.98222 30.0848 5.83619 30.3895 4.66416 30.6922C4.59306 30.7109 4.875 30.7174 4.46875 30.7296V38.0035C4.875 38.0457 4.524 38.1229 4.53294 38.1972C4.55975 38.4126 4.56747 38.6295 4.60566 38.8432C4.74347 39.6287 5.05188 40.3745 5.50916 41.028C6.18516 41.9997 7.07403 42.6948 8.177 43.1198ZM5.68994 26.7113L9.75569 25.7457L11.5416 25.3236C11.8389 25.2529 12.1379 25.1851 12.4329 25.1054C12.6953 25.0343 12.7282 24.9474 12.5929 24.7102C12.3975 24.3673 12.1989 24.0268 12.0006 23.6856L10.2586 20.6862L8.51703 17.6861L6.74416 14.6339L5.22641 12.023L4.5955 10.8932C4.55488 10.8241 4.87541 10.7425 4.46916 10.7059V27.0107C4.46916 26.9998 4.55203 26.9904 4.60444 26.9778L5.68994 26.7113ZM47.4 38.3658C46.8687 38.5547 46.3377 38.7449 45.8063 38.935C44.597 39.3684 43.3877 39.802 42.1785 40.2358C41.5074 40.4767 40.8363 40.7205 40.1639 40.9606C38.7944 41.4497 37.4242 41.9368 36.0539 42.4247C35.2597 42.7074 34.4654 42.963 33.672 43.2469C33.4547 43.3253 33.2402 43.4687 33.0249 43.4687H42.1375L42.3341 43.4501C42.5645 43.4416 42.7941 43.4171 43.0211 43.3765C43.942 43.2121 44.8069 42.8188 45.5362 42.2329C46.1014 41.783 46.5754 41.2293 46.9328 40.6014C47.3066 39.949 47.5284 39.249 47.6348 38.508C47.6442 38.4442 47.6641 38.3748 47.6105 38.3086C47.5357 38.3029 47.4687 38.3411 47.4 38.3658ZM46.6172 26.1292C46.215 25.5795 45.8128 25.0307 45.4114 24.4806C44.8581 23.7213 44.3052 22.9612 43.7527 22.202C43.5281 21.8936 43.3006 21.5877 43.0808 21.2761C43.015 21.1823 42.9394 21.1575 42.8366 21.1851L42.7777 21.2022L39.7239 21.9428L37.9003 22.3852L34.3326 23.2517L30.8035 24.1093C29.5807 24.4055 28.3579 24.7008 27.1359 24.9974C25.933 25.2895 24.7305 25.5824 23.528 25.8749L20.0387 26.7219C19.424 26.871 18.8098 27.0197 18.1955 27.17C18.1049 27.1919 18.0074 27.1972 17.9116 27.2703L17.9936 27.4267C18.5087 28.3164 19.0235 29.2057 19.5398 30.0946C20.124 31.1013 20.709 32.1076 21.2952 33.113C21.9399 34.218 22.5863 35.3226 23.2322 36.4276C23.6031 37.0622 23.972 37.698 24.3462 38.3309C24.7612 39.0344 25.1802 39.7356 25.6031 40.4345C25.7298 40.6437 25.8737 40.8432 26.0187 41.0398C26.1162 41.171 26.2368 41.2831 26.379 41.3688C26.5253 41.4574 26.6837 41.485 26.8499 41.4477C26.936 41.4282 27.0201 41.3997 27.1034 41.3709L27.4097 41.2575C28.5228 40.8765 29.6359 40.4958 30.7503 40.1164C31.6193 39.8202 32.489 39.5261 33.3588 39.232C34.2221 38.9395 35.0858 38.6478 35.9491 38.3565L38.5202 37.4883C39.3965 37.1922 40.2728 36.896 41.1491 36.5991C42.2244 36.2342 43.2998 35.8678 44.3755 35.5038C45.4127 35.1528 46.4502 34.8038 47.4882 34.4541C47.5516 34.4325 47.6218 34.4236 47.6747 34.3537L47.6812 34.2026C47.6812 32.0511 47.6808 29.8988 47.6836 27.7469C47.6858 27.6384 47.6505 27.5325 47.5837 27.4471C47.2582 27.0095 46.9385 26.5687 46.6172 26.1292ZM46.4388 5.85447C46.1971 5.54856 45.8896 5.45147 45.513 5.54978C45.3489 5.59284 45.1803 5.61966 45.0133 5.65053C44.4645 5.75087 43.916 5.84959 43.3672 5.94912C42.5644 6.09497 41.7621 6.24244 40.9589 6.38666C40.3236 6.50122 39.687 6.61334 39.0512 6.72506L36.4995 7.17153C36.3923 7.19022 36.2842 7.20891 36.1814 7.24181C36.0311 7.29016 35.9872 7.38441 36.0559 7.52578C36.1124 7.64116 36.1822 7.75166 36.2578 7.85566C36.7851 8.58284 37.3157 9.3084 37.8454 10.034C38.5759 11.0346 39.3071 12.0352 40.038 13.0353C40.6563 13.8816 41.2754 14.7278 41.8945 15.5736C42.3808 16.2386 42.8675 16.9028 43.3542 17.5675L43.4505 17.6837C44.8508 17.3371 46.2491 16.9918 47.6714 16.6404L47.6812 16.4218C47.6812 13.4936 47.6808 10.5657 47.6836 7.63791C47.6836 7.50872 47.6519 7.40472 47.5711 7.30234C47.2156 6.85425 46.8674 6.40087 46.516 5.94953L46.4388 5.85447ZM47.5743 20.0415C46.9357 20.1947 46.295 20.3409 45.641 20.514C45.7104 20.6371 47.5036 23.0579 47.608 23.1725L47.6738 23.2087L47.6812 23.0612V22.0415C47.682 21.4504 47.6836 20.8589 47.682 20.2678C47.682 20.1955 47.7019 20.1187 47.6527 20.0456L47.5743 20.0415ZM5.25281 51.5937V44.6335H6.72872V50.375H9.55175V51.5937H5.25281ZM15.0219 51.5937L14.5173 49.9371H11.9799L11.4749 51.5937H9.88488L12.3415 44.605H14.1456L16.612 51.5937H15.0219ZM14.1647 48.6992C13.6983 47.1981 13.4355 46.3491 13.377 46.152C13.3185 45.955 13.2762 45.7998 13.2507 45.6857C13.1458 46.0919 12.846 47.0966 12.3508 48.6992H14.1647ZM18.9637 48.9231V51.5937H17.4878V44.6335H19.5158C20.4616 44.6335 21.1616 44.8057 21.6153 45.1498C22.0691 45.4939 22.2962 46.0172 22.2962 46.7183C22.2962 47.1278 22.1837 47.4918 21.9582 47.8107C21.7327 48.1297 21.4138 48.3795 21.0015 48.5607C22.0488 50.1256 22.7313 51.1363 23.0486 51.5933H21.411L19.7494 48.9227H18.9637V48.9231ZM18.9637 47.7234H19.4399C19.9063 47.7234 20.2508 47.6458 20.473 47.4902C20.6952 47.3346 20.8061 47.0905 20.8061 46.7569C20.8061 46.4271 20.6927 46.1918 20.4657 46.0525C20.2386 45.9132 19.8872 45.8429 19.411 45.8429H18.9637V47.7234ZM28.1852 51.5937L27.6807 49.9371H25.1432L24.6383 51.5937H23.0482L25.5048 44.605H27.3089L29.7753 51.5937H28.1852ZM27.3284 48.6992C26.8621 47.1981 26.5992 46.3491 26.5407 46.152C26.4822 45.955 26.44 45.7998 26.4144 45.6857C26.3096 46.0919 26.0098 47.0966 25.5145 48.6992H27.3284ZM34.6218 44.6335H36.112L33.7456 51.5937H32.1364L29.7753 44.6335H31.2654L32.5747 48.7752C32.6479 49.0197 32.723 49.3045 32.801 49.6299C32.879 49.9553 32.9274 50.1812 32.9461 50.3084C32.981 50.0163 33.1 49.5052 33.3032 48.7756L34.6218 44.6335ZM40.9963 51.5937H36.9878V44.6335H40.9963V45.8429H38.4637V47.3712H40.8204V48.5806H38.4637V50.375H40.9963V51.5937ZM42.4482 51.5937V44.6335H43.9242V50.375H46.7472V51.5937H42.4482Z" fill="#FD4F31"/>
</mask>
<g mask="url(#mask0_302_2374)">
<rect y="-1" width="51" height="62" fill="white"/>
</g>
<path d="M9.83594 78.7344V80H2.99219V68.7266H4.39844V78.7344H9.83594ZM13.8516 78.9844C15.1328 78.9844 16.1172 78.0859 16.1172 76.9141V76.25L13.9453 76.3828C12.8516 76.4531 12.2266 76.9375 12.2266 77.7031C12.2266 78.4766 12.875 78.9844 13.8516 78.9844ZM13.5469 80.1406C11.9297 80.1406 10.8438 79.1641 10.8438 77.7031C10.8438 76.3125 11.9141 75.4375 13.7891 75.3281L16.1172 75.1953V74.5156C16.1172 73.5234 15.4609 72.9297 14.3359 72.9297C13.2891 72.9297 12.6328 73.4219 12.4609 74.2188H11.1484C11.2422 72.8125 12.4453 71.7344 14.3672 71.7344C16.2734 71.7344 17.4766 72.7656 17.4766 74.3828V80H16.1875V78.6016H16.1562C15.6719 79.5312 14.6406 80.1406 13.5469 80.1406ZM19.2031 80V71.875H20.4844V73.2031H20.5156C20.7812 72.3047 21.5312 71.7344 22.4844 71.7344C22.7188 71.7344 22.9219 71.7734 23.0312 71.7891V73.1094C22.9219 73.0703 22.6328 73.0312 22.3047 73.0312C21.25 73.0312 20.5625 73.7891 20.5625 74.9375V80H19.2031ZM26.6641 78.9844C27.9453 78.9844 28.9297 78.0859 28.9297 76.9141V76.25L26.7578 76.3828C25.6641 76.4531 25.0391 76.9375 25.0391 77.7031C25.0391 78.4766 25.6875 78.9844 26.6641 78.9844ZM26.3594 80.1406C24.7422 80.1406 23.6562 79.1641 23.6562 77.7031C23.6562 76.3125 24.7266 75.4375 26.6016 75.3281L28.9297 75.1953V74.5156C28.9297 73.5234 28.2734 72.9297 27.1484 72.9297C26.1016 72.9297 25.4453 73.4219 25.2734 74.2188H23.9609C24.0547 72.8125 25.2578 71.7344 27.1797 71.7344C29.0859 71.7344 30.2891 72.7656 30.2891 74.3828V80H29V78.6016H28.9688C28.4844 79.5312 27.4531 80.1406 26.3594 80.1406ZM38.6797 71.875L35.6953 80H34.3047L31.3125 71.875H32.7422L34.9844 78.5547H35.0156L37.2656 71.875H38.6797ZM42.7734 72.9141C41.5 72.9141 40.6094 73.8906 40.5234 75.2422H44.9375C44.9062 73.8828 44.0547 72.9141 42.7734 72.9141ZM44.9062 77.6719H46.2422C46.0078 79.0938 44.6328 80.1406 42.8594 80.1406C40.5312 80.1406 39.1172 78.5234 39.1172 75.9688C39.1172 73.4453 40.5547 71.7344 42.7969 71.7344C44.9922 71.7344 46.3438 73.3281 46.3438 75.7891V76.3047H40.5156V76.3828C40.5156 77.9375 41.4297 78.9609 42.8906 78.9609C43.9219 78.9609 44.6797 78.4375 44.9062 77.6719ZM47.7891 80V68.7266H49.1484V80H47.7891Z" fill="white"/>
</svg>
