<svg width="52" height="92" viewBox="0 0 52 92" fill="none" xmlns="http://www.w3.org/2000/svg">
<mask id="mask0_302_2385" style="mask-type:alpha" maskUnits="userSpaceOnUse" x="0" y="0" width="52" height="52">
<path d="M8.29085 37.232C6.11335 36.4683 4.5826 34.2095 3.6596 30.3843C3.29235 28.8568 3.16885 27.0173 3.3021 25.051C3.4971 22.1618 3.8806 20.5107 4.77435 18.6745C5.24885 17.693 5.44385 17.4135 6.1231 16.718C6.87322 15.9016 7.85162 15.3297 8.9311 15.0767C9.33735 14.9858 11.5798 14.937 17.8393 14.8948L26.2048 14.8363V13.5395L15.2523 13.4615L15.1938 13.2405C15.0996 12.883 15.1288 9.41525 15.2328 8.3915C15.3953 6.838 15.7171 6.0125 16.4776 5.187C17.0236 4.5955 18.2001 3.99425 19.3636 3.70825C21.0438 3.302 21.8011 3.25 26.1561 3.25C30.5598 3.25 31.6746 3.328 32.9453 3.71475C34.6808 4.24775 36.4553 5.88575 36.9818 7.436C37.3231 8.4435 37.3783 9.46725 37.3751 15.106C37.3751 21.086 37.3523 21.346 36.8096 22.3763C36.2311 23.465 35.1521 23.9233 33.8261 24.4237C33.2736 24.6285 33.0916 24.5603 27.4236 24.5798C21.3136 24.6188 16.2176 24.5505 14.8721 25.0315C13.3381 25.5125 12.7661 26.039 12.0868 27.4333C11.4368 28.7593 11.8268 30.9985 11.7813 34.5312V37.375C9.14885 37.4692 8.84335 37.3978 8.29085 37.206V37.232ZM21.0958 10.2667C21.7491 9.82475 21.9733 9.38925 21.9733 8.55075C21.9733 7.90725 21.9408 7.7805 21.6743 7.397C21.3914 6.97207 20.9599 6.66818 20.4645 6.54493C19.969 6.42167 19.4454 6.48795 18.9963 6.73075C17.4851 7.51725 17.5566 9.6785 19.1166 10.4227C19.4363 10.5504 19.7812 10.6028 20.1244 10.5757C20.4677 10.5487 20.8001 10.4429 21.0958 10.2667Z" fill="white"/>
<path d="M43.7096 14.7702C45.8871 15.534 47.4179 17.7927 48.3409 21.618C48.7081 23.1455 48.8316 24.985 48.6984 26.9512C48.5034 29.8405 48.1199 31.4915 47.2261 33.3277C46.7516 34.3092 46.5566 34.5887 45.8774 35.2842C45.1268 36.0995 44.1484 36.6702 43.0694 36.9222C42.6631 37.0197 40.4206 37.0652 34.1611 37.1075L25.7956 37.166V38.4627L36.7481 38.5407L36.8066 38.7617C36.9009 39.1192 36.8716 42.587 36.7676 43.6107C36.6051 45.1675 36.2834 45.9897 35.5229 46.8152C34.9769 47.4067 33.8004 48.008 32.6369 48.294C30.9566 48.7002 30.1994 48.7522 25.8444 48.7522C21.4406 48.7522 20.3259 48.6742 19.0551 48.2875C17.3196 47.7545 15.5451 46.1165 15.0186 44.5662C14.6774 43.5587 14.6254 42.535 14.6254 36.8962C14.6254 30.9162 14.5019 30.1655 15.0446 29.1352C15.6231 28.0465 15.7174 28.0985 17.0434 27.598C17.5959 27.3932 18.9089 27.4452 24.5769 27.4257C30.6869 27.3835 34.7591 27.4972 35.7894 27.1755C37.3266 26.6912 38.9679 26.0055 39.6471 24.6145C40.2971 23.2885 40.1736 22.4272 40.2191 18.8945V14.6272C42.8516 14.533 43.1571 14.6045 43.7096 14.7962V14.7702ZM30.9046 41.7355C30.2514 42.1775 30.0271 42.613 30.0271 43.4515C30.0271 44.095 30.0596 44.2217 30.3261 44.6052C30.6091 45.0302 31.0406 45.3341 31.536 45.4573C32.0314 45.5806 32.555 45.5143 33.0041 45.2715C34.5154 44.485 34.4439 42.3237 32.8839 41.5795C32.5641 41.4518 32.2193 41.3995 31.876 41.4265C31.5328 41.4536 31.2004 41.5593 30.9046 41.7355Z" fill="white"/>
</mask>
<g mask="url(#mask0_302_2385)">
<rect y="-1" width="52" height="62" fill="white"/>
</g>
<path d="M3.38281 68.7266H7.40625C9.52344 68.7266 11.0156 70.2109 11.0156 72.3438C11.0156 74.4844 9.50781 75.9766 7.39062 75.9766H4.78906V80H3.38281V68.7266ZM4.78906 69.9766V74.7266H7.03906C8.64844 74.7266 9.57031 73.8438 9.57031 72.3438C9.57031 70.8516 8.65625 69.9766 7.03906 69.9766H4.78906ZM13.0938 83.0391C12.9297 83.0391 12.6562 83.0234 12.5078 82.9922V81.8516C12.6562 81.8828 12.8672 81.8906 13.0391 81.8906C13.7969 81.8906 14.2188 81.5234 14.5312 80.5781L14.7188 80.0078L11.7188 71.875H13.1719L15.4219 78.6406H15.4453L17.6953 71.875H19.125L15.9297 80.5703C15.2344 82.4688 14.5625 83.0391 13.0938 83.0391ZM20.6406 69.9141H22V71.875H23.5781V72.9922H22V77.8203C22 78.5625 22.3125 78.8984 23.0078 78.8984C23.1641 78.8984 23.4766 78.875 23.5703 78.8594V80C23.4062 80.0391 23.0312 80.0625 22.7109 80.0625C21.2188 80.0625 20.6406 79.4531 20.6406 77.8906V72.9922H19.4297V71.875H20.6406V69.9141ZM25.1016 80V68.7266H26.4609V73.1719H26.4922C26.9453 72.2656 27.8359 71.7344 29.0703 71.7344C30.8516 71.7344 31.9297 72.9375 31.9297 74.75V80H30.5703V75C30.5703 73.7109 29.9219 72.9375 28.6484 72.9375C27.2969 72.9375 26.4609 73.8594 26.4609 75.2656V80H25.1016ZM37.0234 80.1406C34.7734 80.1406 33.2578 78.5234 33.2578 75.9375C33.2578 73.3438 34.7734 71.7344 37.0234 71.7344C39.2656 71.7344 40.7812 73.3438 40.7812 75.9375C40.7812 78.5234 39.2656 80.1406 37.0234 80.1406ZM37.0234 78.9453C38.4609 78.9453 39.3984 77.8516 39.3984 75.9375C39.3984 74.0234 38.4609 72.9297 37.0234 72.9297C35.5859 72.9297 34.6406 74.0234 34.6406 75.9375C34.6406 77.8516 35.5859 78.9453 37.0234 78.9453ZM42.1562 80V71.875H43.4375V73.1719H43.4688C43.9219 72.2969 44.7891 71.7344 46.0469 71.7344C47.8281 71.7344 48.8594 72.8828 48.8594 74.7266V80H47.5V74.9688C47.5 73.6562 46.8828 72.9375 45.6328 72.9375C44.3516 72.9375 43.5156 73.8438 43.5156 75.2188V80H42.1562Z" fill="white"/>
</svg>
