<svg width="20" height="20" viewBox="0 0 20 20" fill="none" xmlns="http://www.w3.org/2000/svg">
<path d="M10.5383 5.53843C10.577 5.49962 10.6229 5.46884 10.6736 5.44783C10.7242 5.42683 10.7784 5.41602 10.8333 5.41602C10.8881 5.41602 10.9423 5.42683 10.9929 5.44783C11.0436 5.46884 11.0895 5.49962 11.1283 5.53843L15.2949 9.70509C15.3337 9.7438 15.3645 9.78978 15.3855 9.8404C15.4065 9.89102 15.4173 9.94529 15.4173 10.0001C15.4173 10.0549 15.4065 10.1092 15.3855 10.1598C15.3645 10.2104 15.3337 10.2564 15.2949 10.2951L11.1283 14.4618C11.05 14.54 10.9439 14.584 10.8333 14.584C10.7226 14.584 10.6165 14.54 10.5383 14.4618C10.46 14.3835 10.4161 14.2774 10.4161 14.1668C10.4161 14.0561 10.46 13.95 10.5383 13.8718L13.9941 10.4168H4.99992C4.88941 10.4168 4.78343 10.3729 4.70529 10.2947C4.62715 10.2166 4.58325 10.1106 4.58325 10.0001C4.58325 9.88959 4.62715 9.78361 4.70529 9.70547C4.78343 9.62733 4.88941 9.58343 4.99992 9.58343H13.9941L10.5383 6.12843C10.4994 6.08972 10.4687 6.04374 10.4477 5.99312C10.4267 5.9425 10.4158 5.88823 10.4158 5.83343C10.4158 5.77862 10.4267 5.72435 10.4477 5.67373C10.4687 5.62311 10.4994 5.57713 10.5383 5.53843Z" fill="white"/>
</svg>
