<svg width="72" height="72" viewBox="0 0 72 72" fill="none" xmlns="http://www.w3.org/2000/svg">
<path d="M17.9961 64.4995C15.9001 64.4995 14.1261 63.7735 12.6741 62.3215C11.2221 60.8695 10.4961 59.0955 10.4961 56.9995V53.7685C10.4961 52.2775 11.0271 51.001 12.0891 49.939C13.1511 48.877 14.4278 48.346 15.9193 48.346H19.4961V12.9228C19.4961 11.4313 20.0271 10.1545 21.0891 9.09251C22.1511 8.03051 23.4278 7.49951 24.9193 7.49951H56.0728C57.5643 7.49951 58.8411 8.03051 59.9031 9.09251C60.9651 10.1545 61.4961 11.4313 61.4961 12.9228V56.9995C61.4961 59.0955 60.7701 60.8695 59.3181 62.3215C57.8661 63.7735 56.0921 64.4995 53.9961 64.4995H17.9961ZM53.9961 59.9995C54.8461 59.9995 55.5586 59.712 56.1336 59.137C56.7086 58.562 56.9961 57.8495 56.9961 56.9995V12.9228C56.9961 12.6533 56.9096 12.432 56.7366 12.259C56.5636 12.086 56.3423 11.9995 56.0728 11.9995H24.9193C24.6498 11.9995 24.4286 12.086 24.2556 12.259C24.0826 12.432 23.9961 12.6533 23.9961 12.9228V48.346H45.5728C47.0643 48.346 48.3411 48.877 49.4031 49.939C50.4651 51.001 50.9961 52.2775 50.9961 53.7685V56.9995C50.9961 57.8495 51.2836 58.562 51.8586 59.137C52.4336 59.712 53.1461 59.9995 53.9961 59.9995ZM29.8228 26.0763C29.1853 26.0763 28.6511 25.8605 28.2201 25.429C27.7886 24.9975 27.5728 24.463 27.5728 23.8255C27.5728 23.1875 27.7886 22.6533 28.2201 22.2228C28.6511 21.7918 29.1853 21.5763 29.8228 21.5763H51.1693C51.8068 21.5763 52.3411 21.792 52.7721 22.2235C53.2036 22.655 53.4193 23.1898 53.4193 23.8278C53.4193 24.4653 53.2036 24.9995 52.7721 25.4305C52.3411 25.861 51.8068 26.0763 51.1693 26.0763H29.8228ZM29.8228 34.7305C29.1853 34.7305 28.6511 34.5148 28.2201 34.0833C27.7886 33.6518 27.5728 33.117 27.5728 32.479C27.5728 31.8415 27.7886 31.3073 28.2201 30.8763C28.6511 30.4458 29.1853 30.2305 29.8228 30.2305H51.1693C51.8068 30.2305 52.3411 30.4463 52.7721 30.8778C53.2036 31.3088 53.4193 31.8433 53.4193 32.4813C53.4193 33.1193 53.2036 33.6535 52.7721 34.084C52.3411 34.515 51.8068 34.7305 51.1693 34.7305H29.8228ZM17.9961 59.9995H46.4961V53.7685C46.4961 53.4995 46.4096 53.2785 46.2366 53.1055C46.0636 52.932 45.8423 52.8453 45.5728 52.8453H15.9193C15.6498 52.8453 15.4286 52.932 15.2556 53.1055C15.0826 53.2785 14.9961 53.4995 14.9961 53.7685V56.9995C14.9961 57.8495 15.2836 58.562 15.8586 59.137C16.4336 59.712 17.1461 59.9995 17.9961 59.9995ZM17.9961 59.9995H14.9961H46.4961H17.9961Z" fill="white"/>
</svg>
