<svg width="80" height="80" viewBox="0 0 80 80" fill="none" xmlns="http://www.w3.org/2000/svg">
<path d="M39.9999 73.3334C44.378 73.3388 48.7141 72.4791 52.759 70.8036C56.8039 69.1281 60.4779 66.6698 63.5699 63.5701C66.6696 60.4781 69.1278 56.8042 70.8033 52.7593C72.4788 48.7144 73.3386 44.3783 73.3332 40.0001C73.3386 35.6219 72.4788 31.2858 70.8033 27.2409C69.1278 23.196 66.6696 19.5221 63.5699 16.4301C60.4779 13.3304 56.8039 10.8721 52.759 9.19663C48.7141 7.52113 44.378 6.66137 39.9999 6.66677C35.6217 6.66137 31.2856 7.52113 27.2407 9.19663C23.1958 10.8721 19.5218 13.3304 16.4299 16.4301C13.3301 19.5221 10.8719 23.196 9.19639 27.2409C7.52088 31.2858 6.66113 35.6219 6.66653 40.0001C6.66113 44.3783 7.52088 48.7144 9.19639 52.7593C10.8719 56.8042 13.3301 60.4781 16.4299 63.5701C19.5218 66.6698 23.1958 69.1281 27.2407 70.8036C31.2856 72.4791 35.6217 73.3388 39.9999 73.3334Z" stroke="#A1F919" stroke-width="2.6" stroke-linejoin="round"/>
<path d="M26.6665 40L36.6665 50L56.6665 30" stroke="#A1F919" stroke-width="2.6" stroke-linecap="round" stroke-linejoin="round"/>
</svg>
