<svg width="30" height="30" viewBox="0 0 30 30" fill="none" xmlns="http://www.w3.org/2000/svg">
<mask id="mask0_138_2768" style="mask-type:luminance" maskUnits="userSpaceOnUse" x="0" y="2" width="30" height="26">
<path d="M0 2.10938H30V27.8894H0V2.10938Z" fill="white"/>
</mask>
<g mask="url(#mask0_138_2768)">
<path d="M28.828 21.9131C27.223 22.7331 18.926 26.1551 17.168 27.0691C15.398 27.9951 14.414 27.9831 13.02 27.3151C11.625 26.6471 2.813 23.0851 1.207 22.3231C0.422 21.9481 0 21.6201 0 21.3271V18.2791C0 18.2791 11.484 15.7831 13.348 15.1151C15.199 14.4591 15.844 14.4351 17.426 15.0091C18.996 15.5961 28.441 17.2951 30 17.8571V20.8571C30 21.1501 29.648 21.4791 28.828 21.9131Z" fill="#912626"/>
<path d="M28.8281 18.89C27.2231 19.723 18.9261 23.133 17.1681 24.047C15.3981 24.984 14.4141 24.973 13.0201 24.305C11.6251 23.637 2.80113 20.075 1.20713 19.313C-0.374867 18.551 -0.409867 18.023 1.14913 17.414C2.71913 16.804 11.4851 13.359 13.3361 12.691C15.2111 12.035 15.8441 12.011 17.4261 12.574C18.9961 13.16 27.2461 16.442 28.8051 17.016C30.3631 17.59 30.4221 18.059 28.8281 18.891V18.89Z" fill="#C6302B"/>
<path d="M28.828 16.9905C27.223 17.8345 18.926 21.2445 17.168 22.1705C15.398 23.0845 14.414 23.0725 13.02 22.4045C11.625 21.7485 2.8 18.1865 1.207 17.4125C0.422 17.0385 0 16.7095 0 16.4165V13.3815C0 13.3815 11.484 10.8855 13.348 10.2175C15.199 9.54953 15.844 9.52553 17.426 10.1005C18.996 10.6855 28.441 12.3855 30 12.9595V15.9355C30 16.2285 29.648 16.5685 28.828 16.9905Z" fill="#912626"/>
<path d="M28.8281 13.9912C27.2231 14.8112 18.9261 18.2332 17.1681 19.1472C15.3981 20.0732 14.4141 20.0612 13.0201 19.3932C11.6251 18.7252 2.81313 15.1632 1.20713 14.4132C-0.374867 13.6512 -0.409867 13.1232 1.14913 12.5262C2.71913 11.8932 11.4851 8.4362 13.3361 7.7922C15.2111 7.1242 15.8441 7.0892 17.4261 7.6752C18.9961 8.2602 27.2461 11.5422 28.8051 12.1052C30.3631 12.6902 30.4221 13.1592 28.8281 13.9792" fill="#C6302B"/>
<path d="M28.828 11.918C27.223 12.738 18.926 16.16 17.168 17.074C15.398 18 14.414 17.988 13.02 17.32C11.625 16.652 2.813 13.09 1.207 12.328C0.422 11.953 0 11.625 0 11.332V8.28501C0 8.28501 11.484 5.78901 13.348 5.12101C15.199 4.46501 15.844 4.44101 17.426 5.01501C18.996 5.60101 28.441 7.30101 30 7.87501V10.863C30 11.156 29.648 11.484 28.828 11.918Z" fill="#912626"/>
<path d="M28.828 8.90508C27.223 9.72508 18.926 13.1351 17.168 14.0611C15.398 14.9871 14.414 14.9751 13.02 14.2961C11.625 13.6511 2.813 10.0761 1.207 9.32608C-0.374997 8.56708 -0.409997 8.03908 1.15 7.42908C2.72 6.80908 11.486 3.36308 13.337 2.69508C15.212 2.03908 15.845 2.01508 17.427 2.59008C18.997 3.17608 27.247 6.45708 28.806 7.02008C30.364 7.59408 30.423 8.07408 28.829 8.89408" fill="#C6302B"/>
<path d="M18.6672 5.953L16.0892 6.211L15.5032 7.605L14.5652 6.059L11.6012 5.789L13.8272 4.98L13.1472 3.75L15.2332 4.57L17.1902 3.926L16.6632 5.203L18.6552 5.953M15.3512 12.691L10.5462 10.7L17.4362 9.634L15.3512 12.681M8.67119 6.716C10.7212 6.716 12.3622 7.36 12.3622 8.146C12.3622 8.942 10.7222 9.576 8.68219 9.576C6.64419 9.576 4.99219 8.942 4.99219 8.146C4.99219 7.36 6.64419 6.716 8.68219 6.716" fill="white"/>
<path d="M21.7151 6.32617L25.7811 7.94317L21.7031 9.54917V6.32617" fill="#621B1C"/>
<path d="M17.2031 8.10817L21.7151 6.32617V9.54917L21.2701 9.72517L17.2031 8.10817Z" fill="#9A2928"/>
</g>
</svg>
