<svg width="30" height="30" viewBox="0 0 30 30" fill="none" xmlns="http://www.w3.org/2000/svg">
<g clip-path="url(#clip0_138_2786)">
<mask id="mask0_138_2786" style="mask-type:luminance" maskUnits="userSpaceOnUse" x="0" y="0" width="30" height="30">
<path d="M0 0H30V30H0V0Z" fill="white"/>
</mask>
<g mask="url(#mask0_138_2786)">
<mask id="mask1_138_2786" style="mask-type:luminance" maskUnits="userSpaceOnUse" x="0" y="0" width="30" height="30">
<path d="M0 0H30V30H0V0Z" fill="white"/>
</mask>
<g mask="url(#mask1_138_2786)">
<path d="M28.003 11.99H18.583C18.3561 11.9897 18.1385 11.8995 17.978 11.739C17.8176 11.5785 17.7273 11.3609 17.727 11.134V1.317C17.727 0.59 17.137 3.82578e-07 16.41 3.82578e-07H13.047C12.32 3.82578e-07 11.731 0.59 11.731 1.317V11.074C11.731 11.3173 11.6347 11.5507 11.463 11.7231C11.2913 11.8955 11.0583 11.9929 10.815 11.994L7.72803 12.009C7.60671 12.0095 7.48648 11.9861 7.37427 11.9399C7.26206 11.8938 7.16008 11.8259 7.0742 11.7403C6.98832 11.6546 6.92023 11.5527 6.87387 11.4406C6.8275 11.3285 6.80377 11.2083 6.80403 11.087L6.82403 1.319C6.82443 1.14584 6.79064 0.974313 6.72462 0.814236C6.6586 0.65416 6.56164 0.508687 6.43929 0.386154C6.31695 0.263621 6.17162 0.166437 6.01164 0.100174C5.85167 0.0339098 5.68019 -0.000131645 5.50703 3.82578e-07H2.14703C1.42103 3.82578e-07 0.832031 0.59 0.832031 1.317V28.805C0.832031 29.451 1.35503 29.975 2.00003 29.975H28.003C28.648 29.975 29.172 29.451 29.172 28.805V13.16C29.172 12.514 28.649 11.99 28.003 11.99ZM23.585 22.31C23.585 23.157 22.899 23.843 22.053 23.843H19.395C18.9888 23.8427 18.5993 23.6812 18.312 23.394C18.0248 23.1067 17.8633 22.7172 17.863 22.311V19.653C17.863 18.807 18.549 18.121 19.395 18.121H22.053C22.899 18.121 23.585 18.807 23.585 19.653V22.311V22.31Z" fill="#FF6600"/>
</g>
</g>
</g>
<defs>
<clipPath id="clip0_138_2786">
<rect width="30" height="30" fill="white"/>
</clipPath>
</defs>
</svg>
