<svg width="30" height="30" viewBox="0 0 30 30" fill="none" xmlns="http://www.w3.org/2000/svg">
<g clip-path="url(#clip0_2060_8762)">
<g clip-path="url(#clip1_2060_8762)">
<g clip-path="url(#clip2_2060_8762)">
<mask id="mask0_2060_8762" style="mask-type:luminance" maskUnits="userSpaceOnUse" x="0" y="0" width="30" height="30">
<path d="M0 0H30V30H0V0Z" fill="white"/>
</mask>
<g mask="url(#mask0_2060_8762)">
<path fill-rule="evenodd" clip-rule="evenodd" d="M17.667 0.0508185C17.451 0.0508185 17.247 0.0988185 17.067 0.170818C17.463 0.422818 17.679 0.770818 17.787 1.16582C17.787 1.22582 17.811 1.26182 17.823 1.32182L17.835 1.45382C17.871 2.13782 17.655 2.22182 17.511 2.62982C17.403 2.87312 17.3563 3.13923 17.3751 3.40478C17.394 3.67033 17.4777 3.9272 17.619 4.15282C17.643 4.21282 17.667 4.27282 17.715 4.32082C17.415 2.36582 19.046 2.06582 19.358 1.45382C19.382 0.925818 18.938 0.566818 18.591 0.313818C18.3143 0.139913 17.9938 0.0486662 17.667 0.0508185ZM20.15 0.506818C20.114 0.686818 20.15 0.638819 20.138 0.733818L20.114 0.937818L20.066 1.11782L20.006 1.30982L19.91 1.48982L19.85 1.57382L19.802 1.64582C19.766 1.70582 19.73 1.76582 19.682 1.80182C19.646 1.84982 19.61 1.90982 19.562 1.94582L19.406 2.06582C19.238 2.19782 19.046 2.29382 18.89 2.41382C18.83 2.44982 18.77 2.47382 18.735 2.53382C18.675 2.55782 18.627 2.60582 18.579 2.65382L18.447 2.79682L18.327 2.95282L18.219 3.10882L18.135 3.28882L18.075 3.46882C18.0525 3.53199 18.0324 3.59605 18.015 3.66082L18.003 3.76882L17.991 3.85282L17.979 4.05682V4.18882L18.015 4.38082C18.015 4.45282 18.027 4.50082 18.051 4.57282L18.111 4.75282L18.159 4.87282L16.384 4.17682L15.484 3.93682L15.004 3.81682C14.536 3.72542 14.0638 3.65733 13.589 3.61282H13.541C12.2663 3.47556 10.9786 3.51595 9.715 3.73282L9.355 3.80482C9.115 3.84082 8.887 3.90082 8.672 3.94882L8.312 4.04482L7.988 4.18882L7.724 4.30882L7.688 4.32082L7.472 4.44082L7.412 4.45282L7.172 4.57282L7.028 4.65582L6.956 4.69182L6.753 4.81182L6.561 4.93182L6.405 5.03982L6.393 5.05182L6.237 5.17182L6.117 5.26782L6.069 5.30382L5.949 5.39982C5.949 5.42382 5.937 5.42382 5.925 5.43582L5.781 5.55582V5.57982C5.72496 5.61415 5.67606 5.65897 5.637 5.71182L5.613 5.72382L5.493 5.84382C5.493 5.86782 5.457 5.87982 5.445 5.90382L5.325 6.03582L5.277 6.07182L5.109 6.26382L5.085 6.28782C4.83519 6.56095 4.55312 6.80272 4.245 7.00782C3.79722 7.31334 3.30924 7.55531 2.795 7.72682C2.471 7.78682 2.135 7.91882 1.847 7.94282L1.655 7.96682L1.463 8.01482L1.271 8.08682L1.091 8.17082L0.924 8.27882C0.864447 8.31303 0.811592 8.35775 0.768 8.41082C0.70788 8.4492 0.655059 8.49796 0.612 8.55482L0.48 8.70982L0.36 8.87782L0.252 9.05782L0.168 9.26182L0.096 9.46582L0.06 9.64582V9.66982L0 9.88582V10.1378C0.01 10.2378 0.039 10.3348 0.084 10.4258L0.168 10.5688L0.264 10.7128C0.352 10.8018 0.449 10.8828 0.552 10.9528C0.732 11.1208 0.78 11.1808 1.019 11.3008L1.139 11.3608H1.163V11.4088C1.188 11.5378 1.228 11.6618 1.283 11.7808L1.343 11.9248L1.355 11.9608C1.421 12.0768 1.493 12.1888 1.571 12.2968L1.691 12.4408L1.847 12.5728H1.859C2.046 12.7388 2.267 12.8608 2.507 12.9328L2.543 12.9438L2.639 12.9678C2.615 13.3878 2.603 13.7838 2.675 13.9278C2.735 14.0718 3.082 13.6038 3.418 13.0638C3.37 13.5918 3.346 14.2278 3.418 14.4078C3.502 14.5988 3.97 13.9998 4.378 13.3278C5.62911 13.0243 6.93093 12.994 8.1948 13.239C9.45868 13.4839 10.6549 13.9984 11.702 14.7474C12.7492 15.4963 13.6226 16.4621 14.2628 17.5791C14.903 18.696 15.295 19.9378 15.412 21.2198C15.316 20.3798 14.285 19.9248 13.805 20.0328C13.565 20.6078 13.181 21.3518 12.545 21.8078C12.5953 21.2866 12.5673 20.7608 12.462 20.2478C12.2905 20.9628 11.9626 21.6308 11.502 22.2038C11.1469 22.2278 10.7914 22.1637 10.4671 22.0171C10.1428 21.8706 9.85968 21.6461 9.643 21.3638L9.583 21.2678L9.523 21.0998L9.475 20.9438V20.6558C9.475 20.5958 9.487 20.5358 9.511 20.4878C9.51596 20.4334 9.53231 20.3805 9.559 20.3328L9.655 20.1648C9.775 19.8048 9.775 19.4928 9.535 19.3248L9.403 19.2408L9.295 19.2048L9.235 19.1808L9.067 19.1448C9.01629 19.1299 8.96383 19.1219 8.911 19.1208L8.744 19.1088H8.624L8.456 19.1328L8.288 19.1688L8.132 19.2168L7.976 19.2888L7.82 19.3728C6.02 20.5478 7.1 23.3068 8.324 24.1108C7.868 24.1948 7.388 24.2908 7.256 24.3868L7.244 24.4108C7.956 24.8348 8.734 25.1348 9.547 25.2978C10.5251 25.4889 11.5317 25.4798 12.5061 25.271C13.4806 25.0622 14.4026 24.6581 15.2164 24.083C16.0303 23.5079 16.7192 22.7738 17.2414 21.9251C17.7637 21.0763 18.1085 20.1305 18.255 19.1448L18.303 19.3488C18.327 19.4928 18.363 19.6368 18.375 19.7928L18.399 19.9968V20.0328L18.423 20.2248L18.435 20.4888V21.1358L18.423 21.2318V21.4118C18.399 21.4358 18.399 21.4598 18.399 21.4718C18.399 21.5438 18.399 21.5918 18.375 21.6518V21.7238C18.375 21.8078 18.351 21.8678 18.339 21.9518V21.9638L18.291 22.1798V22.2038C18.291 22.2758 18.267 22.3468 18.243 22.4198V22.4428L18.183 22.6588V22.6828L18.123 22.8988V22.9108L18.051 23.1508L17.967 23.3668L17.871 23.5948L17.787 23.8228C17.739 23.8828 17.715 23.9668 17.667 24.0388L17.655 24.0868C17.655 24.0868 17.655 24.1108 17.631 24.1108C17.1205 25.1355 16.3774 26.0266 15.461 26.7128L15.268 26.8448C15.268 26.8688 15.232 26.8688 15.22 26.8928L15.052 27.0128L15.076 27.0488L15.4 27.0008H15.412C15.673 26.9588 15.933 26.9108 16.192 26.8568L16.3 26.8328L16.456 26.7968L16.6 26.7608C17.367 26.5808 18.123 26.3168 18.842 26.0178C17.5974 27.715 15.9424 29.0686 14.032 29.9518C16.0875 29.8125 18.0756 29.1623 19.8163 28.0603C21.5569 26.9583 22.9949 25.4392 24 23.6408C23.6796 25.4337 22.967 27.1335 21.913 28.6188C23.3316 27.6834 24.5391 26.4618 25.4582 25.0325C26.3772 23.6032 26.9876 21.9977 27.25 20.3188C27.514 21.5428 27.586 22.8018 27.466 24.0488C33.067 16.2538 27.946 8.15782 25.786 6.02282L25.775 5.98682V5.99882L25.763 5.98682L25.739 6.26282C25.719 6.43482 25.695 6.60682 25.667 6.77782L25.535 7.29382C25.4213 7.62468 25.2808 7.94574 25.115 8.25382C24.8079 8.80014 24.4059 9.28742 23.928 9.69282L23.748 9.86082C23.476 10.0838 23.178 10.2728 22.86 10.4248L22.38 10.6398C22.0465 10.7652 21.7015 10.8576 21.35 10.9158L20.821 10.9878C20.3432 11.0132 19.8641 10.981 19.394 10.8918L18.878 10.7598C19.7572 10.682 20.6067 10.4032 21.361 9.94482L21.793 9.63282L22.189 9.28482L22.549 8.90082C22.669 8.76882 22.776 8.62482 22.872 8.48082C22.896 8.46982 22.908 8.43382 22.92 8.40982L23.148 8.03782C23.319 7.73182 23.46 7.41082 23.568 7.07782C23.616 6.90982 23.664 6.72982 23.688 6.56282C23.724 6.38282 23.76 6.21482 23.772 6.04682L23.808 5.51882L23.796 5.14682L23.724 4.63182C23.7 4.45182 23.664 4.27182 23.604 4.10382C23.556 3.94782 23.508 3.77982 23.436 3.61182C23.3764 3.44653 23.3042 3.28606 23.22 3.13182L22.956 2.67582C22.7533 2.38679 22.5329 2.11059 22.296 1.84882C21.884 1.41882 21.396 1.06982 20.857 0.816818C20.6392 0.676497 20.4006 0.572531 20.15 0.506818Z" fill="#E0234E"/>
</g>
</g>
</g>
</g>
<defs>
<clipPath id="clip0_2060_8762">
<rect width="30" height="30" fill="white"/>
</clipPath>
<clipPath id="clip1_2060_8762">
<rect width="30" height="30" fill="white"/>
</clipPath>
<clipPath id="clip2_2060_8762">
<rect width="30" height="30" fill="white"/>
</clipPath>
</defs>
</svg>
