<svg width="30" height="30" viewBox="0 0 30 30" fill="none" xmlns="http://www.w3.org/2000/svg">
<g clip-path="url(#clip0_138_2734)">
<mask id="mask0_138_2734" style="mask-type:luminance" maskUnits="userSpaceOnUse" x="0" y="0" width="30" height="30">
<path d="M0 0H30V30H0V0Z" fill="white"/>
</mask>
<g mask="url(#mask0_138_2734)">
<path d="M29.4621 17.9557C29.2341 17.3877 28.7801 17.0457 28.2121 16.9327L27.3021 17.0467L25.7121 17.2737C27.0751 15.0007 28.2121 12.3877 28.7801 9.88773C29.8031 6.02373 29.3481 4.20573 28.6661 3.41073C27.8371 2.33445 26.7689 1.46598 25.5461 0.874102C24.3233 0.282226 22.9795 -0.0167934 21.6211 0.000727891C20.0301 0.000727891 18.5531 0.342728 17.8711 0.569728L15.7111 0.342728C14.3481 0.342728 12.9851 0.682728 11.9621 1.25173L9.34811 0.569728C6.73511 0.228728 4.57611 0.569728 3.09911 1.59273C1.28111 2.95573 0.37211 5.22873 0.48611 8.41073C0.995665 12.2219 2.06801 15.9364 3.66811 19.4327C4.46311 21.0227 5.25811 21.9327 6.28111 22.1597C6.85011 22.3877 7.75911 22.5007 8.78111 21.7057L9.34911 22.1597L10.3721 22.5007C11.6221 22.8417 12.8721 22.7277 13.8951 22.3877C13.8981 22.7657 13.8981 23.1447 13.8951 23.5237C13.8908 24.7955 14.0824 26.0603 14.4631 27.2737C14.5771 27.7277 14.9181 28.5237 15.4861 29.0917C16.1671 29.7737 16.9631 30.0007 17.7581 30.0007L18.7811 29.8867C19.9171 29.6597 21.1671 29.2057 22.0761 27.9557C22.9861 26.7057 23.3261 24.8877 23.4401 21.9327V21.7057L23.5541 21.4787L23.6671 21.5917H23.7811C24.9171 21.5917 26.2811 21.3647 27.1901 20.9097C27.7581 20.6827 29.9171 19.5467 29.4631 17.9557H29.4621Z" fill="white"/>
<path d="M27.5306 18.2975C24.1216 18.9795 23.8946 17.8425 23.8946 17.8425C27.5306 12.5025 29.0086 5.79753 27.6446 4.20653C24.1216 -0.33847 18.0996 1.82153 17.9856 1.82153L15.7126 1.59453C14.1226 1.59453 12.9856 2.04853 12.0766 2.73053C12.0766 2.73053 1.28165 -1.81447 1.73665 8.29853C1.84965 10.4585 4.91765 24.5485 8.44065 20.3435L10.9406 17.3895C11.6226 17.8435 12.3046 18.0715 13.0996 17.9575H13.2136V18.5255C12.3036 19.5485 12.5316 19.6625 10.7136 20.1165C8.89565 20.4575 9.91765 21.1395 10.7136 21.3665C11.5086 21.5935 13.5536 21.8215 14.8036 20.0025V20.2305C15.1446 20.4575 15.3726 22.0485 15.3726 23.5255C15.2586 24.8895 15.2586 25.9115 15.5996 26.5935C15.8266 27.3895 16.1676 29.0935 18.5536 28.6395C20.4856 28.1845 21.6226 27.0485 21.7356 25.2295C21.8496 23.8665 22.0766 24.0935 22.0766 22.9575L22.1906 22.3895C22.4176 20.5715 22.3036 20.0025 23.5536 20.2295L23.7816 20.3435C24.6906 20.3435 25.9406 20.1165 26.6216 19.7755C28.0996 19.0935 29.0086 17.9575 27.5316 18.2985L27.5306 18.2975Z" fill="#336791"/>
<path d="M12.7598 9.31917H12.0788L11.9648 9.54617L12.0788 9.88617C12.1918 10.1142 12.4188 10.2282 12.6468 10.2282H12.7598C13.1008 10.2282 13.4418 10.0012 13.4418 9.77317C13.5558 9.54617 13.1018 9.31917 12.7598 9.31917ZM22.8738 9.31917C22.8738 9.09117 22.4188 8.97817 22.0778 9.09117C21.7378 9.09117 21.3958 9.20517 21.3958 9.43217C21.5098 9.66017 21.7368 9.88717 22.0778 9.88717H22.1918L22.6458 9.66017L22.8738 9.31917Z" fill="white"/>
<path d="M28.6666 18.1834C28.5526 17.8424 28.0976 17.6154 27.4166 17.8424C25.3706 18.1824 24.6896 17.9564 24.3486 17.7284C25.9386 15.3424 27.3026 12.3884 27.9846 9.6604C28.3246 8.4104 28.5526 7.1604 28.5526 6.2514C28.5526 5.1154 28.3256 4.3204 27.9846 3.8654C27.2203 2.88287 26.2361 2.09343 25.1112 1.56057C23.9862 1.02771 22.7519 0.766312 21.5076 0.797404C19.6896 0.797404 18.0976 1.2514 17.7576 1.4794C17.1896 1.2514 16.3936 1.1384 15.7116 1.1384C14.2346 1.1384 13.0986 1.4784 12.0756 2.1614C11.6216 1.9334 10.4856 1.5924 9.12156 1.3654C6.73456 1.0254 4.91656 1.2514 3.55356 2.2754C1.96256 3.4114 1.16656 5.4554 1.39356 8.2974C1.39356 9.2064 1.96256 12.2744 2.87156 15.1154C4.00756 18.8654 5.25756 20.9104 6.50756 21.3654L7.07556 21.4784C7.53056 21.4784 8.09856 21.2514 8.66656 20.4554L11.0526 17.9554C11.5076 18.1834 12.0756 18.2964 12.6436 18.2964V18.4104L12.4166 18.7514C11.9626 19.3194 11.8486 19.3194 10.5986 19.6614C10.2586 19.6614 9.23456 19.8874 9.23456 20.5694C9.23456 21.3654 10.3716 21.7054 10.4846 21.7054L11.8486 21.8194C12.8716 21.8194 13.7806 21.4794 14.5756 20.9104C14.4616 23.5244 14.5756 26.1374 14.9166 26.9334C15.2576 27.6144 15.8266 29.2054 17.8706 29.2054L18.8936 29.0924C20.9396 28.6374 21.8486 27.7284 22.1896 25.6824L22.8706 20.5694L24.1206 20.6834C25.0306 20.6834 26.0526 20.4564 26.7346 20.1154C27.5296 19.7744 28.8936 18.9784 28.6666 18.1834ZM23.6666 8.7514L23.5526 9.8884L23.3256 11.2514L23.4396 12.8424C23.5526 13.8654 23.7796 15.0024 23.2116 16.0244L22.9846 15.5694L22.6446 14.8884C21.8486 13.5244 20.1446 10.4564 21.0526 9.2064C21.2796 8.8654 21.9626 8.5244 23.6666 8.7514ZM21.6206 1.7064C24.0076 1.7064 25.9396 2.6164 27.3026 4.3204C28.3256 5.6834 27.1896 11.7064 23.8936 16.9334L23.7796 16.8194C24.5756 15.3424 24.4616 13.9794 24.3486 12.7294L24.2346 11.2514L24.3486 10.0014C24.4536 9.4014 24.4916 8.7914 24.4616 8.1834C24.4616 7.6154 23.7806 5.9104 22.4166 4.3204C21.7346 3.5244 20.5986 2.5014 19.2346 1.9334L21.6206 1.7064ZM8.09856 20.0014C7.41656 20.7964 6.96256 20.6834 6.73456 20.5694C5.82556 20.2294 4.57556 18.1834 3.66656 14.7744C2.75756 11.9334 2.19056 9.0914 2.19056 8.2974C2.07656 5.6834 2.64556 3.8654 4.00856 2.9564C6.28156 1.3664 9.91856 2.2744 11.2816 2.7294V2.8424C8.89356 5.2294 8.89356 9.3194 8.89356 9.6614V10.0014C9.00756 10.7974 9.12156 12.0474 8.89356 13.5244C8.78329 14.2309 8.8502 14.9537 9.08827 15.628C9.32635 16.3022 9.72813 16.9068 10.2576 17.3874L8.09856 20.0014ZM10.5986 16.5924C9.91656 15.7974 9.57556 14.7744 9.68856 13.6374C9.91656 12.0474 9.80356 10.6834 9.80356 10.0014V9.7744C10.1436 9.4344 11.7346 8.5244 12.8716 8.8644C13.4396 8.9794 13.7806 9.3194 13.8936 9.8884C14.5756 13.0694 14.0076 14.4334 13.4396 15.5694L13.2126 16.1384L13.0986 16.3654L12.7576 17.5014C11.9626 17.5014 11.1676 17.1614 10.5986 16.5924ZM10.7126 20.9104L10.1436 20.6834L10.8256 20.4564C12.3036 20.1154 12.5306 19.8874 12.9856 19.3194L13.4396 18.7514C13.7796 18.4114 13.8936 18.5244 14.1216 18.6374C14.2346 18.6374 14.4616 18.8654 14.5756 19.2064L14.4616 19.6604C13.4396 21.1374 11.8496 21.1374 10.7126 20.9104ZM18.6666 28.2964C16.8486 28.6374 16.1666 27.7284 15.7116 26.5924C15.3071 24.0758 15.193 21.521 15.3716 18.9784C15.1436 18.4104 14.8026 17.9564 14.4616 17.8424C14.2346 17.7284 13.8936 17.6154 13.5526 17.7284L13.8936 16.5924L14.0076 16.4784L14.2346 15.9104C14.8026 14.7744 15.4846 13.1834 14.6896 9.7744C14.4616 8.4104 13.4396 7.8424 12.0756 7.9564C11.2732 8.0688 10.501 8.339 9.80356 8.7514C9.91656 7.3884 10.3716 5.0014 11.8486 3.4114C12.8716 2.5014 14.1216 1.9334 15.7116 2.0474C18.7806 2.0474 20.7116 3.6374 21.8486 5.0014C22.7576 6.1384 23.3256 7.2744 23.5526 7.8424C21.9626 7.7294 20.9396 7.9564 20.3716 8.7524C19.2346 10.4564 21.0526 13.7524 21.8486 15.2284L22.1886 15.9104L23.0986 17.3874L23.3256 17.6154C22.8706 17.8424 22.0756 18.0694 22.0756 19.6604L21.3936 25.4554C21.0536 27.2744 20.4846 27.8424 18.6666 28.2964ZM26.3936 19.4334C25.9396 19.6604 25.1436 19.7734 24.3486 19.7734C23.4386 19.8874 23.0986 19.7734 22.9846 19.6604C22.8706 18.6374 23.3246 18.5244 23.6666 18.4104H23.8936L24.0076 18.5244C24.6886 18.9784 25.8256 18.9784 27.5296 18.6374H27.6436L26.3936 19.4334Z" fill="black"/>
</g>
</g>
<defs>
<clipPath id="clip0_138_2734">
<rect width="30" height="30" fill="white"/>
</clipPath>
</defs>
</svg>
