<svg width="30" height="30" viewBox="0 0 30 30" fill="none" xmlns="http://www.w3.org/2000/svg">
<g clip-path="url(#clip0_2060_8858)">
<g clip-path="url(#clip1_2060_8858)">
<mask id="mask0_2060_8858" style="mask-type:luminance" maskUnits="userSpaceOnUse" x="3" y="0" width="24" height="30">
<path d="M3.90234 0H26.1003V30H3.90234V0Z" fill="white"/>
</mask>
<g mask="url(#mask0_2060_8858)">
<path d="M11.1002 23.1494C11.1002 23.1494 9.88617 23.8434 11.8802 24.1034C14.2212 24.3634 15.4352 24.2774 18.0362 23.8434C18.0362 23.8434 18.7302 24.2774 19.6842 24.6234C13.8742 27.1384 6.41817 24.4494 11.1002 23.1494ZM10.3202 19.9414C10.3202 19.9414 9.01917 20.8954 11.0132 21.0694C13.5282 21.3294 15.5222 21.3294 18.9902 20.7224C18.9902 20.7224 19.5102 21.1554 20.2902 21.4154C13.1802 23.4964 5.29017 21.5894 10.3202 19.9414Z" fill="#222222"/>
<path d="M16.3869 14.3932C17.8609 16.0412 16.0399 17.5152 16.0399 17.5152C16.0399 17.5152 19.6819 15.6073 17.9479 13.2662C16.3869 11.0122 15.1729 9.97125 21.7629 6.15625C21.7629 6.15625 11.4449 8.67125 16.3869 14.3932Z" fill="#E76F00"/>
<path d="M24.1049 25.5777C24.1049 25.5777 24.9719 26.2717 23.2379 26.8777C19.8559 27.9177 9.10491 28.1787 6.15691 26.8777C5.11691 26.4447 7.10991 25.7507 7.71691 25.6647L8.75691 25.4907C7.54391 24.7107 1.04091 27.1387 5.46291 27.9187C17.4279 29.8257 27.2259 27.0517 24.1049 25.5777ZM11.6189 16.4737C11.6189 16.4737 6.15691 17.7737 9.71091 18.2937C11.1849 18.4677 14.1329 18.4677 16.9079 18.2077C19.1619 18.0347 21.4169 17.6007 21.4169 17.6007L20.0289 18.3807C14.4799 19.7687 3.81491 19.0747 6.93691 17.6007C9.53791 16.3867 11.6189 16.4737 11.6189 16.4737ZM21.4169 21.9357C26.9659 19.0747 24.3649 16.2137 22.5439 16.6467L21.9369 16.8207C21.9369 16.8207 22.1099 16.5607 22.4569 16.3867C26.0119 15.1727 28.7869 20.1147 21.2429 22.1097L21.4169 21.9357Z" fill="#222222"/>
<path d="M17.9483 0C17.9483 0 21.0693 3.121 15.0003 7.89C10.1443 11.792 13.9603 13.96 15.0003 16.474C12.2253 13.873 10.1443 11.618 11.5313 9.538C13.5263 6.503 19.2483 4.942 17.9483 0Z" fill="#E76F00"/>
<path d="M12.1406 29.9127C17.5156 30.2597 25.8396 29.6527 26.0126 27.1387C26.0126 27.1387 25.6656 28.0917 21.5906 28.8727C16.9956 29.7397 11.2726 29.6527 7.89062 29.0457C7.89062 29.0457 8.58463 29.6527 12.1406 29.9127Z" fill="#222222"/>
</g>
</g>
</g>
<defs>
<clipPath id="clip0_2060_8858">
<rect width="30" height="30" fill="white"/>
</clipPath>
<clipPath id="clip1_2060_8858">
<rect width="30" height="30" fill="white"/>
</clipPath>
</defs>
</svg>
