<svg width="30" height="30" viewBox="0 0 30 30" fill="none" xmlns="http://www.w3.org/2000/svg">
<g clip-path="url(#clip0_138_2696)">
<mask id="mask0_138_2696" style="mask-type:luminance" maskUnits="userSpaceOnUse" x="0" y="0" width="30" height="30">
<path d="M0 0H30V30H0V0Z" fill="white"/>
</mask>
<g mask="url(#mask0_138_2696)">
<path d="M14.892 0.0780029C7.276 0.0780029 7.752 3.381 7.752 3.381L7.761 6.803H15.028V7.829H4.872C4.872 7.829 0 7.276 0 14.962C0 22.646 4.253 22.374 4.253 22.374H6.793V18.808C6.793 18.808 6.655 14.554 10.978 14.554H18.186C18.186 14.554 22.236 14.62 22.236 10.64V4.06C22.236 4.06 22.85 0.0780029 14.892 0.0780029ZM10.884 2.378C11.2309 2.378 11.5636 2.51581 11.8089 2.76111C12.0542 3.0064 12.192 3.3391 12.192 3.686C12.192 4.03291 12.0542 4.3656 11.8089 4.6109C11.5636 4.8562 11.2309 4.994 10.884 4.994C10.5435 4.98458 10.2201 4.8427 9.98257 4.59852C9.74505 4.35435 9.61216 4.02714 9.61216 3.6865C9.61216 3.34586 9.74505 3.01866 9.98257 2.77448C10.2201 2.53031 10.5435 2.38742 10.884 2.378Z" fill="url(#paint0_linear_138_2696)"/>
<path d="M15.1079 29.9201C22.7249 29.9201 22.2489 26.6181 22.2489 26.6181L22.2389 23.1961H14.9719V22.1691H25.1269C25.1269 22.1691 29.9999 22.7221 29.9999 15.0371C29.9999 7.35308 25.7469 7.62608 25.7469 7.62608H23.2079V11.1911C23.2079 11.1911 23.3449 15.4441 19.0219 15.4441H11.8149C11.8149 15.4441 7.76493 15.3791 7.76493 19.3591V25.9391C7.76493 25.9391 7.14993 29.9201 15.1079 29.9201ZM19.1159 27.6201C18.8121 27.6227 18.5168 27.5192 18.2811 27.3274C18.0453 27.1357 17.8839 26.8676 17.8247 26.5696C17.7654 26.2715 17.812 25.9622 17.9565 25.6948C18.1009 25.4274 18.3342 25.2189 18.6159 25.1051C18.7945 25.0313 18.9871 24.9981 19.18 25.0077C19.373 25.0173 19.5613 25.0696 19.7316 25.1607C19.902 25.2519 20.0499 25.3797 20.165 25.5348C20.28 25.69 20.3592 25.8688 20.3968 26.0582C20.4345 26.2477 20.4297 26.4431 20.3828 26.6305C20.3359 26.8179 20.248 26.9925 20.1255 27.1419C20.003 27.2912 19.849 27.4116 19.6744 27.4943C19.4998 27.577 19.3091 27.6199 19.1159 27.6201Z" fill="url(#paint1_linear_138_2696)"/>
</g>
</g>
<defs>
<linearGradient id="paint0_linear_138_2696" x1="2.883" y1="2.686" x2="17.717" y2="17.57" gradientUnits="userSpaceOnUse">
<stop stop-color="#387EB8"/>
<stop offset="1" stop-color="#366994"/>
</linearGradient>
<linearGradient id="paint1_linear_138_2696" x1="12.0089" y1="12.1541" x2="27.9409" y2="27.4171" gradientUnits="userSpaceOnUse">
<stop stop-color="#FFE052"/>
<stop offset="1" stop-color="#FFC331"/>
</linearGradient>
<clipPath id="clip0_138_2696">
<rect width="30" height="30" fill="white"/>
</clipPath>
</defs>
</svg>
