<svg width="30" height="30" viewBox="0 0 30 30" fill="none" xmlns="http://www.w3.org/2000/svg">
<g clip-path="url(#clip0_138_2800)">
<mask id="mask0_138_2800" style="mask-type:luminance" maskUnits="userSpaceOnUse" x="0" y="0" width="30" height="30">
<path d="M0 0H30V30H0V0Z" fill="white"/>
</mask>
<g mask="url(#mask0_138_2800)">
<path d="M13.2521 3.75H16.9691V20.783C15.3826 21.1088 13.7677 21.2769 12.1481 21.285C7.60809 21.28 5.24609 19.253 5.24609 15.358C5.24609 11.608 7.75209 9.171 11.6361 9.171C12.1807 9.16022 12.7243 9.22313 13.2521 9.358V3.75ZM13.2521 12.32C12.8483 12.1874 12.425 12.1245 12.0001 12.134C10.1251 12.134 9.03509 13.281 9.03509 15.29C9.03509 17.246 10.0721 18.326 11.9761 18.326C12.4041 18.326 12.8311 18.295 13.2531 18.233L13.2521 12.32Z" fill="#44B78B"/>
<path d="M22.8744 9.43053V17.9615C22.8744 20.8995 22.6544 22.3115 22.0094 23.5285C21.3514 24.7669 20.2752 25.7315 18.9724 26.2505L15.5234 24.6255C16.7764 24.1967 17.8257 23.3184 18.4684 22.1605C18.9984 21.1105 19.1674 19.8925 19.1674 16.6885V9.43053H22.8744ZM19.1634 3.77053H22.8794V7.54653H19.1634V3.77053Z" fill="#44B78B"/>
</g>
</g>
<defs>
<clipPath id="clip0_138_2800">
<rect width="30" height="30" fill="white"/>
</clipPath>
</defs>
</svg>
