<svg width="30" height="30" viewBox="0 0 30 30" fill="none" xmlns="http://www.w3.org/2000/svg">
<g clip-path="url(#clip0_2060_8774)">
<g clip-path="url(#clip1_2060_8774)">
<path d="M30 23.2504C28.909 23.5284 28.234 23.2634 27.628 22.3544L23.321 16.3944L22.699 15.5704L17.669 22.3734C17.094 23.1924 16.492 23.5484 15.419 23.2584L21.859 14.6134L15.863 6.80337C16.895 6.60337 17.607 6.70537 18.24 7.62837L22.707 13.6614L27.207 7.66137C27.784 6.84337 28.403 6.53137 29.438 6.83337L27.113 9.91637L23.963 14.0174C23.588 14.4874 23.64 14.8074 23.985 15.2604L30 23.2504ZM0.008 14.4694L0.534 11.8794C1.969 6.75037 7.847 4.61937 11.901 7.78837C14.27 9.65237 14.858 12.2884 14.741 15.2414H1.387C1.187 20.5564 5.013 23.7654 9.891 22.1284C11.601 21.5534 12.609 20.2134 13.114 18.5384C13.37 17.6984 13.794 17.5664 14.583 17.8064C14.18 19.9024 13.27 21.6534 11.348 22.7494C8.477 24.3904 4.378 23.8594 2.222 21.5794C0.938 20.2564 0.407 18.5804 0.169 16.7874C0.13 16.4904 0.056 16.2084 0 15.9244C0.005 15.4394 0.007 14.9544 0.007 14.4694H0.008ZM1.412 14.1134H13.479C13.401 10.2694 11.007 7.53937 7.736 7.51637C4.146 7.48837 1.568 10.1534 1.412 14.1134Z" fill="#EEEEEE"/>
</g>
</g>
<defs>
<clipPath id="clip0_2060_8774">
<rect width="30" height="30" fill="white"/>
</clipPath>
<clipPath id="clip1_2060_8774">
<rect width="30" height="30" fill="white"/>
</clipPath>
</defs>
</svg>
