<svg width="30" height="30" viewBox="0 0 30 30" fill="none" xmlns="http://www.w3.org/2000/svg">
<path d="M17.6069 3.34371C16.7081 2.26891 15.8521 1.15905 15.0409 0.0167075C15.0328 0.00861747 15.0225 0.00314682 15.0112 0.00100673C15 -0.00113335 14.9884 0.000156109 14.9779 0.00470749C14.9708 0.0073826 14.9644 0.0114648 14.9589 0.0167075C14.1483 1.15902 13.293 2.26889 12.3949 3.34371C1.58689 17.1267 14.0969 26.4287 14.0969 26.4287L14.2019 26.4987C14.2949 27.9337 14.5279 29.9997 14.5279 29.9997H15.4609C15.4609 29.9997 15.6939 27.9457 15.7869 26.4987L15.8919 26.4167C15.9039 26.4287 28.4129 17.1267 17.6059 3.34371H17.6069ZM14.9949 26.2187C14.9949 26.2187 14.4349 25.7397 14.2849 25.4947V25.4717L14.9599 10.4617C14.9599 10.4157 15.0299 10.4157 15.0299 10.4617L15.7069 25.4717V25.4947C15.5549 25.7397 14.9949 26.2187 14.9949 26.2187Z" fill="#7BAA55"/>
</svg>
