<svg width="30" height="30" viewBox="0 0 30 30" fill="none" xmlns="http://www.w3.org/2000/svg">
<g clip-path="url(#clip0_2060_8801)">
<g clip-path="url(#clip1_2060_8801)">
<g clip-path="url(#clip2_2060_8801)">
<mask id="mask0_2060_8801" style="mask-type:luminance" maskUnits="userSpaceOnUse" x="0" y="0" width="30" height="30">
<path d="M0 0H30V30H0V0Z" fill="white"/>
</mask>
<g mask="url(#mask0_2060_8801)">
<path d="M27.6561 23.0944C26.0161 23.0944 24.7261 23.2144 23.6721 23.6904C23.3201 23.8094 22.8521 23.8094 22.8521 24.1664L23.2031 24.8804C23.4371 25.2374 23.7891 25.8324 24.2581 26.1904L25.5471 27.1424L28.0071 28.3324L29.2971 29.4044L30.0001 29.8804L29.6481 29.1664L29.0621 28.5704C28.483 27.7442 27.7702 27.0203 26.9531 26.4284C26.2501 26.0714 24.8431 25.3564 24.6091 24.6424H24.4921L25.8981 24.2854L28.0081 23.9284L28.9451 23.6904V23.4524L27.8901 22.2614C26.9531 21.3094 25.7811 20.4754 24.6101 19.6424L22.5001 18.6904C22.2651 18.5704 21.7971 18.4524 21.6801 18.2134L20.8601 16.6664L19.1021 13.0944L18.1641 10.7144C16.0541 7.14137 13.7111 4.99937 10.1951 2.97437C9.49212 2.49837 8.55512 2.37937 7.61712 2.14137L6.09412 2.02137L5.15612 1.30837C3.98412 0.594365 0.937124 -1.07163 0.117124 1.07137C-0.468876 2.38137 0.937124 3.69037 1.40712 4.40437L2.46012 5.95137L2.81112 7.02337C3.16312 7.97537 3.39712 9.04737 3.86612 9.88037L4.56912 11.0704C4.80412 11.3094 5.03812 11.4284 5.15512 11.7854C4.80412 12.2614 4.80412 12.8564 4.68612 13.3324C3.86612 15.7134 4.21812 18.5714 5.27212 20.3564C5.50712 20.8324 6.32712 22.0234 7.38212 21.5464C8.31912 21.1904 8.08512 19.9994 8.31912 18.9284L8.43612 18.4524L9.37412 20.1184C9.96012 21.1904 11.0141 22.2614 11.9521 22.9754C12.4211 23.3324 12.8901 23.9284 13.4761 24.1654L13.0061 23.6904L11.9521 22.5004C11.0141 21.3094 10.3121 20.0004 9.60812 18.6904L8.78812 16.6664L8.43612 15.9514C8.08512 16.4284 7.61612 16.7854 7.38212 17.3814C7.03012 18.2134 7.03012 19.4044 6.91312 20.4754H6.79612C6.09312 20.3564 5.85812 19.6424 5.62412 19.0474C5.03812 17.6184 4.92112 15.2374 5.50712 13.5714C5.62412 13.0944 6.21012 11.7854 5.97512 11.3094C5.85812 10.9524 5.50712 10.7134 5.27212 10.4754L4.45212 9.04737L3.28012 5.47537L2.22612 3.92937C1.87512 3.33337 1.40612 2.97637 1.05512 2.26237C0.937124 2.02437 0.820124 1.66737 1.05512 1.42937L1.28912 1.19137C1.52312 0.952366 2.34412 1.19137 2.57812 1.31037C3.28112 1.66737 3.98412 1.90537 4.57012 2.38137L5.50812 3.09537H5.97612C6.68012 3.21537 7.38312 3.09537 7.96912 3.33337C9.02312 3.69137 10.0781 4.16737 10.8991 4.76237C13.5941 6.42937 15.8201 8.92937 17.2271 11.7864C17.5781 12.2624 17.5781 12.7384 17.8121 13.2144L19.2191 16.3104C19.6871 17.2624 20.0391 18.2144 20.6251 19.0484C20.9771 19.5244 22.2651 19.7624 22.7351 20.0004L24.1401 20.4764L26.2501 21.9054C26.4841 22.1434 27.5391 22.7384 27.6561 23.0954V23.0944Z" fill="#00546B"/>
<path d="M6.79656 5.11819L5.97656 5.23619L6.67956 6.07019L7.14756 7.14019V7.02219C7.49956 6.90219 7.61756 6.54619 7.61756 6.07019L7.38256 5.59319L6.79656 5.11819Z" fill="#00546B"/>
</g>
</g>
</g>
</g>
<defs>
<clipPath id="clip0_2060_8801">
<rect width="30" height="30" fill="white"/>
</clipPath>
<clipPath id="clip1_2060_8801">
<rect width="30" height="30" fill="white"/>
</clipPath>
<clipPath id="clip2_2060_8801">
<rect width="30" height="30" fill="white"/>
</clipPath>
</defs>
</svg>
