<svg width="30" height="30" viewBox="0 0 30 30" fill="none" xmlns="http://www.w3.org/2000/svg">
<g clip-path="url(#clip0_2060_9098)">
<g clip-path="url(#clip1_2060_9098)">
<g clip-path="url(#clip2_2060_9098)">
<mask id="mask0_2060_9098" style="mask-type:luminance" maskUnits="userSpaceOnUse" x="0" y="0" width="30" height="30">
<path d="M0 0H30V30H0V0Z" fill="white"/>
</mask>
<g mask="url(#mask0_2060_9098)">
<path d="M14.892 0.078125C7.276 0.078125 7.752 3.38112 7.752 3.38112L7.761 6.80312H15.028V7.82912H4.872C4.872 7.82912 0 7.27612 0 14.9621C0 22.6461 4.253 22.3741 4.253 22.3741H6.793V18.8081C6.793 18.8081 6.655 14.5541 10.978 14.5541H18.186C18.186 14.5541 22.236 14.6201 22.236 10.6401V4.06012C22.236 4.06012 22.85 0.078125 14.892 0.078125ZM10.884 2.37812C11.2309 2.37812 11.5636 2.51593 11.8089 2.76123C12.0542 3.00653 12.192 3.33922 12.192 3.68613C12.192 4.03303 12.0542 4.36572 11.8089 4.61102C11.5636 4.85632 11.2309 4.99412 10.884 4.99412C10.5435 4.98471 10.2201 4.84282 9.98257 4.59865C9.74505 4.35447 9.61216 4.02727 9.61216 3.68663C9.61216 3.34598 9.74505 3.01878 9.98257 2.7746C10.2201 2.53043 10.5435 2.38754 10.884 2.37812Z" fill="url(#paint0_linear_2060_9098)"/>
<path d="M15.1079 29.9202C22.7249 29.9202 22.2489 26.6182 22.2489 26.6182L22.2389 23.1962H14.9719V22.1692H25.1269C25.1269 22.1692 29.9999 22.7222 29.9999 15.0372C29.9999 7.3532 25.7469 7.6262 25.7469 7.6262H23.2079V11.1912C23.2079 11.1912 23.3449 15.4442 19.0219 15.4442H11.8149C11.8149 15.4442 7.76493 15.3792 7.76493 19.3592V25.9392C7.76493 25.9392 7.14993 29.9202 15.1079 29.9202ZM19.1159 27.6202C18.8121 27.6228 18.5168 27.5193 18.2811 27.3276C18.0453 27.1358 17.8839 26.8678 17.8247 26.5697C17.7654 26.2717 17.812 25.9623 17.9565 25.6949C18.1009 25.4276 18.3342 25.219 18.6159 25.1052C18.7945 25.0315 18.9871 24.9982 19.18 25.0078C19.373 25.0174 19.5613 25.0697 19.7316 25.1609C19.902 25.252 20.0499 25.3798 20.165 25.535C20.28 25.6901 20.3592 25.8689 20.3968 26.0583C20.4345 26.2478 20.4297 26.4432 20.3828 26.6306C20.3359 26.818 20.248 26.9927 20.1255 27.142C20.003 27.2914 19.849 27.4117 19.6744 27.4944C19.4998 27.5771 19.3091 27.6201 19.1159 27.6202Z" fill="url(#paint1_linear_2060_9098)"/>
</g>
</g>
</g>
</g>
<defs>
<linearGradient id="paint0_linear_2060_9098" x1="2.883" y1="2.68612" x2="17.717" y2="17.5701" gradientUnits="userSpaceOnUse">
<stop stop-color="#387EB8"/>
<stop offset="1" stop-color="#366994"/>
</linearGradient>
<linearGradient id="paint1_linear_2060_9098" x1="12.0089" y1="12.1542" x2="27.9409" y2="27.4172" gradientUnits="userSpaceOnUse">
<stop stop-color="#FFE052"/>
<stop offset="1" stop-color="#FFC331"/>
</linearGradient>
<clipPath id="clip0_2060_9098">
<rect width="30" height="30" fill="white"/>
</clipPath>
<clipPath id="clip1_2060_9098">
<rect width="30" height="30" fill="white"/>
</clipPath>
<clipPath id="clip2_2060_9098">
<rect width="30" height="30" fill="white"/>
</clipPath>
</defs>
</svg>
