<svg width="30" height="30" viewBox="0 0 30 30" fill="none" xmlns="http://www.w3.org/2000/svg">
<g clip-path="url(#clip0_2060_8582)">
<path d="M24.666 10.3058C24.346 10.1958 24.025 10.0948 23.7 10.0008C23.755 9.77882 23.805 9.55882 23.85 9.34182C24.58 5.79382 24.103 2.93482 22.47 1.99382C20.905 1.09182 18.346 2.03182 15.76 4.28182C15.506 4.50382 15.257 4.73182 15.014 4.96682C14.851 4.81082 14.685 4.65782 14.517 4.50782C11.807 2.10282 9.092 1.08882 7.462 2.03282C5.898 2.93782 5.435 5.62582 6.093 8.98882C6.159 9.32182 6.233 9.65282 6.315 9.98282C5.931 10.0918 5.56 10.2078 5.205 10.3318C2.028 11.4388 0 13.1748 0 14.9748C0 16.8338 2.178 18.6988 5.486 19.8288C5.754 19.9208 6.024 20.0048 6.296 20.0828C6.208 20.4378 6.13 20.7948 6.061 21.1538C5.434 24.4588 5.924 27.0828 7.483 27.9818C9.093 28.9108 11.797 27.9558 14.429 25.6548C14.643 25.4678 14.851 25.2748 15.055 25.0778C15.319 25.3328 15.589 25.5788 15.866 25.8178C18.416 28.0118 20.934 28.8978 22.492 27.9958C24.102 27.0648 24.624 24.2458 23.945 20.8158C23.8914 20.5474 23.8314 20.2803 23.765 20.0148C23.955 19.9588 24.141 19.9008 24.323 19.8398C27.763 18.7008 30 16.8598 30 14.9748C30 13.1678 27.906 11.4218 24.666 10.3058ZM23.92 18.6238C23.756 18.6778 23.588 18.7308 23.416 18.7818C22.9966 17.4818 22.4891 16.2119 21.897 14.9808C22.4667 13.7665 22.9544 12.5153 23.357 11.2358C23.664 11.3248 23.962 11.4178 24.249 11.5168C27.025 12.4728 28.719 13.8858 28.719 14.9748C28.719 16.1348 26.889 17.6398 23.92 18.6238ZM22.688 21.0648C22.988 22.5818 23.031 23.9528 22.832 25.0248C22.654 25.9878 22.294 26.6298 21.85 26.8868C20.904 27.4348 18.883 26.7228 16.702 24.8468C16.444 24.6248 16.192 24.3948 15.948 24.1588C16.793 23.2348 17.638 22.1588 18.462 20.9658C19.912 20.8368 21.283 20.6258 22.526 20.3398C22.586 20.5868 22.641 20.8288 22.688 21.0648ZM10.228 26.7928C9.304 27.1188 8.568 27.1278 8.124 26.8718C7.177 26.3258 6.784 24.2188 7.32 21.3928C7.384 21.0588 7.457 20.7268 7.54 20.3968C8.768 20.6688 10.129 20.8648 11.582 20.9818C12.412 22.1498 13.282 23.2238 14.157 24.1638C13.971 24.3438 13.781 24.5198 13.586 24.6898C12.422 25.7078 11.256 26.4298 10.228 26.7928ZM5.9 18.6168C4.438 18.1168 3.23 17.4668 2.401 16.7568C1.657 16.1208 1.281 15.4878 1.281 14.9748C1.281 13.8818 2.911 12.4888 5.627 11.5418C5.957 11.4268 6.301 11.3188 6.659 11.2168C7.06226 12.5107 7.55066 13.7764 8.121 15.0058C7.54363 16.2529 7.04922 17.5366 6.641 18.8488C6.39246 18.7776 6.14472 18.7002 5.9 18.6168ZM7.35 8.74282C6.787 5.86082 7.162 3.68782 8.104 3.14282C9.107 2.56082 11.327 3.38982 13.666 5.46682C13.818 5.60182 13.969 5.74082 14.116 5.88182C13.1951 6.87853 12.3412 7.93518 11.56 9.04482C10.15 9.17482 8.799 9.38482 7.557 9.66682C7.48058 9.3606 7.41089 9.05251 7.35 8.74282ZM20.292 11.9378C19.9985 11.4313 19.6941 10.9312 19.379 10.4378C20.336 10.5578 21.254 10.7188 22.115 10.9158C21.856 11.7448 21.534 12.6108 21.155 13.4988C20.8777 12.9731 20.59 12.453 20.292 11.9388V11.9378ZM15.014 6.79782C15.605 7.43782 16.198 8.15282 16.78 8.92882C15.5987 8.87326 14.4153 8.87326 13.234 8.92882C13.7921 8.19013 14.3862 7.47828 15.014 6.79782ZM9.704 11.9468C9.409 12.4568 9.127 12.9748 8.856 13.4978C8.4962 12.6485 8.17815 11.7822 7.903 10.9018C8.80173 10.703 9.70943 10.5472 10.623 10.4348C10.305 10.9318 9.998 11.4348 9.703 11.9468H9.704ZM10.65 19.6048C9.668 19.4948 8.741 19.3468 7.886 19.1608C8.16636 18.2624 8.49075 17.3783 8.858 16.5118C9.40603 17.5706 10.004 18.6028 10.65 19.6048ZM15.05 23.2418C14.4134 22.5518 13.811 21.8309 13.245 21.0818C13.819 21.1038 14.405 21.1158 15 21.1158C15.611 21.1158 16.216 21.1018 16.81 21.0758C16.2607 21.8274 15.6732 22.5503 15.05 23.2418ZM21.167 16.4658C21.567 17.3798 21.906 18.2638 22.174 19.1058C21.304 19.3038 20.365 19.4638 19.376 19.5818C19.6928 19.0793 19.9995 18.5705 20.296 18.0558C20.598 17.5318 20.89 17.0028 21.167 16.4658ZM19.187 17.4158C18.732 18.2048 18.252 18.9788 17.747 19.7378C16.833 19.8018 15.917 19.8338 15 19.8338C14.066 19.8338 13.158 19.8048 12.284 19.7478C11.2506 18.2382 10.3327 16.6527 9.538 15.0048C10.3269 13.36 11.2395 11.7775 12.268 10.2708C14.0884 10.1336 15.9166 10.1339 17.737 10.2718C18.246 11.0238 18.727 11.7938 19.182 12.5798C19.639 13.3678 20.071 14.1708 20.476 14.9868C20.075 15.8118 19.646 16.6218 19.187 17.4158ZM21.83 3.10382C22.835 3.68382 23.226 6.01982 22.594 9.08382C22.554 9.27882 22.509 9.47782 22.46 9.67982C21.1381 9.38011 19.7979 9.16831 18.448 9.04582C17.6748 7.935 16.8275 6.8776 15.912 5.88082C16.137 5.66482 16.367 5.45382 16.602 5.24882C18.817 3.32082 20.887 2.55982 21.83 3.10382ZM15 12.2958C15.3518 12.2958 15.7002 12.3651 16.0252 12.4998C16.3502 12.6344 16.6456 12.8317 16.8943 13.0805C17.1431 13.3293 17.3404 13.6246 17.4751 13.9496C17.6097 14.2746 17.679 14.623 17.679 14.9748C17.679 15.3266 17.6097 15.675 17.4751 16C17.3404 16.3251 17.1431 16.6204 16.8943 16.8692C16.6456 17.1179 16.3502 17.3153 16.0252 17.4499C15.7002 17.5845 15.3518 17.6538 15 17.6538C14.2895 17.6538 13.6081 17.3716 13.1057 16.8692C12.6033 16.3668 12.321 15.6853 12.321 14.9748C12.321 14.2643 12.6033 13.5829 13.1057 13.0805C13.6081 12.5781 14.2895 12.2958 15 12.2958Z" fill="#222222"/>
</g>
<defs>
<clipPath id="clip0_2060_8582">
<rect width="30" height="30" fill="white"/>
</clipPath>
</defs>
</svg>
