<svg width="30" height="30" viewBox="0 0 30 30" fill="none" xmlns="http://www.w3.org/2000/svg">
<path d="M24.666 10.3059C24.346 10.1959 24.025 10.0949 23.7 10.0009C23.755 9.77895 23.805 9.55895 23.85 9.34195C24.58 5.79395 24.103 2.93495 22.47 1.99395C20.905 1.09195 18.346 2.03195 15.76 4.28195C15.506 4.50395 15.257 4.73195 15.014 4.96695C14.851 4.81095 14.685 4.65795 14.517 4.50795C11.807 2.10295 9.092 1.08895 7.462 2.03295C5.898 2.93795 5.435 5.62595 6.093 8.98895C6.159 9.32195 6.233 9.65295 6.315 9.98295C5.931 10.0919 5.56 10.2079 5.205 10.3319C2.028 11.4389 0 13.1749 0 14.9749C0 16.8339 2.178 18.6989 5.486 19.8289C5.754 19.9209 6.024 20.0049 6.296 20.0829C6.208 20.4379 6.13 20.7949 6.061 21.1539C5.434 24.4589 5.924 27.0829 7.483 27.9819C9.093 28.9109 11.797 27.9559 14.429 25.6549C14.643 25.4679 14.851 25.2749 15.055 25.0779C15.319 25.3329 15.589 25.5789 15.866 25.8179C18.416 28.0119 20.934 28.8979 22.492 27.9959C24.102 27.0649 24.624 24.2459 23.945 20.8159C23.8914 20.5475 23.8314 20.2805 23.765 20.0149C23.955 19.9589 24.141 19.9009 24.323 19.8399C27.763 18.7009 30 16.8599 30 14.9749C30 13.1679 27.906 11.4219 24.666 10.3059ZM23.92 18.6239C23.756 18.6779 23.588 18.7309 23.416 18.7819C22.9966 17.4819 22.4891 16.212 21.897 14.9809C22.4667 13.7666 22.9544 12.5154 23.357 11.2359C23.664 11.3249 23.962 11.4179 24.249 11.5169C27.025 12.4729 28.719 13.8859 28.719 14.9749C28.719 16.1349 26.889 17.6399 23.92 18.6239ZM22.688 21.0649C22.988 22.5819 23.031 23.9529 22.832 25.0249C22.654 25.9879 22.294 26.6299 21.85 26.8869C20.904 27.4349 18.883 26.7229 16.702 24.8469C16.444 24.6249 16.192 24.3949 15.948 24.1589C16.793 23.2349 17.638 22.1589 18.462 20.9659C19.912 20.8369 21.283 20.6259 22.526 20.3399C22.586 20.5869 22.641 20.8289 22.688 21.0649ZM10.228 26.7929C9.304 27.1189 8.568 27.1279 8.124 26.8719C7.177 26.3259 6.784 24.2189 7.32 21.3929C7.384 21.0589 7.457 20.7269 7.54 20.3969C8.768 20.6689 10.129 20.8649 11.582 20.9819C12.412 22.1499 13.282 23.2239 14.157 24.1639C13.971 24.3439 13.781 24.5199 13.586 24.6899C12.422 25.7079 11.256 26.4299 10.228 26.7929ZM5.9 18.6169C4.438 18.1169 3.23 17.4669 2.401 16.7569C1.657 16.1209 1.281 15.4879 1.281 14.9749C1.281 13.8819 2.911 12.4889 5.627 11.5419C5.957 11.4269 6.301 11.3189 6.659 11.2169C7.06226 12.5108 7.55066 13.7766 8.121 15.0059C7.54363 16.253 7.04922 17.5368 6.641 18.8489C6.39246 18.7777 6.14472 18.7004 5.9 18.6169ZM7.35 8.74295C6.787 5.86095 7.162 3.68795 8.104 3.14295C9.107 2.56095 11.327 3.38995 13.666 5.46695C13.818 5.60195 13.969 5.74095 14.116 5.88195C13.1951 6.87865 12.3412 7.9353 11.56 9.04495C10.15 9.17495 8.799 9.38495 7.557 9.66695C7.48058 9.36073 7.41089 9.05263 7.35 8.74295ZM20.292 11.9379C19.9985 11.4315 19.6941 10.9313 19.379 10.4379C20.336 10.5579 21.254 10.7189 22.115 10.9159C21.856 11.7449 21.534 12.6109 21.155 13.4989C20.8777 12.9733 20.59 12.4532 20.292 11.9389V11.9379ZM15.014 6.79795C15.605 7.43795 16.198 8.15295 16.78 8.92895C15.5987 8.87338 14.4153 8.87338 13.234 8.92895C13.7921 8.19025 14.3862 7.4784 15.014 6.79795ZM9.704 11.9469C9.409 12.4569 9.127 12.9749 8.856 13.4979C8.4962 12.6487 8.17815 11.7823 7.903 10.9019C8.80173 10.7031 9.70943 10.5473 10.623 10.4349C10.305 10.9319 9.998 11.4349 9.703 11.9469H9.704ZM10.65 19.6049C9.668 19.4949 8.741 19.3469 7.886 19.1609C8.16636 18.2625 8.49075 17.3785 8.858 16.5119C9.40603 17.5707 10.004 18.6029 10.65 19.6049ZM15.05 23.2419C14.4134 22.5519 13.811 21.831 13.245 21.0819C13.819 21.1039 14.405 21.1159 15 21.1159C15.611 21.1159 16.216 21.1019 16.81 21.0759C16.2607 21.8275 15.6732 22.5505 15.05 23.2419ZM21.167 16.4659C21.567 17.3799 21.906 18.2639 22.174 19.1059C21.304 19.3039 20.365 19.4639 19.376 19.5819C19.6928 19.0794 19.9995 18.5707 20.296 18.0559C20.598 17.5319 20.89 17.0029 21.167 16.4659ZM19.187 17.4159C18.732 18.2049 18.252 18.9789 17.747 19.7379C16.833 19.8019 15.917 19.8339 15 19.8339C14.066 19.8339 13.158 19.8049 12.284 19.7479C11.2506 18.2383 10.3327 16.6528 9.538 15.0049C10.3269 13.3601 11.2395 11.7776 12.268 10.2709C14.0884 10.1337 15.9166 10.134 17.737 10.2719C18.246 11.0239 18.727 11.7939 19.182 12.5799C19.639 13.3679 20.071 14.1709 20.476 14.9869C20.075 15.8119 19.646 16.6219 19.187 17.4159ZM21.83 3.10395C22.835 3.68395 23.226 6.01995 22.594 9.08395C22.554 9.27895 22.509 9.47795 22.46 9.67995C21.1381 9.38023 19.7979 9.16843 18.448 9.04595C17.6748 7.93512 16.8275 6.87772 15.912 5.88095C16.137 5.66495 16.367 5.45395 16.602 5.24895C18.817 3.32095 20.887 2.55995 21.83 3.10395ZM15 12.2959C15.3518 12.2959 15.7002 12.3652 16.0252 12.4999C16.3502 12.6345 16.6456 12.8318 16.8943 13.0806C17.1431 13.3294 17.3404 13.6247 17.4751 13.9497C17.6097 14.2748 17.679 14.6231 17.679 14.9749C17.679 15.3268 17.6097 15.6751 17.4751 16.0002C17.3404 16.3252 17.1431 16.6205 16.8943 16.8693C16.6456 17.1181 16.3502 17.3154 16.0252 17.45C15.7002 17.5847 15.3518 17.6539 15 17.6539C14.2895 17.6539 13.6081 17.3717 13.1057 16.8693C12.6033 16.3669 12.321 15.6855 12.321 14.9749C12.321 14.2644 12.6033 13.583 13.1057 13.0806C13.6081 12.5782 14.2895 12.2959 15 12.2959Z" fill="#00D8FF"/>
</svg>
