<svg width="30" height="30" viewBox="0 0 30 30" fill="none" xmlns="http://www.w3.org/2000/svg">
<g clip-path="url(#clip0_138_2974)">
<mask id="mask0_138_2974" style="mask-type:luminance" maskUnits="userSpaceOnUse" x="0" y="0" width="30" height="30">
<path d="M0 0H30V30H0V0Z" fill="white"/>
</mask>
<g mask="url(#mask0_138_2974)">
<path fill-rule="evenodd" clip-rule="evenodd" d="M11.0103 0C10.6166 0.000262405 10.2269 0.0780824 9.86342 0.229013C9.4999 0.379944 9.16968 0.601027 8.89164 0.879629C8.61359 1.15823 8.39317 1.48889 8.24297 1.85271C8.09276 2.21654 8.01573 2.60639 8.01625 3C8.01599 3.39357 8.09325 3.78334 8.24362 4.14705C8.39399 4.51077 8.61453 4.8413 8.89264 5.11978C9.17075 5.39827 9.50099 5.61925 9.8645 5.7701C10.228 5.92096 10.6177 5.99874 11.0113 5.999H14.0053V3C14.0053 2.20539 13.69 1.44324 13.1287 0.880798C12.5674 0.318361 11.8059 0.00158922 11.0113 0L11.0103 0ZM11.0103 8H3.02725C2.63351 8.00013 2.24366 8.07785 1.87996 8.22871C1.51627 8.37957 1.18587 8.60061 0.907638 8.87922C0.629407 9.15782 0.408802 9.48851 0.258427 9.85241C0.108053 10.2163 0.0308573 10.6063 0.0312515 11C0.0308573 11.3936 0.107987 11.7834 0.258236 12.1471C0.408485 12.5109 0.628912 12.8415 0.906931 13.1201C1.18495 13.3987 1.51512 13.6197 1.87858 13.7707C2.24204 13.9217 2.63168 13.9996 3.02525 14H11.0093C11.4028 13.9996 11.7925 13.9217 12.1559 13.7707C12.5194 13.6197 12.8496 13.3987 13.1276 13.1201C13.4056 12.8415 13.626 12.5109 13.7763 12.1471C13.9265 11.7834 14.0036 11.3936 14.0033 11C14.0043 9.344 12.6643 8.001 11.0103 8Z" fill="#36C5F0"/>
<path fill-rule="evenodd" clip-rule="evenodd" d="M29.972 11C29.9724 10.6063 29.8952 10.2165 29.7449 9.85264C29.5946 9.48881 29.3741 9.15816 29.096 8.87957C28.8178 8.60098 28.4876 8.37991 28.124 8.22899C27.7604 8.07807 27.3707 8.00026 26.977 8C26.5834 8.00039 26.1938 8.0783 25.8303 8.22928C25.4669 8.38026 25.1367 8.60135 24.8587 8.87992C24.5807 9.1585 24.3602 9.48911 24.21 9.85287C24.0597 10.2166 23.9826 10.6064 23.983 11V14H26.977C27.3707 13.9997 27.7604 13.9219 28.124 13.771C28.4876 13.6201 28.8178 13.399 29.096 13.1204C29.3741 12.8418 29.5946 12.5112 29.7449 12.1474C29.8952 11.7835 29.9724 11.3937 29.972 11ZM21.988 11V3C21.9885 2.20523 21.6735 1.44277 21.112 0.880214C20.5506 0.317663 19.7888 0.00106023 18.994 0C18.6004 0.000393768 18.2108 0.0783034 17.8473 0.229281C17.4839 0.380258 17.1537 0.601346 16.8757 0.879922C16.5977 1.1585 16.3772 1.48911 16.227 1.85287C16.0767 2.21663 15.9996 2.60643 16 3V11C15.9992 11.7947 16.3141 12.5571 16.8753 13.1197C17.4366 13.6823 18.1983 13.9989 18.993 14C19.3867 13.9997 19.7764 13.9219 20.14 13.771C20.5036 13.6201 20.8338 13.399 21.112 13.1204C21.3901 12.8418 21.6106 12.5112 21.7609 12.1474C21.9112 11.7835 21.9884 11.3937 21.988 11Z" fill="#2EB67D"/>
<path fill-rule="evenodd" clip-rule="evenodd" d="M18.994 30C19.3877 29.9997 19.7774 29.9219 20.141 29.771C20.5046 29.6201 20.8348 29.399 21.113 29.1204C21.3911 28.8418 21.6116 28.5112 21.7619 28.1474C21.9122 27.7835 21.9894 27.3937 21.989 27C21.9893 26.6064 21.912 26.2167 21.7616 25.8529C21.6113 25.4892 21.3907 25.1587 21.1126 24.8802C20.8345 24.6017 20.5043 24.3808 20.1408 24.2299C19.7772 24.079 19.3876 24.0013 18.994 24.001H16V27.001C16 27.7955 16.3153 28.5576 16.8766 29.1198C17.438 29.6821 18.1995 29.9987 18.994 30ZM18.994 21.998H26.979C27.7735 21.9972 28.5352 21.681 29.0966 21.1188C29.658 20.5566 29.9733 19.7945 29.973 19C29.9738 18.2053 29.6589 17.4429 29.0977 16.8803C28.5364 16.3177 27.7747 16.0011 26.98 16H18.996C18.2013 16.0003 17.4393 16.3161 16.8774 16.8782C16.3156 17.4402 16 18.2023 16 18.997C15.9995 19.3905 16.0765 19.7803 16.2266 20.1441C16.3768 20.5078 16.5971 20.8384 16.875 21.117C17.153 21.3956 17.4831 21.6167 17.8465 21.7677C18.2099 21.9187 18.5995 21.9966 18.993 21.997L18.994 21.998Z" fill="#ECB22E"/>
<path fill-rule="evenodd" clip-rule="evenodd" d="M0.0322515 19C0.0319888 19.3936 0.109248 19.7833 0.259619 20.1471C0.40999 20.5108 0.630527 20.8413 0.908638 21.1198C1.18675 21.3983 1.51699 21.6192 1.8805 21.7701C2.24401 21.921 2.63368 21.9987 3.02725 21.999C3.42082 21.9986 3.81046 21.9207 4.17393 21.7697C4.53739 21.6187 4.86755 21.3977 5.14557 21.1191C5.42359 20.8405 5.64402 20.5099 5.79427 20.1461C5.94452 19.7824 6.02165 19.3926 6.02125 18.999V16H3.02725C2.63351 16.0001 2.24366 16.0778 1.87996 16.2287C1.51627 16.3796 1.18587 16.6006 0.907638 16.8792C0.629407 17.1578 0.408802 17.4885 0.258427 17.8524C0.108053 18.2163 0.0308573 18.6063 0.0312515 19H0.0322515ZM8.01625 19V27C8.01586 27.3936 8.09299 27.7834 8.24324 28.1471C8.39349 28.5109 8.61391 28.8415 8.89193 29.1201C9.16995 29.3987 9.50011 29.6197 9.86358 29.7707C10.227 29.9217 10.6167 29.9996 11.0103 30C11.4038 29.9996 11.7935 29.9217 12.1569 29.7707C12.5204 29.6197 12.8506 29.3987 13.1286 29.1201C13.4066 28.8415 13.627 28.5109 13.7773 28.1471C13.9275 27.7834 14.0046 27.3936 14.0043 27V19.002C14.0044 18.6088 13.9271 18.2195 13.7767 17.8562C13.6264 17.4929 13.406 17.1627 13.128 16.8846C12.8501 16.6065 12.5201 16.3859 12.1569 16.2353C11.7937 16.0847 11.4044 16.0071 11.0113 16.007C10.6181 16.0069 10.2287 16.0842 9.86542 16.2345C9.50212 16.3849 9.17199 16.6053 8.89388 16.8832C8.61577 17.1611 8.39512 17.4911 8.24454 17.8543C8.09395 18.2175 8.01638 18.6068 8.01625 19Z" fill="#E01E5A"/>
</g>
</g>
<defs>
<clipPath id="clip0_138_2974">
<rect width="30" height="30" fill="white"/>
</clipPath>
</defs>
</svg>
