<svg width="30" height="30" viewBox="0 0 30 30" fill="none" xmlns="http://www.w3.org/2000/svg">
<g clip-path="url(#clip0_2060_9074)">
<mask id="mask0_2060_9074" style="mask-type:luminance" maskUnits="userSpaceOnUse" x="4" y="0" width="22" height="30">
<path d="M4.50806 0H25.4921V30H4.50806V0Z" fill="white"/>
</mask>
<g mask="url(#mask0_2060_9074)">
<path d="M19.4291 0.75C19.6731 1.053 19.7981 1.463 20.0471 2.281L25.4911 20.17C23.4457 19.1086 21.2505 18.3654 18.9811 17.966L15.4361 5.984C15.4079 5.88835 15.3494 5.80442 15.2695 5.74479C15.1896 5.68517 15.0925 5.65306 14.9928 5.65328C14.8931 5.65351 14.7961 5.68606 14.7165 5.74604C14.6369 5.80603 14.5788 5.89023 14.5511 5.986L11.0481 17.96C8.76816 18.3574 6.56258 19.1017 4.50806 20.167L9.98106 2.277C10.2311 1.46 10.3561 1.051 10.6011 0.748C10.8161 0.481 11.0971 0.273 11.4161 0.145C11.7761 0 12.2041 0 13.0591 0H16.9681C17.8241 0 18.2521 0 18.6131 0.145C18.9321 0.274 19.2131 0.482 19.4291 0.75Z" fill="#222222"/>
<path d="M20.0786 21.0209C19.1806 21.7889 17.3886 22.3129 15.3256 22.3129C12.7926 22.3129 10.6686 21.5239 10.1056 20.4629C9.90461 21.0709 9.85861 21.7669 9.85861 22.2109C9.85861 22.2109 9.72661 24.3939 11.2436 25.9109C11.2436 25.1229 11.8836 24.4839 12.6716 24.4839C14.0216 24.4839 14.0206 25.6629 14.0196 26.6189V26.7039C14.0196 28.1549 14.9056 29.3989 16.1676 29.9239C15.9734 29.5241 15.8728 29.0853 15.8736 28.6409C15.8736 27.2569 16.6856 26.7409 17.6306 26.1429C18.3816 25.6659 19.2166 25.1369 19.7916 24.0749C20.1016 23.5029 20.2636 22.8619 20.2626 22.2109C20.2626 21.7969 20.1986 21.3969 20.0786 21.0209Z" fill="#FF5D01"/>
</g>
</g>
<defs>
<clipPath id="clip0_2060_9074">
<rect width="30" height="30" fill="white"/>
</clipPath>
</defs>
</svg>
