<svg width="30" height="30" viewBox="0 0 30 30" fill="none" xmlns="http://www.w3.org/2000/svg">
<mask id="mask0_138_2609" style="mask-type:luminance" maskUnits="userSpaceOnUse" x="4" y="0" width="22" height="30">
<path d="M4.50781 0H25.4918V30H4.50781V0Z" fill="white"/>
</mask>
<g mask="url(#mask0_138_2609)">
<path d="M19.4288 0.75C19.6728 1.053 19.7978 1.463 20.0468 2.281L25.4908 20.17C23.4455 19.1086 21.2502 18.3654 18.9808 17.966L15.4358 5.984C15.4076 5.88835 15.3492 5.80442 15.2693 5.74479C15.1894 5.68517 15.0923 5.65306 14.9926 5.65328C14.8929 5.65351 14.7959 5.68606 14.7163 5.74604C14.6366 5.80603 14.5786 5.89023 14.5508 5.986L11.0478 17.96C8.76791 18.3574 6.56234 19.1017 4.50781 20.167L9.98081 2.277C10.2308 1.46 10.3558 1.051 10.6008 0.748C10.8158 0.481 11.0968 0.273 11.4158 0.145C11.7758 0 12.2038 0 13.0588 0H16.9678C17.8238 0 18.2518 0 18.6128 0.145C18.9318 0.274 19.2128 0.482 19.4288 0.75Z" fill="white"/>
<path d="M20.0784 21.0209C19.1804 21.7889 17.3884 22.3129 15.3254 22.3129C12.7924 22.3129 10.6684 21.5239 10.1054 20.4629C9.90437 21.0709 9.85837 21.7669 9.85837 22.2109C9.85837 22.2109 9.72637 24.3939 11.2434 25.9109C11.2434 25.1229 11.8834 24.4839 12.6714 24.4839C14.0214 24.4839 14.0204 25.6629 14.0194 26.6189V26.7039C14.0194 28.1549 14.9054 29.3989 16.1674 29.9239C15.9731 29.5241 15.8726 29.0853 15.8734 28.6409C15.8734 27.2569 16.6854 26.7409 17.6304 26.1429C18.3814 25.6659 19.2164 25.1369 19.7914 24.0749C20.1014 23.5029 20.2634 22.8619 20.2624 22.2109C20.2624 21.7969 20.1984 21.3969 20.0784 21.0209Z" fill="#FF5D01"/>
</g>
</svg>
