<svg width="30" height="30" viewBox="0 0 30 30" fill="none" xmlns="http://www.w3.org/2000/svg">
<g clip-path="url(#clip0_138_2620)">
<mask id="mask0_138_2620" style="mask-type:luminance" maskUnits="userSpaceOnUse" x="0" y="0" width="30" height="30">
<path d="M0 0H30V30H0V0Z" fill="white"/>
</mask>
<g mask="url(#mask0_138_2620)">
<mask id="mask1_138_2620" style="mask-type:luminance" maskUnits="userSpaceOnUse" x="0" y="0" width="30" height="30">
<path d="M0.820312 0H29.1803V30H0.820312V0Z" fill="white"/>
</mask>
<g mask="url(#mask1_138_2620)">
<mask id="mask2_138_2620" style="mask-type:luminance" maskUnits="userSpaceOnUse" x="0" y="0" width="30" height="30">
<path d="M0.820312 0H29.1803V30H0.820312V0Z" fill="white"/>
</mask>
<g mask="url(#mask2_138_2620)">
<path d="M29.0633 5.04L28.0083 20.977L18.2803 0L29.0633 5.04ZM22.2663 25.664L15.0003 29.883L7.61731 25.664L9.02331 22.031H20.8603L22.2663 25.664ZM15.0003 7.97L18.7503 17.345H11.1333L15.0003 7.97ZM1.87531 20.977L0.820312 5.039L11.6023 0L1.87531 20.977Z" fill="url(#paint0_linear_138_2620)"/>
<path d="M29.0633 5.04L28.0083 20.977L18.2803 0L29.0633 5.04ZM22.2663 25.664L15.0003 29.883L7.61731 25.664L9.02331 22.031H20.8603L22.2663 25.664ZM15.0003 7.97L18.7503 17.345H11.1333L15.0003 7.97ZM1.87531 20.977L0.820312 5.039L11.6023 0L1.87531 20.977Z" fill="url(#paint1_linear_138_2620)"/>
</g>
</g>
</g>
</g>
<defs>
<linearGradient id="paint0_linear_138_2620" x1="7.05531" y1="27.176" x2="29.5313" y2="16.488" gradientUnits="userSpaceOnUse">
<stop stop-color="#E40035"/>
<stop offset="0.2" stop-color="#F60A48"/>
<stop offset="0.4" stop-color="#F20755"/>
<stop offset="0.5" stop-color="#DC087D"/>
<stop offset="0.7" stop-color="#9717E7"/>
<stop offset="1" stop-color="#6C00F5"/>
</linearGradient>
<linearGradient id="paint1_linear_138_2620" x1="6.03531" y1="3.598" x2="20.7423" y2="20.391" gradientUnits="userSpaceOnUse">
<stop stop-color="#FF31D9"/>
<stop offset="1" stop-color="#FF5BE1" stop-opacity="0"/>
</linearGradient>
<clipPath id="clip0_138_2620">
<rect width="30" height="30" fill="white"/>
</clipPath>
</defs>
</svg>
