<svg width="30" height="30" viewBox="0 0 30 30" fill="none" xmlns="http://www.w3.org/2000/svg">
<g clip-path="url(#clip0_138_2639)">
<mask id="mask0_138_2639" style="mask-type:luminance" maskUnits="userSpaceOnUse" x="0" y="0" width="30" height="30">
<path d="M0 0H30V30H0V0Z" fill="white"/>
</mask>
<g mask="url(#mask0_138_2639)">
<path d="M2.344 0H27.656C28.2777 0 28.8739 0.246956 29.3135 0.686542C29.753 1.12613 30 1.72233 30 2.344V27.656C30 28.2777 29.753 28.8739 29.3135 29.3135C28.8739 29.753 28.2777 30 27.656 30H2.344C1.72233 30 1.12613 29.753 0.686542 29.3135C0.246956 28.8739 0 28.2777 0 27.656L0 2.344C0 1.72233 0.246956 1.12613 0.686542 0.686542C1.12613 0.246956 1.72233 0 2.344 0Z" fill="#3178C6"/>
<path d="M17.6387 23.4936V26.7306C18.1647 27.0006 18.7877 27.2026 19.5067 27.3376C20.2247 27.4726 20.9827 27.5396 21.7787 27.5396C22.5547 27.5396 23.2927 27.4656 23.9907 27.3166C24.6428 27.1869 25.2655 26.9385 25.8277 26.5836C26.3547 26.2436 26.7707 25.7986 27.0777 25.2486C27.3857 24.6986 27.5387 24.0196 27.5387 23.2106C27.5387 22.6236 27.4507 22.1106 27.2757 21.6676C27.1019 21.229 26.8437 20.8288 26.5157 20.4896C26.1632 20.1288 25.7632 19.8176 25.3267 19.5646C24.8647 19.2916 24.3437 19.0336 23.7627 18.7906C23.3761 18.6328 22.9945 18.4627 22.6187 18.2806C22.318 18.1367 22.0302 17.967 21.7587 17.7736C21.5456 17.6252 21.3605 17.4404 21.2117 17.2276C21.0833 17.0346 21.0164 16.8073 21.0197 16.5756C21.0197 16.3526 21.0767 16.1526 21.1917 15.9736C21.3067 15.7946 21.4687 15.6416 21.6777 15.5136C21.8877 15.3856 22.1427 15.2856 22.4477 15.2146C22.7796 15.1409 23.1188 15.1054 23.4587 15.1086C24.0544 15.113 24.6469 15.1964 25.2207 15.3566C25.5237 15.4406 25.8197 15.5466 26.1067 15.6756C26.3847 15.7986 26.6507 15.9476 26.9007 16.1206V13.0956C26.379 12.8991 25.838 12.7583 25.2867 12.6756C24.6212 12.579 23.9492 12.5335 23.2767 12.5396C22.5077 12.5396 21.7787 12.6226 21.0907 12.7876C20.4437 12.9351 19.8283 13.1973 19.2737 13.5616C18.7507 13.9116 18.3367 14.3586 18.0337 14.9016C17.7297 15.4446 17.5777 16.0936 17.5777 16.8486C17.5777 17.8126 17.8557 18.6356 18.4127 19.3166C18.9697 19.9966 19.8147 20.5736 20.9487 21.0466C21.3677 21.2166 21.7827 21.3956 22.1937 21.5826C22.5787 21.7576 22.9107 21.9396 23.1907 22.1286C23.4707 22.3176 23.6917 22.5226 23.8537 22.7456C24.0157 22.9676 24.0967 23.2206 24.0967 23.5036C24.0987 23.7076 24.0467 23.9086 23.9447 24.0856C23.8319 24.2761 23.6739 24.4358 23.4847 24.5506C23.2468 24.6954 22.9866 24.7998 22.7147 24.8596C22.3609 24.9387 21.9991 24.976 21.6367 24.9706C20.1714 24.9645 18.7562 24.4414 17.6387 23.4936ZM12.2437 15.4396H16.4057V12.7736H4.80469V15.4386H8.94669V27.3056H12.2437V15.4386V15.4396Z" fill="white"/>
</g>
</g>
<defs>
<clipPath id="clip0_138_2639">
<rect width="30" height="30" fill="white"/>
</clipPath>
</defs>
</svg>
