<svg width="30" height="30" viewBox="0 0 30 30" fill="none" xmlns="http://www.w3.org/2000/svg">
<g clip-path="url(#clip0_2060_8667)">
<mask id="mask0_2060_8667" style="mask-type:luminance" maskUnits="userSpaceOnUse" x="0" y="1" width="30" height="28">
<path d="M0 1.46484H30V28.5348H0V1.46484Z" fill="white"/>
</mask>
<g mask="url(#mask0_2060_8667)">
<path d="M14.18 11.4258C14.414 11.0738 14.766 10.9568 15 10.9568C15.117 10.9568 15.586 11.0738 15.82 11.4258C17.695 14.0038 20.86 19.2768 23.203 23.2618L26.25 27.9488C27.07 28.8868 28.36 28.3008 29.063 27.2458C29.766 26.1908 30 25.4878 30 24.6678C30 24.1988 19.687 4.97984 18.633 3.33984C17.578 1.81584 17.343 1.46484 15.586 1.46484H14.296C12.656 1.46484 12.422 1.81584 11.367 3.33984C10.312 4.97984 0 24.1998 0 24.6678C0 25.4878 0.234 26.1908 0.938 27.2458C1.641 28.3008 2.93 28.8858 3.75 27.9488L6.797 23.2618C9.141 19.2768 12.305 14.0038 14.18 11.4258Z" fill="#000020"/>
</g>
</g>
<defs>
<clipPath id="clip0_2060_8667">
<rect width="30" height="30" fill="white"/>
</clipPath>
</defs>
</svg>
