<svg width="30" height="30" viewBox="0 0 30 30" fill="none" xmlns="http://www.w3.org/2000/svg">
<mask id="mask0_138_2660" style="mask-type:luminance" maskUnits="userSpaceOnUse" x="2" y="0" width="26" height="30">
<path d="M2.74219 0.25H27.2622V29.75H2.74219V0.25Z" fill="white"/>
</mask>
<g mask="url(#mask0_138_2660)">
<path d="M25.6986 4.14914C22.9616 0.233143 17.5586 -0.927857 13.6496 1.56014L6.7886 5.93514C5.86155 6.51831 5.06637 7.28849 4.4539 8.19644C3.84142 9.1044 3.42512 10.1302 3.2316 11.2081C2.90404 13.024 3.19155 14.8972 4.0486 16.5311C3.46135 17.4225 3.06095 18.4237 2.8716 19.4741C2.6762 20.5737 2.7023 21.7013 2.94837 22.7906C3.19444 23.88 3.65553 24.9093 4.3046 25.8181C7.0416 29.7351 12.4446 30.8951 16.3526 28.4061L23.2146 24.0321C24.1417 23.449 24.9369 22.6789 25.5494 21.7709C26.1619 20.8629 26.5781 19.8372 26.7716 18.7591C27.0989 16.9433 26.8114 15.0702 25.9546 13.4361C26.5418 12.5451 26.9422 11.5443 27.1316 10.4941C27.3272 9.3944 27.3013 8.26665 27.0552 7.17708C26.8091 6.08751 26.3479 5.05806 25.6986 4.14914Z" fill="#FF3E00"/>
<path d="M12.9803 26.1889C11.9002 26.4698 10.7599 26.4125 9.71346 26.0249C8.66697 25.6372 7.76464 24.9377 7.12826 24.0209C6.73755 23.4742 6.45995 22.8549 6.31175 22.1995C6.16356 21.544 6.14775 20.8656 6.26526 20.2039C6.30526 19.9869 6.36026 19.7719 6.42926 19.5629L6.55926 19.1689L6.91026 19.4269C7.72268 20.0239 8.63107 20.4778 9.59626 20.7689L9.85126 20.8459L9.82726 21.1009C9.79726 21.4629 9.89426 21.8239 10.1043 22.1209C10.2957 22.3972 10.5673 22.608 10.8824 22.725C11.1975 22.8419 11.5409 22.8594 11.8663 22.7749C12.0163 22.7349 12.1583 22.6729 12.2883 22.5899L19.1523 18.2149C19.3201 18.1092 19.4642 17.9697 19.5752 17.8053C19.6863 17.6409 19.7619 17.4552 19.7973 17.2599C19.8324 17.0606 19.8274 16.8562 19.7828 16.6588C19.7382 16.4614 19.6547 16.2748 19.5373 16.1099C19.3458 15.8336 19.0743 15.6227 18.7592 15.5056C18.4441 15.3884 18.1007 15.3708 17.7753 15.4549C17.6253 15.4949 17.4843 15.5569 17.3543 15.6399L14.7343 17.3099C14.3043 17.5839 13.8343 17.7899 13.3403 17.9219C12.26 18.2028 11.1196 18.1453 10.073 17.7572C9.02649 17.3691 8.12427 16.6692 7.48826 15.7519C7.09775 15.2053 6.82034 14.5862 6.67232 13.9309C6.52429 13.2756 6.50864 12.5974 6.62626 11.9359C6.74271 11.2876 6.9932 10.6707 7.36169 10.1246C7.73018 9.57862 8.20857 9.11551 8.76626 8.76494L15.6293 4.38994C16.0603 4.11494 16.5313 3.90894 17.0243 3.77694C18.1045 3.49612 19.245 3.55362 20.2915 3.9417C21.338 4.32977 22.2403 5.0297 22.8763 5.94694C23.267 6.4935 23.5445 7.11259 23.6927 7.76788C23.8409 8.42316 23.8567 9.10145 23.7393 9.76294C23.6993 9.97994 23.6443 10.1939 23.5753 10.4029L23.4453 10.7979L23.0943 10.5399C22.2819 9.94318 21.3735 9.48965 20.4083 9.19894L20.1533 9.12094L20.1773 8.86694C20.208 8.50492 20.1099 8.14369 19.9003 7.84694C19.7089 7.57052 19.4374 7.35948 19.1223 7.24235C18.8072 7.12521 18.4637 7.10761 18.1383 7.19194C17.9883 7.23194 17.8473 7.29494 17.7163 7.37794L10.8523 11.7519C10.6842 11.8576 10.54 11.9973 10.4289 12.1619C10.3178 12.3265 10.2423 12.5125 10.2073 12.7079C10.1719 12.9073 10.1767 13.1117 10.2214 13.3091C10.266 13.5066 10.3496 13.6932 10.4673 13.8579C10.6588 14.1341 10.9304 14.3448 11.2455 14.4618C11.5606 14.5787 11.9039 14.5962 12.2293 14.5119C12.3793 14.4719 12.5213 14.4099 12.6513 14.3269L15.2713 12.6579C15.7013 12.3839 16.1713 12.1779 16.6643 12.0449C17.7445 11.7643 18.8849 11.8218 19.9314 12.2099C20.9779 12.598 21.8802 13.2978 22.5163 14.2149C22.9069 14.7615 23.1845 15.3806 23.3326 16.0359C23.4808 16.6912 23.4967 17.3695 23.3793 18.0309C23.2629 18.6795 23.0124 19.2965 22.6439 19.8427C22.2755 20.3889 21.797 20.8522 21.2393 21.2029L14.3753 25.5779C13.9443 25.8519 13.4743 26.0589 12.9803 26.1909V26.1889Z" fill="white"/>
</g>
</svg>
