<svg width="30" height="30" viewBox="0 0 30 30" fill="none" xmlns="http://www.w3.org/2000/svg">
<g clip-path="url(#clip0_2060_8690)">
<g clip-path="url(#clip1_2060_8690)">
<mask id="mask0_2060_8690" style="mask-type:luminance" maskUnits="userSpaceOnUse" x="2" y="0" width="26" height="30">
<path d="M2.74194 0.25H27.2619V29.75H2.74194V0.25Z" fill="white"/>
</mask>
<g mask="url(#mask0_2060_8690)">
<path d="M25.6984 4.14914C22.9614 0.233143 17.5584 -0.927857 13.6494 1.56014L6.78836 5.93514C5.86131 6.51831 5.06613 7.28849 4.45365 8.19644C3.84117 9.1044 3.42487 10.1302 3.23136 11.2081C2.9038 13.024 3.19131 14.8972 4.04836 16.5311C3.46111 17.4225 3.06071 18.4237 2.87136 19.4741C2.67596 20.5737 2.70206 21.7013 2.94813 22.7906C3.1942 23.88 3.65529 24.9093 4.30436 25.8181C7.04136 29.7351 12.4444 30.8951 16.3524 28.4061L23.2144 24.0321C24.1414 23.449 24.9367 22.6789 25.5491 21.7709C26.1616 20.8629 26.5779 19.8372 26.7714 18.7591C27.0987 16.9433 26.8112 15.0702 25.9544 13.4361C26.5416 12.5451 26.942 11.5443 27.1314 10.4941C27.327 9.3944 27.301 8.26665 27.055 7.17708C26.8089 6.08751 26.3477 5.05806 25.6984 4.14914Z" fill="#FF3E00"/>
<path d="M12.98 26.1889C11.8999 26.4698 10.7597 26.4125 9.71322 26.0249C8.66673 25.6372 7.76439 24.9377 7.12802 24.0209C6.7373 23.4742 6.4597 22.8549 6.31151 22.1995C6.16332 21.544 6.14751 20.8656 6.26502 20.2039C6.30502 19.9869 6.36002 19.7719 6.42902 19.5629L6.55902 19.1689L6.91002 19.4269C7.72244 20.0239 8.63083 20.4778 9.59602 20.7689L9.85102 20.8459L9.82702 21.1009C9.79702 21.4629 9.89402 21.8239 10.104 22.1209C10.2955 22.3972 10.5671 22.608 10.8822 22.725C11.1973 22.8419 11.5407 22.8594 11.866 22.7749C12.016 22.7349 12.158 22.6729 12.288 22.5899L19.152 18.2149C19.3199 18.1092 19.4639 17.9697 19.575 17.8053C19.686 17.6409 19.7616 17.4552 19.797 17.2599C19.8321 17.0606 19.8272 16.8562 19.7826 16.6588C19.7379 16.4614 19.6545 16.2748 19.537 16.1099C19.3456 15.8336 19.074 15.6227 18.7589 15.5056C18.4439 15.3884 18.1004 15.3708 17.775 15.4549C17.625 15.4949 17.484 15.5569 17.354 15.6399L14.734 17.3099C14.304 17.5839 13.834 17.7899 13.34 17.9219C12.2598 18.2028 11.1193 18.1453 10.0728 17.7572C9.02624 17.3691 8.12403 16.6692 7.48802 15.7519C7.0975 15.2053 6.8201 14.5862 6.67207 13.9309C6.52405 13.2756 6.50839 12.5974 6.62602 11.9359C6.74247 11.2876 6.99295 10.6707 7.36144 10.1246C7.72994 9.57862 8.20833 9.11551 8.76602 8.76494L15.629 4.38994C16.06 4.11494 16.531 3.90894 17.024 3.77694C18.1043 3.49612 19.2447 3.55362 20.2913 3.9417C21.3378 4.32977 22.24 5.0297 22.876 5.94694C23.2667 6.4935 23.5443 7.11259 23.6925 7.76788C23.8407 8.42316 23.8565 9.10145 23.739 9.76294C23.699 9.97994 23.644 10.1939 23.575 10.4029L23.445 10.7979L23.094 10.5399C22.2816 9.94318 21.3732 9.48965 20.408 9.19894L20.153 9.12094L20.177 8.86694C20.2077 8.50492 20.1096 8.14369 19.9 7.84694C19.7087 7.57052 19.4371 7.35948 19.122 7.24235C18.8069 7.12521 18.4634 7.10761 18.138 7.19194C17.988 7.23194 17.847 7.29494 17.716 7.37794L10.852 11.7519C10.6839 11.8576 10.5397 11.9973 10.4286 12.1619C10.3176 12.3265 10.2421 12.5125 10.207 12.7079C10.1717 12.9073 10.1765 13.1117 10.2211 13.3091C10.2658 13.5066 10.3494 13.6932 10.467 13.8579C10.6586 14.1341 10.9302 14.3448 11.2453 14.4618C11.5603 14.5787 11.9037 14.5962 12.229 14.5119C12.379 14.4719 12.521 14.4099 12.651 14.3269L15.271 12.6579C15.701 12.3839 16.171 12.1779 16.664 12.0449C17.7443 11.7643 18.8847 11.8218 19.9312 12.2099C20.9777 12.598 21.8799 13.2978 22.516 14.2149C22.9067 14.7615 23.1842 15.3806 23.3324 16.0359C23.4806 16.6912 23.4964 17.3695 23.379 18.0309C23.2626 18.6795 23.0122 19.2965 22.6437 19.8427C22.2752 20.3889 21.7968 20.8522 21.239 21.2029L14.375 25.5779C13.944 25.8519 13.474 26.0589 12.98 26.1909V26.1889Z" fill="#222222"/>
</g>
</g>
</g>
<defs>
<clipPath id="clip0_2060_8690">
<rect width="30" height="30" fill="white"/>
</clipPath>
<clipPath id="clip1_2060_8690">
<rect width="30" height="30" fill="white"/>
</clipPath>
</defs>
</svg>
