<svg width="30" height="30" viewBox="0 0 30 30" fill="none" xmlns="http://www.w3.org/2000/svg">
<g clip-path="url(#clip0_138_2690)">
<path d="M13.7649 0.32025C14.5179 -0.10575 15.4779 -0.10775 16.2119 0.32025L27.4539 6.65825C28.1569 7.05325 28.6279 7.83725 28.6209 8.64825V21.3533C28.6259 22.1982 28.1089 22.9993 27.3669 23.3862L16.1859 29.6952C15.8034 29.9066 15.3713 30.0117 14.9345 29.9995C14.4977 29.9874 14.0721 29.8585 13.7019 29.6262L10.3469 27.6873C10.1169 27.5513 9.86091 27.4423 9.69891 27.2213C9.84191 27.0293 10.0959 27.0042 10.3039 26.9202C10.7709 26.7722 11.1979 26.5432 11.6269 26.3022C11.7349 26.2272 11.8669 26.2552 11.9709 26.3242L14.8319 27.9783C15.0369 28.0953 15.2439 27.9403 15.4189 27.8412L26.3979 21.6453C26.4633 21.6128 26.5173 21.5613 26.553 21.4976C26.5887 21.4339 26.6043 21.361 26.5979 21.2882V8.70425C26.6048 8.62226 26.5857 8.54019 26.5433 8.46966C26.501 8.39912 26.4375 8.3437 26.3619 8.31125L15.2099 2.03125C15.1457 1.98659 15.0693 1.96257 14.9911 1.9624C14.9128 1.96222 14.8364 1.98589 14.7719 2.03025L3.63391 8.32425C3.55854 8.35617 3.49517 8.41104 3.4528 8.48106C3.41042 8.55108 3.39122 8.63268 3.39791 8.71425V21.2983C3.39122 21.371 3.40726 21.444 3.44379 21.5072C3.48033 21.5704 3.53557 21.6207 3.60191 21.6512L6.57691 23.3312C7.13691 23.6312 7.82291 23.8012 8.43791 23.5812C8.70725 23.4797 8.93913 23.2983 9.10249 23.0613C9.26585 22.8243 9.35287 22.5431 9.35191 22.2552L9.35491 9.74525C9.34191 9.56025 9.51691 9.40725 9.69591 9.42525H11.1259C11.3149 9.42125 11.4629 9.62125 11.4379 9.80725L11.4349 22.3953C11.4349 23.5133 10.9759 24.7292 9.94191 25.2782C8.66791 25.9373 7.09191 25.7983 5.83191 25.1653L2.63191 23.3953C2.25724 23.2032 1.94235 22.9122 1.72145 22.5538C1.50055 22.1953 1.38208 21.7833 1.37891 21.3622V8.65625C1.38206 8.24325 1.49564 7.83861 1.70787 7.4843C1.92011 7.12999 2.22327 6.83891 2.58591 6.64125L13.7659 0.32125L13.7649 0.32025ZM17.0069 9.12825C18.6319 9.03425 20.3719 9.06625 21.8349 9.86825C22.9669 10.4813 23.5949 11.7683 23.6149 13.0283C23.5839 13.1983 23.4069 13.2913 23.2449 13.2793C22.7749 13.2783 22.3009 13.2863 21.8289 13.2763C21.6289 13.2843 21.5129 13.0993 21.4879 12.9223C21.3519 12.3203 21.0239 11.7243 20.4569 11.4343C19.5869 10.9973 18.5779 11.0203 17.6289 11.0293C16.9369 11.0663 16.1929 11.1263 15.6059 11.5323C15.1539 11.8423 15.0189 12.4743 15.1799 12.9643C15.3299 13.3253 15.7469 13.4413 16.0869 13.5483C18.0469 14.0603 20.1219 14.0183 22.0449 14.6843C22.8399 14.9593 23.6179 15.4942 23.8919 16.3272C24.2469 17.4432 24.0919 18.7773 23.2979 19.6733C22.6549 20.4113 21.7179 20.8032 20.7809 21.0312C19.5359 21.3083 18.2439 21.3153 16.9809 21.1912C15.7909 21.0553 14.5549 20.7432 13.6369 19.9333C12.8529 19.2523 12.4699 18.1903 12.5069 17.1663C12.5169 16.9932 12.6889 16.8722 12.8569 16.8862H14.2679C14.4579 16.8732 14.5979 17.0372 14.6069 17.2162C14.6939 17.7812 14.9099 18.3932 15.4099 18.7222C16.3759 19.3452 17.5869 19.3022 18.6919 19.3202C19.6079 19.2802 20.6359 19.2673 21.3839 18.6602C21.7799 18.3162 21.8939 17.7382 21.7889 17.2412C21.6729 16.8212 21.2239 16.6273 20.8469 16.4883C18.9129 15.8773 16.8149 16.0993 14.8989 15.4063C14.1219 15.1323 13.3689 14.6123 13.0719 13.8133C12.6549 12.6833 12.8459 11.2833 13.7239 10.4173C14.5709 9.55725 15.8139 9.22525 16.9889 9.10625L17.0069 9.12825Z" fill="url(#paint0_linear_138_2690)"/>
</g>
<defs>
<linearGradient id="paint0_linear_138_2690" x1="14.9999" y1="0.000250439" x2="14.9999" y2="30.0002" gradientUnits="userSpaceOnUse">
<stop offset="1" stop-color="#6CC04A"/>
</linearGradient>
<clipPath id="clip0_138_2690">
<rect width="30" height="30" fill="white"/>
</clipPath>
</defs>
</svg>
