<svg width="17" height="16" viewBox="0 0 17 16" fill="none" xmlns="http://www.w3.org/2000/svg">
<path d="M8.49992 7.33333C9.38397 7.33333 10.2318 7.68452 10.8569 8.30964C11.4821 8.93476 11.8333 9.78261 11.8333 10.6667V14.6667H10.4999V10.6667C10.4999 10.1565 10.305 9.66565 9.95506 9.29449C9.60509 8.92332 9.12651 8.69992 8.61725 8.66999L8.49992 8.66666C7.98978 8.66663 7.49891 8.86154 7.12774 9.21152C6.75658 9.56149 6.53318 10.0401 6.50325 10.5493L6.49992 10.6667V14.6667H5.16658V10.6667C5.16659 9.78261 5.51777 8.93476 6.1429 8.30964C6.76802 7.68452 7.61586 7.33333 8.49992 7.33333ZM4.16659 9.33333C4.35325 9.33377 4.53325 9.35466 4.70659 9.39599C4.59302 9.73544 4.52553 10.0886 4.50592 10.446L4.49992 10.6667V10.724C4.42327 10.6966 4.34357 10.6787 4.26259 10.6707L4.16659 10.6667C3.9181 10.6667 3.67852 10.7592 3.49451 10.9262C3.31051 11.0932 3.19527 11.3227 3.17125 11.57L3.16659 11.6667V14.6667H1.83325V11.6667C1.83325 11.0478 2.07908 10.4543 2.51667 10.0167C2.95425 9.57916 3.54775 9.33333 4.16659 9.33333ZM12.8333 9.33333C13.4521 9.33333 14.0456 9.57916 14.4832 10.0167C14.9208 10.4543 15.1666 11.0478 15.1666 11.6667V14.6667H13.8333V11.6667C13.8333 11.4182 13.7407 11.1786 13.5738 10.9946C13.4068 10.8106 13.1772 10.6953 12.9299 10.6713L12.8333 10.6667C12.7159 10.6671 12.6048 10.686 12.4999 10.7233V10.6667C12.4999 10.2227 12.4279 9.79599 12.2946 9.39733C12.4666 9.35533 12.6479 9.33333 12.8333 9.33333ZM4.16659 5.33333C4.60861 5.33333 5.03254 5.50892 5.3451 5.82148C5.65766 6.13404 5.83325 6.55797 5.83325 6.99999C5.83325 7.44202 5.65766 7.86595 5.3451 8.17851C5.03254 8.49107 4.60861 8.66666 4.16659 8.66666C3.72456 8.66666 3.30063 8.49107 2.98807 8.17851C2.67551 7.86595 2.49992 7.44202 2.49992 6.99999C2.49992 6.55797 2.67551 6.13404 2.98807 5.82148C3.30063 5.50892 3.72456 5.33333 4.16659 5.33333ZM12.8333 5.33333C13.2753 5.33333 13.6992 5.50892 14.0118 5.82148C14.3243 6.13404 14.4999 6.55797 14.4999 6.99999C14.4999 7.44202 14.3243 7.86595 14.0118 8.17851C13.6992 8.49107 13.2753 8.66666 12.8333 8.66666C12.3912 8.66666 11.9673 8.49107 11.6547 8.17851C11.3422 7.86595 11.1666 7.44202 11.1666 6.99999C11.1666 6.55797 11.3422 6.13404 11.6547 5.82148C11.9673 5.50892 12.3912 5.33333 12.8333 5.33333ZM4.16659 6.66666C4.07818 6.66666 3.9934 6.70178 3.93088 6.76429C3.86837 6.8268 3.83325 6.91159 3.83325 6.99999C3.83325 7.0884 3.86837 7.17318 3.93088 7.2357C3.9934 7.29821 4.07818 7.33333 4.16659 7.33333C4.25499 7.33333 4.33978 7.29821 4.40229 7.2357C4.4648 7.17318 4.49992 7.0884 4.49992 6.99999C4.49992 6.91159 4.4648 6.8268 4.40229 6.76429C4.33978 6.70178 4.25499 6.66666 4.16659 6.66666ZM12.8333 6.66666C12.7448 6.66666 12.6601 6.70178 12.5975 6.76429C12.535 6.8268 12.4999 6.91159 12.4999 6.99999C12.4999 7.0884 12.535 7.17318 12.5975 7.2357C12.6601 7.29821 12.7448 7.33333 12.8333 7.33333C12.9217 7.33333 13.0064 7.29821 13.069 7.2357C13.1315 7.17318 13.1666 7.0884 13.1666 6.99999C13.1666 6.91159 13.1315 6.8268 13.069 6.76429C13.0064 6.70178 12.9217 6.66666 12.8333 6.66666ZM8.49992 1.33333C9.20716 1.33333 9.88544 1.61428 10.3855 2.11438C10.8856 2.61447 11.1666 3.29275 11.1666 3.99999C11.1666 4.70724 10.8856 5.38552 10.3855 5.88561C9.88544 6.38571 9.20716 6.66666 8.49992 6.66666C7.79267 6.66666 7.1144 6.38571 6.6143 5.88561C6.1142 5.38552 5.83325 4.70724 5.83325 3.99999C5.83325 3.29275 6.1142 2.61447 6.6143 2.11438C7.1144 1.61428 7.79267 1.33333 8.49992 1.33333ZM8.49992 2.66666C8.1463 2.66666 7.80716 2.80714 7.55711 3.05719C7.30706 3.30723 7.16658 3.64637 7.16658 3.99999C7.16658 4.35362 7.30706 4.69276 7.55711 4.9428C7.80716 5.19285 8.1463 5.33333 8.49992 5.33333C8.85354 5.33333 9.19268 5.19285 9.44273 4.9428C9.69278 4.69276 9.83325 4.35362 9.83325 3.99999C9.83325 3.64637 9.69278 3.30723 9.44273 3.05719C9.19268 2.80714 8.85354 2.66666 8.49992 2.66666Z" fill="white" fill-opacity="0.6"/>
</svg>
