<svg width="80" height="80" viewBox="0 0 80 80" fill="none" xmlns="http://www.w3.org/2000/svg">
<g clip-path="url(#clip0_189_133)">
<g filter="url(#filter0_f_189_133)">
<rect x="73.9473" y="-8.53491" width="116" height="116" transform="rotate(46.6595 73.9473 -8.53491)" fill="#3E03B3"/>
</g>
<g filter="url(#filter1_f_189_133)">
<rect x="2.07715" y="-67.2092" width="92" height="92" transform="rotate(46.6595 2.07715 -67.2092)" fill="#A1F919"/>
</g>
<path d="M21.6667 50C21.1944 50 20.7986 49.8403 20.4792 49.5208C20.1597 49.2014 20 48.8056 20 48.3333V47.375C20 46.1806 20.6111 45.2083 21.8333 44.4583C23.0556 43.7083 24.6667 43.3333 26.6667 43.3333C27.0278 43.3333 27.375 43.3403 27.7083 43.3542C28.0417 43.3681 28.3611 43.4028 28.6667 43.4583C28.2778 44.0417 27.9861 44.6528 27.7917 45.2917C27.5972 45.9306 27.5 46.5972 27.5 47.2917V50H21.6667ZM31.6667 50C31.1944 50 30.7986 49.8403 30.4792 49.5208C30.1597 49.2014 30 48.8056 30 48.3333V47.2917C30 46.4028 30.2431 45.5903 30.7292 44.8542C31.2153 44.1181 31.9028 43.4722 32.7917 42.9167C33.6806 42.3611 34.7431 41.9444 35.9792 41.6667C37.2153 41.3889 38.5556 41.25 40 41.25C41.4722 41.25 42.8264 41.3889 44.0625 41.6667C45.2986 41.9444 46.3611 42.3611 47.25 42.9167C48.1389 43.4722 48.8194 44.1181 49.2917 44.8542C49.7639 45.5903 50 46.4028 50 47.2917V48.3333C50 48.8056 49.8403 49.2014 49.5208 49.5208C49.2014 49.8403 48.8056 50 48.3333 50H31.6667ZM52.5 50V47.2917C52.5 46.5694 52.4097 45.8889 52.2292 45.25C52.0486 44.6111 51.7778 44.0139 51.4167 43.4583C51.7222 43.4028 52.0347 43.3681 52.3542 43.3542C52.6736 43.3403 53 43.3333 53.3333 43.3333C55.3333 43.3333 56.9444 43.7014 58.1667 44.4375C59.3889 45.1736 60 46.1528 60 47.375V48.3333C60 48.8056 59.8403 49.2014 59.5208 49.5208C59.2014 49.8403 58.8056 50 58.3333 50H52.5ZM33.5417 46.6667H46.5C46.2222 46.1111 45.4514 45.625 44.1875 45.2083C42.9236 44.7917 41.5278 44.5833 40 44.5833C38.4722 44.5833 37.0764 44.7917 35.8125 45.2083C34.5486 45.625 33.7917 46.1111 33.5417 46.6667ZM26.6667 41.6667C25.75 41.6667 24.9653 41.3403 24.3125 40.6875C23.6597 40.0347 23.3333 39.25 23.3333 38.3333C23.3333 37.3889 23.6597 36.5972 24.3125 35.9583C24.9653 35.3194 25.75 35 26.6667 35C27.6111 35 28.4028 35.3194 29.0417 35.9583C29.6806 36.5972 30 37.3889 30 38.3333C30 39.25 29.6806 40.0347 29.0417 40.6875C28.4028 41.3403 27.6111 41.6667 26.6667 41.6667ZM53.3333 41.6667C52.4167 41.6667 51.6319 41.3403 50.9792 40.6875C50.3264 40.0347 50 39.25 50 38.3333C50 37.3889 50.3264 36.5972 50.9792 35.9583C51.6319 35.3194 52.4167 35 53.3333 35C54.2778 35 55.0694 35.3194 55.7083 35.9583C56.3472 36.5972 56.6667 37.3889 56.6667 38.3333C56.6667 39.25 56.3472 40.0347 55.7083 40.6875C55.0694 41.3403 54.2778 41.6667 53.3333 41.6667ZM40 40C38.6111 40 37.4306 39.5139 36.4583 38.5417C35.4861 37.5694 35 36.3889 35 35C35 33.5833 35.4861 32.3958 36.4583 31.4375C37.4306 30.4792 38.6111 30 40 30C41.4167 30 42.6042 30.4792 43.5625 31.4375C44.5208 32.3958 45 33.5833 45 35C45 36.3889 44.5208 37.5694 43.5625 38.5417C42.6042 39.5139 41.4167 40 40 40ZM40 36.6667C40.4722 36.6667 40.8681 36.5069 41.1875 36.1875C41.5069 35.8681 41.6667 35.4722 41.6667 35C41.6667 34.5278 41.5069 34.1319 41.1875 33.8125C40.8681 33.4931 40.4722 33.3333 40 33.3333C39.5278 33.3333 39.1319 33.4931 38.8125 33.8125C38.4931 34.1319 38.3333 34.5278 38.3333 35C38.3333 35.4722 38.4931 35.8681 38.8125 36.1875C39.1319 36.5069 39.5278 36.6667 40 36.6667Z" fill="white"/>
</g>
<defs>
<filter id="filter0_f_189_133" x="-130.418" y="-128.535" width="403.979" height="403.98" filterUnits="userSpaceOnUse" color-interpolation-filters="sRGB">
<feFlood flood-opacity="0" result="BackgroundImageFix"/>
<feBlend mode="normal" in="SourceGraphic" in2="BackgroundImageFix" result="shape"/>
<feGaussianBlur stdDeviation="60" result="effect1_foregroundBlur_189_133"/>
</filter>
<filter id="filter1_f_189_133" x="-184.833" y="-187.209" width="370.053" height="370.053" filterUnits="userSpaceOnUse" color-interpolation-filters="sRGB">
<feFlood flood-opacity="0" result="BackgroundImageFix"/>
<feBlend mode="normal" in="SourceGraphic" in2="BackgroundImageFix" result="shape"/>
<feGaussianBlur stdDeviation="60" result="effect1_foregroundBlur_189_133"/>
</filter>
<clipPath id="clip0_189_133">
<rect width="80" height="80" rx="40" fill="white"/>
</clipPath>
</defs>
</svg>
