<svg width="80" height="80" viewBox="0 0 80 80" fill="none" xmlns="http://www.w3.org/2000/svg">
<g clip-path="url(#clip0_189_1394)">
<g filter="url(#filter0_f_189_1394)">
<rect x="73.9468" y="-8.53491" width="116" height="116" transform="rotate(46.6595 73.9468 -8.53491)" fill="#3E03B3"/>
</g>
<g filter="url(#filter1_f_189_1394)">
<rect x="2.07666" y="-67.2092" width="92" height="92" transform="rotate(46.6595 2.07666 -67.2092)" fill="#A1F919"/>
</g>
<path d="M31.4168 40.0001L35.5002 44.0834C35.8335 44.4167 35.9932 44.8056 35.9793 45.2501C35.9654 45.6945 35.8057 46.0834 35.5002 46.4167C35.1668 46.7501 34.771 46.9237 34.3127 46.9376C33.8543 46.9515 33.4585 46.7917 33.1252 46.4584L27.8335 41.1667C27.5002 40.8334 27.3335 40.4445 27.3335 40.0001C27.3335 39.5556 27.5002 39.1667 27.8335 38.8334L33.1252 33.5417C33.4585 33.2084 33.8543 33.0487 34.3127 33.0626C34.771 33.0765 35.1668 33.2501 35.5002 33.5834C35.8057 33.9167 35.9654 34.3056 35.9793 34.7501C35.9932 35.1945 35.8335 35.5834 35.5002 35.9167L31.4168 40.0001ZM31.6668 53.3334V55.0001H48.3335V53.3334H31.6668ZM31.6668 26.6667H48.3335V25.0001H31.6668V26.6667ZM48.5835 40.0001L44.5002 35.9167C44.1668 35.5834 44.0071 35.1945 44.021 34.7501C44.0349 34.3056 44.1946 33.9167 44.5002 33.5834C44.8335 33.2501 45.2293 33.0765 45.6877 33.0626C46.146 33.0487 46.5418 33.2084 46.8752 33.5417L52.1668 38.8334C52.5002 39.1667 52.6668 39.5556 52.6668 40.0001C52.6668 40.4445 52.5002 40.8334 52.1668 41.1667L46.8752 46.4584C46.5418 46.7917 46.146 46.9515 45.6877 46.9376C45.2293 46.9237 44.8335 46.7501 44.5002 46.4167C44.1946 46.0834 44.0349 45.6945 44.021 45.2501C44.0071 44.8056 44.1668 44.4167 44.5002 44.0834L48.5835 40.0001ZM31.6668 58.3334C30.7502 58.3334 29.9654 58.007 29.3127 57.3542C28.6599 56.7015 28.3335 55.9168 28.3335 55.0001V50.0001C28.3335 49.5279 28.4932 49.132 28.8127 48.8126C29.1321 48.4931 29.5279 48.3334 30.0002 48.3334C30.4724 48.3334 30.8682 48.4931 31.1877 48.8126C31.5071 49.132 31.6668 49.5279 31.6668 50.0001H48.3335C48.3335 49.5279 48.4932 49.132 48.8127 48.8126C49.1321 48.4931 49.5279 48.3334 50.0002 48.3334C50.4724 48.3334 50.8682 48.4931 51.1877 48.8126C51.5071 49.132 51.6668 49.5279 51.6668 50.0001V55.0001C51.6668 55.9168 51.3404 56.7015 50.6877 57.3542C50.0349 58.007 49.2502 58.3334 48.3335 58.3334H31.6668ZM31.6668 21.6667H48.3335C49.2502 21.6667 50.0349 21.9931 50.6877 22.6459C51.3404 23.2987 51.6668 24.0834 51.6668 25.0001V30.0001C51.6668 30.4723 51.5071 30.8681 51.1877 31.1876C50.8682 31.507 50.4724 31.6667 50.0002 31.6667C49.5279 31.6667 49.1321 31.507 48.8127 31.1876C48.4932 30.8681 48.3335 30.4723 48.3335 30.0001H31.6668C31.6668 30.4723 31.5071 30.8681 31.1877 31.1876C30.8682 31.507 30.4724 31.6667 30.0002 31.6667C29.5279 31.6667 29.1321 31.507 28.8127 31.1876C28.4932 30.8681 28.3335 30.4723 28.3335 30.0001V25.0001C28.3335 24.0834 28.6599 23.2987 29.3127 22.6459C29.9654 21.9931 30.7502 21.6667 31.6668 21.6667Z" fill="white"/>
</g>
<defs>
<filter id="filter0_f_189_1394" x="-130.418" y="-128.535" width="403.98" height="403.98" filterUnits="userSpaceOnUse" color-interpolation-filters="sRGB">
<feFlood flood-opacity="0" result="BackgroundImageFix"/>
<feBlend mode="normal" in="SourceGraphic" in2="BackgroundImageFix" result="shape"/>
<feGaussianBlur stdDeviation="60" result="effect1_foregroundBlur_189_1394"/>
</filter>
<filter id="filter1_f_189_1394" x="-184.834" y="-187.209" width="370.053" height="370.053" filterUnits="userSpaceOnUse" color-interpolation-filters="sRGB">
<feFlood flood-opacity="0" result="BackgroundImageFix"/>
<feBlend mode="normal" in="SourceGraphic" in2="BackgroundImageFix" result="shape"/>
<feGaussianBlur stdDeviation="60" result="effect1_foregroundBlur_189_1394"/>
</filter>
<clipPath id="clip0_189_1394">
<rect width="80" height="80" rx="40" fill="white"/>
</clipPath>
</defs>
</svg>
