<svg width="80" height="80" viewBox="0 0 80 80" fill="none" xmlns="http://www.w3.org/2000/svg">
<g clip-path="url(#clip0_189_1508)">
<g filter="url(#filter0_f_189_1508)">
<rect x="73.9468" y="-8.53491" width="116" height="116" transform="rotate(46.6595 73.9468 -8.53491)" fill="#3E03B3"/>
</g>
<g filter="url(#filter1_f_189_1508)">
<rect x="2.07666" y="-67.2092" width="92" height="92" transform="rotate(46.6595 2.07666 -67.2092)" fill="#A1F919"/>
</g>
<path d="M34.6667 38.25L38.25 34.625L35.9167 32.25L35.25 32.9167C34.9444 33.2222 34.5625 33.382 34.1042 33.3959C33.6458 33.4097 33.25 33.25 32.9167 32.9167C32.5833 32.5834 32.4167 32.1875 32.4167 31.7292C32.4167 31.2709 32.5833 30.875 32.9167 30.5417L33.5417 29.9167L31.6667 28.0417L28.0417 31.6667L34.6667 38.25ZM48.3333 51.9584L51.9583 48.3334L50.0833 46.4584L49.4167 47.0834C49.0833 47.4167 48.6944 47.5834 48.25 47.5834C47.8056 47.5834 47.4167 47.4167 47.0833 47.0834C46.75 46.75 46.5833 46.3611 46.5833 45.9167C46.5833 45.4722 46.75 45.0834 47.0833 44.75L47.7083 44.0834L45.3333 41.75L41.75 45.3334L48.3333 51.9584ZM26.6667 55C26.1944 55 25.7986 54.8403 25.4792 54.5209C25.1597 54.2014 25 53.8056 25 53.3334V48.625C25 48.4028 25.0417 48.1875 25.125 47.9792C25.2083 47.7709 25.3333 47.5834 25.5 47.4167L32.2917 40.625L25.0833 33.4167C24.6111 32.9445 24.375 32.3611 24.375 31.6667C24.375 30.9722 24.6111 30.3889 25.0833 29.9167L29.9167 25.0834C30.3889 24.6111 30.9722 24.382 31.6667 24.3959C32.3611 24.4097 32.9444 24.6528 33.4167 25.125L40.6667 32.3334L46.9583 26C47.2917 25.6667 47.6667 25.4167 48.0833 25.25C48.5 25.0834 48.9306 25 49.375 25C49.8194 25 50.25 25.0834 50.6667 25.25C51.0833 25.4167 51.4583 25.6667 51.7917 26L54 28.25C54.3333 28.5834 54.5833 28.9584 54.75 29.375C54.9167 29.7917 55 30.2222 55 30.6667C55 31.1111 54.9167 31.5347 54.75 31.9375C54.5833 32.3403 54.3333 32.7084 54 33.0417L47.7083 39.375L54.9167 46.5834C55.3889 47.0556 55.625 47.6389 55.625 48.3334C55.625 49.0278 55.3889 49.6111 54.9167 50.0834L50.0833 54.9167C49.6111 55.3889 49.0278 55.625 48.3333 55.625C47.6389 55.625 47.0556 55.3889 46.5833 54.9167L39.375 47.7084L32.5833 54.5C32.4167 54.6667 32.2292 54.7917 32.0208 54.875C31.8125 54.9584 31.5972 55 31.375 55H26.6667ZM28.3333 51.6667H30.6667L47 35.375L44.625 33L28.3333 49.3334V51.6667ZM45.8333 34.2084L44.625 33L47 35.375L45.8333 34.2084Z" fill="white"/>
</g>
<defs>
<filter id="filter0_f_189_1508" x="-130.418" y="-128.535" width="403.98" height="403.98" filterUnits="userSpaceOnUse" color-interpolation-filters="sRGB">
<feFlood flood-opacity="0" result="BackgroundImageFix"/>
<feBlend mode="normal" in="SourceGraphic" in2="BackgroundImageFix" result="shape"/>
<feGaussianBlur stdDeviation="60" result="effect1_foregroundBlur_189_1508"/>
</filter>
<filter id="filter1_f_189_1508" x="-184.834" y="-187.209" width="370.053" height="370.053" filterUnits="userSpaceOnUse" color-interpolation-filters="sRGB">
<feFlood flood-opacity="0" result="BackgroundImageFix"/>
<feBlend mode="normal" in="SourceGraphic" in2="BackgroundImageFix" result="shape"/>
<feGaussianBlur stdDeviation="60" result="effect1_foregroundBlur_189_1508"/>
</filter>
<clipPath id="clip0_189_1508">
<rect width="80" height="80" rx="40" fill="white"/>
</clipPath>
</defs>
</svg>
