<svg width="40" height="40" viewBox="0 0 40 40" fill="none" xmlns="http://www.w3.org/2000/svg">
<path d="M8.04102 20.042L14.4993 26.5003C14.8049 26.8059 14.9577 27.1948 14.9577 27.667C14.9577 28.1392 14.8049 28.5281 14.4993 28.8337C14.1938 29.1392 13.8049 29.292 13.3327 29.292C12.8605 29.292 12.4716 29.1392 12.166 28.8337L4.49935 21.167C4.33268 21.0003 4.21463 20.8198 4.14518 20.6253C4.07574 20.4309 4.04102 20.2225 4.04102 20.0003C4.04102 19.7781 4.07574 19.5698 4.14518 19.3753C4.21463 19.1809 4.33268 19.0003 4.49935 18.8337L12.166 11.167C12.4993 10.8337 12.8952 10.667 13.3535 10.667C13.8118 10.667 14.2077 10.8337 14.541 11.167C14.8743 11.5003 15.041 11.8962 15.041 12.3545C15.041 12.8128 14.8743 13.2087 14.541 13.542L8.04102 20.042ZM31.9577 19.9587L25.4993 13.5003C25.1938 13.1948 25.041 12.8059 25.041 12.3337C25.041 11.8614 25.1938 11.4725 25.4993 11.167C25.8049 10.8614 26.1938 10.7087 26.666 10.7087C27.1382 10.7087 27.5271 10.8614 27.8327 11.167L35.4993 18.8337C35.666 19.0003 35.7841 19.1809 35.8535 19.3753C35.923 19.5698 35.9577 19.7781 35.9577 20.0003C35.9577 20.2225 35.923 20.4309 35.8535 20.6253C35.7841 20.8198 35.666 21.0003 35.4993 21.167L27.8327 28.8337C27.4993 29.167 27.1105 29.3267 26.666 29.3128C26.2216 29.2989 25.8327 29.1253 25.4993 28.792C25.166 28.4587 24.9993 28.0628 24.9993 27.6045C24.9993 27.1462 25.166 26.7503 25.4993 26.417L31.9577 19.9587Z" fill="white"/>
</svg>
