<svg width="48" height="48" viewBox="0 0 48 48" fill="none" xmlns="http://www.w3.org/2000/svg">
<rect width="48" height="48" rx="24" transform="matrix(-1 0 0 1 48 0)" fill="white" fill-opacity="0.12"/>
<path d="M23.06 12.9401C22.7788 12.6592 22.3975 12.5015 22 12.5015C21.6025 12.5015 21.2213 12.6592 20.94 12.9401L10.94 22.9401C10.6591 23.2214 10.5013 23.6026 10.5013 24.0001C10.5013 24.3976 10.6591 24.7789 10.94 25.0601L20.94 35.0601C21.0773 35.2075 21.2429 35.3257 21.4269 35.4077C21.6109 35.4897 21.8096 35.5338 22.011 35.5373C22.2124 35.5409 22.4124 35.5038 22.5992 35.4284C22.786 35.3529 22.9556 35.2407 23.0981 35.0982C23.2405 34.9558 23.3528 34.7861 23.4282 34.5993C23.5037 34.4126 23.5407 34.2125 23.5372 34.0111C23.5336 33.8097 23.4895 33.6111 23.4076 33.4271C23.3256 33.2431 23.2074 33.0775 23.06 32.9401L15.62 25.5001H36C36.3978 25.5001 36.7794 25.3421 37.0607 25.0608C37.342 24.7795 37.5 24.398 37.5 24.0001C37.5 23.6023 37.342 23.2208 37.0607 22.9395C36.7794 22.6582 36.3978 22.5001 36 22.5001H15.62L23.06 15.0601C23.3409 14.7789 23.4987 14.3976 23.4987 14.0001C23.4987 13.6026 23.3409 13.2214 23.06 12.9401Z" fill="#A1F919"/>
</svg>
