<svg width="48" height="48" viewBox="0 0 48 48" fill="none" xmlns="http://www.w3.org/2000/svg">
<rect width="48" height="48" rx="24" fill="white" fill-opacity="0.12"/>
<path d="M24.94 12.9401C25.2212 12.6592 25.6025 12.5015 26 12.5015C26.3975 12.5015 26.7787 12.6592 27.06 12.9401L37.06 22.9401C37.3409 23.2214 37.4987 23.6026 37.4987 24.0001C37.4987 24.3976 37.3409 24.7789 37.06 25.0601L27.06 35.0601C26.9227 35.2075 26.7571 35.3257 26.5731 35.4077C26.3891 35.4897 26.1904 35.5338 25.989 35.5373C25.7876 35.5409 25.5876 35.5038 25.4008 35.4284C25.214 35.3529 25.0444 35.2407 24.9019 35.0982C24.7595 34.9558 24.6472 34.7861 24.5718 34.5993C24.4963 34.4126 24.4593 34.2125 24.4628 34.0111C24.4664 33.8097 24.5105 33.6111 24.5924 33.4271C24.6744 33.2431 24.7926 33.0775 24.94 32.9401L32.38 25.5001H12C11.6022 25.5001 11.2206 25.3421 10.9393 25.0608C10.658 24.7795 10.5 24.398 10.5 24.0001C10.5 23.6023 10.658 23.2208 10.9393 22.9395C11.2206 22.6582 11.6022 22.5001 12 22.5001H32.38L24.94 15.0601C24.6591 14.7789 24.5013 14.3976 24.5013 14.0001C24.5013 13.6026 24.6591 13.2214 24.94 12.9401Z" fill="#A1F919"/>
</svg>
