<svg width="52" height="52" viewBox="0 0 52 52" fill="none" xmlns="http://www.w3.org/2000/svg">
<rect width="52" height="52" rx="26" fill="white" fill-opacity="0.08"/>
<path d="M26.0912 35.3512L26.0802 35.3532L26.0092 35.3882L25.9892 35.3922L25.9752 35.3882L25.9042 35.3532C25.8936 35.3499 25.8856 35.3515 25.8802 35.3582L25.8762 35.3682L25.8592 35.7962L25.8642 35.8162L25.8742 35.8292L25.9782 35.9032L25.9932 35.9072L26.0052 35.9032L26.1092 35.8292L26.1212 35.8132L26.1252 35.7962L26.1082 35.3692C26.1056 35.3585 26.0999 35.3525 26.0912 35.3512ZM26.3562 35.2382L26.3432 35.2402L26.1582 35.3332L26.1482 35.3432L26.1452 35.3542L26.1632 35.7842L26.1682 35.7962L26.1762 35.8032L26.3772 35.8962C26.3899 35.8995 26.3996 35.8969 26.4062 35.8882L26.4102 35.8742L26.3762 35.2602C26.3729 35.2482 26.3662 35.2409 26.3562 35.2382ZM25.6412 35.2402C25.6368 35.2375 25.6315 35.2367 25.6265 35.2378C25.6215 35.2389 25.6171 35.2419 25.6142 35.2462L25.6082 35.2602L25.5742 35.8742C25.5749 35.8862 25.5806 35.8942 25.5912 35.8982L25.6062 35.8962L25.8072 35.8032L25.8172 35.7952L25.8212 35.7842L25.8382 35.3542L25.8352 35.3422L25.8252 35.3322L25.6412 35.2402Z" fill="white"/>
<path d="M18.0926 17.0772C18.2736 17.0561 18.457 17.085 18.6228 17.1606C18.7887 17.2362 18.9307 17.3557 19.0336 17.5062C20.5096 19.6652 22.2816 20.5632 24.2486 20.7672C24.3446 19.9262 24.5716 19.0952 24.9986 18.3632C25.6246 17.2892 26.6426 16.4992 28.0966 16.2072C30.1066 15.8032 31.6366 16.5312 32.5236 17.4222L34.3156 17.0872C34.5031 17.052 34.6968 17.0713 34.8737 17.1426C35.0506 17.214 35.2035 17.3344 35.3142 17.4898C35.4249 17.6452 35.4888 17.829 35.4985 18.0195C35.5081 18.2101 35.463 18.3994 35.3686 18.5652L33.6486 21.5872C33.8056 25.9482 32.5936 28.9922 30.0096 31.0892C28.6396 32.2012 26.6776 32.8322 24.5246 33.0272C22.3546 33.2232 19.9016 32.9862 17.4636 32.2742C17.2553 32.2134 17.0724 32.0865 16.9425 31.9127C16.8126 31.7389 16.7428 31.5275 16.7436 31.3105C16.7444 31.0935 16.8157 30.8827 16.9469 30.7098C17.078 30.5369 17.2618 30.4114 17.4706 30.3522C18.6966 30.0032 19.6306 29.7022 20.4736 29.1752C19.2746 28.5392 18.3916 27.7072 17.7666 26.7592C16.8986 25.4412 16.5766 23.9712 16.5126 22.6462C16.4486 21.3212 16.6396 20.0932 16.8416 19.2082C16.9566 18.7032 17.0906 18.1972 17.2756 17.7132C17.3408 17.5426 17.4516 17.3931 17.5958 17.281C17.74 17.1688 17.9111 17.0984 18.0926 17.0772Z" fill="white"/>
</svg>
