<svg width="25" height="24" viewBox="0 0 25 24" fill="none" xmlns="http://www.w3.org/2000/svg">
<path d="M4.80775 20.5C4.30258 20.5 3.875 20.325 3.525 19.975C3.175 19.625 3 19.1974 3 18.6923V8.30775C3 7.80258 3.175 7.375 3.525 7.025C3.875 6.675 4.30258 6.5 4.80775 6.5H9V4.80775C9 4.30258 9.175 3.875 9.525 3.525C9.875 3.175 10.3026 3 10.8078 3H14.1923C14.6974 3 15.125 3.175 15.475 3.525C15.825 3.875 16 4.30258 16 4.80775V6.5H20.1923C20.6974 6.5 21.125 6.675 21.475 7.025C21.825 7.375 22 7.80258 22 8.30775V18.6923C22 19.1974 21.825 19.625 21.475 19.975C21.125 20.325 20.6974 20.5 20.1923 20.5H4.80775ZM10.5 6.5H14.5V4.80775C14.5 4.73075 14.4679 4.66025 14.4038 4.59625C14.3398 4.53208 14.2692 4.5 14.1923 4.5H10.8078C10.7308 4.5 10.6603 4.53208 10.5963 4.59625C10.5321 4.66025 10.5 4.73075 10.5 4.80775V6.5ZM20.5 14.75H15V15.596C15 15.8538 14.9138 16.0689 14.7413 16.2413C14.5689 16.4138 14.3538 16.5 14.096 16.5H10.904C10.6462 16.5 10.4311 16.4138 10.2588 16.2413C10.0863 16.0689 10 15.8538 10 15.596V14.75H4.5V18.6923C4.5 18.7692 4.53208 18.8398 4.59625 18.9038C4.66025 18.9679 4.73075 19 4.80775 19H20.1923C20.2693 19 20.3398 18.9679 20.4038 18.9038C20.4679 18.8398 20.5 18.7692 20.5 18.6923V14.75ZM11.5 15H13.5V13H11.5V15ZM4.5 13.25H10V12.404C10 12.1462 10.0863 11.9311 10.2588 11.7587C10.4311 11.5863 10.6462 11.5 10.904 11.5H14.096C14.3538 11.5 14.5689 11.5863 14.7413 11.7587C14.9138 11.9311 15 12.1462 15 12.404V13.25H20.5V8.30775C20.5 8.23075 20.4679 8.16025 20.4038 8.09625C20.3398 8.03208 20.2693 8 20.1923 8H4.80775C4.73075 8 4.66025 8.03208 4.59625 8.09625C4.53208 8.16025 4.5 8.23075 4.5 8.30775V13.25Z" fill="#A5A6A8"/>
</svg>
