<svg width="156" height="156" viewBox="0 0 156 156" fill="none" xmlns="http://www.w3.org/2000/svg">
<g clip-path="url(#clip0_474_370)">
<path d="M156 69.3255H110.383L149.889 46.5166L141.214 31.4852L101.708 54.2941L124.511 14.7914L109.48 6.1102L86.6763 45.6135V0H69.3237V45.6178L46.5112 6.1102L31.4846 14.7871L54.2929 54.2892L14.7865 31.4852L6.1102 46.5124L45.616 69.3213H0V86.6745H45.6117L6.1102 109.483L14.7865 124.515L54.2886 101.71L31.4797 141.213L46.5112 149.89L69.3195 110.383V156H86.672V110.386L109.476 149.89L124.506 141.213L101.699 101.706L141.204 124.515L149.882 109.483L110.379 86.6787H155.991V69.3255H156ZM78 101.601C64.9155 101.601 54.3099 90.9961 54.3099 77.911C54.3099 64.8265 64.9155 54.221 78 54.221C91.0845 54.221 101.689 64.8265 101.689 77.911C101.689 90.9961 91.0845 101.601 78 101.601Z" fill="white"/>
</g>
<defs>
<clipPath id="clip0_474_370">
<rect width="156" height="156" fill="white"/>
</clipPath>
</defs>
</svg>
