<svg width="20" height="20" viewBox="0 0 20 20" fill="none" xmlns="http://www.w3.org/2000/svg">
<path d="M7.46146 9.46321L9.30938 7.60259L7.87021 6.15051L7.36854 6.65217C7.25313 6.76759 7.11021 6.82877 6.93979 6.83571C6.76951 6.84266 6.61972 6.78148 6.49042 6.65217C6.36111 6.52287 6.29646 6.37439 6.29646 6.20676C6.29646 6.03898 6.36111 5.89044 6.49042 5.76113L6.97917 5.27238L5.69708 3.9903L3.83646 5.85092L7.46146 9.46321ZM14.1427 16.157L16.0031 14.2963L14.721 13.0143L14.2196 13.5032C14.0956 13.6271 13.9505 13.6904 13.7844 13.693C13.6183 13.6956 13.4706 13.6324 13.3413 13.5032C13.2121 13.3739 13.1475 13.2275 13.1475 13.064C13.1475 12.9006 13.2121 12.7542 13.3413 12.6249L13.8302 12.1234L12.3863 10.6922L10.5383 12.5401L14.1427 16.157ZM3.67 17.0849C3.45514 17.0849 3.2759 17.013 3.13229 16.8693C2.98854 16.7256 2.91667 16.5464 2.91667 16.3315V14.314C2.91667 14.2136 2.93486 14.118 2.97125 14.0272C3.0075 13.9363 3.06465 13.852 3.14271 13.774L6.57063 10.3461L2.79 6.55759C2.59667 6.36426 2.5 6.1287 2.5 5.85092C2.5 5.57314 2.59667 5.33759 2.79 5.14425L4.99042 2.94384C5.18375 2.7505 5.41931 2.65599 5.69708 2.6603C5.97486 2.66446 6.21042 2.76328 6.40375 2.95675L10.2131 6.74509L13.6475 3.298C13.7768 3.1687 13.9189 3.07308 14.0738 3.01113C14.2286 2.94919 14.3905 2.91821 14.5594 2.91821C14.7281 2.91821 14.8899 2.94919 15.0448 3.01113C15.1998 3.07308 15.3419 3.1687 15.471 3.298L16.7035 4.56738C16.8328 4.69655 16.9271 4.83863 16.9863 4.99363C17.0456 5.14849 17.0752 5.3103 17.0752 5.47905C17.0752 5.64794 17.0456 5.80634 16.9863 5.95426C16.9271 6.10217 16.8328 6.24078 16.7035 6.37009L13.2852 9.80926L17.0577 13.5978C17.251 13.7911 17.3477 14.0267 17.3477 14.3045C17.3477 14.5822 17.251 14.8178 17.0577 15.0111L14.8573 17.2115C14.664 17.4049 14.4284 17.5015 14.1506 17.5015C13.8728 17.5015 13.6373 17.4049 13.444 17.2115L9.65542 13.4309L6.2275 16.8588C6.14958 16.9369 6.06521 16.994 5.97438 17.0303C5.88354 17.0667 5.78792 17.0849 5.6875 17.0849H3.67ZM4.16667 15.8349H5.46958L13.6442 7.67301L12.3285 6.35738L4.16667 14.532V15.8349ZM12.9969 7.01759L12.3285 6.35738L13.6442 7.67301L12.9969 7.01759Z" fill="white" fill-opacity="0.8"/>
</svg>
