<svg width="73" height="72" viewBox="0 0 73 72" fill="none" xmlns="http://www.w3.org/2000/svg">
<rect x="0.666748" width="72" height="72" rx="16" fill="white" fill-opacity="0.08"/>
<rect x="1.16675" y="0.5" width="71" height="71" rx="15.5" stroke="white" stroke-opacity="0.08"/>
<path d="M27.3321 47.6654C27.0483 47.6654 26.8108 47.5696 26.6194 47.378C26.4279 47.1867 26.3321 46.9491 26.3321 46.6654V45.255H26.2038C25.9424 45.1046 25.6762 44.9486 25.4051 44.787C25.1342 44.6255 24.9988 44.3798 24.9988 44.05V40.255C24.9988 39.9713 25.0946 39.7337 25.2861 39.5424C25.4774 39.3508 25.715 39.255 25.9988 39.255H27.6654V29.332C27.6654 27.9509 28.1534 26.7723 29.1294 25.796C30.1057 24.82 31.2843 24.332 32.6654 24.332C34.0466 24.332 35.2252 24.82 36.2014 25.796C37.1774 26.7723 37.6654 27.9509 37.6654 29.332V42.6654C37.6654 43.5014 37.9564 44.2104 38.5384 44.7924C39.1204 45.3744 39.8294 45.6654 40.6654 45.6654C41.5014 45.6654 42.2104 45.3744 42.7924 44.7924C43.3744 44.2104 43.6654 43.5014 43.6654 42.6654V32.7424H41.9988C41.715 32.7424 41.4774 32.6466 41.2861 32.455C41.0946 32.2637 40.9988 32.0261 40.9988 31.7424V27.9474C40.9988 27.6176 41.1342 27.3719 41.4051 27.2104C41.6762 27.0488 41.9424 26.8928 42.2038 26.7424H42.3321V25.332C42.3321 25.0483 42.4279 24.8107 42.6194 24.6194C42.8108 24.4278 43.0483 24.332 43.3321 24.332H45.9988C46.2826 24.332 46.5201 24.4278 46.7114 24.6194C46.903 24.8107 46.9988 25.0483 46.9988 25.332V26.7424H47.1271C47.3884 26.8928 47.6547 27.0488 47.9258 27.2104C48.1967 27.3719 48.3321 27.6176 48.3321 27.9474V31.7424C48.3321 32.0261 48.2363 32.2637 48.0448 32.455C47.8534 32.6466 47.6159 32.7424 47.3321 32.7424H45.6654V42.6654C45.6654 44.0465 45.1774 45.2251 44.2014 46.2014C43.2252 47.1774 42.0466 47.6654 40.6654 47.6654C39.2843 47.6654 38.1057 47.1774 37.1294 46.2014C36.1534 45.2251 35.6654 44.0465 35.6654 42.6654V29.332C35.6654 28.496 35.3744 27.787 34.7924 27.205C34.2104 26.623 33.5014 26.332 32.6654 26.332C31.8294 26.332 31.1204 26.623 30.5384 27.205C29.9564 27.787 29.6654 28.496 29.6654 29.332V39.255H31.3321C31.6159 39.255 31.8534 39.3508 32.0448 39.5424C32.2363 39.7337 32.3321 39.9713 32.3321 40.255V44.05C32.3321 44.3798 32.1967 44.6255 31.9258 44.787C31.6547 44.9486 31.3884 45.1046 31.1271 45.255H30.9988V46.6654C30.9988 46.9491 30.903 47.1867 30.7114 47.378C30.5201 47.5696 30.2826 47.6654 29.9988 47.6654H27.3321Z" fill="#A1F919"/>
</svg>
