<svg width="73" height="72" viewBox="0 0 73 72" fill="none" xmlns="http://www.w3.org/2000/svg">
<rect x="0.333252" width="72" height="72" rx="16" fill="white" fill-opacity="0.08"/>
<rect x="0.833252" y="0.5" width="71" height="71" rx="15.5" stroke="white" stroke-opacity="0.08"/>
<path d="M44.2739 32.4545C43.1512 32.4545 42.1762 32.1197 41.3489 31.45C40.5217 30.7803 39.9702 29.9333 39.6944 28.9091H32.2785C32.0618 29.7364 31.6531 30.4504 31.0524 31.0511C30.4516 31.6519 29.7376 32.0606 28.9103 32.2773V39.6932C29.9346 39.9689 30.7815 40.5205 31.4512 41.3477C32.1209 42.175 32.4558 43.15 32.4558 44.2727C32.4558 45.5727 31.9929 46.6856 31.0671 47.6114C30.1414 48.5371 29.0285 49 27.7285 49C26.4285 49 25.3156 48.5371 24.3899 47.6114C23.4641 46.6856 23.0012 45.5727 23.0012 44.2727C23.0012 43.15 23.3361 42.175 24.0058 41.3477C24.6755 40.5205 25.5224 39.9689 26.5467 39.6932V32.2773C25.5224 32.0015 24.6755 31.45 24.0058 30.6227C23.3361 29.7955 23.0012 28.8303 23.0012 27.7273C23.0012 26.4273 23.4641 25.3144 24.3899 24.3886C25.3156 23.4629 26.4285 23 27.7285 23C28.8315 23 29.7967 23.3348 30.6239 24.0045C31.4512 24.6742 32.0027 25.5212 32.2785 26.5455H39.6944C39.9702 25.5212 40.5217 24.6742 41.3489 24.0045C42.1762 23.3348 43.1512 23 44.2739 23C45.5739 23 46.6868 23.4629 47.6126 24.3886C48.5383 25.3144 49.0012 26.4273 49.0012 27.7273C49.0012 29.0273 48.5383 30.1402 47.6126 31.0659C46.6868 31.9917 45.5739 32.4545 44.2739 32.4545ZM27.7285 46.6364C28.3785 46.6364 28.9349 46.4 29.3978 45.9273C29.8607 45.4545 30.0921 44.903 30.0921 44.2727C30.0921 43.6227 29.8607 43.0663 29.3978 42.6034C28.9349 42.1405 28.3785 41.9091 27.7285 41.9091C27.0982 41.9091 26.5467 42.1405 26.0739 42.6034C25.6012 43.0663 25.3649 43.6227 25.3649 44.2727C25.3649 44.903 25.6012 45.4545 26.0739 45.9273C26.5467 46.4 27.0982 46.6364 27.7285 46.6364ZM27.7285 30.0909C28.3785 30.0909 28.9349 29.8595 29.3978 29.3966C29.8607 28.9337 30.0921 28.3773 30.0921 27.7273C30.0921 27.0773 29.8607 26.5208 29.3978 26.058C28.9349 25.5951 28.3785 25.3636 27.7285 25.3636C27.0982 25.3636 26.5467 25.5951 26.0739 26.058C25.6012 26.5208 25.3649 27.0773 25.3649 27.7273C25.3649 28.3773 25.6012 28.9337 26.0739 29.3966C26.5467 29.8595 27.0982 30.0909 27.7285 30.0909ZM44.2739 49C42.9739 49 41.8611 48.5371 40.9353 47.6114C40.0096 46.6856 39.5467 45.5727 39.5467 44.2727C39.5467 42.9727 40.0096 41.8598 40.9353 40.9341C41.8611 40.0083 42.9739 39.5455 44.2739 39.5455C45.5739 39.5455 46.6868 40.0083 47.6126 40.9341C48.5383 41.8598 49.0012 42.9727 49.0012 44.2727C49.0012 45.5727 48.5383 46.6856 47.6126 47.6114C46.6868 48.5371 45.5739 49 44.2739 49ZM44.2739 46.6364C44.9239 46.6364 45.4804 46.4 45.9433 45.9273C46.4061 45.4545 46.6376 44.903 46.6376 44.2727C46.6376 43.6227 46.4061 43.0663 45.9433 42.6034C45.4804 42.1405 44.9239 41.9091 44.2739 41.9091C43.6239 41.9091 43.0675 42.1405 42.6046 42.6034C42.1418 43.0663 41.9103 43.6227 41.9103 44.2727C41.9103 44.903 42.1418 45.4545 42.6046 45.9273C43.0675 46.4 43.6239 46.6364 44.2739 46.6364ZM44.2739 30.0909C44.9239 30.0909 45.4804 29.8595 45.9433 29.3966C46.4061 28.9337 46.6376 28.3773 46.6376 27.7273C46.6376 27.0773 46.4061 26.5208 45.9433 26.058C45.4804 25.5951 44.9239 25.3636 44.2739 25.3636C43.6239 25.3636 43.0675 25.5951 42.6046 26.058C42.1418 26.5208 41.9103 27.0773 41.9103 27.7273C41.9103 28.3773 42.1418 28.9337 42.6046 29.3966C43.0675 29.8595 43.6239 30.0909 44.2739 30.0909Z" fill="#A1F919"/>
</svg>
