<svg width="72" height="72" viewBox="0 0 72 72" fill="none" xmlns="http://www.w3.org/2000/svg">
<rect width="72" height="72" rx="16" fill="white" fill-opacity="0.08"/>
<rect x="0.5" y="0.5" width="71" height="71" rx="15.5" stroke="white" stroke-opacity="0.08"/>
<path d="M23.4311 47.3848C22.7561 47.3848 22.1821 47.1484 21.7093 46.6756C21.2364 46.2025 21 45.6287 21 44.954V43.8276C21 42.9785 21.2139 42.2365 21.6417 41.6016C22.0692 40.9667 22.6368 40.4697 23.3447 40.1108C24.7048 39.4175 26.1408 38.8565 27.6527 38.428C29.1649 37.9992 30.9477 37.7848 33.0013 37.7848C33.2453 37.7848 33.5084 37.7889 33.7906 37.7972C34.0725 37.8052 34.3356 37.8277 34.5798 37.8648C34.8937 37.9077 35.1574 38.0616 35.3707 38.3264C35.5841 38.5909 35.6692 38.8819 35.626 39.1992C35.583 39.4768 35.4589 39.7181 35.2535 39.9232C35.0484 40.1283 34.7705 40.2257 34.4198 40.2156C34.2393 40.2052 34.0182 40.1975 33.7566 40.1924C33.4949 40.1873 33.2432 40.1848 33.0013 40.1848C31.1077 40.1848 29.4485 40.396 28.0235 40.8184C26.5989 41.2411 25.4065 41.7191 24.4464 42.2524C24.0831 42.4473 23.818 42.6751 23.6511 42.9356C23.4839 43.1961 23.4003 43.4935 23.4003 43.8276V44.9848H34.4166C34.7567 44.9848 35.0418 45.0999 35.2719 45.33C35.5018 45.5599 35.6168 45.8449 35.6168 46.1852C35.6168 46.5255 35.5018 46.8104 35.2719 47.04C35.0418 47.2699 34.7567 47.3848 34.4166 47.3848H23.4311ZM41.7282 45.2064L48.9658 37.9692C49.1874 37.7479 49.466 37.6345 49.8015 37.6292C50.1367 37.6241 50.4203 37.7375 50.6524 37.9692C50.8841 38.2012 51 38.4823 51 38.8124C51 39.1425 50.8841 39.4236 50.6524 39.6556L42.7407 47.5664C42.4514 47.8555 42.1139 48 41.7282 48C41.3426 48 41.0051 47.8555 40.7157 47.5664L37.6046 44.4556C37.3832 44.234 37.2699 43.9555 37.2645 43.62C37.2595 43.2848 37.3728 43.0012 37.6046 42.7692C37.8366 42.5375 38.1177 42.4216 38.4479 42.4216C38.778 42.4216 39.0591 42.5375 39.2912 42.7692L41.7282 45.2064ZM33.0013 35.2C31.4611 35.2 30.1426 34.6517 29.0457 33.5552C27.949 32.4584 27.4007 31.14 27.4007 29.6C27.4007 28.06 27.949 26.7417 29.0457 25.6452C30.1426 24.5484 31.4611 24 33.0013 24C34.5414 24 35.8599 24.5484 36.9565 25.6452C38.0532 26.7417 38.6015 28.06 38.6015 29.6C38.6015 31.14 38.0532 32.4584 36.9565 33.5552C35.8599 34.6517 34.5414 35.2 33.0013 35.2ZM33.0013 32.8C33.8814 32.8 34.6348 32.4867 35.2615 31.86C35.8883 31.2333 36.2016 30.48 36.2016 29.6C36.2016 28.72 35.8883 27.9667 35.2615 27.34C34.6348 26.7133 33.8814 26.4 33.0013 26.4C32.1212 26.4 31.3678 26.7133 30.741 27.34C30.1143 27.9667 29.8009 28.72 29.8009 29.6C29.8009 30.48 30.1143 31.2333 30.741 31.86C31.3678 32.4867 32.1212 32.8 33.0013 32.8Z" fill="#A1F919"/>
</svg>
