<svg width="72" height="72" viewBox="0 0 72 72" fill="none" xmlns="http://www.w3.org/2000/svg">
<rect width="72" height="72" rx="16" fill="white" fill-opacity="0.08"/>
<rect x="0.5" y="0.5" width="71" height="71" rx="15.5" stroke="white" stroke-opacity="0.08"/>
<path d="M35.9987 37.3404C35.2924 37.3404 34.6856 37.0766 34.1783 36.5488C33.6711 36.0211 33.4174 35.3899 33.4174 34.6551C33.4174 33.9206 33.6711 33.2895 34.1783 32.7618C34.6856 32.234 35.2924 31.9702 35.9987 31.9702C36.705 31.9702 37.3118 32.234 37.8191 32.7618C38.3263 33.2895 38.58 33.9206 38.58 34.6551C38.58 35.3899 38.3263 36.0211 37.8191 36.5488C37.3118 37.0766 36.705 37.3404 35.9987 37.3404ZM23.4289 31.4637V42.9539C23.6924 43.3345 24.1155 43.6726 24.698 43.9681C25.2806 44.2636 25.9735 44.486 26.7767 44.6353V32.745C26.0667 32.5957 25.4303 32.4143 24.8675 32.2007C24.3046 31.9874 23.825 31.7417 23.4289 31.4637ZM48.5685 31.4415C48.1724 31.7193 47.6964 31.965 47.1407 32.1785C46.5849 32.3921 45.945 32.5734 45.2207 32.7225V44.6353C46.0239 44.486 46.7168 44.2636 47.2994 43.9681C47.8819 43.6726 48.305 43.3345 48.5685 42.9539V31.4415ZM21.332 43.1445V28.9074C21.332 27.6374 22.5782 26.6688 25.0706 26.0014C27.563 25.3338 31.2057 25 35.9987 25C40.7917 25 44.4344 25.3338 46.9268 26.0014C49.4192 26.6688 50.6654 27.6374 50.6654 28.9074V43.1445C50.6474 43.9965 50.1702 44.7512 49.2337 45.4083C48.2972 46.0658 46.9578 46.5819 45.2155 46.9566C44.6635 47.0778 44.1768 46.945 43.7555 46.5581C43.3344 46.1712 43.1239 45.6906 43.1239 45.1164V32.7756C43.1239 32.2292 43.2928 31.7425 43.6307 31.3157C43.9686 30.8885 44.4 30.6191 44.925 30.5073C45.7639 30.3003 46.468 30.0709 47.0372 29.819C47.6063 29.5674 48.0235 29.2933 48.2889 28.9969C47.4214 28.4449 45.8543 28.0006 43.5877 27.6639C41.3211 27.3274 38.7914 27.1592 35.9987 27.1592C33.1701 27.1592 30.6001 27.3344 28.2887 27.6849C25.9774 28.0355 24.4507 28.4728 23.7085 28.9969C23.956 29.2933 24.3642 29.5711 24.9332 29.8303C25.5025 30.0897 26.2156 30.3227 27.0724 30.5295C27.5974 30.6563 28.0288 30.9257 28.3667 31.3378C28.7046 31.7499 28.8735 32.2292 28.8735 32.7756V45.1164C28.8735 45.6906 28.663 46.1689 28.2419 46.5512C27.8206 46.9335 27.3339 47.0686 26.7819 46.9566C25.0396 46.5819 23.7002 46.0658 22.7637 45.4083C21.8272 44.7512 21.35 43.9965 21.332 43.1445ZM35.9987 38.6829C37.542 38.6829 38.7882 38.9808 39.7373 39.5767C40.6864 40.1725 41.1609 40.9617 41.1609 41.9442C41.1609 42.1682 41.0919 42.3519 40.954 42.4954C40.816 42.6389 40.6394 42.7107 40.4241 42.7107H31.5733C31.358 42.7107 31.1813 42.6389 31.0434 42.4954C30.9055 42.3519 30.8365 42.1682 30.8365 41.9442C30.8365 40.9617 31.311 40.1725 32.2601 39.5767C33.2092 38.9808 34.4554 38.6829 35.9987 38.6829Z" fill="#A1F919"/>
</svg>
