<svg width="60" height="60" viewBox="0 0 60 60" fill="none" xmlns="http://www.w3.org/2000/svg">
<rect width="60" height="60" rx="30" fill="white" fill-opacity="0.08"/>
<path d="M20.5129 42.5006C19.671 42.5006 18.9583 42.2089 18.375 41.6256C17.7917 41.0422 17.5 40.3296 17.5 39.4877V36.2185C17.5 35.8638 17.6197 35.5668 17.8592 35.3277C18.0983 35.0882 18.3953 34.9685 18.75 34.9685C19.1047 34.9685 19.4017 35.0882 19.6408 35.3277C19.8803 35.5668 20 35.8638 20 36.2185V39.4877C20 39.616 20.0535 39.7335 20.1604 39.8402C20.2671 39.9471 20.3846 40.0006 20.5129 40.0006H39.4871C39.6154 40.0006 39.7329 39.9471 39.8396 39.8402C39.9465 39.7335 40 39.616 40 39.4877V36.2185C40 35.8638 40.1197 35.5668 40.3592 35.3277C40.5983 35.0882 40.8953 34.9685 41.25 34.9685C41.6047 34.9685 41.9017 35.0882 42.1408 35.3277C42.3803 35.5668 42.5 35.8638 42.5 36.2185V39.4877C42.5 40.3296 42.2083 41.0422 41.625 41.6256C41.0417 42.2089 40.329 42.5006 39.4871 42.5006H20.5129ZM28.75 22.3147L25.545 25.5197C25.2969 25.7675 25.0026 25.8899 24.6621 25.8868C24.3213 25.8835 24.0215 25.7525 23.7629 25.4939C23.5215 25.2356 23.3965 24.9429 23.3879 24.616C23.3793 24.289 23.5043 23.9963 23.7629 23.7377L28.9454 18.5552C29.1015 18.399 29.2661 18.289 29.4392 18.2252C29.6122 18.161 29.7992 18.1289 30 18.1289C30.2008 18.1289 30.3878 18.161 30.5608 18.2252C30.7339 18.289 30.8985 18.399 31.0546 18.5552L36.2371 23.7377C36.4849 23.9854 36.6072 24.2756 36.6042 24.6081C36.6008 24.9403 36.4785 25.2356 36.2371 25.4939C35.9785 25.7525 35.6815 25.8861 35.3463 25.8947C35.0107 25.9034 34.7136 25.7784 34.455 25.5197L31.25 22.3147V35.0647C31.25 35.4195 31.1303 35.7164 30.8908 35.9556C30.6517 36.195 30.3547 36.3147 30 36.3147C29.6453 36.3147 29.3483 36.195 29.1092 35.9556C28.8697 35.7164 28.75 35.4195 28.75 35.0647V22.3147Z" fill="white"/>
</svg>
