<svg width="40" height="40" viewBox="0 0 40 40" fill="none" xmlns="http://www.w3.org/2000/svg">
<path d="M20.0013 35.7341C19.7449 35.7341 19.4938 35.7048 19.248 35.6462C19.0024 35.5873 18.7653 35.4938 18.5367 35.3658L6.96589 28.9554C6.49172 28.682 6.11519 28.3151 5.8363 27.8545C5.55741 27.394 5.41797 26.8849 5.41797 26.3274V13.6733C5.41797 13.1158 5.55741 12.6067 5.8363 12.1462C6.11519 11.6856 6.49172 11.3187 6.96589 11.0454L18.5367 4.63493C18.7653 4.50688 19.0024 4.41341 19.248 4.35452C19.4938 4.29591 19.7449 4.2666 20.0013 4.2666C20.2577 4.2666 20.5088 4.29591 20.7546 4.35452C21.0002 4.41341 21.2373 4.50688 21.4659 4.63493L33.0367 11.0454C33.5109 11.3187 33.8874 11.6856 34.1663 12.1462C34.4452 12.6067 34.5846 13.1158 34.5846 13.6733V26.3274C34.5846 26.8849 34.4452 27.394 34.1663 27.8545C33.8874 28.3151 33.5109 28.682 33.0367 28.9554L21.4659 35.3658C21.2373 35.4938 21.0002 35.5873 20.7546 35.6462C20.5088 35.7048 20.2577 35.7341 20.0013 35.7341ZM15.248 15.9299C15.8699 15.2269 16.588 14.6879 17.4021 14.3129C18.216 13.9379 19.0824 13.7504 20.0013 13.7504C20.9307 13.7504 21.7999 13.9379 22.6088 14.3129C23.4174 14.6879 24.1327 15.2269 24.7546 15.9299L30.6842 12.6254L20.2576 6.83035C20.1723 6.78757 20.0869 6.76618 20.0013 6.76618C19.9157 6.76618 19.8303 6.78757 19.7451 6.83035L9.31839 12.6254L15.248 15.9299ZM18.7513 32.622V26.1383C17.3069 25.8133 16.1124 25.0873 15.168 23.9604C14.2235 22.8331 13.7513 21.5131 13.7513 20.0004C13.7513 19.6629 13.7732 19.3445 13.8171 19.0454C13.8607 18.7462 13.9349 18.4448 14.0396 18.1412L7.91797 14.712V26.3112C7.91797 26.4073 7.93936 26.4929 7.98214 26.5679C8.02491 26.6426 8.08894 26.7066 8.17422 26.7599L18.7513 32.622ZM20.0013 23.7504C21.0355 23.7504 21.9191 23.384 22.6521 22.6512C23.3849 21.9181 23.7513 21.0345 23.7513 20.0004C23.7513 18.9662 23.3849 18.0826 22.6521 17.3495C21.9191 16.6167 21.0355 16.2504 20.0013 16.2504C18.9671 16.2504 18.0835 16.6167 17.3505 17.3495C16.6177 18.0826 16.2513 18.9662 16.2513 20.0004C16.2513 21.0345 16.6177 21.9181 17.3505 22.6512C18.0835 23.384 18.9671 23.7504 20.0013 23.7504ZM21.2513 32.622L31.8284 26.7599C31.9137 26.7066 31.9777 26.6426 32.0205 26.5679C32.0632 26.4929 32.0846 26.4073 32.0846 26.3112V14.712L25.963 18.1412C26.0677 18.4726 26.1419 18.7809 26.1855 19.0662C26.2294 19.3515 26.2513 19.6629 26.2513 20.0004C26.2513 21.5131 25.7791 22.8331 24.8346 23.9604C23.8902 25.0873 22.6957 25.8133 21.2513 26.1383V32.622Z" fill="#A1F919"/>
</svg>
