<svg width="40" height="40" viewBox="0 0 40 40" fill="none" xmlns="http://www.w3.org/2000/svg">
<path d="M10 34.3586C8.34308 34.3586 6.92461 33.7686 5.74461 32.5886C4.56461 31.4086 3.97461 29.9901 3.97461 28.3332C3.97461 26.6763 4.56461 25.2578 5.74461 24.0778C6.92461 22.8978 8.34308 22.3078 10 22.3078C11.657 22.3078 13.0754 22.8978 14.2554 24.0778C15.4354 25.2578 16.0254 26.6763 16.0254 28.3332C16.0254 29.9901 15.4354 31.4086 14.2554 32.5886C13.0754 33.7686 11.657 34.3586 10 34.3586ZM30 34.3586C28.3431 34.3586 26.9246 33.7686 25.7446 32.5886C24.5646 31.4086 23.9746 29.9901 23.9746 28.3332C23.9746 26.6763 24.5646 25.2578 25.7446 24.0778C26.9246 22.8978 28.3431 22.3078 30 22.3078C31.657 22.3078 33.0754 22.8978 34.2554 24.0778C35.4354 25.2578 36.0254 26.6763 36.0254 28.3332C36.0254 29.9901 35.4354 31.4086 34.2554 32.5886C33.0754 33.7686 31.657 34.3586 30 34.3586ZM10.0004 31.859C10.9702 31.859 11.8002 31.5138 12.4904 30.8232C13.1807 30.1326 13.5259 29.3025 13.5259 28.3328C13.5259 27.3631 13.1806 26.5331 12.49 25.8428C11.7995 25.1525 10.9693 24.8074 9.99961 24.8074C9.02989 24.8074 8.19989 25.1526 7.50961 25.8432C6.81933 26.5338 6.47419 27.3639 6.47419 28.3336C6.47419 29.3033 6.81947 30.1333 7.51003 30.8236C8.20058 31.5139 9.03072 31.859 10.0004 31.859ZM30.0004 31.859C30.9702 31.859 31.8002 31.5138 32.4904 30.8232C33.1807 30.1326 33.5259 29.3025 33.5259 28.3328C33.5259 27.3631 33.1806 26.5331 32.49 25.8428C31.7995 25.1525 30.9693 24.8074 29.9996 24.8074C29.0299 24.8074 28.1999 25.1526 27.5096 25.8432C26.8193 26.5338 26.4742 27.3639 26.4742 28.3336C26.4742 29.3033 26.8195 30.1333 27.51 30.8236C28.2006 31.5139 29.0307 31.859 30.0004 31.859ZM20 17.6919C18.3431 17.6919 16.9246 17.1019 15.7446 15.9219C14.5646 14.7419 13.9746 13.3235 13.9746 11.6665C13.9746 10.0096 14.5646 8.59111 15.7446 7.41111C16.9246 6.23111 18.3431 5.64111 20 5.64111C21.657 5.64111 23.0754 6.23111 24.2554 7.41111C25.4354 8.59111 26.0254 10.0096 26.0254 11.6665C26.0254 13.3235 25.4354 14.7419 24.2554 15.9219C23.0754 17.1019 21.657 17.6919 20 17.6919ZM20.0004 15.1924C20.9702 15.1924 21.8002 14.8471 22.4904 14.1565C23.1807 13.466 23.5259 12.6358 23.5259 11.6661C23.5259 10.6964 23.1806 9.86639 22.49 9.17611C21.7995 8.48583 20.9693 8.1407 19.9996 8.1407C19.0299 8.1407 18.1999 8.48597 17.5096 9.17653C16.8193 9.86708 16.4742 10.6972 16.4742 11.6669C16.4742 12.6367 16.8195 13.4667 17.51 14.1569C18.2006 14.8472 19.0307 15.1924 20.0004 15.1924Z" fill="#A1F919"/>
</svg>
