<svg width="40" height="40" viewBox="0 0 40 40" fill="none" xmlns="http://www.w3.org/2000/svg">
<path d="M17.9167 21.25V24.1508C17.9167 24.5094 18.0381 24.81 18.2808 25.0525C18.5233 25.2953 18.8239 25.4166 19.1825 25.4166H20.8175C21.1828 25.4166 21.485 25.2953 21.7242 25.0525C21.9636 24.81 22.0833 24.5094 22.0833 24.1508V21.25H24.9842C25.3494 21.25 25.6517 21.1286 25.8908 20.8858C26.1303 20.6433 26.25 20.3428 26.25 19.9841V18.3491C26.25 17.9839 26.1303 17.6816 25.8908 17.4425C25.6517 17.203 25.3494 17.0833 24.9842 17.0833H22.0833V14.1825C22.0833 13.8172 21.9636 13.515 21.7242 13.2758C21.485 13.0364 21.1828 12.9166 20.8175 12.9166H19.1825C18.8239 12.9166 18.5233 13.0364 18.2808 13.2758C18.0381 13.515 17.9167 13.8172 17.9167 14.1825V17.0833H15.0158C14.6572 17.0833 14.3567 17.203 14.1142 17.4425C13.8714 17.6816 13.75 17.9839 13.75 18.3491V19.9841C13.75 20.3428 13.8714 20.6433 14.1142 20.8858C14.3567 21.1286 14.6572 21.25 15.0158 21.25H17.9167ZM20 35.6183C19.8269 35.6183 19.6571 35.6044 19.4904 35.5766C19.3237 35.5489 19.1624 35.5072 19.0063 35.4516C15.4915 34.2016 12.6951 31.9854 10.6171 28.8029C8.53903 25.6201 7.5 22.1858 7.5 18.5V10.9937C7.5 10.3607 7.68208 9.79081 8.04625 9.28415C8.41014 8.77776 8.88083 8.41067 9.45833 8.1829L18.9454 4.64123C19.3024 4.5129 19.6539 4.44873 20 4.44873C20.3461 4.44873 20.6976 4.5129 21.0546 4.64123L30.5417 8.1829C31.1192 8.41067 31.5899 8.77776 31.9538 9.28415C32.3179 9.79081 32.5 10.3607 32.5 10.9937V18.5C32.5 22.1858 31.461 25.6201 29.3829 28.8029C27.3049 31.9854 24.5085 34.2016 20.9938 35.4516C20.8376 35.5072 20.6763 35.5489 20.5096 35.5766C20.3429 35.6044 20.1731 35.6183 20 35.6183ZM20 33.1666C22.8889 32.25 25.2778 30.4166 27.1667 27.6666C29.0556 24.9166 30 21.8611 30 18.5V10.9775C30 10.8708 29.9706 10.7747 29.9117 10.6891C29.8531 10.6036 29.7703 10.5394 29.6633 10.4966L20.1763 6.95498C20.1229 6.93359 20.0642 6.9229 20 6.9229C19.9358 6.9229 19.8771 6.93359 19.8237 6.95498L10.3367 10.4966C10.2297 10.5394 10.1469 10.6036 10.0883 10.6891C10.0294 10.7747 10 10.8708 10 10.9775V18.5C10 21.8611 10.9444 24.9166 12.8333 27.6666C14.7222 30.4166 17.1111 32.25 20 33.1666Z" fill="#A1F919"/>
</svg>
