<svg width="40" height="40" viewBox="0 0 40 40" fill="none" xmlns="http://www.w3.org/2000/svg">
<path d="M5.83398 28.5191V16.4904C5.83398 15.7937 6.09051 15.212 6.60357 14.7454C7.11635 14.2784 7.72204 14.0727 8.42065 14.1283C10.5937 14.4616 12.6572 15.1074 14.6111 16.0658C16.5652 17.0241 18.3618 18.2458 20.0007 19.7308C21.6395 18.2458 23.4361 17.0241 25.3902 16.0658C27.3441 15.1074 29.4076 14.4616 31.5806 14.1283C32.2793 14.0727 32.885 14.2784 33.3977 14.7454C33.9108 15.212 34.1673 15.7937 34.1673 16.4904V28.5191C34.1673 29.1836 33.9477 29.7536 33.5086 30.2291C33.0694 30.7044 32.5176 30.9698 31.8532 31.0254C29.9898 31.314 28.2222 31.7751 26.5502 32.4087C24.8783 33.042 23.2773 33.8972 21.7473 34.9741C21.4845 35.1813 21.2086 35.3341 20.9194 35.4324C20.63 35.5308 20.3233 35.5799 19.9994 35.5799C19.6755 35.5799 19.3693 35.5308 19.0807 35.4324C18.7923 35.3341 18.5168 35.1813 18.254 34.9741C16.724 33.8972 15.1257 33.042 13.459 32.4087C11.7923 31.7751 10.022 31.314 8.14815 31.0254C7.48371 30.9698 6.9319 30.7044 6.49273 30.2291C6.05357 29.7536 5.83398 29.1836 5.83398 28.5191ZM20.0007 33.1345C21.7507 31.8398 23.6118 30.8012 25.584 30.0187C27.5562 29.2362 29.584 28.7192 31.6673 28.4679V16.6474C29.5648 17.0086 27.529 17.7244 25.5598 18.7949C23.5909 19.8652 21.7379 21.269 20.0007 23.0062C18.2634 21.269 16.4104 19.8652 14.4415 18.7949C12.4723 17.7244 10.4365 17.0086 8.33398 16.6474V28.4679C10.4173 28.7192 12.4451 29.2362 14.4173 30.0187C16.3895 30.8012 18.2507 31.8398 20.0007 33.1345ZM20.0007 14.6474C18.3437 14.6474 16.9252 14.0574 15.7452 12.8774C14.5652 11.6974 13.9752 10.2788 13.9752 8.62161C13.9752 6.96466 14.5652 5.54619 15.7452 4.36619C16.9252 3.18619 18.3437 2.59619 20.0007 2.59619C21.6576 2.59619 23.0761 3.18619 24.2561 4.36619C25.4361 5.54619 26.0261 6.96466 26.0261 8.62161C26.0261 10.2788 25.4361 11.6974 24.2561 12.8774C23.0761 14.0574 21.6576 14.6474 20.0007 14.6474ZM20.0011 12.1474C20.9708 12.1474 21.8008 11.8022 22.4911 11.1116C23.1813 10.4211 23.5265 9.59091 23.5265 8.62119C23.5265 7.65147 23.1812 6.82147 22.4907 6.13119C21.8001 5.44119 20.97 5.09619 20.0002 5.09619C19.0305 5.09619 18.2005 5.44147 17.5102 6.13202C16.82 6.82258 16.4748 7.65272 16.4748 8.62244C16.4748 9.59216 16.8201 10.422 17.5106 11.112C18.2012 11.8023 19.0313 12.1474 20.0011 12.1474Z" fill="#A1F919"/>
</svg>
