<svg width="32" height="32" viewBox="0 0 32 32" fill="none" xmlns="http://www.w3.org/2000/svg">
<path d="M15.9993 8.37232C16.9173 7.19099 18.0032 6.2781 19.257 5.63366C20.5108 4.98921 21.8249 4.66699 23.1993 4.66699C25.4587 4.66699 27.379 5.45777 28.9603 7.03932C30.5419 8.62066 31.3327 10.541 31.3327 12.8003C31.3327 13.3645 31.2707 13.9214 31.1467 14.471C31.0227 15.0205 30.8539 15.5551 30.6403 16.0747C30.5463 16.3584 30.3779 16.5772 30.135 16.731C29.8923 16.885 29.6306 16.9183 29.3497 16.831C29.0852 16.761 28.8842 16.6089 28.7467 16.3747C28.6091 16.1404 28.5873 15.8927 28.6813 15.6313C28.8813 15.1833 29.0399 14.7234 29.157 14.2517C29.2741 13.7799 29.3327 13.2961 29.3327 12.8003C29.3327 11.0892 28.7382 9.63921 27.5493 8.45033C26.3605 7.26144 24.9105 6.66699 23.1993 6.66699C21.9511 6.66699 20.8165 7.01866 19.7953 7.72199C18.774 8.42555 17.8548 9.25677 17.0377 10.2157C16.7608 10.5508 16.4147 10.7183 15.9993 10.7183C15.584 10.7183 15.2379 10.5508 14.961 10.2157C14.1575 9.25677 13.2408 8.42555 12.211 7.72199C11.1812 7.01866 10.044 6.66699 8.79935 6.66699C7.08824 6.66699 5.63824 7.26144 4.44935 8.45033C3.26046 9.63921 2.66602 11.0892 2.66602 12.8003C2.66602 13.2939 2.72246 13.7792 2.83535 14.2563C2.94802 14.7337 3.10435 15.1962 3.30435 15.644C3.37635 15.8918 3.34779 16.1293 3.21868 16.3567C3.08957 16.584 2.90046 16.7345 2.65135 16.8083C2.3689 16.9005 2.10846 16.8744 1.87002 16.73C1.63157 16.5855 1.46102 16.3714 1.35835 16.0877C1.14479 15.5679 0.976016 15.0319 0.852016 14.4797C0.728016 13.9274 0.666016 13.3677 0.666016 12.8003C0.666016 10.541 1.45679 8.62066 3.03835 7.03932C4.61968 5.45777 6.54002 4.66699 8.79935 4.66699C10.1738 4.66699 11.4879 4.98921 12.7417 5.63366C13.9955 6.2781 15.0813 7.19099 15.9993 8.37232ZM1.82002 28.6927C1.49313 28.6927 1.21902 28.5821 0.997682 28.361C0.776571 28.1397 0.666016 27.8655 0.666016 27.5387V27.067C0.666016 26.4294 0.906682 25.87 1.38802 25.3887C1.86913 24.9075 2.52424 24.549 3.35335 24.313C3.90535 24.1439 4.40402 24.0503 4.84935 24.0323C5.29468 24.0143 5.77546 24.0275 6.29168 24.072C6.4959 24.092 6.64402 24.1863 6.73602 24.355C6.82779 24.5237 6.83779 24.6994 6.76602 24.8823C6.64468 25.1865 6.5549 25.4985 6.49668 25.8183C6.43868 26.1379 6.40968 26.4678 6.40968 26.808V27.4873C6.40968 27.8289 6.29413 28.1151 6.06302 28.346C5.83213 28.5771 5.54602 28.6927 5.20468 28.6927H1.82002ZM8.66602 27.4873V26.8593C8.66602 25.5858 9.34368 24.5644 10.699 23.7953C12.0543 23.026 13.8223 22.6413 16.003 22.6413C18.2039 22.6413 19.9758 23.026 21.3187 23.7953C22.6613 24.5644 23.3327 25.5858 23.3327 26.8593V27.4873C23.3327 27.8289 23.2171 28.1151 22.986 28.346C22.7551 28.5771 22.4689 28.6927 22.1273 28.6927H9.87635C9.52924 28.6927 9.24079 28.5771 9.01101 28.346C8.78102 28.1151 8.66602 27.8289 8.66602 27.4873ZM26.794 28.6927C26.4527 28.6927 26.1666 28.5771 25.9357 28.346C25.7046 28.1151 25.589 27.8289 25.589 27.4873V26.808C25.589 26.4678 25.56 26.1379 25.502 25.8183C25.4438 25.4985 25.354 25.1865 25.2327 24.8823C25.1609 24.6994 25.1709 24.5237 25.2627 24.355C25.3547 24.1863 25.5028 24.092 25.707 24.072C26.2232 24.0275 26.704 24.0143 27.1493 24.0323C27.5947 24.0503 28.0933 24.1439 28.6453 24.313C29.4745 24.549 30.1296 24.9075 30.6107 25.3887C31.092 25.87 31.3327 26.4294 31.3327 27.067V27.5387C31.3327 27.8655 31.2221 28.1397 31.001 28.361C30.7797 28.5821 30.5056 28.6927 30.1787 28.6927H26.794ZM15.9977 24.6413C14.6123 24.6413 13.4219 24.8251 12.4263 25.1927C11.4306 25.5602 10.878 26.0132 10.7687 26.5517V26.6927H21.2507V26.5517C21.1276 26.0132 20.5737 25.5602 19.589 25.1927C18.6046 24.8251 17.4075 24.6413 15.9977 24.6413ZM5.67902 22.731C5.05146 22.731 4.51424 22.5075 4.06735 22.0607C3.62024 21.6138 3.39668 21.0765 3.39668 20.449C3.39668 19.8132 3.62024 19.2761 4.06735 18.8377C4.51424 18.3992 5.05146 18.18 5.67902 18.18C6.31479 18.18 6.85402 18.3992 7.29668 18.8377C7.73957 19.2761 7.96102 19.8132 7.96102 20.449C7.96102 21.0765 7.73957 21.6138 7.29668 22.0607C6.85402 22.5075 6.31479 22.731 5.67902 22.731ZM26.3327 22.731C25.7105 22.731 25.1746 22.5075 24.725 22.0607C24.2755 21.6138 24.0507 21.0765 24.0507 20.449C24.0507 19.8132 24.2755 19.2761 24.725 18.8377C25.1746 18.3992 25.7112 18.18 26.335 18.18C26.9779 18.18 27.5186 18.3992 27.957 18.8377C28.3955 19.2761 28.6147 19.8132 28.6147 20.449C28.6147 21.0765 28.396 21.6138 27.9587 22.0607C27.5213 22.5075 26.9793 22.731 26.3327 22.731ZM16.004 21.6413C15.0436 21.6413 14.2258 21.3048 13.5507 20.6317C12.8756 19.9588 12.538 19.1415 12.538 18.18C12.538 17.1991 12.8745 16.377 13.5473 15.7137C14.2205 15.0501 15.0378 14.7183 15.9993 14.7183C16.98 14.7183 17.8021 15.0497 18.4657 15.7123C19.129 16.3748 19.4607 17.1958 19.4607 18.1753C19.4607 19.1355 19.1295 19.9533 18.467 20.6287C17.8043 21.3038 16.9833 21.6413 16.004 21.6413ZM15.9993 16.7183C15.596 16.7183 15.2516 16.8584 14.966 17.1387C14.6805 17.4187 14.5377 17.7658 14.5377 18.18C14.5377 18.5833 14.6805 18.9278 14.966 19.2133C15.2516 19.4987 15.5981 19.6413 16.0057 19.6413C16.4135 19.6413 16.7579 19.4987 17.039 19.2133C17.3203 18.9278 17.461 18.5811 17.461 18.1733C17.461 17.7658 17.3209 17.4213 17.0407 17.14C16.7605 16.8589 16.4133 16.7183 15.9993 16.7183Z" fill="#A1F919"/>
</svg>
