<svg width="40" height="40" viewBox="0 0 40 40" fill="none" xmlns="http://www.w3.org/2000/svg">
<path d="M6.66797 31.6667V13.3333V31.1538V30.9854V31.6667ZM7.18089 34.1667C6.33894 34.1667 5.6263 33.875 5.04297 33.2917C4.45964 32.7083 4.16797 31.9957 4.16797 31.1538V13.8463C4.16797 13.0043 4.45964 12.2917 5.04297 11.7083C5.6263 11.125 6.33894 10.8333 7.18089 10.8333H14.168V8.01292C14.168 7.17097 14.4596 6.45833 15.043 5.875C15.6263 5.29167 16.3389 5 17.1809 5H22.8217C23.6637 5 24.3763 5.29167 24.9596 5.875C25.543 6.45833 25.8346 7.17097 25.8346 8.01292V10.8333H32.8217C33.6637 10.8333 34.3763 11.125 34.9596 11.7083C35.543 12.2917 35.8346 13.0043 35.8346 13.8463V19.2788C35.8346 19.6335 35.7149 19.9236 35.4755 20.1492C35.2363 20.3744 34.9394 20.4871 34.5846 20.4871C34.2299 20.4871 33.933 20.3675 33.6938 20.1283C33.4544 19.8889 33.3346 19.5918 33.3346 19.2371V13.8463C33.3346 13.6965 33.2866 13.5736 33.1905 13.4775C33.0944 13.3814 32.9714 13.3333 32.8217 13.3333H7.18089C7.03116 13.3333 6.90825 13.3814 6.81214 13.4775C6.71602 13.5736 6.66797 13.6965 6.66797 13.8463V31.1538C6.66797 31.3035 6.71602 31.4264 6.81214 31.5225C6.90825 31.6186 7.03116 31.6667 7.18089 31.6667H18.5913C18.9457 31.6667 19.2427 31.7864 19.4821 32.0258C19.7216 32.265 19.8413 32.5619 19.8413 32.9167C19.8413 33.2714 19.7216 33.5683 19.4821 33.8075C19.2427 34.0469 18.9457 34.1667 18.5913 34.1667H7.18089ZM16.668 10.8333H23.3346V8.01292C23.3346 7.86347 23.2866 7.74056 23.1905 7.64417C23.0944 7.54806 22.9714 7.5 22.8217 7.5H17.1809C17.0312 7.5 16.9082 7.54806 16.8121 7.64417C16.716 7.74056 16.668 7.86347 16.668 8.01292V10.8333ZM30.0013 37.5C27.9202 37.5 26.1499 36.7703 24.6905 35.3108C23.231 33.8514 22.5013 32.0811 22.5013 30C22.5013 27.9189 23.231 26.1486 24.6905 24.6892C26.1499 23.2297 27.9202 22.5 30.0013 22.5C32.0824 22.5 33.8527 23.2297 35.3121 24.6892C36.7716 26.1486 37.5013 27.9189 37.5013 30C37.5013 32.0811 36.7716 33.8514 35.3121 35.3108C33.8527 36.7703 32.0824 37.5 30.0013 37.5ZM30.7384 29.6988V25.8333C30.7384 25.6325 30.6657 25.4594 30.5205 25.3142C30.3752 25.1689 30.2021 25.0963 30.0013 25.0963C29.8005 25.0963 29.6274 25.1689 29.4821 25.3142C29.3369 25.4594 29.2642 25.6325 29.2642 25.8333V29.6729C29.2642 29.8738 29.3005 30.065 29.373 30.2467C29.4457 30.4283 29.5601 30.5972 29.7159 30.7533L32.2321 33.2692C32.3774 33.4144 32.5478 33.4897 32.7434 33.495C32.9389 33.5006 33.1146 33.4253 33.2705 33.2692C33.4266 33.1133 33.5046 32.9403 33.5046 32.75C33.5046 32.5597 33.4266 32.3867 33.2705 32.2308L30.7384 29.6988Z" fill="#A1F919"/>
</svg>
