<svg width="12" height="13" viewBox="0 0 12 13" fill="none" xmlns="http://www.w3.org/2000/svg">
<path d="M2.15387 10.5654C1.90129 10.5654 1.6875 10.4779 1.5125 10.3029C1.3375 10.1279 1.25 9.91414 1.25 9.66155V4.4693C1.25 4.21672 1.3375 4.00293 1.5125 3.82793C1.6875 3.65293 1.90129 3.56543 2.15387 3.56543H4.25V2.7193C4.25 2.46672 4.3375 2.25293 4.5125 2.07793C4.6875 1.90293 4.90129 1.81543 5.15388 1.81543H6.84613C7.09871 1.81543 7.3125 1.90293 7.4875 2.07793C7.6625 2.25293 7.75 2.46672 7.75 2.7193V3.56543H9.84613C10.0987 3.56543 10.3125 3.65293 10.4875 3.82793C10.6625 4.00293 10.75 4.21672 10.75 4.4693V9.66155C10.75 9.91414 10.6625 10.1279 10.4875 10.3029C10.3125 10.4779 10.0987 10.5654 9.84613 10.5654H2.15387ZM2.15387 9.81543H9.84613C9.88463 9.81543 9.91988 9.79939 9.95188 9.7673C9.98396 9.73531 10 9.70005 10 9.66155V4.4693C10 4.4308 9.98396 4.39555 9.95188 4.36355C9.91988 4.33147 9.88463 4.31543 9.84613 4.31543H2.15387C2.11537 4.31543 2.08013 4.33147 2.04813 4.36355C2.01604 4.39555 2 4.4308 2 4.4693V9.66155C2 9.70005 2.01604 9.73531 2.04813 9.7673C2.08013 9.79939 2.11537 9.81543 2.15387 9.81543ZM5 3.56543H7V2.7193C7 2.6808 6.98396 2.64555 6.95188 2.61355C6.91988 2.58147 6.88462 2.56543 6.84613 2.56543H5.15388C5.11538 2.56543 5.08013 2.58147 5.04813 2.61355C5.01604 2.64555 5 2.6808 5 2.7193V3.56543Z" fill="white" fill-opacity="0.8"/>
</svg>
