<svg width="1440" height="660" viewBox="0 0 1440 660" fill="none" xmlns="http://www.w3.org/2000/svg">
<mask id="mask0_2194_3216" style="mask-type:alpha" maskUnits="userSpaceOnUse" x="-34" y="-121" width="1509" height="862">
<mask id="mask1_2194_3216" style="mask-type:luminance" maskUnits="userSpaceOnUse" x="-34" y="-121" width="1509" height="862">
<path d="M1474.02 -120.586H-33.0547V740.006H1474.02V-120.586Z" fill="white"/>
</mask>
<g mask="url(#mask1_2194_3216)">
<path d="M1588.25 852.81H-147.268V-233.398H1588.25V852.81ZM-145.023 850.573H1586.01V-231.155H-145.023V850.573Z" fill="#B3B3B3"/>
<path d="M1587.13 633.781H-146.143V636.025H1587.13V633.781Z" fill="#B3B3B3"/>
<path d="M1587.13 579.578H-146.143V581.821H1587.13V579.578Z" fill="#B3B3B3"/>
<path d="M1587.13 525.383H-146.143V527.626H1587.13V525.383Z" fill="#B3B3B3"/>
<path d="M1587.13 471.188H-146.143V473.431H1587.13V471.188Z" fill="#B3B3B3"/>
<path d="M1587.13 416.984H-146.143V419.228H1587.13V416.984Z" fill="#B3B3B3"/>
<path d="M1587.13 362.781H-146.143V365.025H1587.13V362.781Z" fill="#B3B3B3"/>
<path d="M1587.13 308.586H-146.143V310.829H1587.13V308.586Z" fill="#B3B3B3"/>
<path d="M1587.13 254.391H-146.143V256.634H1587.13V254.391Z" fill="#B3B3B3"/>
<path d="M1587.13 200.188H-146.143V202.431H1587.13V200.188Z" fill="#B3B3B3"/>
<path d="M1587.13 145.992H-146.143V148.235H1587.13V145.992Z" fill="#B3B3B3"/>
<path d="M1587.13 91.7891H-146.143V94.0323H1587.13V91.7891Z" fill="#B3B3B3"/>
<path d="M1587.13 37.5938H-146.143V39.837H1587.13V37.5938Z" fill="#B3B3B3"/>
<path d="M1430.68 -232.273H1428.44V851.698H1430.68V-232.273Z" fill="#B3B3B3"/>
<path d="M1378.16 -232.273H1375.92V851.698H1378.16V-232.273Z" fill="#B3B3B3"/>
<path d="M1325.63 -232.273H1323.39V851.698H1325.63V-232.273Z" fill="#B3B3B3"/>
<path d="M1273.11 -232.273H1270.87V851.698H1273.11V-232.273Z" fill="#B3B3B3"/>
<path d="M1220.58 -232.273H1218.34V851.698H1220.58V-232.273Z" fill="#B3B3B3"/>
<path d="M1168.06 -232.273H1165.82V851.698H1168.06V-232.273Z" fill="#B3B3B3"/>
<path d="M1115.53 -232.273H1113.29V851.698H1115.53V-232.273Z" fill="#B3B3B3"/>
<path d="M1063.01 -232.273H1060.77V851.698H1063.01V-232.273Z" fill="#B3B3B3"/>
<path d="M1010.5 -232.273H1008.26V851.698H1010.5V-232.273Z" fill="#B3B3B3"/>
<path d="M957.974 -232.273H955.729V851.698H957.974V-232.273Z" fill="#B3B3B3"/>
<path d="M905.452 -232.273H903.207V851.698H905.452V-232.273Z" fill="#B3B3B3"/>
<path d="M852.925 -232.273H850.68V851.698H852.925V-232.273Z" fill="#B3B3B3"/>
<path d="M800.403 -232.273H798.158V851.698H800.403V-232.273Z" fill="#B3B3B3"/>
<path d="M747.874 -232.273H745.629V851.698H747.874V-232.273Z" fill="#B3B3B3"/>
<path d="M695.354 -232.273H693.109V851.698H695.354V-232.273Z" fill="#B3B3B3"/>
<path d="M642.833 -232.273H640.588V851.698H642.833V-232.273Z" fill="#B3B3B3"/>
<path d="M590.307 -232.273H588.062V851.698H590.307V-232.273Z" fill="#B3B3B3"/>
<path d="M537.784 -232.273H535.539V851.698H537.784V-232.273Z" fill="#B3B3B3"/>
<path d="M485.259 -232.273H483.014V851.698H485.259V-232.273Z" fill="#B3B3B3"/>
<path d="M432.733 -232.273H430.488V851.698H432.733V-232.273Z" fill="#B3B3B3"/>
<path d="M380.21 -232.273H377.965V851.698H380.21V-232.273Z" fill="#B3B3B3"/>
<path d="M327.688 -232.273H325.443V851.698H327.688V-232.273Z" fill="#B3B3B3"/>
<path d="M275.167 -232.273H272.922V851.698H275.167V-232.273Z" fill="#B3B3B3"/>
<path d="M222.639 -232.273H220.395V851.698H222.639V-232.273Z" fill="#B3B3B3"/>
<path d="M170.122 -232.273H167.877V851.698H170.122V-232.273Z" fill="#B3B3B3"/>
<path d="M117.593 -232.273H115.348V851.698H117.593V-232.273Z" fill="#B3B3B3"/>
<path d="M65.0769 -232.273H62.832V851.698H65.0769V-232.273Z" fill="#B3B3B3"/>
<path d="M12.5476 -232.273H10.3027V851.698H12.5476V-232.273Z" fill="#B3B3B3"/>
</g>
</mask>
<g mask="url(#mask0_2194_3216)">
<rect x="-33.6719" y="-196.82" width="1508.6" height="1006.19" fill="white" fill-opacity="0.01"/>
</g>
</svg>
